<?xml version="1.0" encoding="utf-8"?>
<!-- Generator: Adobe Illustrator 23.0.2, SVG Export Plug-In . SVG Version: 6.00 Build 0)  -->
<svg version="1.1" id="Layer_1" xmlns="http://www.w3.org/2000/svg" xmlns:xlink="http://www.w3.org/1999/xlink" x="0px" y="0px"
	 width="42px" height="42px" viewBox="0 0 42 42" style="enable-background:new 0 0 42 42;" xml:space="preserve">
<style type="text/css">
	.st0{fill:#587D23;}
	.st1{fill:#707070;}
	.st2{fill:none;stroke:#707070;stroke-width:4;stroke-miterlimit:10;}
	.st3{fill:#FF13DC;fill-opacity:0;}
	.st4{fill:#FFFFFF;}
	.st5{fill:#587D23;stroke:#587D23;stroke-miterlimit:10;}
	.st6{opacity:0;fill:#587D23;stroke:#587D23;stroke-miterlimit:10;}
	.st7{fill:#41A3D3;}
	.st8{fill:none;stroke:#1E63A5;stroke-width:3;stroke-linecap:round;stroke-miterlimit:10;}
	.st9{fill:none;stroke:#1E63A5;stroke-width:3;stroke-miterlimit:10;}
	.st10{fill:none;stroke:#FFFFFF;stroke-width:4;stroke-miterlimit:10;}
	.st11{fill:none;stroke:#707070;stroke-width:2;stroke-linecap:round;stroke-linejoin:round;stroke-miterlimit:10;}
	.st12{fill:none;stroke:#000000;stroke-width:3;stroke-linecap:round;stroke-miterlimit:10;}
	.st13{fill:none;stroke:#000000;stroke-width:3;stroke-miterlimit:10;}
	.st14{fill:none;stroke:#707070;stroke-width:8;stroke-linecap:round;stroke-linejoin:round;}
	.st15{fill:none;stroke:#707070;stroke-width:6;stroke-miterlimit:10;}
	.st16{fill:#747677;}
	.st17{fill-rule:evenodd;clip-rule:evenodd;fill:#707070;}
	.st18{fill-rule:evenodd;clip-rule:evenodd;fill:#FFFFFF;}
	.st19{fill:#F4B12A;}
	.st20{fill:none;stroke:#000000;stroke-width:4;stroke-linejoin:round;stroke-miterlimit:10;}
	.st21{opacity:0;fill:#F4B12A;}
	.st22{fill:#24368B;}
	.st23{fill:none;stroke:#000000;stroke-miterlimit:10;}
	.st24{fill:none;stroke:#FFFFFF;stroke-width:6;stroke-miterlimit:10;}
	.st25{fill:#FFFFFF;stroke:#FFFFFF;stroke-miterlimit:10;}
	.st26{fill:none;stroke:#FFFFFF;stroke-width:4;stroke-linecap:round;stroke-linejoin:round;}
	.st27{opacity:0;fill:#587D23;}
	.st28{opacity:0;}
</style>
<g class="st28">
	<path class="st0" d="M1.6,41.8c-0.6,0-1.2-0.5-1.2-1.2V1.4c0-0.6,0.5-1.2,1.2-1.2h39.2c0.6,0,1.2,0.5,1.2,1.2v39.2
		c0,0.6-0.5,1.2-1.2,1.2L1.6,41.8z"/>
	<path class="st0" d="M38.4,1.8c0.3,0,0.6,0.3,0.6,0.6v36.8c0,0.3-0.3,0.6-0.6,0.6H1.6c-0.3,0-0.6-0.3-0.6-0.6V2.4
		c0-0.3,0.3-0.6,0.6-0.6H38.4 M38.4,0.8H1.6C0.7,0.8,0,1.5,0,2.4v36.8c0,0.9,0.7,1.6,1.6,1.6h36.8c0.9,0,1.6-0.7,1.6-1.6V2.4
		C40,1.5,39.3,0.8,38.4,0.8L38.4,0.8z"/>
</g>
<line class="st10" x1="11" y1="20.8" x2="29" y2="20.8"/>
<rect id="Canvas_1_" x="11.9" y="10.9" class="st3" width="18" height="18"/>
<path class="st1" d="M20,5.6L0.6,40.3c-0.3,0.6-0.1,1.3,0.4,1.6C1.2,41.9,1.4,42,1.6,42h38.8c0.6,0,1.2-0.5,1.2-1.2
	c0-0.2-0.1-0.4-0.1-0.6L22,5.6c-0.3-0.6-1-0.8-1.6-0.4C20.2,5.2,20.1,5.4,20,5.6z M23.3,36.8c0,0.3-0.3,0.6-0.6,0.6h-3.5
	c-0.3,0-0.6-0.3-0.6-0.6v-3.5c0-0.3,0.3-0.6,0.6-0.6h3.5c0.3,0,0.6,0.3,0.6,0.6V36.8z M23.3,29.8c0,0.3-0.3,0.6-0.6,0.6h-3.5
	c-0.3,0-0.6-0.3-0.6-0.6V15.9c0-0.3,0.3-0.6,0.6-0.6h3.5c0.3,0,0.6,0.3,0.6,0.6V29.8z"/>
</svg>
