<?xml version="1.0" encoding="utf-8"?>
<!-- Generator: Adobe Illustrator 23.0.2, SVG Export Plug-In . SVG Version: 6.00 Build 0)  -->
<svg version="1.1" id="Layer_1" xmlns="http://www.w3.org/2000/svg" xmlns:xlink="http://www.w3.org/1999/xlink" x="0px" y="0px"
	 width="42px" height="42px" viewBox="0 0 42 42" style="enable-background:new 0 0 42 42;" xml:space="preserve">
<style type="text/css">
	.st0{fill:#707070;}
	.st1{fill:none;stroke:#707070;stroke-width:4;stroke-miterlimit:10;}
	.st2{fill:#FF13DC;fill-opacity:0;}
	.st3{fill:#FFFFFF;}
	.st4{fill:#587D23;stroke:#587D23;stroke-miterlimit:10;}
</style>
<path d="M35.5,21c0-2.9-0.8-5.5-2.3-7.9L13.1,33.2c2.4,1.6,5.1,2.4,7.9,2.4c2,0,3.9-0.4,5.6-1.2c1.8-0.8,3.3-1.8,4.6-3.1
	c1.3-1.3,2.3-2.9,3.1-4.7S35.5,23,35.5,21z M8.9,29L29,8.8c-2.4-1.6-5.1-2.4-8-2.4c-2.6,0-5.1,0.6-7.3,1.9s-4,3.1-5.3,5.3
	S6.5,18.4,6.5,21C6.5,23.9,7.3,26.5,8.9,29z M41.5,21c0,2.8-0.5,5.5-1.6,8s-2.5,4.7-4.4,6.6c-1.8,1.8-4,3.3-6.5,4.4s-5.2,1.6-8,1.6
	s-5.4-0.5-8-1.6s-4.7-2.5-6.5-4.4c-1.8-1.8-3.3-4-4.4-6.6s-1.6-5.2-1.6-8s0.5-5.5,1.6-8s2.5-4.7,4.4-6.6s4-3.3,6.5-4.4
	s5.2-1.6,8-1.6s5.4,0.5,8,1.6s4.7,2.5,6.5,4.4c1.8,1.8,3.3,4,4.4,6.6S41.5,18.2,41.5,21z"/>
</svg>
