<?xml version="1.0" encoding="utf-8"?>
<!-- Generator: Adobe Illustrator 23.0.2, SVG Export Plug-In . SVG Version: 6.00 Build 0)  -->
<svg version="1.1" id="Layer_1" xmlns="http://www.w3.org/2000/svg" xmlns:xlink="http://www.w3.org/1999/xlink" x="0px" y="0px"
	 width="42px" height="42px" viewBox="0 0 42 42" style="enable-background:new 0 0 42 42;" xml:space="preserve">
<style type="text/css">
	.st0{fill:#707070;}
	.st1{fill:none;stroke:#707070;stroke-width:4;stroke-miterlimit:10;}
	.st2{fill:#FF13DC;fill-opacity:0;}
	.st3{fill:#FFFFFF;}
	.st4{fill:#587D23;stroke:#587D23;stroke-miterlimit:10;}
	.st5{opacity:0;fill:#587D23;stroke:#587D23;stroke-miterlimit:10;}
	.st6{fill:#41A3D3;}
	.st7{fill:none;stroke:#1E63A5;stroke-width:3;stroke-linecap:round;stroke-miterlimit:10;}
	.st8{fill:none;stroke:#1E63A5;stroke-width:3;stroke-miterlimit:10;}
	.st9{fill:none;stroke:#FFFFFF;stroke-width:4;stroke-miterlimit:10;}
	.st10{fill:none;stroke:#707070;stroke-width:2;stroke-linecap:round;stroke-linejoin:round;stroke-miterlimit:10;}
	.st11{fill:none;stroke:#000000;stroke-width:3;stroke-linecap:round;stroke-miterlimit:10;}
	.st12{fill:none;stroke:#000000;stroke-width:3;stroke-miterlimit:10;}
	.st13{fill:none;stroke:#707070;stroke-width:8;stroke-linecap:round;stroke-linejoin:round;}
	.st14{fill:none;stroke:#707070;stroke-width:6;stroke-miterlimit:10;}
	.st15{fill:#747677;}
	.st16{fill-rule:evenodd;clip-rule:evenodd;fill:#707070;}
	.st17{fill-rule:evenodd;clip-rule:evenodd;fill:#FFFFFF;}
	.st18{fill:#F4B12A;}
	.st19{fill:none;stroke:#000000;stroke-width:4;stroke-linejoin:round;stroke-miterlimit:10;}
	.st20{opacity:0;fill:#F4B12A;}
	.st21{fill:#587D23;}
</style>
<g>
	<g>
		<path class="st21" d="M1.9,41.5c-0.6,0-1.1-0.5-1.1-1.1V1.9c0-0.6,0.5-1.1,1.1-1.1h38.4c0.6,0,1.1,0.5,1.1,1.1v38.4
			c0,0.6-0.5,1.1-1.1,1.1C40.3,41.5,1.9,41.5,1.9,41.5z"/>
		<path class="st21" d="M40.3,1.3c0.3,0,0.6,0.3,0.6,0.6v38.4c0,0.3-0.3,0.6-0.6,0.6H1.9c-0.3,0-0.6-0.3-0.6-0.6V1.9
			c0-0.3,0.3-0.6,0.6-0.6H40.3 M40.3,0.2H1.9C1,0.2,0.2,1,0.2,1.9v38.4C0.2,41.3,1,42,1.9,42h38.4c0.9,0,1.7-0.7,1.7-1.7V1.9
			C42,1,41.3,0.2,40.3,0.2L40.3,0.2z"/>
	</g>
	<path id="svg_1_3_" class="st3" d="M33.9,14.1c0.5-1.2,0.4-2.8-0.5-3.8l-1.2-1.4c-0.9-1-2.4-1.2-3.5-0.6l0,0l0,0
		c-0.3,0.2-0.5,0.3-0.8,0.6L21.4,16c-0.2,0.3-0.4,0.5-0.5,0.8L17.1,21l-0.4,0.4l-4.1-4.5l0,0l-0.4-0.4l0,0c-1.1-0.8-2.7-0.7-3.6,0.4
		l-1.2,1.3c-1,1.1-1.1,2.8-0.4,4l0,0l0.5,0.6l3,3.3l3,3.3l1.2,1.3l2.1,2.4l2.2-2.4l3.4-3.8l3.8-4.2c0.3-0.2,0.5-0.3,0.8-0.6l6.4-7.1
		C33.6,14.7,33.7,14.4,33.9,14.1L33.9,14.1L33.9,14.1z"/>
</g>
</svg>
