<?xml version="1.0" encoding="utf-8"?>
<!-- Generator: Adobe Illustrator 23.0.2, SVG Export Plug-In . SVG Version: 6.00 Build 0)  -->
<svg version="1.1" id="Layer_1" xmlns="http://www.w3.org/2000/svg" xmlns:xlink="http://www.w3.org/1999/xlink" x="0px" y="0px"
	 width="42px" height="42px" viewBox="0 0 42 42" style="enable-background:new 0 0 42 42;" xml:space="preserve">
<style type="text/css">
	.st0{fill:#707070;}
	.st1{fill:none;stroke:#707070;stroke-width:4;stroke-miterlimit:10;}
</style>
<g>
	<path id="svg_1" class="st0" d="M34.8,11.1l-3.6-3.2c-0.1-0.1-0.3-0.2-0.5-0.2c-0.2,0-0.3,0.1-0.5,0.2L17,26.8c0,0-5.3-5.6-5.4-5.7
		s-0.4-0.4-0.6-0.4c-0.3,0-0.5,0.2-0.5,0.4c-0.1,0.1-2,2.3-2.9,3.4c-0.1,0.1-0.1,0.1-0.1,0.2c-0.1,0.1-0.1,0.3-0.1,0.4
		c0,0.2,0.1,0.3,0.1,0.4l0.2,0.2c0,0,9.3,9.9,9.4,10c0.2,0.2,0.4,0.4,0.6,0.4c0.3,0,0.5-0.3,0.6-0.5L34.9,12
		c0.1-0.1,0.1-0.3,0.1-0.4C35,11.4,34.9,11.2,34.8,11.1L34.8,11.1z"/>
</g>
<rect x="2" y="2" class="st1" width="38" height="38"/>
</svg>
