<?xml version="1.0" encoding="utf-8"?>
<!-- Generator: Adobe Illustrator 23.0.2, SVG Export Plug-In . SVG Version: 6.00 Build 0)  -->
<svg version="1.1" id="Layer_1" xmlns="http://www.w3.org/2000/svg" xmlns:xlink="http://www.w3.org/1999/xlink" x="0px" y="0px"
	 width="42px" height="42px" viewBox="0 0 42 42" style="enable-background:new 0 0 42 42;" xml:space="preserve">
<style type="text/css">
	.st0{fill:#707070;}
	.st1{fill:none;stroke:#707070;stroke-width:4;stroke-miterlimit:10;}
	.st2{fill:#FF13DC;fill-opacity:0;}
	.st3{fill:#FFFFFF;}
	.st4{fill:#587D23;stroke:#587D23;stroke-miterlimit:10;}
</style>
<g>
	<ellipse class="st4" cx="21" cy="21" rx="20.2" ry="20.2"/>
	<path class="st3" d="M33.4,12.1L30,9.4c0,0-0.2-0.2-0.5-0.2c-0.2,0-0.2,0-0.5,0.2L16.9,25c0,0-4.7-4.7-4.9-4.7
		c-0.2-0.2-0.2-0.4-0.7-0.4c-0.4,0-0.4,0.2-0.4,0.2s-1.8,1.8-2.7,2.7c0,0,0,0-0.2,0.2c0,0-0.2,0.2-0.2,0.4s0,0.2,0.2,0.4l0.2,0.2
		c0,0,8.3,8,8.5,8.2c0.2,0.2,0.2,0.2,0.5,0.2c0.2,0,0.5-0.2,0.5-0.4l15.1-19.4c0,0,0.2-0.2,0.2-0.4C33.4,12.3,33.4,12.1,33.4,12.1z"
		/>
</g>
</svg>
