<?xml version="1.0" encoding="utf-8"?>
<!-- Generator: Adobe Illustrator 23.0.2, SVG Export Plug-In . SVG Version: 6.00 Build 0)  -->
<svg version="1.1" id="Layer_1" xmlns="http://www.w3.org/2000/svg" xmlns:xlink="http://www.w3.org/1999/xlink" x="0px" y="0px"
	 width="42px" height="42px" viewBox="0 0 42 42" style="enable-background:new 0 0 42 42;" xml:space="preserve">
<style type="text/css">
	.st0{fill:#707070;}
	.st1{fill:none;stroke:#707070;stroke-width:4;stroke-miterlimit:10;}
	.st2{fill:#FF13DC;fill-opacity:0;}
	.st3{fill:#FFFFFF;}
	.st4{fill:#587D23;stroke:#587D23;stroke-miterlimit:10;}
	.st5{opacity:0;fill:#587D23;stroke:#587D23;stroke-miterlimit:10;}
	.st6{fill:#41A3D3;}
	.st7{fill:none;stroke:#1E63A5;stroke-width:3;stroke-linecap:round;stroke-miterlimit:10;}
	.st8{fill:none;stroke:#1E63A5;stroke-width:3;stroke-miterlimit:10;}
	.st9{fill:none;stroke:#FFFFFF;stroke-width:4;stroke-miterlimit:10;}
	.st10{fill:none;stroke:#707070;stroke-width:2;stroke-linecap:round;stroke-linejoin:round;stroke-miterlimit:10;}
	.st11{fill:none;stroke:#000000;stroke-width:3;stroke-linecap:round;stroke-miterlimit:10;}
	.st12{fill:none;stroke:#000000;stroke-width:3;stroke-miterlimit:10;}
	.st13{fill:none;stroke:#707070;stroke-width:8;stroke-linecap:round;stroke-linejoin:round;}
	.st14{fill:none;stroke:#707070;stroke-width:6;stroke-miterlimit:10;}
	.st15{fill:#747677;}
	.st16{fill-rule:evenodd;clip-rule:evenodd;fill:#707070;}
	.st17{fill-rule:evenodd;clip-rule:evenodd;fill:#FFFFFF;}
	.st18{fill:#F4B12A;}
	.st19{fill:none;stroke:#000000;stroke-width:4;stroke-linejoin:round;stroke-miterlimit:10;}
	.st20{opacity:0;fill:#F4B12A;}
	.st21{fill:#587D23;}
	.st22{fill:#24368B;}
	.st23{fill:none;stroke:#000000;stroke-miterlimit:10;}
</style>
<g id="Page-1_3_">
	<g id="icon-40-checkered-flag_1_">
		<path id="checkered-flag_1_" class="st17" d="M25.7,8.9c-1.4-0.2-2.8-0.5-4.1-1c-1.3-0.4-2.5-0.7-3.9-0.9l0,0v4.7
			c-2.6-0.4-5.5-0.3-8,0.2l-0.1,5l0,0c2.5-0.7,5.4-0.8,8.1-0.3v4.8c1.4,0.2,2.7,0.5,4,0.9c1.3,0.4,2.6,0.8,4,1l0,0v-4.8
			c2.6,0.4,5.5,0.3,8.1-0.3l0,0l0.1-4.9l0,0c-2.5,0.7-5.4,0.9-8.1,0.4L25.7,8.9L25.7,8.9z M8.1,16.1L7.8,36.6h1.6l0.1-13.8
			c4-0.9,8.3-0.7,12.1,0.6c8,2.7,13.7,0.1,13.7,0.1l0.2-16.8c0,0-5.6,2.6-13.7-0.1S8.1,6.5,8.1,6.5L8.1,16.1z M17.7,11.7v4.9
			c1.4,0.3,4.5,1.2,4.5,1.2s2.1,0.3,3.4,0.7l0.1-4.8c-1.5-0.3-4.3-1.2-4.3-1.2S19.1,12,17.7,11.7z"/>
	</g>
</g>
<line class="st23" x1="7.5" y1="7.6" x2="7.5" y2="37.6"/>
<line class="st9" x1="8" y1="6.4" x2="8" y2="37.7"/>
</svg>
