<?xml version="1.0" encoding="utf-8"?>
<!-- Generator: Adobe Illustrator 23.0.2, SVG Export Plug-In . SVG Version: 6.00 Build 0)  -->
<svg version="1.1" xmlns="http://www.w3.org/2000/svg" xmlns:xlink="http://www.w3.org/1999/xlink" x="0px" y="0px" width="42px"
	 height="42px" viewBox="0 0 42 42" style="enable-background:new 0 0 42 42;" xml:space="preserve">
<style type="text/css">
	.st0{fill:none;stroke:#707070;stroke-miterlimit:10;}
	.st1{fill:none;stroke:#707070;stroke-width:0.75;stroke-miterlimit:10;}
</style>
<g id="Layer_2">
</g>
<g id="Layer_8">
</g>
<g id="Layer_12">
</g>
<g id="Layer_15">
</g>
<g id="Layer_16">
</g>
<g id="Layer_17">
</g>
<g id="Layer_18">
</g>
<g id="Layer_19">
</g>
<g id="Layer_20">
</g>
<g id="Layer_21">
</g>
<g id="Layer_22">
</g>
<g id="Layer_23">
</g>
<g id="Layer_24">
</g>
<g id="Layer_25">
</g>
<g id="Layer_26">
</g>
<g id="Layer_27">
</g>
<g id="Layer_28">
</g>
<g id="Layer_29">
</g>
<g id="Layer_30">
</g>
<g id="Layer_31">
</g>
<g id="Layer_32">
</g>
<g id="Layer_33">
</g>
<g id="Layer_34">
</g>
<g id="Layer_35">
</g>
<g id="Layer_13">
</g>
<g id="Layer_14">
</g>
<g id="Layer_4">
</g>
<g id="Layer_9">
</g>
<g id="Layer_10">
</g>
<g id="Layer_11">
</g>
<g id="Layer_5">
</g>
<g id="Layer_6">
</g>
<g id="Layer_7">
</g>
<g id="Layer_3">
	<g>
		<path class="st0" d="M22.6,41.1c-2.2-4.3-3.4-9.1-3.4-14c0-2.4,0.3-4.7,0.4-7.1c0.1-3.1-0.3-6.2-0.7-9.3"/>
		<path class="st0" d="M19,12.2c-0.2-2.1,1.2-3.9,1.3-6c0.1-1.3-0.3-2.6-1.1-3.6s-2-1.6-3.2-1.7"/>
		<path class="st0" d="M19.4,23.6c-2.6-5-5.9-9.7-9.7-13.9"/>
		<path class="st0" d="M18.7,10.8c-1-3.1-1.7-6.3-2.3-9.5"/>
		<path class="st0" d="M22.3,12.4c1.9-3.3,4.5-6.3,7.4-8.7"/>
		<path class="st0" d="M22.6,23.7c0.1-0.7,0.6-1.3,1-1.8c2.2-2.7,5-4.9,8.1-6.4"/>
		<path class="st0" d="M17.1,4.2c0.5-0.7,1-1.4,1.4-2.2"/>
		<path class="st0" d="M17.9,6.2C18.3,6,18.7,5.5,19,5c0.3-0.5,0.4-1.1,0.6-1.7"/>
		<path class="st0" d="M18,8.5c0.2-0.4,0.6-0.7,0.9-1c0.4-0.3,0.7-0.7,1-1c0.3-0.4,0.5-0.8,0.4-1.2"/>
		<path class="st0" d="M23.2,10.9c0.7-0.6,1.7-0.9,2.5-1.2c0.4-0.1,0.8-0.3,1.2-0.3c0.4,0,0.8,0,1.1,0.2"/>
		<path class="st0" d="M24.3,10c0.2-0.4,0.4-0.7,0.6-1c0.4-0.5,0.9-0.9,1.5-1.2c0.9-0.4,2-0.2,3-0.6"/>
		<path class="st1" d="M26.4,7.5c0.1-0.2,0.2-0.3,0.3-0.4c0.4-0.3,0.8-0.6,1.3-0.8S29,6,29.5,6"/>
		<path class="st1" d="M15.3,16.6c0.1-0.8,0.2-1.6,0.4-2.4"/>
		<path class="st1" d="M14,15c0-1.2,0.1-2.4,0.4-3.5"/>
		<path class="st1" d="M12.3,12.6c-0.2-1-0.1-2,0.4-2.9"/>
		<path class="st1" d="M11.1,11.3c0.1-0.3,0.1-0.7,0.1-1.1c0-0.4,0-0.8-0.2-1c-0.1-0.2-0.2-0.2-0.3-0.2"/>
		<path class="st1" d="M24.3,21.3c0.5-0.2,1-0.3,1.6-0.2c0.6,0.1,1.1,0.4,1.7,0.5c1,0.2,2-0.2,2.7-0.9"/>
		<path class="st1" d="M26,19.6c1,0.2,2,0.4,3,0.6c0.6,0.1,1.4,0.2,1.9-0.2"/>
		<path class="st1" d="M27.2,18.5c0.5-0.1,1.1-0.3,1.6-0.2c0.4,0.1,0.8,0.3,1.2,0.5c0.5,0.2,1.1,0.2,1.7,0"/>
		<path class="st1" d="M28.4,17.5c0.4-0.4,1.1-0.7,1.8-0.7c0.7,0,1.4,0.1,2,0.3"/>
		<path class="st1" d="M15.6,27.3c-0.4-0.3-0.6-0.8-0.6-1.3c0-0.5,0.1-1,0.2-1.4c0.1-0.5,0.2-1,0.1-1.4"/>
		<path class="st1" d="M13.5,24.9c-0.3-1.3-0.3-2.8,0.2-4.1"/>
		<path class="st1" d="M12.4,23.9c-0.5-0.4-0.8-1.1-0.8-1.7c0-0.3,0.1-0.6,0.1-1c0-0.3,0-0.7-0.1-0.9"/>
		<path class="st1" d="M11.5,22.7c-0.4-0.1-0.6-0.5-0.7-0.9s-0.2-0.7-0.4-1.1"/>
		<path class="st0" d="M16.9,19.3c-0.4-3.1-0.8-6.3-2.9-8.6c-0.6-0.7-1.4-1.3-2.3-1.5S9.8,9.1,9.1,9.7"/>
		<path class="st0" d="M16.9,19.3c-1.5-1.4-4-1.1-5.6-2.4c-0.9-0.7-1.3-1.9-1.5-3c-0.4-1.5-0.5-3.1-0.5-4.6"/>
		<path class="st0" d="M19.2,28.5c0.4-1.9,1.7-3.7,3.5-4.4c1.1-0.5,2.3-0.6,3.4-0.9c1.8-0.5,3.5-1.5,4.6-3c1.2-1.5,1.8-3.4,1.6-5.3"
			/>
		<path class="st0" d="M9.6,21.1c3.7,3.5,7.1,7.4,10.1,11.6"/>
		<path class="st0" d="M17.6,30c-2.4-0.5-4.9-1.3-6.7-2.9c-1.8-1.6-2.8-4.2-1.9-6.4"/>
		<path class="st0" d="M17.3,29.6c-0.3-2.6-1.1-5.1-2.4-7.3c-0.4-0.7-0.9-1.4-1.7-1.8c-1.4-0.7-3-0.1-4.4,0.5"/>
		<path class="st0" d="M22.5,23.6c-0.4-0.7-0.4-1.7-0.1-2.5c0.3-0.8,0.7-1.5,1.2-2.2c0.8-1.3,1.7-2.7,3.1-3.4
			c1.6-0.8,3.6-0.6,5.4-0.3c0.1,0,0.2,0,0.3,0"/>
		<path class="st0" d="M19.7,18c0.7-0.7,1.1-2,1.3-3s0.6-2,1.4-2.5c0.5-0.3,1.2-0.4,1.8-0.5c1-0.1,2.1-0.5,3-1.1
			c1.1-0.8,2-2.1,2.4-3.5s0.4-2.9,0.1-4.3"/>
		<path class="st0" d="M21.7,12.9c-0.6-2.4,0-5,1.7-6.8s4.2-2.9,6.7-2.6"/>
		<path class="st0" d="M18.9,11.5c-1.2-0.8-2.4-1.7-3.2-2.9S14.3,6,14.4,4.6c0.1-1.5,0.8-2.9,2-3.7"/>
	</g>
</g>
</svg>
