<?xml version="1.0" encoding="utf-8"?>
<!-- Generator: Adobe Illustrator 23.0.2, SVG Export Plug-In . SVG Version: 6.00 Build 0)  -->
<svg version="1.1" id="Layer_1" xmlns="http://www.w3.org/2000/svg" xmlns:xlink="http://www.w3.org/1999/xlink" x="0px" y="0px"
	 width="42px" height="42px" viewBox="0 0 42 42" style="enable-background:new 0 0 42 42;" xml:space="preserve">
<style type="text/css">
	.st0{fill:#707070;}
	.st1{fill:none;stroke:#707070;stroke-width:4;stroke-miterlimit:10;}
	.st2{fill:#FF13DC;fill-opacity:0;}
	.st3{fill:#FFFFFF;}
	.st4{fill:#587D23;stroke:#587D23;stroke-miterlimit:10;}
	.st5{opacity:0;fill:#587D23;stroke:#587D23;stroke-miterlimit:10;}
	.st6{fill:#41A3D3;}
	.st7{fill:none;stroke:#1E63A5;stroke-width:3;stroke-linecap:round;stroke-miterlimit:10;}
	.st8{fill:none;stroke:#1E63A5;stroke-width:3;stroke-miterlimit:10;}
	.st9{fill:none;stroke:#FFFFFF;stroke-width:4;stroke-miterlimit:10;}
	.st10{fill:none;stroke:#707070;stroke-width:2;stroke-linecap:round;stroke-linejoin:round;stroke-miterlimit:10;}
	.st11{fill:none;stroke:#000000;stroke-width:3;stroke-linecap:round;stroke-miterlimit:10;}
	.st12{fill:none;stroke:#000000;stroke-width:3;stroke-miterlimit:10;}
	.st13{fill:none;stroke:#707070;stroke-width:8;stroke-linecap:round;stroke-linejoin:round;}
</style>
<path class="st0" d="M37,21h-3.5v-9l0,0c0-6.4-5.6-11.5-12.5-11.5S8.5,5.6,8.5,11.9l0,0v9H5c-0.8,0-1.4,0.6-1.4,1.3v18
	c0,0.7,0.6,1.3,1.4,1.3h32c0.8,0,1.4-0.6,1.4-1.3v-18C38.4,21.5,37.8,21,37,21z M13.3,11.9C13.3,11.9,13.4,11.9,13.3,11.9
	c0-3.8,3.5-7,7.6-7s7.6,3.2,7.6,7l0,0v9H13.3V11.9z M23.6,34.5h-5.2l1.7-4.5c-1.1-0.4-1.8-1.3-1.8-2.4c0-1.4,1.2-2.6,2.8-2.6
	c1.5,0,2.8,1.1,2.8,2.6c0,1.1-0.8,2.1-1.8,2.4L23.6,34.5z"/>
</svg>
