<?xml version="1.0" encoding="utf-8"?>
<!-- Generator: Adobe Illustrator 23.0.2, SVG Export Plug-In . SVG Version: 6.00 Build 0)  -->
<svg version="1.1" id="Layer_1" xmlns="http://www.w3.org/2000/svg" xmlns:xlink="http://www.w3.org/1999/xlink" x="0px" y="0px"
	 width="42px" height="42px" viewBox="0 0 42 42" style="enable-background:new 0 0 42 42;" xml:space="preserve">
<style type="text/css">
	.st0{fill:#707070;}
	.st1{fill:none;stroke:#707070;stroke-width:4;stroke-miterlimit:10;}
	.st2{fill:#FF13DC;fill-opacity:0;}
	.st3{fill:#FFFFFF;}
	.st4{fill:#587D23;stroke:#587D23;stroke-miterlimit:10;}
	.st5{opacity:0;fill:#587D23;stroke:#587D23;stroke-miterlimit:10;}
	.st6{fill:#41A3D3;}
	.st7{fill:none;stroke:#1E63A5;stroke-width:3;stroke-linecap:round;stroke-miterlimit:10;}
	.st8{fill:none;stroke:#1E63A5;stroke-width:3;stroke-miterlimit:10;}
	.st9{fill:none;stroke:#FFFFFF;stroke-width:4;stroke-miterlimit:10;}
	.st10{fill:none;stroke:#707070;stroke-width:2;stroke-linecap:round;stroke-linejoin:round;stroke-miterlimit:10;}
	.st11{fill:none;stroke:#000000;stroke-width:3;stroke-linecap:round;stroke-miterlimit:10;}
	.st12{fill:none;stroke:#000000;stroke-width:3;stroke-miterlimit:10;}
	.st13{fill:none;stroke:#707070;stroke-width:8;stroke-linecap:round;stroke-linejoin:round;}
	.st14{fill:none;stroke:#707070;stroke-width:6;stroke-miterlimit:10;}
</style>
<g>
	<path id="note-text" class="st6" d="M2.9,10.9v27.3c0,1,0.8,1.8,1.7,1.8h24v-9.1c0-2,1.5-3.6,3.4-3.6h6.9V10.9L2.9,10.9L2.9,10.9
		C2.9,10.9,2.9,10.9,2.9,10.9z M2.9,9.1V3.6c0-1,0.8-1.8,1.7-1.8h32.5c0.9,0,1.7,0.8,1.7,1.8v5.4H2.9C2.9,9.1,2.9,9.1,2.9,9.1z
		 M29.5,41.8H4.6c-1.9,0-3.4-1.6-3.4-3.6V3.6c0-2,1.5-3.6,3.4-3.6h32.5c1.9,0,3.4,1.6,3.4,3.6v24.6v0.9L30.3,41.8H29.5L29.5,41.8
		L29.5,41.8z M30.3,39.1v-8.2c0-1,0.8-1.8,1.7-1.8h6.3L30.3,39.1L30.3,39.1z M6.4,16.4v1.8h29.1v-1.8H6.4L6.4,16.4z M6.4,21.8v1.8
		h29.1v-1.8H6.4L6.4,21.8z M6.4,27.3v1.8h18.8v-1.8H6.4L6.4,27.3z M6.4,32.7v1.8h18.8v-1.8H6.4L6.4,32.7z"/>
</g>
</svg>
