<?xml version="1.0" encoding="utf-8"?>
<!-- Generator: Adobe Illustrator 23.0.2, SVG Export Plug-In . SVG Version: 6.00 Build 0)  -->
<svg version="1.1" id="Layer_1" xmlns="http://www.w3.org/2000/svg" xmlns:xlink="http://www.w3.org/1999/xlink" x="0px" y="0px"
	 width="42px" height="42px" viewBox="0 0 42 42" style="enable-background:new 0 0 42 42;" xml:space="preserve">
<style type="text/css">
	.st0{fill:#707070;}
	.st1{fill:none;stroke:#707070;stroke-width:4;stroke-miterlimit:10;}
	.st2{fill:#FF13DC;fill-opacity:0;}
	.st3{fill:#FFFFFF;}
	.st4{fill:#587D23;stroke:#587D23;stroke-miterlimit:10;}
	.st5{opacity:0;fill:#587D23;stroke:#587D23;stroke-miterlimit:10;}
	.st6{fill:#41A3D3;}
	.st7{fill:none;stroke:#1E63A5;stroke-width:3;stroke-linecap:round;stroke-miterlimit:10;}
	.st8{fill:none;stroke:#1E63A5;stroke-width:3;stroke-miterlimit:10;}
	.st9{fill:none;stroke:#FFFFFF;stroke-width:4;stroke-miterlimit:10;}
	.st10{fill:none;stroke:#707070;stroke-width:2;stroke-linecap:round;stroke-linejoin:round;stroke-miterlimit:10;}
	.st11{fill:none;stroke:#000000;stroke-width:3;stroke-linecap:round;stroke-miterlimit:10;}
	.st12{fill:none;stroke:#000000;stroke-width:3;stroke-miterlimit:10;}
	.st13{fill:none;stroke:#707070;stroke-width:8;stroke-linecap:round;stroke-linejoin:round;}
	.st14{fill:none;stroke:#707070;stroke-width:6;stroke-miterlimit:10;}
</style>
<g>
	<g>
		<g>
			<path class="st0" d="M1.1,41.5c0.2-9,6.7-16.9,15.5-19c1.3,0.6,2.7,0.9,4.2,0.9c1.6,0,3-0.3,4.3-1c9,1.8,15.6,9.8,15.8,19.1H1.1z
				"/>
			<path class="st0" d="M25.2,23c8.6,1.8,14.9,9.3,15.4,18.1H1.7c0.4-8.6,6.6-15.9,15-18c1.4,0.6,2.7,0.9,4.2,0.9
				C22.3,23.9,23.7,23.6,25.2,23 M25,22c-1.3,0.7-2.7,1-4.3,1c-1.5,0-2.8-0.3-4.1-1c-9.1,2-16,10.2-16,20h40.8
				C41.4,32.1,34.4,23.8,25,22L25,22z"/>
		</g>
	</g>
	<g>
		<circle class="st0" cx="21" cy="10.1" r="9"/>
		<path class="st0" d="M21,1.6c4.7,0,8.6,3.8,8.6,8.6s-3.8,8.6-8.6,8.6s-8.6-3.8-8.6-8.6S16.3,1.6,21,1.6 M21,0.6
			c-5.2,0-9.5,4.3-9.5,9.5s4.3,9.5,9.5,9.5s9.5-4.3,9.5-9.5S26.2,0.6,21,0.6L21,0.6z"/>
	</g>
</g>
</svg>
