<?xml version="1.0" encoding="utf-8"?>
<!-- Generator: Adobe Illustrator 23.0.2, SVG Export Plug-In . SVG Version: 6.00 Build 0)  -->
<svg version="1.1" id="Layer_1" xmlns="http://www.w3.org/2000/svg" xmlns:xlink="http://www.w3.org/1999/xlink" x="0px" y="0px"
	 width="42px" height="42px" viewBox="0 0 42 42" style="enable-background:new 0 0 42 42;" xml:space="preserve">
<style type="text/css">
	.st0{fill:#747677;}
	.st1{fill:#707070;}
	.st2{fill:none;stroke:#707070;stroke-width:4;stroke-miterlimit:10;}
	.st3{fill:#FF13DC;fill-opacity:0;}
	.st4{fill:#FFFFFF;}
	.st5{fill:#587D23;stroke:#587D23;stroke-miterlimit:10;}
	.st6{opacity:0;fill:#587D23;stroke:#587D23;stroke-miterlimit:10;}
	.st7{fill:#41A3D3;}
	.st8{fill:none;stroke:#1E63A5;stroke-width:3;stroke-linecap:round;stroke-miterlimit:10;}
	.st9{fill:none;stroke:#1E63A5;stroke-width:3;stroke-miterlimit:10;}
	.st10{fill:none;stroke:#FFFFFF;stroke-width:4;stroke-miterlimit:10;}
	.st11{fill:none;stroke:#707070;stroke-width:2;stroke-linecap:round;stroke-linejoin:round;stroke-miterlimit:10;}
	.st12{fill:none;stroke:#000000;stroke-width:3;stroke-linecap:round;stroke-miterlimit:10;}
	.st13{fill:none;stroke:#000000;stroke-width:3;stroke-miterlimit:10;}
	.st14{fill:none;stroke:#707070;stroke-width:8;stroke-linecap:round;stroke-linejoin:round;}
	.st15{fill:none;stroke:#707070;stroke-width:6;stroke-miterlimit:10;}
</style>
<symbol  id="Print" viewBox="-32 -32 64 64">
	<path class="st0" d="M32,3.1c0,2.6-2.7,4.6-6,4.6h-1.3v4.6c0,1.9-1.4,3.5-3.2,3.9v2.5L8.1,32h-29.6V16.2c-1.8-0.4-3.2-2-3.2-3.9
		V7.7H-26c-3.3,0-6-2.1-6-4.6c0-0.2,0-18.4,0-18.4c0-3.3,2.7-6,6-6h4.5V-32h43v10.6H26c3.3,0,6,2.7,6,6C32-15.4,32,2.9,32,3.1z
		 M16.8,19.2H8v8.6L16.8,19.2z M5,28V16.2h12.5V7.7h-35V28H5z M17.5-28h-35v16.4h35V-28z M26-16.4h-4.5v8.8h-43v-8.8H-26
		c-0.5,0-1,0.5-1,1v13.8h54v-13.8C27-15.9,26.5-16.4,26-16.4z"/>
</symbol>
<use xlink:href="#Print"  width="64" height="64" id="XMLID_1_" x="-32" y="-32" transform="matrix(0.6485 0 0 -0.6491 21 21)" style="overflow:visible;"/>
</svg>
