<?xml version="1.0" encoding="utf-8"?>
<!-- Generator: Adobe Illustrator 23.0.2, SVG Export Plug-In . SVG Version: 6.00 Build 0)  -->
<svg version="1.1" id="Layer_1" xmlns="http://www.w3.org/2000/svg" xmlns:xlink="http://www.w3.org/1999/xlink" x="0px" y="0px"
	 width="42px" height="42px" viewBox="0 0 42 42" style="enable-background:new 0 0 42 42;" xml:space="preserve">
<style type="text/css">
	.st0{fill:#707070;}
	.st1{fill:none;stroke:#707070;stroke-width:4;stroke-miterlimit:10;}
	.st2{fill:#FF13DC;fill-opacity:0;}
	.st3{fill:#FFFFFF;}
	.st4{fill:#587D23;stroke:#587D23;stroke-miterlimit:10;}
	.st5{opacity:0;fill:#587D23;stroke:#587D23;stroke-miterlimit:10;}
	.st6{fill:#41A3D3;}
	.st7{fill:none;stroke:#1E63A5;stroke-width:3;stroke-linecap:round;stroke-miterlimit:10;}
	.st8{fill:none;stroke:#1E63A5;stroke-width:3;stroke-miterlimit:10;}
	.st9{fill:none;stroke:#FFFFFF;stroke-width:4;stroke-miterlimit:10;}
	.st10{fill:none;stroke:#707070;stroke-width:2;stroke-linecap:round;stroke-linejoin:round;stroke-miterlimit:10;}
	.st11{fill:none;stroke:#000000;stroke-width:3;stroke-linecap:round;stroke-miterlimit:10;}
	.st12{fill:none;stroke:#000000;stroke-width:3;stroke-miterlimit:10;}
	.st13{fill:none;stroke:#707070;stroke-width:8;stroke-linecap:round;stroke-linejoin:round;}
	.st14{fill:none;stroke:#707070;stroke-width:6;stroke-miterlimit:10;}
	.st15{fill:#747677;}
</style>
<path d="M10.8,38.2h20.6V27.9H10.8V38.2z M34.8,38.2h3.4v-24c0-0.3-0.1-0.6-0.3-1.1c-0.2-0.5-0.4-0.8-0.5-0.9l-7.6-7.6
	c-0.2-0.2-0.5-0.4-0.9-0.5C28.7,4,28.3,3.8,28,3.8V15c0,0.7-0.3,1.3-0.8,1.9s-1.1,0.8-1.9,0.8H9.8c-0.7,0-1.3-0.3-1.9-0.8
	c-0.6-0.5-0.8-1.1-0.8-1.9V3.8H3.7v34.3h3.4V27c0-0.7,0.3-1.3,0.8-1.9s1.1-0.8,1.9-0.8h22.4c0.7,0,1.3,0.3,1.9,0.8s0.8,1.1,0.8,1.9
	V38.2z M24.5,13.2V4.6c0-0.2-0.1-0.4-0.3-0.6c-0.2-0.2-0.4-0.3-0.6-0.3h-5.1c-0.2,0-0.4,0.1-0.6,0.3c-0.2,0.2-0.3,0.4-0.3,0.6v8.6
	c0,0.2,0.1,0.4,0.3,0.6s0.4,0.3,0.6,0.3h5.1c0.2,0,0.4-0.1,0.6-0.3C24.4,13.6,24.5,13.5,24.5,13.2z M41.7,14.1v24.9
	c0,0.7-0.3,1.3-0.8,1.9s-1.1,0.8-1.9,0.8H2.9c-0.7,0-1.3-0.3-1.9-0.8s-0.8-1.1-0.8-1.9V2.9c0-0.7,0.3-1.3,0.8-1.9s1.1-0.8,1.9-0.8
	h25c0.7,0,1.5,0.2,2.4,0.5c0.9,0.3,1.6,0.8,2.1,1.3l7.6,7.6c0.5,0.5,0.9,1.2,1.3,2.1C41.6,12.6,41.7,13.4,41.7,14.1z"/>
</svg>
