<?xml version="1.0" encoding="utf-8"?>
<!-- Generator: Adobe Illustrator 23.0.2, SVG Export Plug-In . SVG Version: 6.00 Build 0)  -->
<svg version="1.1" id="Layer_1" xmlns="http://www.w3.org/2000/svg" xmlns:xlink="http://www.w3.org/1999/xlink" x="0px" y="0px"
	 width="42px" height="42px" viewBox="0 0 42 42" style="enable-background:new 0 0 42 42;" xml:space="preserve">
<style type="text/css">
	.st0{fill:#707070;}
	.st1{fill:none;stroke:#707070;stroke-width:4;stroke-miterlimit:10;}
	.st2{fill:#FF13DC;fill-opacity:0;}
	.st3{fill:#FFFFFF;}
	.st4{fill:#587D23;stroke:#587D23;stroke-miterlimit:10;}
	.st5{opacity:0;fill:#587D23;stroke:#587D23;stroke-miterlimit:10;}
	.st6{fill:#41A3D3;}
	.st7{fill:none;stroke:#1E63A5;stroke-width:3;stroke-linecap:round;stroke-miterlimit:10;}
	.st8{fill:none;stroke:#1E63A5;stroke-width:3;stroke-miterlimit:10;}
	.st9{fill:none;stroke:#FFFFFF;stroke-width:4;stroke-miterlimit:10;}
	.st10{fill:none;stroke:#707070;stroke-width:2;stroke-linecap:round;stroke-linejoin:round;stroke-miterlimit:10;}
	.st11{fill:none;stroke:#000000;stroke-width:3;stroke-linecap:round;stroke-miterlimit:10;}
	.st12{fill:none;stroke:#000000;stroke-width:3;stroke-miterlimit:10;}
	.st13{fill:none;stroke:#707070;stroke-width:8;stroke-linecap:round;stroke-linejoin:round;}
	.st14{fill:none;stroke:#707070;stroke-width:6;stroke-miterlimit:10;}
	.st15{fill:#747677;}
	.st16{fill-rule:evenodd;clip-rule:evenodd;fill:#707070;}
	.st17{fill-rule:evenodd;clip-rule:evenodd;fill:#FFFFFF;}
	.st18{fill:#F4B12A;}
	.st19{fill:none;stroke:#000000;stroke-width:4;stroke-linejoin:round;stroke-miterlimit:10;}
</style>
<g>
	<g>
		<path class="st18" d="M1.9,41.4c-0.7,0-1.4-0.6-1.4-1.4V1.9c0-0.7,0.6-1.4,1.4-1.4h38.2c0.7,0,1.4,0.6,1.4,1.4v38.2
			c0,0.7-0.6,1.4-1.4,1.4H1.9V41.4z"/>
		<path class="st18" d="M40.1,1C40.5,1,41,1.4,41,1.9v38.2c0,0.4-0.3,0.8-0.8,0.8H1.9C1.5,41,1,40.6,1,40.1V1.9C1,1.5,1.4,1,1.9,1
			H40.1 M40.1,0H1.9C0.8,0,0,0.8,0,1.9v38.2c0,1,0.8,1.9,1.9,1.9h38.2c1,0,1.9-0.8,1.9-1.9V1.9C41.9,0.8,41.1,0,40.1,0L40.1,0z"/>
	</g>
	<g>
		<path id="Path_95_1_" class="st19" d="M22.2,14v10H11.5"/>
		<path id="Path_182_1_" class="st19" d="M20.9,6.3c-4.2,0-8.2,1.5-11.1,4.2c-6.3,5.7-6.4,15-0.2,20.7c6.1,5.8,16.1,5.9,22.4,0.2
			c0.1-0.1,0.3-0.2,0.4-0.4c2.7-2.7,4.3-6.4,4.4-10.1c-0.1-1.6-0.3-3.2-0.8-4.8c-1.5-4.1-4.8-7.2-9.1-8.8C25,6.7,23,6.3,20.9,6.3z"
			/>
	</g>
</g>
</svg>
