<?xml version="1.0" encoding="utf-8"?>
<!-- Generator: Adobe Illustrator 23.0.2, SVG Export Plug-In . SVG Version: 6.00 Build 0)  -->
<svg version="1.1" id="Layer_1" xmlns="http://www.w3.org/2000/svg" xmlns:xlink="http://www.w3.org/1999/xlink" x="0px" y="0px"
	 width="42px" height="42px" viewBox="0 0 42 42" style="enable-background:new 0 0 42 42;" xml:space="preserve">
<style type="text/css">
	.st0{fill:#707070;}
	.st1{fill:none;stroke:#707070;stroke-width:4;stroke-miterlimit:10;}
	.st2{fill:#FF13DC;fill-opacity:0;}
	.st3{fill:#FFFFFF;}
	.st4{fill:#587D23;stroke:#587D23;stroke-miterlimit:10;}
	.st5{opacity:0;fill:#587D23;stroke:#587D23;stroke-miterlimit:10;}
	.st6{opacity:0;}
	.st7{opacity:0;fill:#41A3D3;}
	.st8{fill:#41A3D3;}
</style>
<g class="st6">
	<path class="st7" d="M1.7,41.5c-0.6,0-1.2-0.5-1.2-1.2V1.7c0-0.6,0.5-1.2,1.2-1.2h36.8c1.7,0,3,1.4,3,3v36.8c0,0.6-0.5,1.2-1.2,1.2
		H1.7z"/>
	<path class="st8" d="M38.5,1C39.9,1,41,2.2,41,3.5v36.8c0,0.3-0.3,0.6-0.6,0.6H1.7c-0.3,0-0.6-0.3-0.6-0.6V1.7C1.1,1.3,1.4,1,1.7,1
		H38.5 M38.5,0H1.7C0.8,0,0,0.7,0,1.7v38.6C0,41.3,0.8,42,1.7,42h38.6c0.9,0,1.7-0.7,1.7-1.7V3.5C42.1,1.5,40.5,0,38.5,0L38.5,0z"/>
</g>
<polygon points="34.7,21 21.1,7.3 21.1,16.2 8.5,16.2 8.5,26 21.1,26 21.1,34.7 "/>
</svg>
