<?xml version="1.0" encoding="utf-8"?>
<!-- Generator: Adobe Illustrator 23.0.2, SVG Export Plug-In . SVG Version: 6.00 Build 0)  -->
<svg version="1.1" id="Layer_1" xmlns="http://www.w3.org/2000/svg" xmlns:xlink="http://www.w3.org/1999/xlink" x="0px" y="0px"
	 width="42px" height="42px" viewBox="0 0 42 42" style="enable-background:new 0 0 42 42;" xml:space="preserve">
<style type="text/css">
	.st0{fill:#707070;}
	.st1{fill:none;stroke:#707070;stroke-width:4;stroke-miterlimit:10;}
	.st2{fill:#FF13DC;fill-opacity:0;}
	.st3{fill:#FFFFFF;}
	.st4{fill:#587D23;stroke:#587D23;stroke-miterlimit:10;}
	.st5{opacity:0;fill:#587D23;stroke:#587D23;stroke-miterlimit:10;}
	.st6{fill:#41A3D3;}
	.st7{fill:none;stroke:#1E63A5;stroke-width:3;stroke-linecap:round;stroke-miterlimit:10;}
	.st8{fill:none;stroke:#1E63A5;stroke-width:3;stroke-miterlimit:10;}
	.st9{fill:none;stroke:#FFFFFF;stroke-width:4;stroke-miterlimit:10;}
	.st10{fill:none;stroke:#707070;stroke-width:2;stroke-linecap:round;stroke-linejoin:round;stroke-miterlimit:10;}
	.st11{fill:none;stroke:#000000;stroke-width:3;stroke-linecap:round;stroke-miterlimit:10;}
	.st12{fill:none;stroke:#000000;stroke-width:3;stroke-miterlimit:10;}
	.st13{fill:none;stroke:#707070;stroke-width:8;stroke-linecap:round;stroke-linejoin:round;}
	.st14{fill:none;stroke:#707070;stroke-width:6;stroke-miterlimit:10;}
	.st15{fill:#747677;}
	.st16{fill-rule:evenodd;clip-rule:evenodd;fill:#707070;}
	.st17{fill-rule:evenodd;clip-rule:evenodd;fill:#FFFFFF;}
	.st18{fill:#F4B12A;}
	.st19{fill:none;stroke:#000000;stroke-width:4;stroke-linejoin:round;stroke-miterlimit:10;}
	.st20{opacity:0;fill:#F4B12A;}
	.st21{fill:#587D23;}
	.st22{fill:#24368B;}
	.st23{fill:none;stroke:#000000;stroke-miterlimit:10;}
	.st24{fill:none;stroke:#FFFFFF;stroke-width:6;stroke-miterlimit:10;}
</style>
<g>
	<g>
		<path class="st0" d="M1.3,41.5c-0.6,0-1.2-0.5-1.2-1.2V1.2C0.1,0.5,0.7,0,1.3,0h39.1c0.6,0,1.2,0.5,1.2,1.2v39.1
			c0,0.6-0.5,1.2-1.2,1.2C40.4,41.5,1.3,41.5,1.3,41.5z"/>
		<path class="st0" d="M40,2c0.3,0,0.6,0.3,0.6,0.6v37.7c0,0.3-0.3,0.6-0.6,0.6H2.2c-0.3,0-0.6-0.3-0.6-0.6V2.6C1.6,2.3,1.9,2,2.2,2
			H40 M40,1H2.2C1.3,1,0.6,1.7,0.6,2.6v37.7c0,0.9,0.7,1.6,1.6,1.6H40c0.9,0,1.6-0.7,1.6-1.6V2.6C41.6,1.7,40.9,1,40,1L40,1z"/>
	</g>
	<path class="st3" d="M29.3,33.8l-8.2-7.2l-8.2,7.2V11.2c0-1.1,0.9-2,2.1-2h12.3c1.1,0,2,0.9,2,2V33.8z"/>
</g>
</svg>
