<?xml version="1.0" encoding="utf-8"?>
<!-- Generator: Adobe Illustrator 23.0.2, SVG Export Plug-In . SVG Version: 6.00 Build 0)  -->
<svg version="1.1" id="Layer_1" xmlns="http://www.w3.org/2000/svg" xmlns:xlink="http://www.w3.org/1999/xlink" x="0px" y="0px"
	 width="42px" height="42px" viewBox="0 0 42 42" style="enable-background:new 0 0 42 42;" xml:space="preserve">
<style type="text/css">
	.st0{fill:#707070;}
	.st1{fill:none;stroke:#707070;stroke-width:4;stroke-miterlimit:10;}
	.st2{fill:#FF13DC;fill-opacity:0;}
	.st3{fill:#FFFFFF;}
	.st4{fill:#587D23;stroke:#587D23;stroke-miterlimit:10;}
	.st5{opacity:0;fill:#587D23;stroke:#587D23;stroke-miterlimit:10;}
	.st6{fill:#41A3D3;}
	.st7{fill:none;stroke:#1E63A5;stroke-width:3;stroke-linecap:round;stroke-miterlimit:10;}
	.st8{fill:none;stroke:#1E63A5;stroke-width:3;stroke-miterlimit:10;}
	.st9{fill:none;stroke:#FFFFFF;stroke-width:4;stroke-miterlimit:10;}
	.st10{fill:none;stroke:#707070;stroke-width:2;stroke-linecap:round;stroke-linejoin:round;stroke-miterlimit:10;}
	.st11{fill:none;stroke:#000000;stroke-width:3;stroke-linecap:round;stroke-miterlimit:10;}
	.st12{fill:none;stroke:#000000;stroke-width:3;stroke-miterlimit:10;}
	.st13{fill:none;stroke:#707070;stroke-width:8;stroke-linecap:round;stroke-linejoin:round;}
	.st14{fill:none;stroke:#707070;stroke-width:6;stroke-miterlimit:10;}
	.st15{fill:#747677;}
	.st16{fill-rule:evenodd;clip-rule:evenodd;fill:#707070;}
	.st17{fill-rule:evenodd;clip-rule:evenodd;fill:#FFFFFF;}
	.st18{fill:#F4B12A;}
	.st19{fill:none;stroke:#000000;stroke-width:4;stroke-linejoin:round;stroke-miterlimit:10;}
	.st20{opacity:0;fill:#F4B12A;}
	.st21{fill:#587D23;}
	.st22{fill:#24368B;}
	.st23{fill:none;stroke:#000000;stroke-miterlimit:10;}
	.st24{fill:none;stroke:#FFFFFF;stroke-width:6;stroke-miterlimit:10;}
</style>
<g>
	<g>
		<path class="st21" d="M1.6,42c-0.6,0-1.2-0.5-1.2-1.2V1.6c0-0.6,0.5-1.2,1.2-1.2h39.2C41.5,0.5,42,1,42,1.6v39.2
			c0,0.6-0.5,1.2-1.2,1.2C40.8,42,1.6,42,1.6,42z"/>
		<path class="st21" d="M38.3,2c0.3,0,0.6,0.3,0.6,0.6v36.8c0,0.3-0.3,0.6-0.6,0.6H1.5c-0.3,0-0.6-0.3-0.6-0.6V2.6
			C0.9,2.3,1.2,2,1.5,2H38.3 M38.3,1H1.5C0.6,1-0.1,1.7-0.1,2.6v36.8c0,0.9,0.7,1.6,1.6,1.6h36.8c0.9,0,1.6-0.7,1.6-1.6V2.6
			C39.9,1.7,39.2,1,38.3,1L38.3,1z"/>
	</g>
	<line class="st9" x1="10.9" y1="21" x2="28.9" y2="21"/>
</g>
</svg>
