<?xml version="1.0" encoding="utf-8"?>
<!-- Generator: Adobe Illustrator 23.0.2, SVG Export Plug-In . SVG Version: 6.00 Build 0)  -->
<svg version="1.1" id="Layer_1" xmlns="http://www.w3.org/2000/svg" xmlns:xlink="http://www.w3.org/1999/xlink" x="0px" y="0px"
	 width="42px" height="42px" viewBox="0 0 42 42" style="enable-background:new 0 0 42 42;" xml:space="preserve">
<style type="text/css">
	.st0{fill:#707070;}
	.st1{fill:none;stroke:#707070;stroke-width:4;stroke-miterlimit:10;}
	.st2{fill:#FF13DC;fill-opacity:0;}
	.st3{fill:#FFFFFF;}
	.st4{fill:#587D23;stroke:#587D23;stroke-miterlimit:10;}
	.st5{opacity:0;fill:#587D23;stroke:#587D23;stroke-miterlimit:10;}
	.st6{fill:#41A3D3;}
	.st7{fill:none;stroke:#1E63A5;stroke-width:3;stroke-linecap:round;stroke-miterlimit:10;}
	.st8{fill:none;stroke:#1E63A5;stroke-width:3;stroke-miterlimit:10;}
	.st9{fill:none;stroke:#FFFFFF;stroke-width:4;stroke-miterlimit:10;}
	.st10{fill:none;stroke:#707070;stroke-width:2;stroke-linecap:round;stroke-linejoin:round;stroke-miterlimit:10;}
	.st11{fill:none;stroke:#000000;stroke-width:3;stroke-linecap:round;stroke-miterlimit:10;}
	.st12{fill:none;stroke:#000000;stroke-width:3;stroke-miterlimit:10;}
	.st13{fill:none;stroke:#707070;stroke-width:8;stroke-linecap:round;stroke-linejoin:round;}
	.st14{fill:none;stroke:#707070;stroke-width:6;stroke-miterlimit:10;}
	.st15{fill:#747677;}
	.st16{fill-rule:evenodd;clip-rule:evenodd;fill:#707070;}
	.st17{fill-rule:evenodd;clip-rule:evenodd;fill:#FFFFFF;}
	.st18{fill:#F4B12A;}
	.st19{fill:none;stroke:#000000;stroke-width:4;stroke-linejoin:round;stroke-miterlimit:10;}
	.st20{opacity:0;fill:#F4B12A;}
	.st21{fill:#587D23;}
	.st22{fill:#24368B;}
	.st23{fill:none;stroke:#000000;stroke-miterlimit:10;}
</style>
<g>
	<path id="svg_1_4_" class="st3" d="M33.7,14c0.5-1.2,0.4-2.8-0.5-3.8L32,8.8c-0.9-1-2.4-1.2-3.5-0.6l0,0l0,0
		c-0.3,0.2-0.5,0.3-0.8,0.6l-6.4,7.1c-0.2,0.3-0.4,0.5-0.5,0.8L17,20.9l-0.4,0.4l-4.1-4.5l0,0L12,16.4l0,0c-1.1-0.8-2.7-0.7-3.6,0.4
		l-1.2,1.3c-1,1.1-1.1,2.8-0.4,4l0,0l0.5,0.6l3,3.3l3,3.3l1.2,1.3l2.1,2.4l2.2-2.4l3.4-3.8l3.8-4.2c0.3-0.2,0.5-0.3,0.8-0.6l6.4-7.1
		C33.4,14.6,33.5,14.3,33.7,14L33.7,14L33.7,14z"/>
</g>
</svg>
