<?xml version="1.0" encoding="utf-8"?>
<!-- Generator: Adobe Illustrator 23.0.2, SVG Export Plug-In . SVG Version: 6.00 Build 0)  -->
<svg version="1.1" id="Layer_1" xmlns="http://www.w3.org/2000/svg" xmlns:xlink="http://www.w3.org/1999/xlink" x="0px" y="0px"
	 width="42px" height="42px" viewBox="0 0 42 42" style="enable-background:new 0 0 42 42;" xml:space="preserve">
<style type="text/css">
	.st0{fill:#707070;}
	.st1{fill:none;stroke:#707070;stroke-width:4;stroke-miterlimit:10;}
	.st2{fill:#FF13DC;fill-opacity:0;}
	.st3{fill:#FFFFFF;}
</style>
<rect id="Canvas" x="12" y="12" class="st2" width="18" height="18"/>
<path class="st3" d="M20,5.6L0.6,40.3c-0.3,0.6-0.1,1.3,0.4,1.6C1.2,41.9,1.4,42,1.6,42h38.8c0.6,0,1.2-0.5,1.2-1.2
	c0-0.2-0.1-0.4-0.1-0.6L22,5.6c-0.3-0.6-1-0.8-1.6-0.4C20.2,5.2,20.1,5.4,20,5.6z M23.3,36.8c0,0.3-0.3,0.6-0.6,0.6h-3.5
	c-0.3,0-0.6-0.3-0.6-0.6v-3.5c0-0.3,0.3-0.6,0.6-0.6h3.5c0.3,0,0.6,0.3,0.6,0.6V36.8z M23.3,29.8c0,0.3-0.3,0.6-0.6,0.6h-3.5
	c-0.3,0-0.6-0.3-0.6-0.6V15.9c0-0.3,0.3-0.6,0.6-0.6h3.5c0.3,0,0.6,0.3,0.6,0.6V29.8z"/>
</svg>
