<?xml version="1.0" encoding="utf-8"?>
<!-- Generator: Adobe Illustrator 23.0.2, SVG Export Plug-In . SVG Version: 6.00 Build 0)  -->
<svg version="1.1" id="Layer_1" xmlns="http://www.w3.org/2000/svg" xmlns:xlink="http://www.w3.org/1999/xlink" x="0px" y="0px"
	 width="42px" height="42px" viewBox="0 0 42 42" style="enable-background:new 0 0 42 42;" xml:space="preserve">
<style type="text/css">
	.st0{fill:#707070;}
	.st1{fill:none;stroke:#707070;stroke-width:4;stroke-miterlimit:10;}
	.st2{fill:#FF13DC;fill-opacity:0;}
	.st3{fill:#FFFFFF;}
	.st4{fill:#587D23;stroke:#587D23;stroke-miterlimit:10;}
	.st5{opacity:0;fill:#587D23;stroke:#587D23;stroke-miterlimit:10;}
	.st6{fill:#41A3D3;}
	.st7{fill:none;stroke:#1E63A5;stroke-width:3;stroke-linecap:round;stroke-miterlimit:10;}
	.st8{fill:none;stroke:#1E63A5;stroke-width:3;stroke-miterlimit:10;}
	.st9{fill:none;stroke:#FFFFFF;stroke-width:4;stroke-miterlimit:10;}
	.st10{fill:none;stroke:#707070;stroke-width:2;stroke-linecap:round;stroke-linejoin:round;stroke-miterlimit:10;}
	.st11{fill:none;stroke:#000000;stroke-width:3;stroke-linecap:round;stroke-miterlimit:10;}
	.st12{fill:none;stroke:#000000;stroke-width:3;stroke-miterlimit:10;}
	.st13{fill:none;stroke:#707070;stroke-width:8;stroke-linecap:round;stroke-linejoin:round;}
	.st14{fill:none;stroke:#707070;stroke-width:6;stroke-miterlimit:10;}
	.st15{fill:#747677;}
	.st16{fill-rule:evenodd;clip-rule:evenodd;fill:#707070;}
	.st17{fill-rule:evenodd;clip-rule:evenodd;fill:#FFFFFF;}
	.st18{fill:#F4B12A;}
	.st19{fill:none;stroke:#000000;stroke-width:4;stroke-linejoin:round;stroke-miterlimit:10;}
	.st20{opacity:0;fill:#F4B12A;}
	.st21{fill:#587D23;}
	.st22{fill:#24368B;}
	.st23{fill:none;stroke:#000000;stroke-miterlimit:10;}
</style>
<g>
	<g>
		<path class="st22" d="M1.8,41.3c-0.6,0-1.1-0.5-1.1-1.1V1.7c0-0.6,0.5-1.1,1.1-1.1h38.4c0.6,0,1.1,0.5,1.1,1.1v38.4
			c0,0.6-0.5,1.1-1.1,1.1C40.2,41.3,1.8,41.3,1.8,41.3z"/>
		<path class="st22" d="M40.2,1.1c0.3,0,0.6,0.3,0.6,0.6v38.4c0,0.3-0.3,0.6-0.6,0.6H1.8c-0.3,0-0.6-0.3-0.6-0.6V1.7
			c0-0.3,0.3-0.6,0.6-0.6H40.2 M40.2,0H1.8C0.8,0,0.1,0.8,0.1,1.7v38.4c0,0.9,0.7,1.7,1.7,1.7h38.4c0.9,0,1.7-0.7,1.7-1.7V1.7
			C41.9,0.8,41.2,0,40.2,0L40.2,0z"/>
	</g>
</g>
<g id="Page-1_2_">
	<g id="icon-40-checkered-flag_2_">
		<path id="checkered-flag_2_" class="st17" d="M25.6,8.9c-1.4-0.2-2.8-0.5-4.1-1c-1.3-0.4-2.5-0.7-3.9-0.9l0,0v4.7
			c-2.6-0.4-5.5-0.3-8,0.2l-0.1,5l0,0c2.5-0.7,5.4-0.8,8.1-0.3v4.8c1.4,0.2,2.7,0.5,4,0.9c1.3,0.4,2.6,0.8,4,1l0,0v-4.8
			c2.6,0.4,5.5,0.3,8.1-0.3l0,0l0.1-4.9l0,0c-2.5,0.7-5.4,0.9-8.1,0.4L25.6,8.9L25.6,8.9z M8,16.1L7.7,36.5h1.6l0.1-13.8
			c4-0.9,8.3-0.7,12.1,0.6c8,2.7,13.6,0.1,13.6,0.1l0.2-16.8c0,0-5.6,2.6-13.7-0.1S8,6.5,8,6.5L8,16.1z M17.6,11.6v4.9
			c1.4,0.3,4.5,1.2,4.5,1.2s2.1,0.3,3.4,0.7l0.1-4.8c-1.5-0.3-4.3-1.2-4.3-1.2S19,11.9,17.6,11.6z"/>
	</g>
</g>
<line class="st23" x1="7.4" y1="7.5" x2="7.4" y2="37.6"/>
<line class="st9" x1="7.9" y1="6.4" x2="7.9" y2="37.7"/>
</svg>
