<?xml version="1.0" encoding="utf-8"?>
<!-- Generator: Adobe Illustrator 15.0.0, SVG Export Plug-In . SVG Version: 6.00 Build 0)  -->
<!DOCTYPE svg PUBLIC "-//W3C//DTD SVG 1.1//EN" "http://www.w3.org/Graphics/SVG/1.1/DTD/svg11.dtd">
<svg version="1.1" id="Layer_1" xmlns="http://www.w3.org/2000/svg" xmlns:xlink="http://www.w3.org/1999/xlink" x="0px" y="0px"
	 width="30px" height="60px" viewBox="0 0 30 60" enable-background="new 0 0 30 60" xml:space="preserve">
<path fill="#4184B6" d="M24,0H6C2.687,0,0,2.687,0,6v18c0,3.313,2.687,6,6,6h18c3.312,0,6-2.687,6-6V6C30,2.687,27.312,0,24,0z
	 M28,24c0,2.206-1.794,4-4,4H6c-2.206,0-4-1.794-4-4V6c0-2.206,1.794-4,4-4h18c2.206,0,4,1.794,4,4V24z"/>
<path fill="#63A243" d="M27.11,46.182l0.001,9.485c0,1.108-0.655,1.433-1.656,1.433H3.611c-0.662,0-0.697-0.036-0.697-0.699V34.558
	c0-0.665,0.036-1.656,0.697-1.656H24l3.116-2.904H3.611c-1.989,0-3.602,1.603-3.602,3.59V56.4c0,1.99,1.612,3.603,3.602,3.603
	h22.814c1.99,0,3.59-1.612,3.59-3.603V43.199L27.11,46.182z"/>
<polygon fill="#63A243" points="29.999,38.72 26.49,35.21 13.977,47.724 7.953,41.701 4.442,45.211 13.977,54.73 "/>
</svg>
