<?xml version="1.0" encoding="utf-8"?>
<!-- Generator: Adobe Illustrator 15.0.2, SVG Export Plug-In . SVG Version: 6.00 Build 0)  -->
<!DOCTYPE svg PUBLIC "-//W3C//DTD SVG 1.1//EN" "http://www.w3.org/Graphics/SVG/1.1/DTD/svg11.dtd">
<svg version="1.1" id="Layer_1" xmlns="http://www.w3.org/2000/svg" xmlns:xlink="http://www.w3.org/1999/xlink" x="0px" y="0px"
	 width="300px" height="100px" viewBox="-0.5 0.5 300 100" enable-background="new -0.5 0.5 300 100" xml:space="preserve">
<path fill="#FFFFFF" d="M49.5,45.98c0,2.496-2.024,4.52-4.52,4.52H4.02c-2.496,0-4.52-2.024-4.52-4.52V5.02
	c0-2.496,2.024-4.52,4.52-4.52h40.96c2.496,0,4.52,2.024,4.52,4.52V45.98z"/>
<path fill="#231F20" d="M4.02,47.5c-0.398,0.778-1.52-0.682-1.52-1.52V5.02c0-0.838,0.682-1.52,1.52-1.52h40.96
	c0.838,0,1.52,0.682,1.52,1.52C46.5,5.02,20.667,15,4.02,47.5z"/>
<circle fill="#231F20" cx="74.165" cy="25.334" r="23.667"/>
<path fill="#FFFFFF" d="M60.235,40.589c-4.138-3.782-6.736-9.22-6.736-15.254c0-11.396,9.27-20.667,20.666-20.667
	c6.938,0,13.09,3.437,16.84,8.698C66.501,17,63.913,43.948,60.235,40.589z"/>
<circle fill="#231F20" cx="174.333" cy="25.334" r="23.667"/>
<path fill="#FEDA00" d="M160.403,40.589c-4.139-3.782-6.738-9.22-6.738-15.254c0-11.396,9.271-20.667,20.668-20.667
	c6.938,0,13.088,3.437,16.838,8.698C166.667,17,164.079,43.948,160.403,40.589z"/>
<circle fill="#FFFFFF" cx="224.333" cy="25.334" r="23.667"/>
<path fill="#00994E" d="M210.403,40.589c-4.139-3.782-6.738-9.22-6.738-15.254c0-11.396,9.271-20.667,20.668-20.667
	c6.938,0,13.088,3.437,16.838,8.698C216.667,17,214.079,43.948,210.403,40.589z"/>
<circle fill="#FFFFFF" cx="274.499" cy="25.334" r="23.667"/>
<path fill="#E91C24" d="M260.569,40.589c-4.139-3.782-6.736-9.22-6.736-15.254c0-11.396,9.27-20.667,20.666-20.667
	c6.938,0,13.09,3.437,16.84,8.698C266.835,17,264.247,43.948,260.569,40.589z"/>
<path fill="#63A228" d="M49.5,95.98c0,2.494-2.024,4.52-4.52,4.52H4.02c-2.496,0-4.52-2.023-4.52-4.52V55.02
	c0-2.496,2.024-4.52,4.52-4.52h40.96c2.496,0,4.52,2.023,4.52,4.52V95.98z"/>
<path fill="#FFFFFF" d="M4.02,97.5c-0.838,0-1.52-0.682-1.52-1.52V55.02c0-0.838,0.682-1.521,1.52-1.521h40.96
	c0.838,0,1.52,0.683,1.52,1.521V95.98c0,0.838-0.682,1.52-1.52,1.52H4.02z"/>
<path fill="#231F20" d="M4.02,97.5c-0.398,0.777-1.52-0.682-1.52-1.52V55.02c0-0.838,0.682-1.52,1.52-1.52h40.96
	c0.838,0,1.52,0.682,1.52,1.52C46.5,55.02,20.667,65,4.02,97.5z"/>
<circle fill="#63A228" cx="74.165" cy="75.334" r="23.667"/>
<path fill="#231F20" d="M74.165,96c-11.396,0-20.666-9.271-20.666-20.666s9.27-20.667,20.666-20.667s20.668,9.271,20.668,20.667
	S85.562,96,74.165,96z"/>
<path fill="#FFFFFF" d="M60.235,90.588c-4.138-3.781-6.736-9.22-6.736-15.254c0-11.396,9.27-20.667,20.666-20.667
	c6.938,0,13.09,3.437,16.84,8.698C66.501,67,63.913,93.947,60.235,90.588z"/>
<circle fill="#231F20" cx="123.831" cy="25.334" r="23.667"/>
<path fill="#787878" d="M109.901,40.589c-4.138-3.782-6.736-9.22-6.736-15.254c0-11.396,9.27-20.667,20.666-20.667
	c6.938,0,13.09,3.437,16.84,8.698C116.167,17,113.579,43.948,109.901,40.589z"/>
<circle fill="#63A228" cx="123.831" cy="75.334" r="23.667"/>
<path fill="#231F20" d="M123.831,96c-11.396,0-20.666-9.271-20.666-20.666s9.27-20.667,20.666-20.667s20.668,9.271,20.668,20.667
	S135.228,96,123.831,96z"/>
<path fill="#787878" d="M109.901,90.588c-4.138-3.781-6.736-9.22-6.736-15.254c0-11.396,9.27-20.667,20.666-20.667
	c6.938,0,13.09,3.437,16.84,8.698C116.167,67,113.579,93.947,109.901,90.588z"/>
<circle fill="#63A228" cx="174.333" cy="75.334" r="23.667"/>
<path fill="#231F20" d="M174.333,96c-11.396,0-20.668-9.271-20.668-20.666s9.271-20.667,20.668-20.667
	c11.395,0,20.666,9.271,20.666,20.667S185.728,96,174.333,96z"/>
<path fill="#FEDA00" d="M160.403,90.588c-4.139-3.781-6.738-9.22-6.738-15.254c0-11.396,9.271-20.667,20.668-20.667
	c6.938,0,13.088,3.437,16.838,8.698C166.667,67,164.079,93.947,160.403,90.588z"/>
<circle fill="#63A228" cx="224.333" cy="75.334" r="23.667"/>
<path fill="#FFFFFF" d="M224.333,96c-11.396,0-20.668-9.271-20.668-20.666s9.271-20.667,20.668-20.667
	c11.395,0,20.666,9.271,20.666,20.667S235.728,96,224.333,96z"/>
<path fill="#00994E" d="M210.403,90.588c-4.139-3.781-6.738-9.22-6.738-15.254c0-11.396,9.271-20.667,20.668-20.667
	c6.938,0,13.088,3.437,16.838,8.698C216.667,67,214.079,93.947,210.403,90.588z"/>
<circle fill="#63A228" cx="274.499" cy="75.334" r="23.667"/>
<path fill="#FFFFFF" d="M274.499,96c-11.396,0-20.666-9.271-20.666-20.666s9.27-20.667,20.666-20.667s20.668,9.271,20.668,20.667
	S285.896,96,274.499,96z"/>
<path fill="#E91C24" d="M260.569,90.588c-4.139-3.781-6.736-9.22-6.736-15.254c0-11.396,9.27-20.667,20.666-20.667
	c6.938,0,13.09,3.437,16.84,8.698C266.835,67,264.247,93.947,260.569,90.588z"/>
</svg>
