<?xml version="1.0" encoding="utf-8"?>
<!-- Generator: Adobe Illustrator 15.0.2, SVG Export Plug-In . SVG Version: 6.00 Build 0)  -->
<!DOCTYPE svg PUBLIC "-//W3C//DTD SVG 1.1//EN" "http://www.w3.org/Graphics/SVG/1.1/DTD/svg11.dtd">
<svg version="1.1" id="Layer_1" xmlns="http://www.w3.org/2000/svg" xmlns:xlink="http://www.w3.org/1999/xlink" x="0px" y="0px"
	 width="20px" height="20px" viewBox="15 15 20 20" enable-background="new 15 15 20 20" xml:space="preserve">
<path fill="#FFFFFF" d="M30.961,19.814c0,0.383-0.31,0.693-0.692,0.693H19.732c-0.382,0-0.693-0.31-0.693-0.693v-0.768
	c0-0.383,0.311-0.693,0.693-0.693h10.537c0.383,0,0.692,0.31,0.692,0.693V19.814z"/>
<path fill="#FFFFFF" d="M30.961,23.504c0,0.382-0.31,0.693-0.692,0.693H19.732c-0.382,0-0.693-0.311-0.693-0.693v-0.768
	c0-0.383,0.311-0.693,0.693-0.693h10.537c0.383,0,0.692,0.31,0.692,0.693V23.504z"/>
<path fill="#FFFFFF" d="M30.961,27.193c0,0.383-0.31,0.693-0.692,0.693H19.732c-0.382,0-0.693-0.311-0.693-0.693v-0.769
	c0-0.382,0.311-0.693,0.693-0.693h10.537c0.383,0,0.692,0.312,0.692,0.693V27.193z"/>
<path fill="#FFFFFF" d="M30.961,30.882c0,0.383-0.31,0.693-0.692,0.693H19.732c-0.382,0-0.693-0.311-0.693-0.693v-0.768
	c0-0.383,0.311-0.693,0.693-0.693h10.537c0.383,0,0.692,0.311,0.692,0.693V30.882z"/>
</svg>
