<?xml version="1.0" encoding="utf-8"?>
<!-- Generator: Adobe Illustrator 15.0.2, SVG Export Plug-In . SVG Version: 6.00 Build 0)  -->
<!DOCTYPE svg PUBLIC "-//W3C//DTD SVG 1.1//EN" "http://www.w3.org/Graphics/SVG/1.1/DTD/svg11.dtd">
<svg version="1.1" id="Layer_1" xmlns="http://www.w3.org/2000/svg" xmlns:xlink="http://www.w3.org/1999/xlink" x="0px" y="0px"
	 width="325px" height="104.035px" viewBox="0 0 325 104.035" enable-background="new 0 0 325 104.035" xml:space="preserve">
<g>
	<polygon fill="#4184B6" points="303.654,30.477 303.654,6.277 288.6,6.277 288.6,15.422 273.822,0.645 222.891,51.577 
		238.503,51.577 238.503,104.035 264.515,104.035 264.515,70.529 283.129,70.529 283.129,104.035 309.143,104.035 309.143,51.577 
		324.754,51.577 	"/>
	<polygon fill="#4184B6" points="22.532,75.751 18.014,75.751 18.014,78.193 14.474,74.653 0,89.127 4.436,89.127 4.436,104.035 
		11.829,104.035 11.829,94.514 17.12,94.514 17.12,104.035 24.511,104.035 24.511,89.127 28.948,89.127 22.532,82.711 	"/>
	<polygon fill="#4184B6" points="66.216,73.871 66.216,64.087 60.195,64.087 60.195,68.15 54.58,62.535 34.136,82.979 
		40.403,82.979 40.403,104.035 50.844,104.035 50.844,90.586 58.315,90.586 58.315,104.035 68.756,104.035 68.756,82.979 
		75.024,82.979 65.916,73.871 	"/>
	<polygon fill="#4184B6" points="124.003,49.544 116.211,49.544 116.211,54.189 108.544,46.521 80.211,74.854 88.896,74.854 
		88.896,104.035 103.366,104.035 103.366,85.396 113.721,85.396 113.721,104.035 128.191,104.035 128.191,74.854 136.875,74.854 
		124.003,61.981 	"/>
	<polygon fill="#4184B6" points="199.395,30.42 189.182,30.42 189.182,36.56 179.884,27.262 142.063,65.081 153.657,65.081 
		153.657,104.035 172.972,104.035 172.972,79.154 186.795,79.154 186.795,104.035 206.11,104.035 206.11,65.081 217.704,65.081 
		199.395,46.772 	"/>
</g>
</svg>
