<?xml version="1.0" encoding="utf-8"?>
<!-- Generator: Adobe Illustrator 15.0.2, SVG Export Plug-In . SVG Version: 6.00 Build 0)  -->
<!DOCTYPE svg PUBLIC "-//W3C//DTD SVG 1.1//EN" "http://www.w3.org/Graphics/SVG/1.1/DTD/svg11.dtd">
<svg version="1.1" id="Layer_1" xmlns="http://www.w3.org/2000/svg" xmlns:xlink="http://www.w3.org/1999/xlink" x="0px" y="0px"
	 width="325px" height="32.578px" viewBox="0 0 325 32.578" enable-background="new 0 0 325 32.578" xml:space="preserve">
<circle fill="#4686B4" cx="15.568" cy="16.517" r="15.568"/>
<circle fill="#4686B4" cx="83.269" cy="16.517" r="15.568"/>
<circle fill="#4686B4" cx="158.572" cy="16.517" r="15.568"/>
<circle fill="#4686B4" cx="233.875" cy="16.517" r="15.567"/>
<circle fill="#4686B4" cx="309.178" cy="16.517" r="15.568"/>
<path fill="#FFFFFF" d="M14.405,11.782v-0.006h1.752v8.795h-1.752v-6.445l-1.172,1.172l-1.172-1.172L14.405,11.782z"/>
<path fill="#FFFFFF" d="M83.323,12.229c0.859,0,1.563,0.216,2.112,0.647s0.823,1.075,0.823,1.931c0,1.016-0.39,1.945-1.169,2.789
	s-1.423,1.398-1.931,1.664h3.164v1.758h-5.924v-1.758c0.391,0,1.133-0.488,2.227-1.465s1.729-1.67,1.904-2.08s0.166-0.82-0.029-1.23
	s-0.664-0.615-1.406-0.615c-0.703,0-1.25,0.234-1.641,0.703l-1.172-1.172c0.391-0.391,0.771-0.684,1.143-0.879
	S82.429,12.229,83.323,12.229z"/>
<path fill="#FFFFFF" d="M160.979,16.565c0.105,0.039,0.201,0.078,0.287,0.117c0.605,0.273,0.908,0.859,0.908,1.758
	c0,0.703-0.323,1.309-0.97,1.816s-1.399,0.762-2.259,0.762c-0.816,0-1.498-0.117-2.045-0.352s-1.016-0.547-1.406-0.938l1.172-1.172
	c0.391,0.469,1.055,0.742,1.992,0.82c0.781,0,1.269-0.166,1.462-0.498s0.193-0.664,0-0.996s-0.874-0.518-2.042-0.557v-1.582
	c1.168,0.078,1.849-0.049,2.042-0.381s0.193-0.664,0-0.996s-0.681-0.498-1.462-0.498c-0.742,0-1.309,0.234-1.699,0.703l-1.172-1.172
	c0.391-0.391,0.811-0.684,1.26-0.879s1.082-0.293,1.898-0.293c0.859,0,1.573,0.254,2.142,0.762s0.853,1.113,0.853,1.816
	c0,0.82-0.264,1.377-0.791,1.67C161.099,16.505,161.042,16.534,160.979,16.565z"/>
<path fill="#FFFFFF" d="M234.325,12.235v-0.012h1.752v5.109h1.184v1.752h-1.184v1.934h-1.752v-1.934h-3.99v-1.752h0.059
	l-0.053-0.059L234.325,12.235z M234.325,17.333v-2.801l-2.139,2.801H234.325z"/>
<path fill="#FFFFFF" d="M312.661,12.229v1.641h-3.633v1.23h0.703c1.168,0,2.055,0.264,2.66,0.791
	c0.605,0.605,0.908,1.396,0.908,2.373c0,0.742-0.294,1.387-0.882,1.934s-1.312,0.82-2.171,0.82c-0.816,0-1.498-0.117-2.045-0.352
	s-1.016-0.547-1.406-0.938l1.172-1.172c0.391,0.469,1.016,0.723,1.875,0.762c1.055,0,1.631-0.387,1.729-1.16
	c-0.023-0.496-0.203-0.859-0.539-1.09c-0.18-0.191-0.809-0.301-1.887-0.328h-1.875v-4.512H312.661z"/>
</svg>
