<?xml version="1.0" encoding="utf-8"?>
<!-- Generator: Adobe Illustrator 15.0.2, SVG Export Plug-In . SVG Version: 6.00 Build 0)  -->
<!DOCTYPE svg PUBLIC "-//W3C//DTD SVG 1.1//EN" "http://www.w3.org/Graphics/SVG/1.1/DTD/svg11.dtd">
<svg version="1.1" id="Layer_1" xmlns="http://www.w3.org/2000/svg" xmlns:xlink="http://www.w3.org/1999/xlink" x="0px" y="0px"
	 width="300px" height="100px" viewBox="-0.5 0.5 300 100" enable-background="new -0.5 0.5 300 100" xml:space="preserve">
<path fill="#FFFFFF" d="M49.5,45.98c0,2.496-2.024,4.52-4.52,4.52H4.02c-2.496,0-4.52-2.024-4.52-4.52V5.02
	c0-2.496,2.024-4.52,4.52-4.52h40.96c2.496,0,4.52,2.024,4.52,4.52V45.98z"/>
<path fill="#F0F0F0" d="M4.02,47.5c-0.398,0.778-1.52-0.682-1.52-1.52V5.02c0-0.838,0.682-1.52,1.52-1.52h40.96
	c0.838,0,1.52,0.682,1.52,1.52C46.5,5.02,20.667,15,4.02,47.5z"/>
<path fill="#63A228" d="M49.5,95.98c0,2.495-2.024,4.52-4.52,4.52H4.02c-2.496,0-4.52-2.024-4.52-4.52V55.02
	c0-2.496,2.024-4.52,4.52-4.52h40.96c2.496,0,4.52,2.024,4.52,4.52V95.98z"/>
<path fill="#FFFFFF" d="M4.02,97.5c-0.838,0-1.52-0.682-1.52-1.52V55.02c0-0.838,0.682-1.521,1.52-1.521h40.96
	c0.838,0,1.52,0.683,1.52,1.521V95.98c0,0.838-0.682,1.52-1.52,1.52H4.02z"/>
<path fill="#F0F0F0" d="M4.02,97.5c-0.398,0.777-1.52-0.682-1.52-1.52V55.02c0-0.838,0.682-1.52,1.52-1.52h40.96
	c0.838,0,1.52,0.682,1.52,1.52C46.5,55.02,20.667,65,4.02,97.5z"/>
<path fill="#006FFF" d="M99.505,45.98c0,2.496-2.023,4.52-4.52,4.52H54.024c-2.496,0-4.52-2.024-4.52-4.52V5.02
	c0-2.496,2.023-4.52,4.52-4.52h40.961c2.496,0,4.52,2.024,4.52,4.52V45.98z"/>
<path opacity="0.33" fill="#F0F0F0" d="M54.024,47.5c-0.398,0.778-1.52-0.682-1.52-1.52V5.02c0-0.838,0.682-1.52,1.52-1.52h40.961
	c0.838,0,1.52,0.682,1.52,1.52C96.505,5.02,70.672,15,54.024,47.5z"/>
<path fill="#63A228" d="M99.505,95.98c0,2.495-2.023,4.52-4.52,4.52H54.024c-2.496,0-4.52-2.024-4.52-4.52V55.02
	c0-2.496,2.023-4.52,4.52-4.52h40.961c2.496,0,4.52,2.024,4.52,4.52V95.98z"/>
<path fill="#006FFF" d="M54.024,97.5c-0.838,0-1.52-0.682-1.52-1.52V55.02c0-0.838,0.682-1.521,1.52-1.521h40.961
	c0.838,0,1.52,0.683,1.52,1.521V95.98c0,0.838-0.682,1.52-1.52,1.52H54.024z"/>
<path opacity="0.33" fill="#F0F0F0" d="M54.024,97.5c-0.398,0.777-1.52-0.682-1.52-1.52V55.02c0-0.838,0.682-1.52,1.52-1.52h40.961
	c0.838,0,1.52,0.682,1.52,1.52C96.505,55.02,70.672,65,54.024,97.5z"/>
<path fill="#787878" d="M199.535,45.98c0,2.496-2.023,4.52-4.52,4.52h-40.961c-2.496,0-4.52-2.024-4.52-4.52V5.02
	c0-2.496,2.023-4.52,4.52-4.52h40.961c2.496,0,4.52,2.024,4.52,4.52V45.98z"/>
<path opacity="0.33" fill="#F0F0F0" d="M154.055,47.5c-0.398,0.778-1.52-0.682-1.52-1.52V5.02c0-0.838,0.682-1.52,1.52-1.52h40.961
	c0.838,0,1.52,0.682,1.52,1.52C196.535,5.02,170.702,15,154.055,47.5z"/>
<path fill="#63A228" d="M199.535,95.98c0,2.495-2.023,4.52-4.52,4.52h-40.961c-2.496,0-4.52-2.024-4.52-4.52V55.02
	c0-2.496,2.023-4.52,4.52-4.52h40.961c2.496,0,4.52,2.024,4.52,4.52V95.98z"/>
<path fill="#787878" d="M154.055,97.5c-0.838,0-1.52-0.682-1.52-1.52V55.02c0-0.838,0.682-1.521,1.52-1.521h40.961
	c0.838,0,1.52,0.683,1.52,1.521V95.98c0,0.838-0.682,1.52-1.52,1.52H154.055z"/>
<path opacity="0.33" fill="#F0F0F0" d="M154.055,97.5c-0.398,0.777-1.52-0.682-1.52-1.52V55.02c0-0.838,0.682-1.52,1.52-1.52h40.961
	c0.838,0,1.52,0.682,1.52,1.52C196.535,55.02,170.702,65,154.055,97.5z"/>
<path fill="#DF0800" d="M249.49,45.98c0,2.496-2.023,4.52-4.52,4.52H204.01c-2.496,0-4.52-2.024-4.52-4.52V5.02
	c0-2.496,2.023-4.52,4.52-4.52h40.961c2.496,0,4.52,2.024,4.52,4.52V45.98z"/>
<path opacity="0.33" fill="#F0F0F0" d="M204.01,47.5c-0.398,0.778-1.52-0.682-1.52-1.52V5.02c0-0.838,0.682-1.52,1.52-1.52h40.961
	c0.838,0,1.52,0.682,1.52,1.52C246.49,5.02,220.657,15,204.01,47.5z"/>
<path fill="#63A228" d="M249.49,95.98c0,2.495-2.023,4.52-4.52,4.52H204.01c-2.496,0-4.52-2.024-4.52-4.52V55.02
	c0-2.496,2.023-4.52,4.52-4.52h40.961c2.496,0,4.52,2.024,4.52,4.52V95.98z"/>
<path fill="#DF0800" d="M204.01,97.5c-0.838,0-1.52-0.682-1.52-1.52V55.02c0-0.838,0.682-1.521,1.52-1.521h40.961
	c0.838,0,1.52,0.683,1.52,1.521V95.98c0,0.838-0.682,1.52-1.52,1.52H204.01z"/>
<path opacity="0.33" fill="#F0F0F0" d="M204.01,97.5c-0.398,0.777-1.52-0.682-1.52-1.52V55.02c0-0.838,0.682-1.52,1.52-1.52h40.961
	c0.838,0,1.52,0.682,1.52,1.52C246.49,55.02,220.657,65,204.01,97.5z"/>
<path fill="#20BF00" d="M299.499,45.98c0,2.496-2.023,4.52-4.52,4.52h-40.961c-2.496,0-4.52-2.024-4.52-4.52V5.02
	c0-2.496,2.023-4.52,4.52-4.52h40.961c2.496,0,4.52,2.024,4.52,4.52V45.98z"/>
<path opacity="0.33" fill="#F0F0F0" d="M254.019,47.5c-0.398,0.778-1.52-0.682-1.52-1.52V5.02c0-0.838,0.682-1.52,1.52-1.52h40.961
	c0.838,0,1.52,0.682,1.52,1.52C296.499,5.02,270.666,15,254.019,47.5z"/>
<path fill="#63A228" d="M299.499,95.98c0,2.495-2.023,4.52-4.52,4.52h-40.961c-2.496,0-4.52-2.024-4.52-4.52V55.02
	c0-2.496,2.023-4.52,4.52-4.52h40.961c2.496,0,4.52,2.024,4.52,4.52V95.98z"/>
<path fill="#20BF00" d="M254.019,97.5c-0.838,0-1.52-0.682-1.52-1.52V55.02c0-0.838,0.682-1.521,1.52-1.521h40.961
	c0.838,0,1.52,0.683,1.52,1.521V95.98c0,0.838-0.682,1.52-1.52,1.52H254.019z"/>
<path opacity="0.33" fill="#F0F0F0" d="M254.019,97.5c-0.398,0.777-1.52-0.682-1.52-1.52V55.02c0-0.838,0.682-1.52,1.52-1.52h40.961
	c0.838,0,1.52,0.682,1.52,1.52C296.499,55.02,270.666,65,254.019,97.5z"/>
<path fill="#F4FF00" d="M149.474,45.98c0,2.496-2.023,4.52-4.52,4.52h-40.961c-2.496,0-4.52-2.024-4.52-4.52V5.02
	c0-2.496,2.023-4.52,4.52-4.52h40.961c2.496,0,4.52,2.024,4.52,4.52V45.98z"/>
<path opacity="0.58" fill="#F0F0F0" d="M103.993,47.5c-0.398,0.778-1.52-0.682-1.52-1.52V5.02c0-0.838,0.682-1.52,1.52-1.52h40.961
	c0.838,0,1.52,0.682,1.52,1.52C146.474,5.02,120.641,15,103.993,47.5z"/>
<path fill="#63A228" d="M149.474,95.98c0,2.495-2.023,4.52-4.52,4.52h-40.961c-2.496,0-4.52-2.024-4.52-4.52V55.02
	c0-2.496,2.023-4.52,4.52-4.52h40.961c2.496,0,4.52,2.024,4.52,4.52V95.98z"/>
<path fill="#F4FF00" d="M103.993,97.5c-0.838,0-1.52-0.682-1.52-1.52V55.02c0-0.838,0.682-1.521,1.52-1.521h40.961
	c0.838,0,1.52,0.683,1.52,1.521V95.98c0,0.838-0.682,1.52-1.52,1.52H103.993z"/>
<path opacity="0.58" fill="#F0F0F0" d="M103.993,97.5c-0.398,0.777-1.52-0.682-1.52-1.52V55.02c0-0.838,0.682-1.52,1.52-1.52h40.961
	c0.838,0,1.52,0.682,1.52,1.52C146.474,55.02,120.641,65,103.993,97.5z"/>
</svg>
