<?xml version="1.0" encoding="utf-8"?>
<!-- Generator: Adobe Illustrator 15.0.2, SVG Export Plug-In . SVG Version: 6.00 Build 0)  -->
<!DOCTYPE svg PUBLIC "-//W3C//DTD SVG 1.1//EN" "http://www.w3.org/Graphics/SVG/1.1/DTD/svg11.dtd">
<svg version="1.1" id="Layer_1" xmlns="http://www.w3.org/2000/svg" xmlns:xlink="http://www.w3.org/1999/xlink" x="0px" y="0px"
	 width="250px" height="100px" viewBox="0 0 250 100" enable-background="new 0 0 250 100" xml:space="preserve">
<polygon fill="#63A243" points="36.64,24.772 12.499,39.338 12.499,10.208 "/>
<g>
	<polygon fill="#464646" points="70.428,25.536 89.205,14.206 89.205,36.866 	"/>
	<polygon fill="#464646" points="65.398,25.536 71.911,21.607 71.911,17.869 59.205,25.536 71.911,33.205 71.911,29.467 	"/>
</g>
<g>
	<polygon fill="#4686B5" points="70.428,75.036 89.205,63.705 89.205,86.367 	"/>
	<polygon fill="#4686B5" points="65.398,75.036 71.911,71.106 71.911,67.368 59.205,75.036 71.911,82.704 71.911,78.966 	"/>
</g>
<g>
	<polygon fill="#4686B5" points="128.232,75.037 109.455,86.367 109.455,63.705 	"/>
	<polygon fill="#4686B5" points="133.263,75.037 126.75,78.966 126.75,82.704 139.455,75.037 126.75,67.371 126.75,71.106 	"/>
</g>
<g>
	<polygon fill="#464646" points="128.232,25.538 109.455,36.866 109.455,14.206 	"/>
	<polygon fill="#464646" points="133.263,25.538 126.75,29.467 126.75,33.205 139.455,25.538 126.75,17.869 126.75,21.607 	"/>
</g>
<g>
	<path fill="#231F20" d="M173.475,19.014l-5.649,3.768h-3.696c-0.322,0-0.585,0.262-0.585,0.584v5.201
		c0,0.323,0.263,0.585,0.585,0.585h3.741l5.604,3.737V19.014z"/>
	<path fill="#231F20" d="M177.491,30.941l-1.613-1.613c0.896-0.895,1.388-2.084,1.388-3.349s-0.492-2.455-1.388-3.35l1.613-1.612
		c1.325,1.325,2.056,3.087,2.056,4.962S178.816,29.616,177.491,30.941z"/>
	<path fill="#231F20" d="M181.748,33.804l-2.15-2.151c3.129-3.128,3.129-8.219,0-11.347l2.15-2.151
		C186.062,22.469,186.062,29.489,181.748,33.804z"/>
</g>
<g>
	<path fill="#4686B5" d="M173.475,67.264l-5.649,3.769h-3.696c-0.322,0-0.585,0.262-0.585,0.585v5.201
		c0,0.322,0.263,0.584,0.585,0.584h3.741l5.604,3.738V67.264z"/>
	<path fill="#4686B5" d="M177.491,79.191l-1.613-1.613c0.896-0.895,1.388-2.084,1.388-3.35c0-1.265-0.492-2.455-1.388-3.35
		l1.613-1.611c1.325,1.324,2.056,3.088,2.056,4.961C179.547,76.104,178.816,77.866,177.491,79.191z"/>
	<path fill="#4686B5" d="M181.748,82.055l-2.15-2.152c3.129-3.127,3.129-8.219,0-11.346l2.15-2.15
		C186.062,70.719,186.062,77.739,181.748,82.055z"/>
</g>
<g>
	<path fill="#231F20" d="M222.759,19.055l-5.45,3.633h-3.564c-0.312,0-0.564,0.254-0.564,0.566v5.017
		c0,0.312,0.254,0.564,0.564,0.564h3.607l5.407,3.606V19.055z"/>
</g>
<polygon fill="#231F20" points="236.021,22.727 233.771,20.478 230.751,23.498 227.729,20.476 225.479,22.727 228.5,25.748 
	225.479,28.771 227.729,31.021 230.751,27.999 233.771,31.021 236.021,28.771 233,25.748 "/>
<g>
	<path fill="#B02934" d="M222.759,69.055l-5.45,3.633h-3.564c-0.312,0-0.564,0.254-0.564,0.566v5.018
		c0,0.312,0.254,0.564,0.564,0.564h3.607l5.407,3.605V69.055z"/>
</g>
<polygon fill="#B02934" points="236.021,72.727 233.771,70.479 230.751,73.498 227.729,70.477 225.479,72.727 228.5,75.748 
	225.479,78.771 227.729,81.021 230.751,77.998 233.771,81.021 236.021,78.771 233,75.748 "/>
<rect x="12.999" y="63" fill="#231F20" width="6.25" height="24"/>
<rect x="26.499" y="63" fill="#231F20" width="6.25" height="24"/>
</svg>
