<?xml version="1.0" encoding="utf-8"?>
<!-- Generator: Adobe Illustrator 15.0.2, SVG Export Plug-In . SVG Version: 6.00 Build 0)  -->
<!DOCTYPE svg PUBLIC "-//W3C//DTD SVG 1.1//EN" "http://www.w3.org/Graphics/SVG/1.1/DTD/svg11.dtd">
<svg version="1.1" id="Layer_1" xmlns="http://www.w3.org/2000/svg" xmlns:xlink="http://www.w3.org/1999/xlink" x="0px" y="0px"
	 width="99.998px" height="100px" viewBox="0 0 99.998 100" enable-background="new 0 0 99.998 100" xml:space="preserve">
<polygon points="90.412,67.293 74.999,82.706 59.585,67.293 "/>
<polygon fill="#B02934" points="90.412,17.293 74.999,32.706 59.585,17.293 "/>
<path d="M40.499,89.5c-2.625,1.75-5,0-5,0v-31h5V89.5z"/>
<polygon points="20.783,69.5 9.836,69.5 14.444,64.045 9.836,58.5 27.439,58.5 "/>
<polygon points="24.39,62.5 33.499,62.5 33.499,74.615 18.133,74.51 "/>
<path fill="#4686B5" d="M40.499,38.5c-2.625,1.75-5,0-5,0v-30h5V38.5z"/>
<polygon fill="#4686B5" points="20.783,19.5 9.836,19.5 14.444,14.045 9.836,8.5 27.439,8.5 "/>
<polygon fill="#4686B5" points="24.39,12.5 33.499,12.5 33.499,24.615 18.133,24.51 "/>
</svg>
