<?xml version="1.0" encoding="utf-8"?>
<!-- Generator: Adobe Illustrator 15.0.2, SVG Export Plug-In . SVG Version: 6.00 Build 0)  -->
<!DOCTYPE svg PUBLIC "-//W3C//DTD SVG 1.1//EN" "http://www.w3.org/Graphics/SVG/1.1/DTD/svg11.dtd">
<svg version="1.1" id="Layer_1" xmlns="http://www.w3.org/2000/svg" xmlns:xlink="http://www.w3.org/1999/xlink" x="0px" y="0px"
	 width="30px" height="60px" viewBox="0 0 30 60" enable-background="new 0 0 30 60" xml:space="preserve">
<polygon fill="#63A243" points="29.999,38.721 26.49,35.21 13.977,47.725 7.953,41.701 4.442,45.211 13.977,54.73 "/>
<path fill="#4184B6" d="M14.965,29.929C6.713,29.929,0,23.216,0,14.964C0,6.713,6.713,0,14.965,0c8.25,0,14.964,6.713,14.964,14.964
	C29.929,23.216,23.215,29.929,14.965,29.929z M14.965,2.825c-6.694,0-12.14,5.446-12.14,12.14c0,6.694,5.446,12.14,12.14,12.14
	c6.694,0,12.141-5.446,12.141-12.14C27.105,8.271,21.659,2.825,14.965,2.825z"/>
<path fill="#63A243" d="M27.117,46.203c-0.59,6.147-5.781,10.971-12.081,10.971c-6.693,0-12.141-5.445-12.141-12.139
	c0-6.694,5.447-12.141,12.141-12.141c2.513,0,4.849,0.768,6.788,2.08l2.063-1.979c-2.482-1.83-5.538-2.926-8.852-2.926
	c-8.252,0-14.965,6.713-14.965,14.965S6.784,60,15.036,60C23.286,60,30,53.287,30,45.035c0-0.514-0.026-1.021-0.077-1.521
	L27.117,46.203z"/>
</svg>
