<?xml version="1.0" encoding="utf-8"?>
<!-- Generator: Adobe Illustrator 15.0.2, SVG Export Plug-In . SVG Version: 6.00 Build 0)  -->
<!DOCTYPE svg PUBLIC "-//W3C//DTD SVG 1.1//EN" "http://www.w3.org/Graphics/SVG/1.1/DTD/svg11.dtd">
<svg version="1.1" id="Layer_1" xmlns="http://www.w3.org/2000/svg" xmlns:xlink="http://www.w3.org/1999/xlink" x="0px" y="0px"
	 width="30px" height="150px" viewBox="0 0.583 30 150" enable-background="new 0 0.583 30 150" xml:space="preserve">
<path fill="#B02934" d="M24,30H6c-3.313,0-6,2.688-6,6v18c0,3.312,2.687,6,6,6h18c3.312,0,6-2.688,6-6V36C30,32.688,27.312,30,24,30
	z M28,54c0,2.206-1.794,4-4,4H6c-2.206,0-4-1.794-4-4V36c0-2.206,1.794-4,4-4h18c2.206,0,4,1.794,4,4V54z"/>
<path fill="#63A243" d="M27.109,16.184l0.002,9.485c0,1.108-0.655,1.433-1.656,1.433H3.611c-0.662,0-0.697-0.035-0.697-0.699V4.561
	c0-0.666,0.036-1.656,0.697-1.656H24L27.116,0H3.611C1.622,0,0.009,1.604,0.009,3.59v22.812c0,1.99,1.612,3.603,3.602,3.603h22.814
	c1.99,0,3.591-1.612,3.591-3.603V13.201L27.109,16.184z"/>
<polygon fill="#63A243" points="29.999,8.723 26.49,5.212 13.977,17.727 7.953,11.703 4.442,15.213 13.977,24.732 "/>
<path fill="#B02934" d="M24,120.584H6c-3.313,0-6,2.688-6,6v18c0,3.312,2.687,6,6,6h18c3.312,0,6-2.688,6-6v-18
	C30,123.272,27.312,120.584,24,120.584z M28,144.584c0,2.207-1.794,4-4,4H6c-2.206,0-4-1.793-4-4v-18c0-2.205,1.794-4,4-4h18
	c2.206,0,4,1.795,4,4V144.584z"/>
<path fill="#63A243" d="M27.109,106.769l0.002,9.485c0,1.107-0.655,1.433-1.656,1.433H3.611c-0.662,0-0.697-0.035-0.697-0.699
	V95.146c0-0.666,0.036-1.656,0.697-1.656H24l3.116-2.905H3.611c-1.989,0-3.602,1.604-3.602,3.59v22.812
	c0,1.99,1.612,3.604,3.602,3.604h22.814c1.99,0,3.591-1.612,3.591-3.604v-13.201L27.109,106.769z"/>
<polygon fill="#63A243" points="14.633,109.527 13.298,108.191 8.537,112.953 6.244,110.661 4.908,111.997 8.537,115.619 "/>
<path fill="#4686B5" d="M28.078,88.246c-2.318,1.546-4.416,0-4.416,0V61.754h4.416V88.246z"/>
<polygon fill="#4686B5" points="10.667,71.468 1,71.468 5.069,66.65 1,61.754 16.544,61.754 "/>
<polygon fill="#4686B5" points="13.852,65.286 21.896,65.286 21.896,75.984 8.327,75.893 "/>
<path fill="#63A243" d="M24.225,112.626c-1.499,0.998-2.854,0-2.854,0V95.505h2.854V112.626z"/>
<polygon fill="#63A243" points="12.974,101.783 6.726,101.783 9.355,98.67 6.726,95.505 16.771,95.505 "/>
<polygon fill="#63A243" points="15.03,97.789 20.23,97.789 20.23,104.701 11.46,104.644 "/>
<path fill="#B02934" d="M23.822,144.404c-1.499,0.998-2.854,0-2.854,0v-17.121h2.854V144.404z"/>
<polygon fill="#B02934" points="12.571,133.562 6.324,133.562 8.953,130.448 6.324,127.283 16.369,127.283 "/>
<polygon fill="#B02934" points="14.628,129.567 19.828,129.567 19.828,136.479 11.058,136.422 "/>
</svg>
