<?xml version="1.0" encoding="utf-8"?>
<!-- Generator: Adobe Illustrator 15.0.2, SVG Export Plug-In . SVG Version: 6.00 Build 0)  -->
<!DOCTYPE svg PUBLIC "-//W3C//DTD SVG 1.1//EN" "http://www.w3.org/Graphics/SVG/1.1/DTD/svg11.dtd">
<svg version="1.1" id="Layer_1" xmlns="http://www.w3.org/2000/svg" xmlns:xlink="http://www.w3.org/1999/xlink" x="0px" y="0px"
	 width="50px" height="100px" viewBox="0 0 50 100" enable-background="new 0 0 50 100" xml:space="preserve">
<g>
	
		<radialGradient id="SVGID_1_" cx="1591.4951" cy="-1804.9702" r="67.6685" gradientTransform="matrix(1.0008 0 0 1 -1558.8569 1802)" gradientUnits="userSpaceOnUse">
		<stop  offset="0.454" style="stop-color:#CFEDFC"/>
		<stop  offset="1" style="stop-color:#29AAE1"/>
	</radialGradient>
	<rect x="0" fill="url(#SVGID_1_)" width="50" height="50"/>
	
		<radialGradient id="SVGID_2_" cx="1336.1982" cy="-191.731" r="62.2948" gradientTransform="matrix(1 0 0 -1 -1303 -141)" gradientUnits="userSpaceOnUse">
		<stop  offset="0.454" style="stop-color:#CFEDFC"/>
		<stop  offset="1" style="stop-color:#29AAE1"/>
	</radialGradient>
	<rect x="2" y="2" fill="url(#SVGID_2_)" width="46" height="46"/>
</g>
<linearGradient id="SVGID_3_" gradientUnits="userSpaceOnUse" x1="621.6836" y1="-2521.2476" x2="647.9473" y2="-2521.2476" gradientTransform="matrix(0.7071 0.7071 -0.7071 0.7071 -2189.8008 1355.6211)">
	<stop  offset="0.454" style="stop-color:#F2C235"/>
	<stop  offset="1" style="stop-color:#F8ED34"/>
</linearGradient>
<polygon fill="url(#SVGID_3_)" stroke="#FBB041" stroke-width="0.25" stroke-miterlimit="10" points="46.369,35.778 39.623,42.521 
	21.046,23.96 42.09,3.138 46.387,3.22 "/>
<linearGradient id="SVGID_4_" gradientUnits="userSpaceOnUse" x1="1587.918" y1="-1767.4033" x2="1580.55" y2="-1760.0354" gradientTransform="matrix(1 0 0 1 -1559 1802)">
	<stop  offset="0.454" style="stop-color:#F2C235"/>
	<stop  offset="1" style="stop-color:#F8ED34"/>
</linearGradient>
<path fill="url(#SVGID_4_)" stroke="#FBB041" stroke-width="0.25" stroke-miterlimit="10" d="M24.453,46.371
	c-0.497,0.445-1.437,0.568-2.107,0.277l-8.636-3.739c-0.672-0.285-0.818-0.885-0.322-1.328l13.776-12.427
	c0.493-0.441,1.437-0.564,2.105-0.276l6.341,5.926c0.671,0.288,0.812,0.883,0.317,1.327L24.453,46.371z"/>
<path fill="#424143" d="M40.522,41.751c-0.929-0.926-7.279-2.389-10.284,0.615L20.6,34.025c3.006-3.004,2.794-9.372,1.871-10.3
	L40.522,41.751z"/>
<polygon fill="#424143" points="38.939,43.756 19.812,24.644 23.077,21.427 42.207,40.541 "/>
<g>
	
		<radialGradient id="SVGID_5_" cx="1592.9111" cy="-1754.9707" r="67.6646" gradientTransform="matrix(1 0 0 1 -1559 1802)" gradientUnits="userSpaceOnUse">
		<stop  offset="0.454" style="stop-color:#CFEDFC"/>
		<stop  offset="1" style="stop-color:#29AAE1"/>
	</radialGradient>
	<rect x="0" y="50" fill="url(#SVGID_5_)" width="50" height="50"/>
	
		<radialGradient id="SVGID_6_" cx="1336.1982" cy="-241.7334" r="62.2517" gradientTransform="matrix(1 0 0 -1 -1303 -141)" gradientUnits="userSpaceOnUse">
		<stop  offset="0.454" style="stop-color:#CFEDFC"/>
		<stop  offset="1" style="stop-color:#29AAE1"/>
	</radialGradient>
	<rect x="2" y="52" fill="url(#SVGID_6_)" width="46" height="46"/>
</g>
<g>
	<path fill="#010101" d="M16.578,82.355c-0.49,0-0.879-0.143-1.17-0.41c-0.289-0.277-0.434-0.729-0.434-1.354
		c-0.52,0.623-1.124,1.07-1.814,1.354c-0.69,0.271-1.436,0.41-2.237,0.41c-0.519,0-1.009-0.061-1.469-0.166
		c-0.46-0.111-0.864-0.301-1.213-0.561c-0.349-0.262-0.624-0.596-0.823-1.004c-0.201-0.406-0.301-0.9-0.301-1.479
		c0-0.652,0.112-1.189,0.333-1.605c0.223-0.412,0.515-0.752,0.879-1.012c0.363-0.262,0.779-0.457,1.246-0.592
		c0.467-0.137,0.947-0.242,1.437-0.334c0.519-0.104,1.013-0.182,1.48-0.23c0.467-0.053,0.879-0.127,1.235-0.225
		c0.356-0.1,0.638-0.236,0.846-0.424c0.207-0.188,0.311-0.455,0.311-0.812c0-0.414-0.078-0.75-0.233-1.002
		c-0.156-0.25-0.357-0.443-0.601-0.578c-0.245-0.133-0.52-0.221-0.823-0.268c-0.305-0.045-0.605-0.066-0.901-0.066
		c-0.802,0-1.469,0.152-2.004,0.457c-0.534,0.307-0.824,0.883-0.868,1.727H7.562c0.03-0.713,0.178-1.312,0.445-1.803
		c0.268-0.49,0.624-0.889,1.068-1.189c0.446-0.307,0.958-0.521,1.536-0.656c0.579-0.131,1.188-0.199,1.825-0.199
		c0.52,0,1.035,0.037,1.547,0.111c0.513,0.07,0.977,0.229,1.391,0.455c0.416,0.229,0.75,0.555,1.001,0.971
		c0.253,0.414,0.379,0.957,0.379,1.625v5.92c0,0.445,0.026,0.771,0.078,0.979c0.052,0.207,0.227,0.312,0.523,0.312
		c0.164,0,0.356-0.035,0.579-0.111v1.469C17.608,82.26,17.156,82.355,16.578,82.355z M13.928,76.557
		c-0.386,0.082-0.79,0.146-1.213,0.201c-0.423,0.053-0.851,0.107-1.281,0.178c-0.43,0.066-0.816,0.178-1.156,0.322
		c-0.342,0.146-0.621,0.359-0.835,0.635c-0.215,0.273-0.322,0.648-0.322,1.125c0,0.312,0.062,0.576,0.188,0.789
		c0.125,0.219,0.29,0.395,0.49,0.521c0.201,0.137,0.438,0.229,0.713,0.289c0.274,0.062,0.553,0.09,0.834,0.09
		c0.623,0,1.157-0.086,1.603-0.256c0.444-0.172,0.808-0.385,1.09-0.646c0.282-0.261,0.49-0.541,0.623-0.847
		c0.133-0.306,0.2-0.591,0.2-0.854v-1.938C14.626,76.344,14.314,76.477,13.928,76.557z"/>
	<path fill="#010101" d="M21.651,66.217v5.941h0.045c0.311-0.637,0.8-1.104,1.469-1.395c0.667-0.285,1.402-0.436,2.204-0.436
		c0.891,0,1.666,0.164,2.326,0.49s1.209,0.768,1.646,1.324c0.438,0.555,0.768,1.195,0.99,1.926c0.223,0.729,0.334,1.498,0.334,2.311
		c0,0.818-0.107,1.592-0.324,2.316c-0.213,0.727-0.541,1.361-0.979,1.904c-0.438,0.541-0.986,0.967-1.646,1.271
		c-0.66,0.312-1.428,0.471-2.303,0.471c-0.283,0-0.598-0.027-0.946-0.092c-0.349-0.061-0.694-0.15-1.035-0.289
		c-0.341-0.133-0.665-0.312-0.968-0.547c-0.304-0.229-0.561-0.514-0.768-0.854h-0.045v1.537h-1.892V66.201h1.892V66.217
		L21.651,66.217z M28.452,74.688c-0.141-0.512-0.356-0.969-0.646-1.365c-0.29-0.4-0.66-0.723-1.113-0.957
		c-0.453-0.236-0.983-0.355-1.591-0.355c-0.639,0-1.18,0.127-1.625,0.379c-0.445,0.256-0.809,0.584-1.09,0.992
		c-0.283,0.404-0.486,0.869-0.612,1.395c-0.127,0.521-0.189,1.045-0.189,1.574c0,0.564,0.067,1.109,0.2,1.643
		c0.133,0.521,0.345,0.988,0.634,1.393c0.29,0.398,0.664,0.727,1.125,0.967c0.459,0.246,1.016,0.369,1.669,0.369
		c0.652,0,1.198-0.127,1.636-0.379s0.79-0.59,1.057-1.002c0.267-0.414,0.46-0.893,0.579-1.426c0.119-0.531,0.18-1.082,0.18-1.646
		C28.664,75.723,28.592,75.201,28.452,74.688z"/>
	<path fill="#010101" d="M39.771,72.607c-0.477-0.402-1.114-0.605-1.915-0.605c-0.683,0-1.253,0.129-1.713,0.381
		c-0.46,0.254-0.828,0.588-1.103,1.002c-0.274,0.416-0.472,0.896-0.591,1.438c-0.118,0.541-0.177,1.102-0.177,1.678
		c0,0.535,0.062,1.057,0.188,1.562c0.127,0.508,0.324,0.953,0.592,1.35c0.267,0.395,0.615,0.709,1.045,0.945
		c0.431,0.234,0.943,0.354,1.537,0.354c0.935,0,1.666-0.243,2.191-0.735c0.527-0.484,0.85-1.178,0.969-2.064h1.937
		c-0.208,1.424-0.738,2.521-1.591,3.293c-0.854,0.772-2.014,1.158-3.483,1.158c-0.875,0-1.651-0.145-2.325-0.426
		c-0.677-0.279-1.24-0.686-1.693-1.199c-0.452-0.521-0.793-1.141-1.022-1.858c-0.231-0.72-0.345-1.509-0.345-2.37
		c0-0.855,0.111-1.664,0.333-2.414c0.223-0.748,0.562-1.398,1.014-1.959c0.452-0.557,1.021-0.994,1.703-1.312
		c0.683-0.316,1.478-0.479,2.381-0.479c0.653,0,1.265,0.078,1.837,0.232c0.57,0.156,1.076,0.396,1.514,0.725
		c0.438,0.325,0.797,0.738,1.08,1.232c0.281,0.5,0.459,1.088,0.535,1.771h-1.959C40.558,73.572,40.246,73.006,39.771,72.607z"/>
</g>
<line fill="none" stroke="#010101" stroke-width="2" stroke-miterlimit="10" x1="4" y1="86.624" x2="46" y2="86.624"/>
</svg>
