<?xml version="1.0" encoding="utf-8"?>
<!-- Generator: Adobe Illustrator 15.0.2, SVG Export Plug-In . SVG Version: 6.00 Build 0)  -->
<!DOCTYPE svg PUBLIC "-//W3C//DTD SVG 1.1//EN" "http://www.w3.org/Graphics/SVG/1.1/DTD/svg11.dtd">
<svg version="1.1" id="Layer_1" xmlns="http://www.w3.org/2000/svg" xmlns:xlink="http://www.w3.org/1999/xlink" x="0px" y="0px"
	 width="310.014px" height="311.061px" viewBox="0 0 310.014 311.061" enable-background="new 0 0 310.014 311.061"
	 xml:space="preserve">
<path opacity="0.4" enable-background="new    " d="M72,42.152C72,45.382,69.382,48,66.152,48H8.848C5.618,48,3,45.382,3,42.152
	V8.848C3,5.618,5.618,3,8.848,3h57.304C69.382,3,72,5.618,72,8.848V42.152z"/>
<path opacity="0.4" enable-background="new    " d="M151,42.152c0,3.23-2.618,5.848-5.848,5.848H87.848
	C84.618,48,82,45.382,82,42.152V8.848C82,5.618,84.618,3,87.848,3h57.305C148.382,3,151,5.618,151,8.848V42.152z"/>
<path opacity="0.4" enable-background="new    " d="M230,42.152c0,3.23-2.617,5.848-5.847,5.848h-57.307
	c-3.229,0-5.848-2.618-5.848-5.848V8.848C161,5.618,163.617,3,166.847,3h57.307C227.383,3,230,5.618,230,8.848V42.152z"/>
<path opacity="0.4" enable-background="new    " d="M72,96.152c0,3.23-2.618,5.848-5.848,5.848H8.848C5.618,102,3,99.382,3,96.152
	V62.848C3,59.618,5.618,57,8.848,57h57.304C69.382,57,72,59.618,72,62.848V96.152z"/>
<path opacity="0.4" enable-background="new    " d="M152,96.152c0,3.23-2.618,5.848-5.848,5.848H88.848
	C85.618,102,83,99.382,83,96.152V62.848C83,59.618,85.618,57,88.848,57h57.305c3.229,0,5.848,2.618,5.848,5.848L152,96.152
	L152,96.152z"/>
<path opacity="0.4" enable-background="new    " d="M230,96.152c0,3.23-2.617,5.848-5.847,5.848h-57.307
	c-3.229,0-5.848-2.618-5.848-5.848V62.848c0-3.23,2.617-5.848,5.848-5.848h57.307c3.229,0,5.847,2.618,5.847,5.848V96.152
	L230,96.152z"/>
<path opacity="0.4" enable-background="new    " d="M310,95.718c0,3.23-2.946,6.282-6.176,6.282h-57.01
	c-3.229,0-5.814-3.052-5.814-6.282V62.606c0-3.23,2.586-5.606,5.814-5.606h57.01c3.229,0,6.176,2.376,6.176,5.606V95.718z"/>
<path opacity="0.4" enable-background="new    " d="M72,149.486c0,3.229-2.924,5.514-6.153,5.514H8.837
	C5.607,155,3,152.716,3,149.486v-33.111C3,113.146,5.607,111,8.837,111h57.01c3.229,0,6.153,2.146,6.153,5.375V149.486z"/>
<path opacity="0.4" enable-background="new    " d="M151,149.486c0,3.229-2.266,5.514-5.496,5.514h-57.01
	c-3.229,0-5.495-2.284-5.495-5.514v-33.111c0-3.23,2.266-5.375,5.495-5.375h57.01c3.229,0,5.496,2.146,5.496,5.375V149.486z"/>
<path opacity="0.4" enable-background="new    " d="M230,149.486c0,3.229-2.604,5.514-5.833,5.514h-57.011
	c-3.229,0-6.156-2.284-6.156-5.514v-33.111c0-3.23,2.927-5.375,6.156-5.375h57.011c3.229,0,5.833,2.146,5.833,5.375V149.486z"/>
<path opacity="0.4" enable-background="new    " d="M310,149.486c0,3.229-2.946,5.514-6.176,5.514h-57.01
	c-3.229,0-5.814-2.284-5.814-5.514v-33.111c0-3.23,2.586-5.375,5.814-5.375h57.01c3.229,0,6.176,2.146,6.176,5.375V149.486z"/>
<path opacity="0.4" enable-background="new    " d="M310,202.15c0,3.23-2.618,5.85-5.848,5.85h-57.305
	c-3.229,0-5.849-2.618-5.849-5.85v-33.303c0-3.229,2.618-5.849,5.849-5.849h57.305c3.229,0,5.848,2.618,5.848,5.849V202.15z"/>
<path opacity="0.4" enable-background="new    " d="M310,254.152c0,3.229-2.618,5.848-5.848,5.848h-57.305
	c-3.229,0-5.849-2.618-5.849-5.848v-33.305c0-3.229,2.618-5.849,5.849-5.849h57.305c3.229,0,5.848,2.618,5.848,5.849V254.152z"/>
<path opacity="0.4" enable-background="new    " d="M72,202.15c0,3.23-2.618,5.85-5.848,5.85H8.848C5.618,208,3,205.382,3,202.15
	v-33.303C3,165.618,5.618,163,8.848,163h57.304c3.229,0,5.848,2.618,5.848,5.85V202.15z"/>
<path opacity="0.4" enable-background="new    " d="M152,202.15c0,3.23-2.618,5.85-5.848,5.85H88.848
	c-3.229,0-5.849-2.618-5.849-5.85v-33.303c0-3.229,2.618-5.849,5.849-5.849h57.305c3.229,0,5.848,2.618,5.848,5.849L152,202.15
	L152,202.15z"/>
<path opacity="0.4" enable-background="new    " d="M230,202.15c0,3.23-2.617,5.85-5.847,5.85h-57.307
	c-3.229,0-5.848-2.618-5.848-5.85v-33.303c0-3.229,2.617-5.849,5.848-5.849h57.307c3.229,0,5.847,2.618,5.847,5.849V202.15
	L230,202.15z"/>
<path opacity="0.4" enable-background="new    " d="M145.777,215h-39.856h-17.79H8.886C5.656,215,3,218.548,3,221.777v32.58
	C3,257.59,5.656,260,8.886,260h79.245h17.79h39.856c3.229,0,6.223-2.41,6.223-5.643v-32.58C152,218.548,149.007,215,145.777,215z"/>
<path opacity="0.4" enable-background="new    " d="M230,254.152c0,3.229-2.617,5.848-5.847,5.848h-57.307
	c-3.229,0-5.848-2.618-5.848-5.848v-33.305c0-3.229,2.617-5.849,5.848-5.849h57.307c3.229,0,5.847,2.618,5.847,5.849V254.152
	L230,254.152z"/>
<radialGradient id="SVGID_1_" cx="272.4998" cy="62" r="29.1247" gradientTransform="matrix(1 0 0 -1 -237.5 85)" gradientUnits="userSpaceOnUse">
	<stop  offset="0" style="stop-color:#000000"/>
	<stop  offset="1" style="stop-color:#000000"/>
</radialGradient>
<path fill="url(#SVGID_1_)" stroke="#000000" stroke-miterlimit="10" d="M69.5,39.652c0,3.23-2.618,5.848-5.848,5.848H6.348
	c-3.23,0-5.849-2.618-5.849-5.848V6.348C0.5,3.118,3.118,0.5,6.348,0.5h57.304c3.229,0,5.848,2.618,5.848,5.848V39.652z"/>
<g>
	<path fill="#FFFFFF" d="M44.643,16.913c-5.625,5.198-6.975,12.139-6.908,17.567h-7.271c-0.065,0,0.197-7.336,4.671-13.718
		c2.172-3.224,2.829-3.586,2.797-3.586H26.977v-5.593h17.666V16.913z"/>
</g>
<radialGradient id="SVGID_2_" cx="262.5134" cy="36.3101" r="75.6267" gradientTransform="matrix(1 0 0 -1 -237.5 85)" gradientUnits="userSpaceOnUse">
	<stop  offset="0" style="stop-color:#FFFFFF;stop-opacity:0"/>
	<stop  offset="1" style="stop-color:#FFFFFF"/>
</radialGradient>
<path opacity="0.2" fill="url(#SVGID_2_)" enable-background="new    " d="M69,20.073V6.902C69,3.795,66.056,1,62.948,1H7.479
	C4.372,1,2,3.795,2,6.902v13.17C13,30.476,55,30.821,69,20.073z"/>
<radialGradient id="SVGID_3_" cx="351.4998" cy="62" r="29.1247" gradientTransform="matrix(1 0 0 -1 -237.5 85)" gradientUnits="userSpaceOnUse">
	<stop  offset="0" style="stop-color:#000000"/>
	<stop  offset="1" style="stop-color:#000000"/>
</radialGradient>
<path fill="url(#SVGID_3_)" stroke="#000000" stroke-miterlimit="10" d="M148.5,39.652c0,3.23-2.618,5.848-5.847,5.848H85.347
	c-3.229,0-5.848-2.618-5.848-5.848V6.348c0-3.23,2.618-5.848,5.848-5.848h57.306c3.229,0,5.847,2.618,5.847,5.848V39.652z"/>
<g>
	<path fill="#FFFFFF" d="M115.073,11.32c6.284,0,9.277,2.961,9.277,6.284c0,2.369-1.415,4.31-3.586,4.803v0.066
		c2.532,0.263,4.507,2.204,4.507,5.033c0,5.428-5.561,7.238-10.198,7.238c-4.935,0-10.166-1.678-10.166-7.238
		c0-3.915,2.928-4.737,4.573-5.033v-0.066c-2.436-0.658-3.554-2.335-3.554-4.803C105.927,12.57,111.29,11.32,115.073,11.32z
		 M115.073,30.006c1.612,0,3.685-0.559,3.685-2.533c0-2.204-1.645-2.961-3.618-2.961c-1.908,0-3.719,0.658-3.719,2.961
		C111.421,29.447,113.428,30.006,115.073,30.006z M115.04,20.663c1.612,0,3.454-0.493,3.454-2.401c0-2.171-1.711-2.566-3.421-2.566
		c-1.711,0-3.29,0.494-3.29,2.566C111.783,20.071,113.461,20.663,115.04,20.663z"/>
</g>
<radialGradient id="SVGID_4_" cx="341.8269" cy="36.3101" r="73.7827" gradientTransform="matrix(1 0 0 -1 -237.5 85)" gradientUnits="userSpaceOnUse">
	<stop  offset="0" style="stop-color:#FFFFFF;stop-opacity:0"/>
	<stop  offset="1" style="stop-color:#FFFFFF"/>
</radialGradient>
<path opacity="0.2" fill="url(#SVGID_4_)" enable-background="new    " d="M147,20.073V6.902C147,3.795,145.303,1,142.195,1h-55.47
	C83.618,1,82,3.795,82,6.902v13.17C92,30.476,134,30.821,147,20.073z"/>
<radialGradient id="SVGID_5_" cx="430.4998" cy="62" r="29.1247" gradientTransform="matrix(1 0 0 -1 -237.5 85)" gradientUnits="userSpaceOnUse">
	<stop  offset="0" style="stop-color:#000000"/>
	<stop  offset="1" style="stop-color:#000000"/>
</radialGradient>
<path fill="url(#SVGID_5_)" stroke="#000000" stroke-miterlimit="10" d="M227.5,39.557c0,3.23-2.779,5.943-6.009,5.943h-57.045
	c-3.229,0-5.946-2.713-5.946-5.943V6.573c0-3.23,2.717-6.073,5.946-6.073h57.045c3.229,0,6.009,2.843,6.009,6.073V39.557z"/>
<g>
	<path fill="#FFFFFF" d="M190.964,28.46c0.133,0.494,0.526,0.954,1.021,1.217c0.525,0.263,1.118,0.329,1.579,0.329
		c2.961,0,3.75-2.73,4.111-4.606l-0.064-0.065c-1.448,1.25-3.191,1.809-5.133,1.809c-4.475,0-7.765-2.566-7.765-7.27
		c0-5.56,4.441-8.554,9.641-8.554c6.711,0,9.639,5.132,9.639,10.889c0,7.271-3.421,12.534-10.429,12.534
		c-4.244,0-7.896-1.776-8.619-6.284L190.964,28.46L190.964,28.46z M190.767,19.676c0,1.777,1.579,3.092,3.289,3.092
		c1.776,0,3.29-1.217,3.29-3.059c0-1.81-1.414-3.191-3.225-3.191C192.378,16.518,190.767,17.867,190.767,19.676z"/>
</g>
<radialGradient id="SVGID_6_" cx="420.5134" cy="36.3101" r="75.6267" gradientTransform="matrix(1 0 0 -1 -237.5 85)" gradientUnits="userSpaceOnUse">
	<stop  offset="0" style="stop-color:#FFFFFF;stop-opacity:0"/>
	<stop  offset="1" style="stop-color:#FFFFFF"/>
</radialGradient>
<path opacity="0.2" fill="url(#SVGID_6_)" enable-background="new    " d="M227,20.073V6.902C227,3.795,224.548,1,221.441,1h-55.47
	C162.865,1,160,3.795,160,6.902v13.17C172,30.476,213,30.821,227,20.073z"/>
<radialGradient id="SVGID_7_" cx="499.5134" cy="36.3101" r="75.6267" gradientTransform="matrix(1 0 0 -1 -237.5 85)" gradientUnits="userSpaceOnUse">
	<stop  offset="0" style="stop-color:#FFFFFF;stop-opacity:0"/>
	<stop  offset="1" style="stop-color:#FFFFFF"/>
</radialGradient>
<path opacity="0.49" fill="url(#SVGID_7_)" enable-background="new    " d="M306,20.073V6.902C306,3.795,303.796,1,300.688,1h-55.47
	C242.111,1,239,3.795,239,6.902v13.17C251,30.476,293,30.821,306,20.073z"/>
<radialGradient id="SVGID_8_" cx="272.4998" cy="9" r="29.1247" gradientTransform="matrix(1 0 0 -1 -237.5 85)" gradientUnits="userSpaceOnUse">
	<stop  offset="0" style="stop-color:#000000"/>
	<stop  offset="1" style="stop-color:#000000"/>
</radialGradient>
<path fill="url(#SVGID_8_)" stroke="#000000" stroke-miterlimit="10" d="M69.5,92.651c0,3.23-2.618,5.849-5.848,5.849H6.348
	c-3.23,0-5.849-2.619-5.849-5.849V59.349c0-3.23,2.618-5.849,5.849-5.849h57.304c3.229,0,5.848,2.619,5.848,5.849V92.651z"/>
<g>
	<path fill="#FFFFFF" d="M36.023,83.189H25.858v-6.185l10.461-12.172h6.547v12.765h3.092v5.592h-3.092v4.54h-6.843V83.189
		L36.023,83.189z M30.431,77.597h5.593v-6.416L30.431,77.597z"/>
</g>
<radialGradient id="SVGID_9_" cx="262.5134" cy="-16.3618" r="75.2491" gradientTransform="matrix(1 0 0 -1 -237.5 85)" gradientUnits="userSpaceOnUse">
	<stop  offset="0" style="stop-color:#FFFFFF;stop-opacity:0"/>
	<stop  offset="1" style="stop-color:#FFFFFF"/>
</radialGradient>
<path opacity="0.2" fill="url(#SVGID_9_)" enable-background="new    " d="M69,73.322V60.15c0-3.107-2.943-5.15-6.052-5.15H7.479
	C4.372,55,2,57.043,2,60.15v13.171C13,83.726,55,84.07,69,73.322z"/>
<radialGradient id="SVGID_10_" cx="351.4998" cy="9" r="29.1247" gradientTransform="matrix(1 0 0 -1 -237.5 85)" gradientUnits="userSpaceOnUse">
	<stop  offset="0" style="stop-color:#000000"/>
	<stop  offset="1" style="stop-color:#000000"/>
</radialGradient>
<path fill="url(#SVGID_10_)" stroke="#000000" stroke-miterlimit="10" d="M148.5,92.651c0,3.23-2.618,5.849-5.847,5.849H85.347
	c-3.229,0-5.848-2.619-5.848-5.849V59.349c0-3.23,2.618-5.849,5.848-5.849h57.306c3.229,0,5.847,2.619,5.847,5.849V92.651z"/>
<g>
	<path fill="#FFFFFF" d="M123.495,70.425h-10.659l-0.657,3.026l0.065,0.066c1.415-1.053,3.29-1.349,5-1.349
		c4.079,0,7.468,2.369,7.468,7.764c0,4.639-3.651,8.06-10.264,8.06c-8.455,0-10.001-5.198-9.804-7.468h6.48
		c0.131,0.592,0.46,1.151,0.921,1.513c0.658,0.526,1.579,0.757,2.6,0.757c1.908,0,3.486-1.25,3.486-3.06
		c0-2.007-1.315-3.191-3.29-3.191c-1.546,0-2.632,0.427-3.322,1.48H105.4l2.369-13.192h15.725L123.495,70.425L123.495,70.425z"/>
</g>
<radialGradient id="SVGID_11_" cx="341.8269" cy="-16.3618" r="73.3957" gradientTransform="matrix(1 0 0 -1 -237.5 85)" gradientUnits="userSpaceOnUse">
	<stop  offset="0" style="stop-color:#FFFFFF;stop-opacity:0"/>
	<stop  offset="1" style="stop-color:#FFFFFF"/>
</radialGradient>
<path opacity="0.2" fill="url(#SVGID_11_)" enable-background="new    " d="M147,73.322V60.15c0-3.107-1.696-5.15-4.805-5.15h-55.47
	C83.618,55,82,57.043,82,60.15v13.171C92,83.726,134,84.07,147,73.322z"/>
<radialGradient id="SVGID_12_" cx="430.4998" cy="9" r="29.1247" gradientTransform="matrix(1 0 0 -1 -237.5 85)" gradientUnits="userSpaceOnUse">
	<stop  offset="0" style="stop-color:#000000"/>
	<stop  offset="1" style="stop-color:#000000"/>
</radialGradient>
<path fill="url(#SVGID_12_)" stroke="#000000" stroke-miterlimit="10" d="M227.5,92.675c0,3.217-2.701,5.825-6.033,5.825h-56.934
	c-3.332,0-6.033-2.608-6.033-5.825v-33.35c0-3.217,2.701-5.825,6.033-5.825h56.934c3.332,0,6.033,2.608,6.033,5.825V92.675
	L227.5,92.675z"/>
<g>
	<path fill="#FFFFFF" d="M197.708,70.951c-0.132-0.428-0.461-0.888-0.954-1.25c-0.461-0.296-1.053-0.395-1.775-0.395
		c-2.501,0-3.751,2.435-3.981,4.705c1.547-1.415,3.226-1.777,5.297-1.777c4.408,0,7.665,2.83,7.665,7.304
		c0,5.625-3.946,8.455-9.408,8.455c-6.94,0-9.771-5.264-9.771-10.889c0-7.205,3.322-12.534,10.329-12.534
		c4.936,0,7.896,1.908,8.62,6.382L197.708,70.951L197.708,70.951z M191.424,79.636c0,1.809,1.316,3.158,3.126,3.158
		c1.975,0,3.355-1.415,3.355-3.158c0-1.612-1.316-3.027-3.355-3.027C192.773,76.609,191.424,77.925,191.424,79.636z"/>
</g>
<radialGradient id="SVGID_13_" cx="420.5125" cy="-16.3618" r="75.2499" gradientTransform="matrix(1 0 0 -1 -237.5 85)" gradientUnits="userSpaceOnUse">
	<stop  offset="0" style="stop-color:#FFFFFF;stop-opacity:0"/>
	<stop  offset="1" style="stop-color:#FFFFFF"/>
</radialGradient>
<path opacity="0.2" fill="url(#SVGID_13_)" enable-background="new    " d="M227,73.322V60.15c0-3.107-2.452-5.15-5.559-5.15h-55.47
	c-3.106,0-5.973,2.043-5.973,5.15v13.171C172,83.726,213,84.07,227,73.322z"/>
<radialGradient id="SVGID_14_" cx="501.2273" cy="-5.6826" r="58.8455" gradientTransform="matrix(1 0 0 -1 -237.5 85)" gradientUnits="userSpaceOnUse">
	<stop  offset="0" style="stop-color:#FBB040"/>
	<stop  offset="1" style="stop-color:#F15A29"/>
</radialGradient>
<path fill="url(#SVGID_14_)" stroke="#E6E7E8" stroke-miterlimit="10" d="M307.5,92.232c0,3.23-2.937,6.268-6.165,6.268h-57.01
	c-3.229,0-5.825-3.038-5.825-6.268v-33.11c0-3.229,2.598-5.622,5.825-5.622h57.01c3.229,0,6.165,2.392,6.165,5.622V92.232z"/>
<radialGradient id="SVGID_15_" cx="499.5134" cy="-16.3618" r="75.2491" gradientTransform="matrix(1 0 0 -1 -237.5 85)" gradientUnits="userSpaceOnUse">
	<stop  offset="0" style="stop-color:#FFFFFF;stop-opacity:0"/>
	<stop  offset="1" style="stop-color:#FFFFFF"/>
</radialGradient>
<path opacity="0.49" fill="url(#SVGID_15_)" enable-background="new    " d="M306,73.322V60.15c0-3.107-2.204-5.15-5.312-5.15
	h-55.47c-3.106,0-6.219,2.043-6.219,5.15v13.171C251,83.726,293,84.07,306,73.322z"/>
<path opacity="0.4" enable-background="new    " d="M310,43.152c0,3.229-2.618,5.848-5.848,5.848h-57.305
	c-3.229,0-5.849-2.618-5.849-5.848V9.848C241,6.618,243.618,4,246.848,4h57.305C307.382,4,310,6.618,310,9.848V43.152z"/>
<radialGradient id="SVGID_16_" cx="501.2273" cy="47.3174" r="58.8455" gradientTransform="matrix(1 0 0 -1 -237.5 85)" gradientUnits="userSpaceOnUse">
	<stop  offset="0" style="stop-color:#FBB040"/>
	<stop  offset="1" style="stop-color:#F15A29"/>
</radialGradient>
<path fill="url(#SVGID_16_)" stroke="#E6E7E8" stroke-miterlimit="10" d="M307.5,39.459c0,3.23-2.937,6.041-6.165,6.041h-57.01
	c-3.229,0-5.825-2.811-5.825-6.041V6.349c0-3.23,2.598-5.849,5.825-5.849h57.01c3.229,0,6.165,2.619,6.165,5.849V39.459z"/>
<radialGradient id="SVGID_17_" cx="499.5134" cy="36.2388" r="75.3616" gradientTransform="matrix(1 0 0 -1 -237.5 85)" gradientUnits="userSpaceOnUse">
	<stop  offset="0" style="stop-color:#FFFFFF;stop-opacity:0"/>
	<stop  offset="1" style="stop-color:#FFFFFF"/>
</radialGradient>
<path opacity="0.49" fill="url(#SVGID_17_)" enable-background="new    " d="M306,20.549V7.377C306,4.27,303.796,2,300.688,2h-55.47
	C242.111,2,239,4.27,239,7.377v13.172C251,30.952,293,31.297,306,20.549z"/>
<radialGradient id="SVGID_18_" cx="272.4998" cy="-43.9995" r="29.1249" gradientTransform="matrix(1 0 0 -1 -237.5 85)" gradientUnits="userSpaceOnUse">
	<stop  offset="0" style="stop-color:#000000"/>
	<stop  offset="1" style="stop-color:#000000"/>
</radialGradient>
<path fill="url(#SVGID_18_)" stroke="#000000" stroke-miterlimit="10" d="M69.5,145.65c0,3.23-2.618,5.85-5.848,5.85H6.348
	c-3.23,0-5.849-2.618-5.849-5.85v-33.302c0-3.23,2.618-5.849,5.849-5.849h57.304c3.229,0,5.848,2.619,5.848,5.849V145.65z"/>
<g>
	<path fill="#FFFFFF" d="M34.05,127.786h-5.361v-4.737c3.321,0.065,6.611-1.185,6.81-4.968h5.396v22.897H34.05V127.786z"/>
</g>
<radialGradient id="SVGID_19_" cx="262.5134" cy="-69.8003" r="75.3724" gradientTransform="matrix(1 0 0 -1 -237.5 85)" gradientUnits="userSpaceOnUse">
	<stop  offset="0" style="stop-color:#FFFFFF;stop-opacity:0"/>
	<stop  offset="1" style="stop-color:#FFFFFF"/>
</radialGradient>
<path opacity="0.2" fill="url(#SVGID_19_)" enable-background="new    " d="M69,126.57V113.4c0-3.108-2.943-5.4-6.052-5.4H7.479
	C4.372,108,2,110.292,2,113.4v13.17C13,136.975,55,137.318,69,126.57z"/>
<radialGradient id="SVGID_20_" cx="351.4998" cy="-43.9995" r="29.1249" gradientTransform="matrix(1 0 0 -1 -237.5 85)" gradientUnits="userSpaceOnUse">
	<stop  offset="0" style="stop-color:#000000"/>
	<stop  offset="1" style="stop-color:#000000"/>
</radialGradient>
<path fill="url(#SVGID_20_)" stroke="#000000" stroke-miterlimit="10" d="M148.5,145.65c0,3.23-2.618,5.85-5.847,5.85H85.347
	c-3.229,0-5.848-2.618-5.848-5.85v-33.302c0-3.23,2.618-5.849,5.848-5.849h57.306c3.229,0,5.847,2.619,5.847,5.849V145.65z"/>
<g>
	<path fill="#FFFFFF" d="M105.729,127.72c-0.362-6.284,3.553-9.902,9.705-9.902c5.56,0,9.343,2.336,9.343,7.205
		c0,5.856-5.724,7.698-10.034,10.331v-0.033v0.065h10.363v5.593h-19.837c-0.131-2.203,0.525-4.111,1.645-5.658
		c1.908-2.664,5.198-4.408,8.126-6.185c1.185-0.724,3.092-1.645,3.092-3.323c0-2.072-1.217-2.796-2.764-2.796
		c-2.632,0-3.52,1.908-3.454,4.705h-6.185V127.72z"/>
</g>
<radialGradient id="SVGID_21_" cx="341.8269" cy="-69.8003" r="73.5221" gradientTransform="matrix(1 0 0 -1 -237.5 85)" gradientUnits="userSpaceOnUse">
	<stop  offset="0" style="stop-color:#FFFFFF;stop-opacity:0"/>
	<stop  offset="1" style="stop-color:#FFFFFF"/>
</radialGradient>
<path opacity="0.2" fill="url(#SVGID_21_)" enable-background="new    " d="M147,126.57V113.4c0-3.108-1.696-5.4-4.805-5.4h-55.47
	c-3.106,0-4.726,2.292-4.726,5.4v13.17C92,136.975,134,137.318,147,126.57z"/>
<radialGradient id="SVGID_22_" cx="430.4988" cy="-43.9995" r="29.1255" gradientTransform="matrix(1 0 0 -1 -237.5 85)" gradientUnits="userSpaceOnUse">
	<stop  offset="0" style="stop-color:#000000"/>
	<stop  offset="1" style="stop-color:#000000"/>
</radialGradient>
<path fill="url(#SVGID_22_)" stroke="#000000" stroke-miterlimit="10" d="M227.5,145.65c0,3.23-2.617,5.85-5.847,5.85h-57.307
	c-3.229,0-5.848-2.618-5.848-5.85v-33.302c0-3.23,2.617-5.849,5.848-5.849h57.307c3.229,0,5.847,2.619,5.847,5.849V145.65
	L227.5,145.65z"/>
<g>
	<path fill="#FFFFFF" d="M185.141,125.713c0.032-2.698,1.118-4.671,2.861-5.987c1.743-1.283,4.112-1.908,6.68-1.908
		c6.645,0,8.849,3.948,8.849,5.889c0,4.803-3.026,4.803-3.026,4.902v0.066c0,0.263,3.751,0.263,3.751,5.362
		c0,2.796-2.104,7.204-9.605,7.204c-10.297,0-10.33-7.237-10.166-8.947h6.251c-0.033,1.217,0.263,2.138,0.889,2.729
		c0.625,0.756,1.579,1.021,2.73,1.021c1.875,0,3.06-0.69,3.06-2.565c0-2.008-1.547-2.369-3.06-2.369c-0.954,0-1.415,0.1-1.908,0.164
		V126.8c0.493,0.033,1.02,0.132,1.908,0.132c1.382,0,3.125-0.296,3.125-2.073c0-1.447-1.646-2.007-2.994-2.007
		c-1.776,0-3.224,0.954-3.158,2.862L185.141,125.713L185.141,125.713z"/>
</g>
<radialGradient id="SVGID_23_" cx="420.5125" cy="-69.8003" r="75.3732" gradientTransform="matrix(1 0 0 -1 -237.5 85)" gradientUnits="userSpaceOnUse">
	<stop  offset="0" style="stop-color:#FFFFFF;stop-opacity:0"/>
	<stop  offset="1" style="stop-color:#FFFFFF"/>
</radialGradient>
<path opacity="0.2" fill="url(#SVGID_23_)" enable-background="new    " d="M227,126.57V113.4c0-3.108-2.452-5.4-5.559-5.4h-55.47
	c-3.106,0-5.973,2.292-5.973,5.4v13.17C172,136.975,213,137.318,227,126.57z"/>
<radialGradient id="SVGID_24_" cx="509.197" cy="-64.8032" r="61.2311" gradientTransform="matrix(1 0 0 -1 -237.5 85)" gradientUnits="userSpaceOnUse">
	<stop  offset="0" style="stop-color:#FBB040"/>
	<stop  offset="1" style="stop-color:#F15A29"/>
</radialGradient>
<path fill="url(#SVGID_24_)" stroke="#E6E7E8" stroke-miterlimit="10" d="M307.5,145.65c0,3.23-2.618,5.85-5.848,5.85h-57.305
	c-3.229,0-5.849-2.618-5.849-5.85v-33.302c0-3.23,2.618-5.849,5.849-5.849h57.305c3.229,0,5.848,2.619,5.848,5.849V145.65z"/>
<radialGradient id="SVGID_25_" cx="499.5134" cy="-69.8003" r="75.3724" gradientTransform="matrix(1 0 0 -1 -237.5 85)" gradientUnits="userSpaceOnUse">
	<stop  offset="0" style="stop-color:#FFFFFF;stop-opacity:0"/>
	<stop  offset="1" style="stop-color:#FFFFFF"/>
</radialGradient>
<path opacity="0.49" fill="url(#SVGID_25_)" enable-background="new    " d="M306,126.57V113.4c0-3.108-2.204-5.4-5.312-5.4h-55.47
	c-3.106,0-6.219,2.292-6.219,5.4v13.17C251,136.975,293,137.318,306,126.57z"/>
<radialGradient id="SVGID_26_" cx="513.2429" cy="-111.4346" r="67.2487" gradientTransform="matrix(1 0 0 -1 -237.5 85)" gradientUnits="userSpaceOnUse">
	<stop  offset="0" style="stop-color:#FBB040"/>
	<stop  offset="1" style="stop-color:#F15A29"/>
</radialGradient>
<path fill="url(#SVGID_26_)" stroke="#E6E7E8" stroke-miterlimit="10" d="M307.5,198.652c0,3.229-2.618,5.848-5.848,5.848h-57.305
	c-3.229,0-5.849-2.618-5.849-5.848v-33.305c0-3.229,2.618-5.849,5.849-5.849h57.305c3.229,0,5.848,2.618,5.848,5.849V198.652z"/>
<radialGradient id="SVGID_27_" cx="499.5134" cy="-123.3672" r="75.822" gradientTransform="matrix(1 0 0 -1 -237.5 85)" gradientUnits="userSpaceOnUse">
	<stop  offset="0" style="stop-color:#FFFFFF;stop-opacity:0"/>
	<stop  offset="1" style="stop-color:#FFFFFF"/>
</radialGradient>
<path opacity="0.49" fill="url(#SVGID_27_)" enable-background="new    " d="M306,179.457v-13.171c0-3.106-2.204-6.286-5.312-6.286
	h-55.47c-3.106,0-6.219,3.18-6.219,6.286v13.171C251,189.859,293,190.205,306,179.457z"/>
<radialGradient id="SVGID_28_" cx="514.5916" cy="-166.6084" r="58.8435" gradientTransform="matrix(1 0 0 -1 -237.5 85)" gradientUnits="userSpaceOnUse">
	<stop  offset="0" style="stop-color:#FBB040"/>
	<stop  offset="1" style="stop-color:#F15A29"/>
</radialGradient>
<path fill="url(#SVGID_28_)" stroke="#E6E7E8" stroke-miterlimit="10" d="M307.5,251.652c0,3.229-2.618,5.848-5.848,5.848h-57.305
	c-3.229,0-5.849-2.618-5.849-5.848v-33.305c0-3.229,2.618-5.849,5.849-5.849h57.305c3.229,0,5.848,2.618,5.848,5.849V251.652z"/>
<radialGradient id="SVGID_29_" cx="499.5134" cy="-176.3535" r="75.5302" gradientTransform="matrix(1 0 0 -1 -237.5 85)" gradientUnits="userSpaceOnUse">
	<stop  offset="0" style="stop-color:#FFFFFF;stop-opacity:0"/>
	<stop  offset="1" style="stop-color:#FFFFFF"/>
</radialGradient>
<path opacity="0.49" fill="url(#SVGID_29_)" enable-background="new    " d="M306,232.883v-13.171c0-3.108-2.204-5.712-5.312-5.712
	h-55.47c-3.106,0-6.219,2.604-6.219,5.712v13.171C251,243.286,293,243.631,306,232.883z"/>
<radialGradient id="SVGID_30_" cx="272.4998" cy="-96.9995" r="29.1249" gradientTransform="matrix(1 0 0 -1 -237.5 85)" gradientUnits="userSpaceOnUse">
	<stop  offset="0" style="stop-color:#000000"/>
	<stop  offset="1" style="stop-color:#000000"/>
</radialGradient>
<path fill="url(#SVGID_30_)" stroke="#000000" stroke-miterlimit="10" d="M69.5,198.652c0,3.229-2.618,5.848-5.848,5.848H6.348
	c-3.23,0-5.849-2.618-5.849-5.848v-33.305c0-3.229,2.618-5.849,5.849-5.849h57.304c3.229,0,5.848,2.618,5.848,5.849V198.652z"/>
<g>
	<path fill="#FFFFFF" d="M35.826,171.066c4.178,0,9.771,2.863,9.771,11.713s-5.594,11.711-9.738,11.711
		c-4.146,0-9.738-2.861-9.738-11.711S31.714,171.066,35.826,171.066z M35.826,189.457c3.355,0,3.521-4.243,3.521-6.678
		c0-2.369-0.165-6.68-3.454-6.68c-3.39,0-3.521,4.211-3.521,6.68C32.372,185.182,32.503,189.457,35.826,189.457z"/>
</g>
<radialGradient id="SVGID_31_" cx="262.5134" cy="-124.0049" r="76.0081" gradientTransform="matrix(1 0 0 -1 -237.5 85)" gradientUnits="userSpaceOnUse">
	<stop  offset="0" style="stop-color:#FFFFFF;stop-opacity:0"/>
	<stop  offset="1" style="stop-color:#FFFFFF"/>
</radialGradient>
<path opacity="0.2" fill="url(#SVGID_31_)" enable-background="new    " d="M69,179.816v-13.168c0-3.107-2.943-6.648-6.052-6.648
	H7.479C4.372,160,2,163.541,2,166.648v13.168C13,190.223,55,190.566,69,179.816z"/>
<radialGradient id="SVGID_32_" cx="351.4998" cy="-96.9995" r="29.1249" gradientTransform="matrix(1 0 0 -1 -237.5 85)" gradientUnits="userSpaceOnUse">
	<stop  offset="0" style="stop-color:#000000"/>
	<stop  offset="1" style="stop-color:#000000"/>
</radialGradient>
<path fill="url(#SVGID_32_)" stroke="#000000" stroke-miterlimit="10" d="M148.5,198.652c0,3.229-2.618,5.848-5.847,5.848H85.347
	c-3.229,0-5.848-2.618-5.848-5.848v-33.305c0-3.229,2.618-5.849,5.848-5.849h57.306c3.229,0,5.847,2.618,5.847,5.849V198.652z"/>
<g>
	<path fill="#FFFFFF" d="M111.25,180.688h6.843v6.514h-6.843V180.688z"/>
</g>
<radialGradient id="SVGID_33_" cx="341.8269" cy="-124.0049" r="74.1736" gradientTransform="matrix(1 0 0 -1 -237.5 85)" gradientUnits="userSpaceOnUse">
	<stop  offset="0" style="stop-color:#FFFFFF;stop-opacity:0"/>
	<stop  offset="1" style="stop-color:#FFFFFF"/>
</radialGradient>
<path opacity="0.2" fill="url(#SVGID_33_)" enable-background="new    " d="M147,179.816v-13.168c0-3.107-1.696-6.648-4.805-6.648
	h-55.47c-3.106,0-4.726,3.541-4.726,6.648v13.168C92,190.223,134,190.566,147,179.816z"/>
<radialGradient id="SVGID_34_" cx="430.4998" cy="-97.0005" r="29.1245" gradientTransform="matrix(1 0 0 -1 -237.5 85)" gradientUnits="userSpaceOnUse">
	<stop  offset="0" style="stop-color:#000000"/>
	<stop  offset="1" style="stop-color:#000000"/>
</radialGradient>
<path fill="url(#SVGID_34_)" stroke="#000000" stroke-miterlimit="10" d="M227.5,198.68c0,3.215-2.701,5.82-6.033,5.82h-56.934
	c-3.332,0-6.033-2.605-6.033-5.82v-33.357c0-3.215,2.701-5.821,6.033-5.821h56.934c3.332,0,6.033,2.606,6.033,5.821V198.68
	L227.5,198.68z"/>
<radialGradient id="SVGID_35_" cx="313.0691" cy="-167.0947" r="123.1878" gradientTransform="matrix(1 0 0 -1 -237.5 85)" gradientUnits="userSpaceOnUse">
	<stop  offset="0" style="stop-color:#FBB040"/>
	<stop  offset="1" style="stop-color:#F15A29"/>
</radialGradient>
<path fill="url(#SVGID_35_)" stroke="#E6E7E8" stroke-miterlimit="10" d="M143.283,213.5h-39.856H85.637H6.391
	c-3.23,0-5.892,2.553-5.892,5.783v32.581c0,3.229,2.661,5.636,5.892,5.636h79.246h17.789h39.856c3.229,0,6.217-2.404,6.217-5.637
	v-32.58C149.5,216.053,146.512,213.5,143.283,213.5z"/>
<g>
	<path fill="#FFFFFF" d="M196.161,183.635c-0.064-0.691-0.296-1.25-0.724-1.611c-0.396-0.362-0.954-0.561-1.646-0.561
		c-2.5,0-2.861,2.172-2.861,4.244s0.361,4.211,2.861,4.211c1.414,0,2.401-1.15,2.533-2.5h6.218
		c-0.625,4.639-4.276,7.236-8.883,7.236c-5.132,0-9.244-3.553-9.244-8.947s4.112-8.98,9.244-8.98c4.475,0,8.29,2.203,8.687,6.908
		H196.161z"/>
</g>
<radialGradient id="SVGID_36_" cx="420.5125" cy="-124.0049" r="76.0089" gradientTransform="matrix(1 0 0 -1 -237.5 85)" gradientUnits="userSpaceOnUse">
	<stop  offset="0" style="stop-color:#FFFFFF;stop-opacity:0"/>
	<stop  offset="1" style="stop-color:#FFFFFF"/>
</radialGradient>
<path opacity="0.2" fill="url(#SVGID_36_)" enable-background="new    " d="M227,179.816v-13.168c0-3.107-2.452-6.648-5.559-6.648
	h-55.47c-3.106,0-5.973,3.541-5.973,6.648v13.168C172,190.223,213,190.566,227,179.816z"/>
<linearGradient id="SVGID_37_" gradientUnits="userSpaceOnUse" x1="311.9998" y1="-170.1294" x2="311.9998" y2="-114.1613" gradientTransform="matrix(1 0 0 -1 -237.5 85)">
	<stop  offset="0" style="stop-color:#FFFFFF;stop-opacity:0"/>
	<stop  offset="1" style="stop-color:#FFFFFF"/>
</linearGradient>
<path opacity="0.49" fill="url(#SVGID_37_)" enable-background="new    " d="M147,233.066v-13.17c0-3.106-1.696-5.896-4.805-5.896
	H7.297C4.19,214,2,216.79,2,219.896v13.17C13,243.471,134,243.816,147,233.066z"/>
<radialGradient id="SVGID_38_" cx="433.3416" cy="-166.043" r="64.5477" gradientTransform="matrix(1 0 0 -1 -237.5 85)" gradientUnits="userSpaceOnUse">
	<stop  offset="0" style="stop-color:#FBB040"/>
	<stop  offset="1" style="stop-color:#F15A29"/>
</radialGradient>
<path fill="url(#SVGID_38_)" stroke="#E6E7E8" stroke-miterlimit="10" d="M227.5,252.65c0,3.23-2.617,5.85-5.847,5.85h-57.307
	c-3.229,0-5.848-2.618-5.848-5.85v-33.303c0-3.229,2.617-5.849,5.848-5.849h57.307c3.229,0,5.847,2.618,5.847,5.849V252.65
	L227.5,252.65z"/>
<radialGradient id="SVGID_39_" cx="420.5125" cy="-176.6787" r="75.6238" gradientTransform="matrix(1 0 0 -1 -237.5 85)" gradientUnits="userSpaceOnUse">
	<stop  offset="0" style="stop-color:#FFFFFF;stop-opacity:0"/>
	<stop  offset="1" style="stop-color:#FFFFFF"/>
</radialGradient>
<path opacity="0.49" fill="url(#SVGID_39_)" enable-background="new    " d="M227,233.066v-13.17c0-3.106-2.452-5.896-5.559-5.896
	h-55.47c-3.106,0-5.973,2.79-5.973,5.896v13.17C172,243.471,213,243.816,227,233.066z"/>
<g opacity="0.4">
	<g>
		<path d="M265.853,20.784h5.79v-5.79h5.032v5.79h5.79v5.033h-5.79v5.79h-5.032v-5.79h-5.79V20.784z"/>
	</g>
	<g>
		<path d="M262.193,75.17h22.748v5.396h-22.748V75.17z"/>
	</g>
	<g>
		<path d="M270.608,130.268l-5.362-8.093h7.172l1.875,3.389l1.908-3.389h6.974l-5.361,8.093l6.054,8.981h-7.172l-2.5-4.179
			l-2.401,4.179h-7.14L270.608,130.268z"/>
	</g>
	<g>
		<path d="M274.927,171.268h5l-9.211,24.608h-5.001L274.927,171.268z"/>
	</g>
	<g>
		<path d="M271.332,233.607l-6.38,3.258l6.38,3.289v5.297l-11.844-6.48v-4.146l11.844-6.515V233.607z"/>
		<path d="M285.404,233.607l-6.38,3.258l6.38,3.289v5.297l-11.844-6.48v-4.146l11.844-6.515V233.607z"/>
	</g>
	<g>
		<path d="M85.815,237.471H64.94v-5.033h20.875V237.471z M85.815,245.398H64.94v-5.035h20.875V245.398z"/>
	</g>
	<g>
		<g>
			<path d="M171.554,235.541h5.789v-5.79h5.033v5.79h5.79v5.033h-5.79v5.789h-5.033v-5.789h-5.789V235.541z"/>
			<path d="M198.894,222.314h5l-9.211,24.608h-5.001L198.894,222.314z"/>
			<path d="M205.276,234.883h10.298v5.396h-10.298V234.883z"/>
		</g>
	</g>
</g>
<g>
	<g>
		<path fill="#FFFFFF" d="M265.245,20.175h5.79v-5.79h5.033v5.79h5.79v5.033h-5.79v5.79h-5.033v-5.79h-5.79V20.175z"/>
	</g>
	<g>
		<path fill="#FFFFFF" d="M261.587,74.562h22.748v5.396h-22.748V74.562z"/>
	</g>
	<g>
		<path fill="#FFFFFF" d="M270.003,129.661l-5.361-8.093h7.172l1.875,3.389l1.908-3.389h6.974l-5.362,8.093l6.054,8.981h-7.172
			l-2.5-4.179l-2.4,4.179h-7.141L270.003,129.661z"/>
	</g>
	<g>
		<path fill="#FFFFFF" d="M274.32,170.66h5l-9.211,24.607h-5.001L274.32,170.66z"/>
	</g>
	<g>
		<path fill="#FFFFFF" d="M270.726,233.002l-6.38,3.257l6.38,3.29v5.297l-11.845-6.48v-4.146l11.845-6.514V233.002z"/>
		<path fill="#FFFFFF" d="M284.798,233.002l-6.38,3.257l6.38,3.29v5.297l-11.844-6.48v-4.146l11.844-6.514V233.002z"/>
	</g>
	<g>
		<path fill="#FFFFFF" d="M85.208,236.863H64.334v-5.033h20.875L85.208,236.863L85.208,236.863z M85.208,244.791H64.334v-5.033
			h20.875L85.208,244.791L85.208,244.791z"/>
	</g>
	<g>
		<g>
			<path fill="#FFFFFF" d="M170.944,234.932h5.79v-5.789h5.033v5.789h5.79v5.033h-5.79v5.79h-5.033v-5.79h-5.79V234.932z"/>
			<path fill="#FFFFFF" d="M198.284,221.706h5l-9.211,24.608h-5.001L198.284,221.706z"/>
			<path fill="#FFFFFF" d="M204.667,234.273h10.298v5.396h-10.298V234.273z"/>
		</g>
	</g>
</g>
<path opacity="0.4" enable-background="new    " d="M146.551,265.289h-39.856h-17.79H9.66c-3.23,0-5.887,3.548-5.887,6.777v32.58
	c0,3.232,2.656,5.643,5.887,5.643h79.245h17.79h39.856c3.229,0,6.223-2.41,6.223-5.643v-32.58
	C152.773,268.837,149.78,265.289,146.551,265.289z"/>
<radialGradient id="SVGID_40_" cx="313.8425" cy="-217.3838" r="123.1878" gradientTransform="matrix(1 0 0 -1 -237.5 85)" gradientUnits="userSpaceOnUse">
	<stop  offset="0" style="stop-color:#FBB040"/>
	<stop  offset="1" style="stop-color:#F15A29"/>
</radialGradient>
<path fill="url(#SVGID_40_)" stroke="#E6E7E8" stroke-miterlimit="10" d="M144.056,263.789H104.2H86.411H7.165
	c-3.23,0-5.892,2.553-5.892,5.783v32.581c0,3.229,2.661,5.636,5.892,5.636h79.246H104.2h39.856c3.229,0,6.217-2.404,6.217-5.637
	v-32.58C150.273,266.342,147.286,263.789,144.056,263.789z"/>
<linearGradient id="SVGID_41_" gradientUnits="userSpaceOnUse" x1="312.7732" y1="-220.4185" x2="312.7732" y2="-164.4504" gradientTransform="matrix(1 0 0 -1 -237.5 85)">
	<stop  offset="0" style="stop-color:#FFFFFF;stop-opacity:0"/>
	<stop  offset="1" style="stop-color:#FFFFFF"/>
</linearGradient>
<path opacity="0.49" fill="url(#SVGID_41_)" enable-background="new    " d="M147.773,283.355v-13.17
	c0-3.106-1.696-5.896-4.805-5.896H8.07c-3.106,0-5.297,2.79-5.297,5.896v13.17C13.773,293.76,134.773,294.105,147.773,283.355z"/>
<g opacity="0.6">
	<path d="M42.277,291.65c-1.477-1.469-2.215-3.311-2.215-5.523c0.007-2.165,0.747-3.985,2.22-5.462s3.299-2.215,5.478-2.215
		c2.199,0,4.087,0.686,5.663,2.056l-2.055,2.25c-1.048-0.822-2.251-1.233-3.607-1.233c-1.384,0.008-2.499,0.439-3.345,1.295
		c-0.846,0.856-1.269,1.953-1.269,3.289c0.007,1.432,0.435,2.569,1.285,3.412s1.966,1.264,3.35,1.264
		c1.384,0,2.58-0.407,3.587-1.223l2.055,2.25c-1.569,1.371-3.457,2.056-5.663,2.056C45.58,293.858,43.753,293.12,42.277,291.65z"/>
	<path d="M59.329,278.45v12.538h8.222v2.877H56.246V278.45H59.329z"/>
	<path d="M69.521,293.865v-15.404l11.325-0.011v2.878h-8.242v3.288h6.176v2.867h-6.176v3.505h8.221v2.877H69.521z"/>
	<path d="M82.612,293.865l6.166-15.415h3.083l6.156,15.405l-3.278,0.01l-0.925-2.363h-6.988l-0.925,2.363H82.612z M90.402,282.561
		l-2.343,5.858h4.625L90.402,282.561z"/>
	<path d="M109.072,287.145l3.844,6.721h-3.535l-3.689-6.371h-2.816v6.371h-3.083V278.45h6.721c3.597,0,5.395,1.479,5.395,4.439
		C111.908,285.116,110.963,286.534,109.072,287.145z M102.875,284.616h4.316c1.24-0.021,1.877-0.586,1.912-1.695
		c-0.035-1.015-0.661-1.542-1.881-1.583h-4.347V284.616z"/>
</g>
<g>
	<path fill="#FFFFFF" d="M41.777,291.316c-1.477-1.469-2.215-3.311-2.215-5.523c0.007-2.165,0.747-3.985,2.22-5.462
		s3.299-2.215,5.478-2.215c2.199,0,4.087,0.686,5.663,2.056l-2.055,2.25c-1.048-0.822-2.251-1.233-3.607-1.233
		c-1.384,0.008-2.499,0.439-3.345,1.295c-0.846,0.856-1.269,1.953-1.269,3.289c0.007,1.432,0.435,2.569,1.285,3.412
		s1.966,1.264,3.35,1.264c1.384,0,2.58-0.407,3.587-1.223l2.055,2.25c-1.569,1.371-3.457,2.056-5.663,2.056
		C45.08,293.524,43.253,292.786,41.777,291.316z"/>
	<path fill="#FFFFFF" d="M58.829,278.116v12.538h8.222v2.877H55.746v-15.415H58.829z"/>
	<path fill="#FFFFFF" d="M69.021,293.531v-15.404l11.325-0.011v2.878h-8.242v3.288h6.176v2.867h-6.176v3.505h8.221v2.877H69.021z"/>
	<path fill="#FFFFFF" d="M82.112,293.531l6.166-15.415h3.083l6.156,15.405l-3.278,0.01l-0.925-2.363h-6.988l-0.925,2.363H82.112z
		 M89.902,282.227l-2.343,5.858h4.625L89.902,282.227z"/>
	<path fill="#FFFFFF" d="M108.572,286.811l3.844,6.721h-3.535l-3.689-6.371h-2.816v6.371h-3.083v-15.415h6.721
		c3.597,0,5.395,1.479,5.395,4.439C111.408,284.782,110.463,286.2,108.572,286.811z M102.375,284.282h4.316
		c1.24-0.021,1.877-0.586,1.912-1.695c-0.035-1.015-0.661-1.542-1.881-1.583h-4.347V284.282z"/>
</g>
</svg>
