<?xml version="1.0" encoding="utf-8"?>
<!-- Generator: Adobe Illustrator 23.0.2, SVG Export Plug-In . SVG Version: 6.00 Build 0)  -->
<svg version="1.1" id="Layer_1" xmlns="http://www.w3.org/2000/svg" xmlns:xlink="http://www.w3.org/1999/xlink" x="0px" y="0px"
	 width="39px" height="39px" viewBox="0 0 39 39" style="enable-background:new 0 0 39 39;" xml:space="preserve">
<style type="text/css">
	.st0{fill:#41A3D3;}
</style>
<g>
	<path class="st0" d="M1.6,39.5c-0.6,0-1.1-0.5-1.1-1.1V1.6C0.5,1,1,0.5,1.6,0.5h35c1.6,0,2.9,1.3,2.9,2.9v35c0,0.6-0.5,1.1-1.1,1.1
		H1.6z"/>
	<path class="st0" d="M36.6,1C37.9,1,39,2.1,39,3.4v35c0,0.3-0.3,0.6-0.6,0.6H1.6C1.3,39,1,38.7,1,38.4V1.6C1,1.3,1.3,1,1.6,1H36.6
		 M36.6,0h-35C0.7,0,0,0.7,0,1.6v36.7C0,39.3,0.7,40,1.6,40h36.7c0.9,0,1.6-0.7,1.6-1.6v-35C40,1.5,38.5,0,36.6,0L36.6,0z"/>
</g>
<polygon points="33,20 20,7 20,15.4 8,15.4 8,24.8 20,24.8 20,33 "/>
</svg>
