<?xml version="1.0" encoding="utf-8"?>
<!-- Generator: Adobe Illustrator 17.0.0, SVG Export Plug-In . SVG Version: 6.00 Build 0)  -->
<!DOCTYPE svg PUBLIC "-//W3C//DTD SVG 1.0//EN" "http://www.w3.org/TR/2001/REC-SVG-20010904/DTD/svg10.dtd">
<svg version="1.0" id="Layer_1" xmlns="http://www.w3.org/2000/svg" xmlns:xlink="http://www.w3.org/1999/xlink" x="0px" y="0px"
	 width="496.3px" height="492px" viewBox="0 0 496.3 492" style="enable-background:new 0 0 496.3 492;" xml:space="preserve">
<style type="text/css">
	.st0{fill:url(#SVGID_1_);}
	.st1{fill:#231F20;}
	.st2{fill:#111112;}
	.st3{opacity:0.38;fill:url(#SVGID_2_);enable-background:new    ;}
	.st4{fill:url(#SVGID_3_);}
	.st5{opacity:0.38;fill:url(#SVGID_4_);enable-background:new    ;}
	.st6{fill:url(#SVGID_5_);}
	.st7{opacity:0.38;fill:url(#SVGID_6_);enable-background:new    ;}
	.st8{fill:url(#SVGID_7_);}
	.st9{opacity:0.52;fill:url(#SVGID_8_);enable-background:new    ;}
	.st10{fill:url(#SVGID_9_);}
	.st11{opacity:0.2;fill:url(#SVGID_10_);enable-background:new    ;}
	.st12{fill:#FFFFFF;}
	.st13{fill:url(#SVGID_11_);}
	.st14{opacity:0.2;fill:url(#SVGID_12_);enable-background:new    ;}
	.st15{fill:url(#SVGID_13_);}
	.st16{opacity:0.38;fill:url(#SVGID_14_);enable-background:new    ;}
	.st17{fill:url(#SVGID_15_);}
	.st18{opacity:0.38;fill:url(#SVGID_16_);enable-background:new    ;}
	.st19{fill:url(#SVGID_17_);}
	.st20{opacity:0.38;fill:url(#SVGID_18_);enable-background:new    ;}
	.st21{fill:url(#SVGID_19_);}
	.st22{opacity:0.52;fill:url(#SVGID_20_);enable-background:new    ;}
	.st23{fill:url(#SVGID_21_);}
	.st24{opacity:0.38;fill:url(#SVGID_22_);enable-background:new    ;}
	.st25{fill:url(#SVGID_23_);}
	.st26{opacity:0.38;fill:url(#SVGID_24_);enable-background:new    ;}
	.st27{fill:url(#SVGID_25_);}
	.st28{opacity:0.38;fill:url(#SVGID_26_);enable-background:new    ;}
	.st29{fill:url(#SVGID_27_);}
	.st30{opacity:0.52;fill:url(#SVGID_28_);enable-background:new    ;}
	.st31{fill:url(#SVGID_29_);}
	.st32{opacity:0.2;fill:url(#SVGID_30_);enable-background:new    ;}
	.st33{fill:url(#SVGID_31_);}
	.st34{opacity:0.2;fill:url(#SVGID_32_);enable-background:new    ;}
	.st35{fill:url(#SVGID_33_);}
	.st36{opacity:0.2;fill:url(#SVGID_34_);enable-background:new    ;}
	.st37{opacity:0.2;fill:url(#SVGID_35_);enable-background:new    ;}
	.st38{fill:url(#SVGID_36_);}
	.st39{opacity:0.19;fill:url(#SVGID_37_);enable-background:new    ;}
	.st40{fill:url(#SVGID_38_);}
	.st41{opacity:0.2;fill:url(#SVGID_39_);enable-background:new    ;}
	.st42{display:none;}
	.st43{display:inline;}
	.st44{fill:url(#SVGID_40_);}
	.st45{display:inline;opacity:0.23;fill:url(#SVGID_41_);enable-background:new    ;}
	.st46{fill:url(#SVGID_42_);}
	.st47{opacity:0.19;fill:url(#SVGID_43_);enable-background:new    ;}
	.st48{fill:url(#SVGID_44_);}
	.st49{opacity:0.2;fill:url(#SVGID_45_);enable-background:new    ;}
	.st50{fill:url(#SVGID_46_);}
	.st51{opacity:0.2;fill:url(#SVGID_47_);enable-background:new    ;}
	.st52{fill:url(#SVGID_48_);}
	.st53{opacity:0.2;fill:url(#SVGID_49_);enable-background:new    ;}
	.st54{fill:url(#SVGID_50_);}
	.st55{opacity:0.2;fill:url(#SVGID_51_);enable-background:new    ;}
	.st56{fill:url(#SVGID_52_);}
	.st57{opacity:0.2;fill:url(#SVGID_53_);enable-background:new    ;}
	.st58{fill:url(#SVGID_54_);}
	.st59{opacity:0.19;fill:url(#SVGID_55_);enable-background:new    ;}
	.st60{fill:url(#SVGID_56_);}
	.st61{opacity:0.19;fill:url(#SVGID_57_);enable-background:new    ;}
	.st62{fill:url(#SVGID_58_);}
	.st63{opacity:0.19;fill:url(#SVGID_59_);enable-background:new    ;}
	.st64{fill:url(#SVGID_60_);}
	.st65{opacity:0.19;fill:url(#SVGID_61_);enable-background:new    ;}
	.st66{fill:url(#SVGID_62_);}
	.st67{opacity:0.19;fill:url(#SVGID_63_);enable-background:new    ;}
	.st68{display:inline;fill:#FFFFFF;}
	.st69{fill:url(#SVGID_64_);}
	.st70{opacity:0.19;fill:url(#SVGID_65_);enable-background:new    ;}
	.st71{fill:url(#SVGID_66_);}
	.st72{opacity:0.2;fill:url(#SVGID_67_);enable-background:new    ;}
	.st73{opacity:0.74;}
	.st74{fill:url(#SVGID_68_);}
	.st75{opacity:0.2;fill:url(#SVGID_69_);enable-background:new    ;}
	.st76{fill:url(#SVGID_70_);}
	.st77{opacity:0.2;fill:url(#SVGID_71_);enable-background:new    ;}
</style>
<g>
	<g>
		<g>
			
				<radialGradient id="SVGID_1_" cx="41.1275" cy="567.1387" r="62.7332" gradientTransform="matrix(1 0 0 1 0 -299.002)" gradientUnits="userSpaceOnUse">
				<stop  offset="0" style="stop-color:#F2F2F2"/>
				<stop  offset="0.1649" style="stop-color:#ECECEC"/>
				<stop  offset="0.3501" style="stop-color:#DCDCDD"/>
				<stop  offset="0.5452" style="stop-color:#C6C4C6"/>
				<stop  offset="0.7471" style="stop-color:#A9A8AA"/>
				<stop  offset="0.9523" style="stop-color:#88898B"/>
				<stop  offset="1" style="stop-color:#808184"/>
			</radialGradient>
			<path class="st0" d="M81.9,264.6c0,3.8-3.1,6.9-6.9,6.9H7.2c-3.8,0-6.9-3.1-6.9-6.9v-38.3c0-3.8,3.1-6.9,6.9-6.9H75
				c3.8,0,6.9,3.1,6.9,6.9V264.6z"/>
			<path class="st1" d="M75,271.8H7.2c-4,0-7.2-3.2-7.2-7.2v-38.3c0-4,3.2-7.2,7.2-7.2H75c4,0,7.2,3.2,7.2,7.2v38.3
				C82.3,268.6,79,271.8,75,271.8z M7.2,219.7c-3.6,0-6.6,2.9-6.6,6.6v38.3c0,3.6,2.9,6.5,6.6,6.5H75c3.6,0,6.6-2.9,6.6-6.5v-38.3
				c0-3.6-2.9-6.6-6.6-6.6L7.2,219.7L7.2,219.7z"/>
		</g>
		<g>
			<g>
				<path class="st2" d="M52.2,238.8c-6.6,6.1-8.2,14.3-8.1,20.7h-8.6c-0.1,0,0.2-8.6,5.5-16.1c2.6-3.8,3.3-4.2,3.3-4.2H31.4v-6.6
					h20.8L52.2,238.8L52.2,238.8z"/>
			</g>
		</g>
		
			<radialGradient id="SVGID_2_" cx="28.8384" cy="574.9268" r="88.5249" gradientTransform="matrix(1 0 0 1 0 -299.002)" gradientUnits="userSpaceOnUse">
			<stop  offset="0" style="stop-color:#FFFFFF;stop-opacity:0"/>
			<stop  offset="1" style="stop-color:#FFFFFF"/>
		</radialGradient>
		<path class="st3" d="M80.4,242.5V227c0-3.7-3-6.6-6.6-6.6H8.5c-3.7,0-6.6,3-6.6,6.6v15.5C14.7,254.7,64.3,255.2,80.4,242.5z"/>
	</g>
	<g>
		<g>
			
				<radialGradient id="SVGID_3_" cx="41.3403" cy="643.3291" r="65.8001" gradientTransform="matrix(1 0 0 1 0 -299.002)" gradientUnits="userSpaceOnUse">
				<stop  offset="0" style="stop-color:#F2F2F2"/>
				<stop  offset="0.1649" style="stop-color:#ECECEC"/>
				<stop  offset="0.3501" style="stop-color:#DCDCDD"/>
				<stop  offset="0.5452" style="stop-color:#C6C4C6"/>
				<stop  offset="0.7471" style="stop-color:#A9A8AA"/>
				<stop  offset="0.9523" style="stop-color:#88898B"/>
				<stop  offset="1" style="stop-color:#808184"/>
			</radialGradient>
			<path class="st4" d="M81.9,338.1c0,3.8-3.1,6.9-6.9,6.9H7.2c-3.8,0-6.9-3.1-6.9-6.9v-38.3c0-3.8,3.1-6.9,6.9-6.9H75
				c3.8,0,6.9,3.1,6.9,6.9V338.1z"/>
			<path class="st1" d="M75,345.3H7.2c-4,0-7.2-3.2-7.2-7.2v-38.3c0-4,3.2-7.2,7.2-7.2H75c4,0,7.2,3.2,7.2,7.2v38.3
				C82.3,342,79,345.3,75,345.3z M7.2,293.2c-3.6,0-6.6,2.9-6.6,6.6v38.3c0,3.6,2.9,6.6,6.6,6.6H75c3.6,0,6.6-2.9,6.6-6.6v-38.3
				c0-3.6-2.9-6.6-6.6-6.6H7.2z"/>
		</g>
		<g>
			<g>
				<path class="st2" d="M42.1,327.6h-12v-7.3l12.3-14.3h7.7v15h3.6v6.6h-3.6v5.3h-8.1L42.1,327.6L42.1,327.6z M35.5,321h6.6v-7.6
					L35.5,321z"/>
			</g>
		</g>
		
			<radialGradient id="SVGID_4_" cx="28.8384" cy="648.3663" r="88.5255" gradientTransform="matrix(1 0 0 1 0 -299.002)" gradientUnits="userSpaceOnUse">
			<stop  offset="0" style="stop-color:#FFFFFF;stop-opacity:0"/>
			<stop  offset="1" style="stop-color:#FFFFFF"/>
		</radialGradient>
		<path class="st5" d="M80.4,315.9v-15.5c0-3.7-3-6.6-6.6-6.6H8.5c-3.7,0-6.6,3-6.6,6.6v15.5C14.7,328.2,64.3,328.6,80.4,315.9z"/>
	</g>
	<g>
		<g>
			
				<radialGradient id="SVGID_5_" cx="41.3403" cy="711.1827" r="60.6082" gradientTransform="matrix(1 0 0 1 0 -299.002)" gradientUnits="userSpaceOnUse">
				<stop  offset="0" style="stop-color:#F2F2F2"/>
				<stop  offset="0.1649" style="stop-color:#ECECEC"/>
				<stop  offset="0.3501" style="stop-color:#DCDCDD"/>
				<stop  offset="0.5452" style="stop-color:#C6C4C6"/>
				<stop  offset="0.7471" style="stop-color:#A9A8AA"/>
				<stop  offset="0.9523" style="stop-color:#88898B"/>
				<stop  offset="1" style="stop-color:#808184"/>
			</radialGradient>
			<path class="st6" d="M81.9,411.5c0,3.8-3.1,6.9-6.9,6.9H7.2c-3.8,0-6.9-3.1-6.9-6.9v-38.3c0-3.8,3.1-6.9,6.9-6.9H75
				c3.8,0,6.9,3.1,6.9,6.9V411.5z"/>
			<path class="st1" d="M75,418.7H7.2c-4,0-7.2-3.2-7.2-7.2v-38.3c0-4,3.2-7.2,7.2-7.2H75c4,0,7.2,3.2,7.2,7.2v38.3
				C82.3,415.5,79,418.7,75,418.7z M7.2,366.6c-3.6,0-6.6,2.9-6.6,6.6v38.3c0,3.6,2.9,6.5,6.6,6.5H75c3.6,0,6.6-2.9,6.6-6.5v-38.3
				c0-3.6-2.9-6.6-6.6-6.6H7.2z"/>
		</g>
		<g>
			<path class="st2" d="M39.8,390.8h-6.3v-5.6c3.9,0.1,7.8-1.4,8-5.8h6.4v27h-8.1V390.8z"/>
		</g>
		
			<radialGradient id="SVGID_6_" cx="28.8384" cy="721.8029" r="88.5242" gradientTransform="matrix(1 0 0 1 0 -299.002)" gradientUnits="userSpaceOnUse">
			<stop  offset="0" style="stop-color:#FFFFFF;stop-opacity:0"/>
			<stop  offset="1" style="stop-color:#FFFFFF"/>
		</radialGradient>
		<path class="st7" d="M80.4,389.4v-15.5c0-3.7-3-6.6-6.6-6.6H8.5c-3.7,0-6.6,3-6.6,6.6v15.5C14.7,401.6,64.3,402,80.4,389.4z"/>
	</g>
	<g>
		<g>
			
				<radialGradient id="SVGID_7_" cx="41.7529" cy="787.7881" r="71.6513" gradientTransform="matrix(1 0 0 1 0 -299.002)" gradientUnits="userSpaceOnUse">
				<stop  offset="0" style="stop-color:#F2F2F2"/>
				<stop  offset="0.1649" style="stop-color:#ECECEC"/>
				<stop  offset="0.3501" style="stop-color:#DCDCDD"/>
				<stop  offset="0.5452" style="stop-color:#C6C4C6"/>
				<stop  offset="0.7471" style="stop-color:#A9A8AA"/>
				<stop  offset="0.9523" style="stop-color:#88898B"/>
				<stop  offset="1" style="stop-color:#808184"/>
			</radialGradient>
			<path class="st8" d="M81.9,484.9c0,3.8-3.1,6.9-6.9,6.9H7.2c-3.8,0-6.9-3.1-6.9-6.9v-38.3c0-3.8,3.1-6.9,6.9-6.9H75
				c3.8,0,6.9,3.1,6.9,6.9V484.9z"/>
			<path class="st1" d="M75,492.2H7.2c-4,0-7.2-3.2-7.2-7.2v-38.3c0-4,3.2-7.2,7.2-7.2H75c4,0,7.2,3.2,7.2,7.2v38.3
				C82.3,488.9,79,492.2,75,492.2z M7.2,440c-3.6,0-6.6,2.9-6.6,6.6v38.3c0,3.6,2.9,6.5,6.6,6.5H75c3.6,0,6.6-2.9,6.6-6.5v-38.3
				c0-3.6-2.9-6.6-6.6-6.6H7.2z"/>
		</g>
		<g>
			<g>
				<path class="st2" d="M41.9,452.5c4.9,0,11.5,3.4,11.5,13.8c0,10.4-6.6,13.8-11.5,13.8c-4.9,0-11.5-3.4-11.5-13.8
					C30.4,455.9,37,452.5,41.9,452.5z M41.9,474.2c3.9,0,4.1-5,4.1-7.9c0-2.8-0.2-7.9-4.1-7.9c-4,0-4.1,5-4.1,7.9
					C37.8,469.1,37.9,474.2,41.9,474.2z"/>
			</g>
		</g>
		
			<radialGradient id="SVGID_8_" cx="28.8384" cy="795.2432" r="88.5249" gradientTransform="matrix(1 0 0 1 0 -299.002)" gradientUnits="userSpaceOnUse">
			<stop  offset="0" style="stop-color:#FFFFFF;stop-opacity:0"/>
			<stop  offset="1" style="stop-color:#FFFFFF"/>
		</radialGradient>
		<path class="st9" d="M80.4,462.8v-15.5c0-3.7-3-6.6-6.6-6.6H8.5c-3.7,0-6.6,3-6.6,6.6v15.5C14.7,475.1,64.3,475.5,80.4,462.8z"/>
	</g>
	<g>
		<g>
			
				<radialGradient id="SVGID_9_" cx="48.2041" cy="279.8365" r="68.7263" gradientTransform="matrix(1 0 0 1 0 -299.002)" gradientUnits="userSpaceOnUse">
				<stop  offset="0" style="stop-color:#231F20"/>
				<stop  offset="1" style="stop-color:#231F20"/>
			</radialGradient>
			<path class="st10" d="M82.5,45.9c0,3.8-3.1,6.9-6.9,6.9H7.3c-3.8,0-6.9-3.1-6.9-6.9V7.3c0-3.8,3.1-6.9,6.9-6.9h68.3
				c3.8,0,6.9,3.1,6.9,6.9V45.9z"/>
			<path class="st1" d="M75.6,53.1H7.3c-4,0-7.3-3.3-7.3-7.3V7.3C0,3.3,3.3,0,7.3,0h68.3c4,0,7.3,3.3,7.3,7.3v38.6
				C82.8,49.9,79.6,53.1,75.6,53.1z M7.3,0.7c-3.6,0-6.6,3-6.6,6.6v38.6c0,3.6,3,6.6,6.6,6.6h68.3c3.6,0,6.6-3,6.6-6.6V7.3
				c0-3.6-3-6.6-6.6-6.6C75.6,0.7,7.3,0.7,7.3,0.7z"/>
		</g>
		
			<radialGradient id="SVGID_10_" cx="29.0352" cy="356.2442" r="89.1305" gradientTransform="matrix(1 0 0 1 0 -299.002)" gradientUnits="userSpaceOnUse">
			<stop  offset="0" style="stop-color:#FFFFFF;stop-opacity:0"/>
			<stop  offset="1" style="stop-color:#FFFFFF"/>
		</radialGradient>
		<path class="st11" d="M80.9,23.6V8c0-3.7-3-6.7-6.7-6.7H8.6c-3.7,0-6.7,3-6.7,6.7v15.6C14.8,35.9,64.7,36.3,80.9,23.6z"/>
		<g>
			<g>
				<path class="st12" d="M35.8,20.3H47v3.6h-7v1.7h6.4v3.3H40v1.7h7.2v3.6H35.8V20.3z"/>
			</g>
		</g>
	</g>
	<g>
		<g>
			
				<radialGradient id="SVGID_11_" cx="151.7412" cy="279.8365" r="68.7263" gradientTransform="matrix(1 0 0 1 0 -299.002)" gradientUnits="userSpaceOnUse">
				<stop  offset="0" style="stop-color:#231F20"/>
				<stop  offset="1" style="stop-color:#231F20"/>
			</radialGradient>
			<path class="st13" d="M186,45.9c0,3.8-3.1,6.9-6.9,6.9h-68.3c-3.8,0-6.9-3.1-6.9-6.9V7.3c0-3.8,3.1-6.9,6.9-6.9h68.3
				c3.8,0,6.9,3.1,6.9,6.9V45.9z"/>
			<path class="st1" d="M179.1,53.1h-68.3c-4,0-7.3-3.3-7.3-7.3V7.3c0-4,3.3-7.3,7.3-7.3h68.3c4,0,7.3,3.3,7.3,7.3v38.6
				C186.4,49.9,183.1,53.1,179.1,53.1z M110.8,0.7c-3.6,0-6.6,3-6.6,6.6v38.6c0,3.6,3,6.6,6.6,6.6h68.3c3.6,0,6.6-3,6.6-6.6V7.3
				c0-3.6-3-6.6-6.6-6.6C179.1,0.7,110.8,0.7,110.8,0.7z"/>
		</g>
		
			<radialGradient id="SVGID_12_" cx="132.5786" cy="356.2442" r="89.1312" gradientTransform="matrix(1 0 0 1 0 -299.002)" gradientUnits="userSpaceOnUse">
			<stop  offset="0" style="stop-color:#FFFFFF;stop-opacity:0"/>
			<stop  offset="1" style="stop-color:#FFFFFF"/>
		</radialGradient>
		<path class="st14" d="M184.5,23.6V8c0-3.7-3-6.7-6.7-6.7h-65.7c-3.7,0-6.7,3-6.7,6.7v15.6C118.3,35.9,168.2,36.3,184.5,23.6z"/>
		<g>
			<g>
				<path class="st12" d="M134.6,20.3h4.1v10.3h6v3.6h-10.1V20.3z"/>
				<path class="st12" d="M146.5,20.3h4.2l3.9,7.4h0v-7.4h3.9v13.9h-4l-4.1-7.6h0v7.6h-3.9V20.3z"/>
			</g>
		</g>
	</g>
	<g>
		<g>
			
				<radialGradient id="SVGID_13_" cx="145.3652" cy="566.0635" r="67.1688" gradientTransform="matrix(1 0 0 1 0 -299.002)" gradientUnits="userSpaceOnUse">
				<stop  offset="0" style="stop-color:#F2F2F2"/>
				<stop  offset="0.1649" style="stop-color:#ECECEC"/>
				<stop  offset="0.3501" style="stop-color:#DCDCDD"/>
				<stop  offset="0.5452" style="stop-color:#C6C4C6"/>
				<stop  offset="0.7471" style="stop-color:#A9A8AA"/>
				<stop  offset="0.9523" style="stop-color:#88898B"/>
				<stop  offset="1" style="stop-color:#808184"/>
			</radialGradient>
			<path class="st15" d="M185.5,264.6c0,3.8-3.1,6.9-6.9,6.9h-67.8c-3.8,0-6.9-3.1-6.9-6.9v-38.3c0-3.8,3.1-6.9,6.9-6.9h67.8
				c3.8,0,6.9,3.1,6.9,6.9V264.6z"/>
			<path class="st1" d="M178.6,271.8h-67.8c-4,0-7.2-3.2-7.2-7.2v-38.3c0-4,3.2-7.2,7.2-7.2h67.8c4,0,7.2,3.2,7.2,7.2v38.3
				C185.8,268.6,182.6,271.8,178.6,271.8z M110.8,219.7c-3.6,0-6.5,2.9-6.5,6.6v38.3c0,3.6,2.9,6.5,6.5,6.5h67.8
				c3.6,0,6.5-2.9,6.5-6.5v-38.3c0-3.6-2.9-6.6-6.5-6.6L110.8,219.7L110.8,219.7z"/>
		</g>
		<g>
			<g>
				<path class="st2" d="M145.4,232.2c7.4,0,10.9,3.5,10.9,7.4c0,2.8-1.7,5.1-4.2,5.7v0.1c3,0.3,5.3,2.6,5.3,5.9
					c0,6.4-6.5,8.5-12,8.5c-5.8,0-12-2-12-8.5c0-4.6,3.4-5.6,5.4-5.9v-0.1c-2.9-0.8-4.2-2.7-4.2-5.7
					C134.6,233.7,140.9,232.2,145.4,232.2z M145.4,254.2c1.9,0,4.3-0.7,4.3-3c0-2.6-1.9-3.5-4.3-3.5c-2.2,0-4.4,0.8-4.4,3.5
					C141.1,253.5,143.5,254.2,145.4,254.2z M145.4,243.2c1.9,0,4.1-0.6,4.1-2.8c0-2.6-2-3-4-3c-2,0-3.9,0.6-3.9,3
					C141.5,242.5,143.5,243.2,145.4,243.2z"/>
			</g>
		</g>
		
			<radialGradient id="SVGID_14_" cx="132.3818" cy="574.9268" r="88.5256" gradientTransform="matrix(1 0 0 1 0 -299.002)" gradientUnits="userSpaceOnUse">
			<stop  offset="0" style="stop-color:#FFFFFF;stop-opacity:0"/>
			<stop  offset="1" style="stop-color:#FFFFFF"/>
		</radialGradient>
		<path class="st16" d="M183.9,242.5V227c0-3.7-3-6.6-6.6-6.6H112c-3.7,0-6.6,3-6.6,6.6v15.5C118.2,254.7,167.8,255.2,183.9,242.5z"
			/>
	</g>
	<g>
		<g>
			
				<radialGradient id="SVGID_15_" cx="145.6753" cy="643.1182" r="76.4107" gradientTransform="matrix(1 0 0 1 0 -299.002)" gradientUnits="userSpaceOnUse">
				<stop  offset="0" style="stop-color:#F2F2F2"/>
				<stop  offset="0.1649" style="stop-color:#ECECEC"/>
				<stop  offset="0.3501" style="stop-color:#DCDCDD"/>
				<stop  offset="0.5452" style="stop-color:#C6C4C6"/>
				<stop  offset="0.7471" style="stop-color:#A9A8AA"/>
				<stop  offset="0.9523" style="stop-color:#88898B"/>
				<stop  offset="1" style="stop-color:#808184"/>
			</radialGradient>
			<path class="st17" d="M185.5,338.1c0,3.8-3.1,6.9-6.9,6.9h-67.8c-3.8,0-6.9-3.1-6.9-6.9v-38.3c0-3.8,3.1-6.9,6.9-6.9h67.8
				c3.8,0,6.9,3.1,6.9,6.9V338.1z"/>
			<path class="st1" d="M178.6,345.3h-67.8c-4,0-7.2-3.2-7.2-7.2v-38.3c0-4,3.2-7.2,7.2-7.2h67.8c4,0,7.2,3.2,7.2,7.2v38.3
				C185.8,342,182.6,345.3,178.6,345.3z M110.8,293.2c-3.6,0-6.5,2.9-6.5,6.6v38.3c0,3.6,2.9,6.6,6.5,6.6h67.8
				c3.6,0,6.5-2.9,6.5-6.6v-38.3c0-3.6-2.9-6.6-6.5-6.6H110.8z"/>
		</g>
		<g>
			<g>
				<path class="st2" d="M155.3,312.5h-12.5l-0.8,3.6l0.1,0.1c1.7-1.2,3.9-1.6,5.9-1.6c4.8,0,8.8,2.8,8.8,9.1
					c0,5.5-4.3,9.5-12.1,9.5c-10,0-11.8-6.1-11.5-8.8h7.6c0.2,0.7,0.5,1.4,1.1,1.8c0.8,0.6,1.9,0.9,3.1,0.9c2.2,0,4.1-1.5,4.1-3.6
					c0-2.4-1.6-3.8-3.9-3.8c-1.8,0-3.1,0.5-3.9,1.7H134l2.8-15.5h18.5L155.3,312.5L155.3,312.5z"/>
			</g>
		</g>
		
			<radialGradient id="SVGID_16_" cx="132.3818" cy="648.3663" r="88.5262" gradientTransform="matrix(1 0 0 1 0 -299.002)" gradientUnits="userSpaceOnUse">
			<stop  offset="0" style="stop-color:#FFFFFF;stop-opacity:0"/>
			<stop  offset="1" style="stop-color:#FFFFFF"/>
		</radialGradient>
		<path class="st18" d="M183.9,315.9v-15.5c0-3.7-3-6.6-6.6-6.6H112c-3.7,0-6.6,3-6.6,6.6v15.5C118.2,328.2,167.8,328.6,183.9,315.9
			z"/>
	</g>
	<g>
		<g>
			
				<radialGradient id="SVGID_17_" cx="143.3467" cy="710.5479" r="64.1372" gradientTransform="matrix(1 0 0 1 0 -299.002)" gradientUnits="userSpaceOnUse">
				<stop  offset="0" style="stop-color:#F2F2F2"/>
				<stop  offset="0.1649" style="stop-color:#ECECEC"/>
				<stop  offset="0.3501" style="stop-color:#DCDCDD"/>
				<stop  offset="0.5452" style="stop-color:#C6C4C6"/>
				<stop  offset="0.7471" style="stop-color:#A9A8AA"/>
				<stop  offset="0.9523" style="stop-color:#88898B"/>
				<stop  offset="1" style="stop-color:#808184"/>
			</radialGradient>
			<path class="st19" d="M185.5,411.5c0,3.8-3.1,6.9-6.9,6.9h-67.8c-3.8,0-6.9-3.1-6.9-6.9v-38.3c0-3.8,3.1-6.9,6.9-6.9h67.8
				c3.8,0,6.9,3.1,6.9,6.9V411.5z"/>
			<path class="st1" d="M178.6,418.7h-67.8c-4,0-7.2-3.2-7.2-7.2v-38.3c0-4,3.2-7.2,7.2-7.2h67.8c4,0,7.2,3.2,7.2,7.2v38.3
				C185.8,415.5,182.6,418.7,178.6,418.7z M110.8,366.6c-3.6,0-6.5,2.9-6.5,6.6v38.3c0,3.6,2.9,6.5,6.5,6.5h67.8
				c3.6,0,6.5-2.9,6.5-6.5v-38.3c0-3.6-2.9-6.6-6.5-6.6H110.8z"/>
		</g>
		<g>
			<path class="st2" d="M134.4,390.7c-0.4-7.4,4.2-11.7,11.4-11.7c6.5,0,11,2.8,11,8.5c0,6.9-6.7,9.1-11.8,12.2v0v0.1h12.2v6.6
				h-23.4c-0.2-2.6,0.6-4.8,1.9-6.7c2.2-3.1,6.1-5.2,9.6-7.3c1.4-0.9,3.6-1.9,3.6-3.9c0-2.4-1.4-3.3-3.3-3.3c-3.1,0-4.1,2.2-4.1,5.5
				H134.4z"/>
		</g>
		
			<radialGradient id="SVGID_18_" cx="132.3818" cy="721.8029" r="88.5249" gradientTransform="matrix(1 0 0 1 0 -299.002)" gradientUnits="userSpaceOnUse">
			<stop  offset="0" style="stop-color:#FFFFFF;stop-opacity:0"/>
			<stop  offset="1" style="stop-color:#FFFFFF"/>
		</radialGradient>
		<path class="st20" d="M183.9,389.4v-15.5c0-3.7-3-6.6-6.6-6.6H112c-3.7,0-6.6,3-6.6,6.6v15.5C118.2,401.6,167.8,402,183.9,389.4z"
			/>
	</g>
	<g>
		<g>
			
				<radialGradient id="SVGID_19_" cx="144.669" cy="788.8057" r="66.4812" gradientTransform="matrix(1 0 0 1 0 -299.002)" gradientUnits="userSpaceOnUse">
				<stop  offset="0" style="stop-color:#F2F2F2"/>
				<stop  offset="0.1649" style="stop-color:#ECECEC"/>
				<stop  offset="0.3501" style="stop-color:#DCDCDD"/>
				<stop  offset="0.5452" style="stop-color:#C6C4C6"/>
				<stop  offset="0.7471" style="stop-color:#A9A8AA"/>
				<stop  offset="0.9523" style="stop-color:#88898B"/>
				<stop  offset="1" style="stop-color:#808184"/>
			</radialGradient>
			<path class="st21" d="M185.5,484.9c0,3.8-3.1,6.9-6.9,6.9h-67.8c-3.8,0-6.9-3.1-6.9-6.9v-38.3c0-3.8,3.1-6.9,6.9-6.9h67.8
				c3.8,0,6.9,3.1,6.9,6.9V484.9z"/>
			<path class="st1" d="M178.6,492.2h-67.8c-4,0-7.2-3.2-7.2-7.2v-38.3c0-4,3.2-7.2,7.2-7.2h67.8c4,0,7.2,3.2,7.2,7.2v38.3
				C185.8,488.9,182.6,492.2,178.6,492.2z M110.8,440c-3.6,0-6.5,2.9-6.5,6.6v38.3c0,3.6,2.9,6.5,6.5,6.5h67.8
				c3.6,0,6.5-2.9,6.5-6.5v-38.3c0-3.6-2.9-6.6-6.5-6.6H110.8z"/>
		</g>
		<g>
			<g>
				<path class="st2" d="M140.9,463.8h8.1v7.7h-8.1L140.9,463.8L140.9,463.8z"/>
			</g>
		</g>
		
			<radialGradient id="SVGID_20_" cx="132.3818" cy="795.2432" r="88.5256" gradientTransform="matrix(1 0 0 1 0 -299.002)" gradientUnits="userSpaceOnUse">
			<stop  offset="0" style="stop-color:#FFFFFF;stop-opacity:0"/>
			<stop  offset="1" style="stop-color:#FFFFFF"/>
		</radialGradient>
		<path class="st22" d="M183.9,462.8v-15.5c0-3.7-3-6.6-6.6-6.6H112c-3.7,0-6.6,3-6.6,6.6v15.5C118.2,475.1,167.8,475.5,183.9,462.8
			z"/>
	</g>
	<g>
		<g>
			
				<radialGradient id="SVGID_21_" cx="247.7256" cy="567.8897" r="58.963" gradientTransform="matrix(1 0 0 1 0 -299.002)" gradientUnits="userSpaceOnUse">
				<stop  offset="0" style="stop-color:#F2F2F2"/>
				<stop  offset="0.1649" style="stop-color:#ECECEC"/>
				<stop  offset="0.3501" style="stop-color:#DCDCDD"/>
				<stop  offset="0.5452" style="stop-color:#C6C4C6"/>
				<stop  offset="0.7471" style="stop-color:#A9A8AA"/>
				<stop  offset="0.9523" style="stop-color:#88898B"/>
				<stop  offset="1" style="stop-color:#808184"/>
			</radialGradient>
			<path class="st23" d="M289,264.6c0,3.8-3.1,6.9-6.9,6.9h-67.8c-3.8,0-6.9-3.1-6.9-6.9v-38.3c0-3.8,3.1-6.9,6.9-6.9h67.8
				c3.8,0,6.9,3.1,6.9,6.9V264.6z"/>
			<path class="st1" d="M282.1,271.8h-67.8c-4,0-7.2-3.2-7.2-7.2v-38.3c0-4,3.2-7.2,7.2-7.2h67.8c4,0,7.2,3.2,7.2,7.2v38.3
				C289.4,268.6,286.1,271.8,282.1,271.8z M214.3,219.7c-3.6,0-6.5,2.9-6.5,6.6v38.3c0,3.6,2.9,6.5,6.5,6.5h67.8
				c3.6,0,6.5-2.9,6.5-6.5v-38.3c0-3.6-2.9-6.6-6.5-6.6L214.3,219.7L214.3,219.7z"/>
		</g>
		<g>
			<g>
				<path class="st2" d="M245,252.4c0.2,0.6,0.6,1.1,1.2,1.4c0.6,0.3,1.3,0.4,1.9,0.4c3.5,0,4.4-3.2,4.8-5.4l-0.1-0.1
					c-1.7,1.5-3.8,2.1-6,2.1c-5.3,0-9.1-3-9.1-8.6c0-6.5,5.2-10.1,11.3-10.1c7.9,0,11.3,6,11.3,12.8c0,8.6-4,14.8-12.3,14.8
					c-5,0-9.3-2.1-10.1-7.4H245z M244.8,242c0,2.1,1.9,3.6,3.9,3.6c2.1,0,3.9-1.4,3.9-3.6c0-2.1-1.7-3.8-3.8-3.8
					C246.7,238.3,244.8,239.9,244.8,242z"/>
			</g>
		</g>
		
			<radialGradient id="SVGID_22_" cx="235.9316" cy="574.9268" r="88.5269" gradientTransform="matrix(1 0 0 1 0 -299.002)" gradientUnits="userSpaceOnUse">
			<stop  offset="0" style="stop-color:#FFFFFF;stop-opacity:0"/>
			<stop  offset="1" style="stop-color:#FFFFFF"/>
		</radialGradient>
		<path class="st24" d="M287.5,242.5V227c0-3.7-3-6.6-6.6-6.6h-65.3c-3.7,0-6.6,3-6.6,6.6v15.5C221.8,254.7,271.4,255.2,287.5,242.5
			z"/>
	</g>
	<g>
		<g>
			
				<radialGradient id="SVGID_23_" cx="249.8066" cy="638.2491" r="58.8981" gradientTransform="matrix(1 0 0 1 0 -299.002)" gradientUnits="userSpaceOnUse">
				<stop  offset="0" style="stop-color:#F2F2F2"/>
				<stop  offset="0.1649" style="stop-color:#ECECEC"/>
				<stop  offset="0.3501" style="stop-color:#DCDCDD"/>
				<stop  offset="0.5452" style="stop-color:#C6C4C6"/>
				<stop  offset="0.7471" style="stop-color:#A9A8AA"/>
				<stop  offset="0.9523" style="stop-color:#88898B"/>
				<stop  offset="1" style="stop-color:#808184"/>
			</radialGradient>
			<path class="st25" d="M289,338.1c0,3.8-3.1,6.9-6.9,6.9h-67.8c-3.8,0-6.9-3.1-6.9-6.9v-38.3c0-3.8,3.1-6.9,6.9-6.9h67.8
				c3.8,0,6.9,3.1,6.9,6.9V338.1z"/>
			<path class="st1" d="M282.1,345.3h-67.8c-4,0-7.2-3.2-7.2-7.2v-38.3c0-4,3.2-7.2,7.2-7.2h67.8c4,0,7.2,3.2,7.2,7.2v38.3
				C289.4,342,286.1,345.3,282.1,345.3z M214.3,293.2c-3.6,0-6.5,2.9-6.5,6.6v38.3c0,3.6,2.9,6.6,6.5,6.6h67.8
				c3.6,0,6.5-2.9,6.5-6.6v-38.3c0-3.6-2.9-6.6-6.5-6.6H214.3z"/>
		</g>
		<g>
			<g>
				<path class="st2" d="M252.9,313.1c-0.2-0.5-0.5-1-1.1-1.5c-0.5-0.3-1.2-0.5-2.1-0.5c-2.9,0-4.4,2.9-4.7,5.5
					c1.8-1.7,3.8-2.1,6.2-2.1c5.2,0,9,3.3,9,8.6c0,6.6-4.6,9.9-11.1,9.9c-8.2,0-11.5-6.2-11.5-12.8c0-8.5,3.9-14.8,12.2-14.8
					c5.8,0,9.3,2.2,10.1,7.5H252.9z M245.5,323.4c0,2.1,1.5,3.7,3.7,3.7c2.3,0,3.9-1.7,3.9-3.7c0-1.9-1.5-3.6-3.9-3.6
					C247.1,319.8,245.5,321.4,245.5,323.4z"/>
			</g>
		</g>
		
			<radialGradient id="SVGID_24_" cx="235.9316" cy="648.3663" r="88.5276" gradientTransform="matrix(1 0 0 1 0 -299.002)" gradientUnits="userSpaceOnUse">
			<stop  offset="0" style="stop-color:#FFFFFF;stop-opacity:0"/>
			<stop  offset="1" style="stop-color:#FFFFFF"/>
		</radialGradient>
		<path class="st26" d="M287.5,315.9v-15.5c0-3.7-3-6.6-6.6-6.6h-65.3c-3.7,0-6.6,3-6.6,6.6v15.5
			C221.8,328.2,271.4,328.6,287.5,315.9z"/>
	</g>
	<g>
		<g>
			
				<radialGradient id="SVGID_25_" cx="247.9014" cy="712.2413" r="61.6299" gradientTransform="matrix(1 0 0 1 0 -299.002)" gradientUnits="userSpaceOnUse">
				<stop  offset="0" style="stop-color:#F2F2F2"/>
				<stop  offset="0.1649" style="stop-color:#ECECEC"/>
				<stop  offset="0.3501" style="stop-color:#DCDCDD"/>
				<stop  offset="0.5452" style="stop-color:#C6C4C6"/>
				<stop  offset="0.7471" style="stop-color:#A9A8AA"/>
				<stop  offset="0.9523" style="stop-color:#88898B"/>
				<stop  offset="1" style="stop-color:#808184"/>
			</radialGradient>
			<path class="st27" d="M289,411.5c0,3.8-3.1,6.9-6.9,6.9h-67.8c-3.8,0-6.9-3.1-6.9-6.9v-38.3c0-3.8,3.1-6.9,6.9-6.9h67.8
				c3.8,0,6.9,3.1,6.9,6.9V411.5z"/>
			<path class="st1" d="M282.1,418.7h-67.8c-4,0-7.2-3.2-7.2-7.2v-38.3c0-4,3.2-7.2,7.2-7.2h67.8c4,0,7.2,3.2,7.2,7.2v38.3
				C289.4,415.5,286.1,418.7,282.1,418.7z M214.3,366.6c-3.6,0-6.5,2.9-6.5,6.6v38.3c0,3.6,2.9,6.5,6.5,6.5h67.8
				c3.6,0,6.5-2.9,6.5-6.5v-38.3c0-3.6-2.9-6.6-6.5-6.6H214.3z"/>
		</g>
		<g>
			<path class="st2" d="M238.1,388.4c0-3.2,1.3-5.5,3.4-7c2.1-1.5,4.8-2.2,7.9-2.2c7.8,0,10.4,4.6,10.4,6.9c0,5.7-3.6,5.7-3.6,5.8
				v0.1c0,0.3,4.4,0.3,4.4,6.3c0,3.3-2.5,8.5-11.3,8.5c-12.1,0-12.2-8.5-12-10.5h7.4c0,1.4,0.3,2.5,1,3.2c0.7,0.9,1.9,1.2,3.2,1.2
				c2.2,0,3.6-0.8,3.6-3c0-2.4-1.8-2.8-3.6-2.8c-1.1,0-1.7,0.1-2.2,0.2v-5.3c0.6,0,1.2,0.2,2.2,0.2c1.6,0,3.7-0.3,3.7-2.4
				c0-1.7-1.9-2.4-3.5-2.4c-2.1,0-3.8,1.1-3.7,3.4L238.1,388.4L238.1,388.4L238.1,388.4z"/>
		</g>
		
			<radialGradient id="SVGID_26_" cx="235.9316" cy="721.8029" r="88.5263" gradientTransform="matrix(1 0 0 1 0 -299.002)" gradientUnits="userSpaceOnUse">
			<stop  offset="0" style="stop-color:#FFFFFF;stop-opacity:0"/>
			<stop  offset="1" style="stop-color:#FFFFFF"/>
		</radialGradient>
		<path class="st28" d="M287.5,389.4v-15.5c0-3.7-3-6.6-6.6-6.6h-65.3c-3.7,0-6.6,3-6.6,6.6v15.5C221.8,401.6,271.4,402,287.5,389.4
			z"/>
	</g>
	<g>
		<g>
			
				<radialGradient id="SVGID_27_" cx="248.215" cy="788.8057" r="66.486" gradientTransform="matrix(1 0 0 1 0 -299.002)" gradientUnits="userSpaceOnUse">
				<stop  offset="0" style="stop-color:#F2F2F2"/>
				<stop  offset="0.1649" style="stop-color:#ECECEC"/>
				<stop  offset="0.3501" style="stop-color:#DCDCDD"/>
				<stop  offset="0.5452" style="stop-color:#C6C4C6"/>
				<stop  offset="0.7471" style="stop-color:#A9A8AA"/>
				<stop  offset="0.9523" style="stop-color:#88898B"/>
				<stop  offset="1" style="stop-color:#808184"/>
			</radialGradient>
			<path class="st29" d="M289,484.9c0,3.8-3.1,6.9-6.9,6.9h-67.8c-3.8,0-6.9-3.1-6.9-6.9v-38.3c0-3.8,3.1-6.9,6.9-6.9h67.8
				c3.8,0,6.9,3.1,6.9,6.9V484.9z"/>
			<path class="st1" d="M282.1,492.2h-67.8c-4,0-7.2-3.2-7.2-7.2v-38.3c0-4,3.2-7.2,7.2-7.2h67.8c4,0,7.2,3.2,7.2,7.2v38.3
				C289.3,488.9,286.1,492.2,282.1,492.2z M214.3,440c-3.6,0-6.6,2.9-6.6,6.6v38.3c0,3.6,2.9,6.5,6.6,6.5h67.8
				c3.6,0,6.6-2.9,6.6-6.5v-38.3c0-3.6-2.9-6.6-6.6-6.6H214.3z"/>
		</g>
		
			<radialGradient id="SVGID_28_" cx="235.9287" cy="795.2432" r="88.5214" gradientTransform="matrix(1 0 0 1 0 -299.002)" gradientUnits="userSpaceOnUse">
			<stop  offset="0" style="stop-color:#FFFFFF;stop-opacity:0"/>
			<stop  offset="1" style="stop-color:#FFFFFF"/>
		</radialGradient>
		<path class="st30" d="M287.5,462.8v-15.5c0-3.7-3-6.6-6.6-6.6h-65.3c-3.7,0-6.6,3-6.6,6.6v15.5
			C221.8,475.1,271.3,475.5,287.5,462.8z"/>
		<g>
			<g>
				<g>
					<path class="st2" d="M241,471.5h14.6v4.6H241V471.5z"/>
				</g>
			</g>
			<g>
				<g>
					<path class="st2" d="M241,460.4h5.1v-5.1h4.5v5.1h5.1v4.5h-5.1v5.1h-4.5v-5.1H241V460.4z"/>
				</g>
			</g>
		</g>
	</g>
	<g>
		<g>
			
				<radialGradient id="SVGID_29_" cx="249.3389" cy="278.7931" r="71.3817" gradientTransform="matrix(1 0 0 1 0 -299.002)" gradientUnits="userSpaceOnUse">
				<stop  offset="0" style="stop-color:#231F20"/>
				<stop  offset="1" style="stop-color:#231F20"/>
			</radialGradient>
			<path class="st31" d="M289.6,45.9c0,3.8-3.1,6.9-6.9,6.9h-68.3c-3.8,0-6.9-3.1-6.9-6.9V7.3c0-3.8,3.1-6.9,6.9-6.9h68.3
				c3.8,0,6.9,3.1,6.9,6.9V45.9z"/>
			<path class="st1" d="M282.6,53.1h-68.3c-4,0-7.3-3.3-7.3-7.3V7.3c0-4,3.3-7.3,7.3-7.3h68.3c4,0,7.3,3.3,7.3,7.3v38.6
				C289.9,49.9,286.6,53.1,282.6,53.1z M214.4,0.7c-3.6,0-6.6,3-6.6,6.6v38.6c0,3.6,3,6.6,6.6,6.6h68.3c3.6,0,6.6-3,6.6-6.6V7.3
				c0-3.6-3-6.6-6.6-6.6C282.6,0.7,214.4,0.7,214.4,0.7z"/>
		</g>
		
			<radialGradient id="SVGID_30_" cx="236.124" cy="356.2442" r="89.1291" gradientTransform="matrix(1 0 0 1 0 -299.002)" gradientUnits="userSpaceOnUse">
			<stop  offset="0" style="stop-color:#FFFFFF;stop-opacity:0"/>
			<stop  offset="1" style="stop-color:#FFFFFF"/>
		</radialGradient>
		<path class="st32" d="M288,23.6V8c0-3.7-3-6.7-6.7-6.7h-65.7c-3.7,0-6.7,3-6.7,6.7v15.6C221.9,35.9,271.8,36.3,288,23.6z"/>
		<g>
			<g>
				<path class="st12" d="M229,20.3h4.1v10.3h6v3.6H229L229,20.3L229,20.3z"/>
				<path class="st12" d="M247.3,19.9c4.1,0,6.8,3,6.8,7.3c0,4.2-2.7,7.3-6.8,7.3c-4.1,0-6.8-3-6.8-7.3
					C240.5,23,243.2,19.9,247.3,19.9z M247.3,31c1.1,0,2.7-0.7,2.7-3.8s-1.6-3.8-2.7-3.8c-1.1,0-2.7,0.7-2.7,3.8S246.3,31,247.3,31z
					"/>
				<path class="st12" d="M265.8,32.8c-0.9,1.2-2.4,1.8-3.8,1.8c-4,0-6.4-3.2-6.4-7.1c0-5.3,3.6-7.4,6.6-7.4c3.4,0,5.6,1.9,6.2,5.2
					h-4c-0.2-1-1-1.7-2-1.7c-2.8,0-2.8,3.1-2.8,4.1c0,1.3,0.5,3.6,3,3.6c1,0,1.9-0.5,2.1-1.5H263v-3h5.5v7.7h-2.6L265.8,32.8z"/>
			</g>
		</g>
	</g>
	<g>
		<g>
			
				<radialGradient id="SVGID_31_" cx="351.374" cy="266.5284" r="86.6756" gradientTransform="matrix(1 0 0 1 0 -299.002)" gradientUnits="userSpaceOnUse">
				<stop  offset="0" style="stop-color:#231F20"/>
				<stop  offset="1" style="stop-color:#231F20"/>
			</radialGradient>
			<path class="st33" d="M393.1,45.9c0,3.8-3.1,6.9-6.9,6.9h-68.3c-3.8,0-6.9-3.1-6.9-6.9V7.3c0-3.8,3.1-6.9,6.9-6.9h68.3
				c3.8,0,6.9,3.1,6.9,6.9V45.9z"/>
			<path class="st1" d="M386.2,53.1h-68.3c-4,0-7.3-3.3-7.3-7.3V7.3c0-4,3.3-7.3,7.3-7.3h68.3c4,0,7.3,3.3,7.3,7.3v38.6
				C393.4,49.9,390.2,53.1,386.2,53.1z M317.9,0.7c-3.6,0-6.6,3-6.6,6.6v38.6c0,3.6,3,6.6,6.6,6.6h68.3c3.6,0,6.6-3,6.6-6.6V7.3
				c0-3.6-3-6.6-6.6-6.6C386.2,0.7,317.9,0.7,317.9,0.7z"/>
		</g>
		
			<radialGradient id="SVGID_32_" cx="339.668" cy="356.2442" r="89.136" gradientTransform="matrix(1 0 0 1 0 -299.002)" gradientUnits="userSpaceOnUse">
			<stop  offset="0" style="stop-color:#FFFFFF;stop-opacity:0"/>
			<stop  offset="1" style="stop-color:#FFFFFF"/>
		</radialGradient>
		<path class="st34" d="M391.6,23.6V8c0-3.7-3-6.7-6.7-6.7h-65.7c-3.7,0-6.7,3-6.7,6.7v15.6C325.4,35.9,375.3,36.3,391.6,23.6z"/>
		<g>
			<g>
				<path class="st12" d="M337.1,19.2h4.1l4.9,13.9h-4.3l-0.6-2h-4.3l-0.6,2h-4.2L337.1,19.2z M340.3,28.1l-1.2-4.3h0l-1.3,4.3
					H340.3z"/>
				<path class="st12" d="M346.9,19.2h7.4c3.5,0,4.3,2.1,4.3,3.5c0,1.4-0.7,2.2-1.7,2.7c1.2,0.4,2.3,1.4,2.3,3.5
					c0,2.8-2.3,4.2-4.7,4.2h-7.6V19.2z M351.1,24.6h2.2c0.9,0,1.4-0.3,1.4-1.1c0-0.7-0.6-1-1.4-1h-2.2V24.6z M351.1,29.8h2.4
					c0.9,0,1.6-0.3,1.6-1.3c0-0.8-0.5-1.3-1.5-1.3h-2.6L351.1,29.8L351.1,29.8z"/>
				<path class="st12" d="M364.2,28.4c0,0.4,0.1,0.7,0.1,0.9c0.3,0.8,1.2,1,2,1c0.7,0,1.7-0.2,1.7-1.3c0-0.7-0.6-0.9-2.9-1.6
					c-2.1-0.6-4.6-1.2-4.6-4c0-3.2,2.7-4.6,5.4-4.6c2.9,0,5.5,1.1,5.6,4.5h-3.9c0.1-0.5-0.2-0.9-0.5-1.1c-0.3-0.3-0.8-0.3-1.2-0.3
					c-0.6,0-1.5,0.2-1.5,0.9c0.1,1,2,1.2,3.9,1.8c1.9,0.5,3.8,1.5,3.8,4c0,3.6-3.2,4.8-6.2,4.8c-1.5,0-5.9-0.6-5.9-5
					C360,28.4,364.2,28.4,364.2,28.4z"/>
			</g>
		</g>
	</g>
	<g>
		<g>
			
				<radialGradient id="SVGID_33_" cx="48.2041" cy="353.7784" r="68.7282" gradientTransform="matrix(1 0 0 1 0 -299.002)" gradientUnits="userSpaceOnUse">
				<stop  offset="0" style="stop-color:#231F20"/>
				<stop  offset="1" style="stop-color:#231F20"/>
			</radialGradient>
			<path class="st35" d="M82.5,119.8c0,3.8-3.1,6.9-6.9,6.9H7.3c-3.8,0-6.9-3.1-6.9-6.9V81.2c0-3.8,3.1-6.9,6.9-6.9h68.3
				c3.8,0,6.9,3.1,6.9,6.9V119.8z"/>
			<path class="st1" d="M75.6,127.1H7.3c-4,0-7.3-3.3-7.3-7.3V81.2c0-4,3.3-7.3,7.3-7.3h68.3c4,0,7.3,3.3,7.3,7.3v38.6
				C82.8,123.8,79.6,127.1,75.6,127.1z M7.3,74.6c-3.6,0-6.6,3-6.6,6.6v38.6c0,3.6,3,6.6,6.6,6.6h68.3c3.6,0,6.6-3,6.6-6.6V81.2
				c0-3.6-3-6.6-6.6-6.6L7.3,74.6L7.3,74.6z"/>
		</g>
		
			<radialGradient id="SVGID_34_" cx="29.0352" cy="430.1915" r="89.1318" gradientTransform="matrix(1 0 0 1 0 -299.002)" gradientUnits="userSpaceOnUse">
			<stop  offset="0" style="stop-color:#FFFFFF;stop-opacity:0"/>
			<stop  offset="1" style="stop-color:#FFFFFF"/>
		</radialGradient>
		<path class="st36" d="M80.9,97.5V81.9c0-3.7-3-6.7-6.7-6.7H8.6c-3.7,0-6.7,3-6.7,6.7v15.6C14.8,109.9,64.7,110.3,80.9,97.5z"/>
		<g>
			<g>
				<path class="st12" d="M31.8,103.3c0,0.4,0.1,0.7,0.2,0.9c0.3,0.8,1.2,1,2,1c0.7,0,1.7-0.2,1.7-1.3c0-0.7-0.6-0.9-2.9-1.6
					c-2.1-0.6-4.6-1.2-4.6-4c0-3.2,2.7-4.6,5.4-4.6c2.9,0,5.5,1.2,5.6,4.5h-3.9c0.1-0.5-0.2-0.9-0.5-1.1c-0.3-0.3-0.8-0.3-1.2-0.3
					c-0.6,0-1.5,0.2-1.5,0.9c0.1,1,2,1.2,3.9,1.8c1.9,0.5,3.8,1.5,3.8,4c0,3.6-3.2,4.8-6.2,4.8c-1.5,0-5.9-0.6-5.9-5
					C27.7,103.3,31.8,103.3,31.8,103.3z"/>
				<path class="st12" d="M41.1,94.1h4.1V108h-4.1V94.1z"/>
				<path class="st12" d="M47.4,94.1h4.2l3.9,7.4h0v-7.4h3.9V108h-4l-4.1-7.6h0v7.6h-3.9L47.4,94.1L47.4,94.1z"/>
			</g>
		</g>
	</g>
	<g>
		<path class="st1" d="M179.6,73.9c-22.8-0.1-45.5,0-68.3,0.1c-4,0-7.3,3.3-7.3,7.3c-0.1,12.9-0.3,25.7-0.5,38.6
			c0,4,3.2,7.2,7.2,7.2c22.8-0.1,45.5-0.1,68.3-0.1c4,0,7.3-3.2,7.3-7.2c0.1-12.9,0.3-25.7,0.5-38.6
			C186.9,77.2,183.6,73.9,179.6,73.9z"/>
		
			<radialGradient id="SVGID_35_" cx="132.8047" cy="430.1915" r="89.1276" gradientTransform="matrix(1 0 0 1 0 -299.002)" gradientUnits="userSpaceOnUse">
			<stop  offset="0" style="stop-color:#FFFFFF;stop-opacity:0"/>
			<stop  offset="1" style="stop-color:#FFFFFF"/>
		</radialGradient>
		<path class="st37" d="M184.7,97.5V81.9c0-3.7-3-6.7-6.7-6.7h-65.7c-3.7,0-6.7,3-6.7,6.7v15.6C118.6,109.9,168.5,110.3,184.7,97.5z
			"/>
		<g>
			<g>
				<path class="st12" d="M136.9,99.3c-0.1-0.5-0.5-2-2.2-2c-1.9,0-2.6,1.9-2.6,3.8c0,1.9,0.6,3.8,2.6,3.8c1.4,0,1.9-1,2.2-2.3h4.1
					c0,2.8-2.2,5.8-6.1,5.8c-4.4,0-6.8-3.2-6.8-7.3c0-4.4,2.7-7.3,6.8-7.3c3.7,0,5.7,2,6.1,5.5H136.9z"/>
				<path class="st12" d="M149.2,93.8c4.1,0,6.8,3,6.8,7.3c0,4.2-2.7,7.3-6.8,7.3c-4.1,0-6.8-3-6.8-7.3
					C142.3,96.8,145.1,93.8,149.2,93.8z M149.2,104.9c1.1,0,2.7-0.7,2.7-3.8c0-3.1-1.6-3.8-2.7-3.8c-1.1,0-2.7,0.7-2.7,3.8
					C146.5,104.2,148.1,104.9,149.2,104.9z"/>
				<path class="st12" d="M161,103.3c0,0.4,0.1,0.7,0.1,0.9c0.3,0.8,1.2,1,2,1c0.7,0,1.7-0.2,1.7-1.3c0-0.7-0.6-0.9-2.9-1.6
					c-2.1-0.6-4.6-1.2-4.6-4c0-3.2,2.7-4.6,5.4-4.6c2.9,0,5.5,1.2,5.6,4.5h-3.9c0.1-0.5-0.2-0.9-0.5-1.1c-0.3-0.3-0.8-0.3-1.2-0.3
					c-0.6,0-1.5,0.2-1.5,0.9c0.1,1,2,1.2,3.9,1.8c1.9,0.5,3.8,1.5,3.8,4c0,3.6-3.2,4.8-6.2,4.8c-1.5,0-5.9-0.6-5.9-5
					C156.9,103.3,161,103.3,161,103.3z"/>
			</g>
		</g>
	</g>
	<g>
		<g>
			
				<radialGradient id="SVGID_36_" cx="453.9805" cy="362.3799" r="68.7819" gradientTransform="matrix(1 0 0 1 0 -299.002)" gradientUnits="userSpaceOnUse">
				<stop  offset="0" style="stop-color:#231F20"/>
				<stop  offset="1" style="stop-color:#231F20"/>
			</radialGradient>
			<path class="st38" d="M496.7,119.8c0,3.8-3.1,6.9-6.9,6.9h-68.3c-3.8,0-6.9-3.1-6.9-6.9V81.2c0-3.8,3.1-6.9,6.9-6.9h68.3
				c3.8,0,6.9,3.1,6.9,6.9V119.8z"/>
			<path class="st1" d="M489.7,127.1h-68.3c-4,0-7.3-3.3-7.3-7.3V81.2c0-4,3.3-7.3,7.3-7.3h68.3c4,0,7.3,3.3,7.3,7.3v38.6
				C497,123.8,493.7,127.1,489.7,127.1z M421.4,74.6c-3.6,0-6.6,3-6.6,6.6v38.6c0,3.6,3,6.6,6.6,6.6h68.3c3.6,0,6.6-3,6.6-6.6V81.2
				c0-3.6-3-6.6-6.6-6.6L421.4,74.6L421.4,74.6z"/>
		</g>
		
			<radialGradient id="SVGID_37_" cx="443.2178" cy="430.2305" r="89.1318" gradientTransform="matrix(1 0 0 1 0 -299.002)" gradientUnits="userSpaceOnUse">
			<stop  offset="0" style="stop-color:#FFFFFF;stop-opacity:0"/>
			<stop  offset="1" style="stop-color:#FFFFFF"/>
		</radialGradient>
		<path class="st39" d="M495.1,97.6V82c0-3.7-3-6.7-6.7-6.7h-65.7c-3.7,0-6.7,3-6.7,6.7v15.6C429,109.9,478.9,110.3,495.1,97.6z"/>
		<g>
			<g>
				<path class="st12" d="M434,103.3c0,0.4,0.1,0.7,0.2,0.9c0.3,0.8,1.2,1,2,1c0.7,0,1.7-0.2,1.7-1.3c0-0.7-0.6-0.9-2.9-1.6
					c-2.1-0.6-4.6-1.2-4.6-4c0-3.2,2.7-4.6,5.4-4.6c2.9,0,5.5,1.2,5.6,4.5h-3.9c0.1-0.5-0.1-0.9-0.5-1.1c-0.3-0.3-0.8-0.3-1.2-0.3
					c-0.6,0-1.5,0.2-1.5,0.9c0.1,1,2,1.2,3.9,1.8c1.9,0.5,3.8,1.5,3.8,4c0,3.6-3.2,4.8-6.2,4.8c-1.5,0-5.9-0.6-5.9-5
					C429.9,103.3,434,103.3,434,103.3z"/>
				<path class="st12" d="M454.7,109.5l-1.8-1.9c-0.8,0.5-1.9,0.7-3.2,0.7c-4.1,0-6.8-3-6.8-7.3c0-4.2,2.7-7.3,6.8-7.3
					s6.8,3,6.8,7.3c0,1.9-0.6,3.6-1.6,4.9l1.6,1.7L454.7,109.5z M451,101.7l1.1,1.2c0.2-0.5,0.3-1.1,0.3-1.8c0-3.1-1.6-3.8-2.7-3.8
					c-1.1,0-2.7,0.7-2.7,3.8c0,3.1,1.6,3.8,2.7,3.8c0.2,0,0.3,0,0.5-0.1l-1.1-1.2L451,101.7z"/>
				<path class="st12" d="M458.3,94.1h7.9c2.4,0,4.4,1.3,4.4,4c0,1.4-0.6,3-2,3.5c1.1,0.4,1.8,1.7,2,3.5c0.1,0.7,0.1,2.3,0.5,3h-4.1
					c-0.2-0.7-0.3-1.4-0.3-2.1c-0.1-1.3-0.2-2.7-1.9-2.7h-2.2v4.8h-4.1L458.3,94.1L458.3,94.1z M462.4,100.2h2.2
					c0.8,0,1.8-0.1,1.8-1.4c0-0.9-0.5-1.4-2.1-1.4h-1.9L462.4,100.2L462.4,100.2z"/>
				<path class="st12" d="M475.1,97.7h-3.8v-3.6H483v3.6h-3.8V108h-4.1L475.1,97.7L475.1,97.7z"/>
			</g>
		</g>
	</g>
	<g>
		<g>
			
				<radialGradient id="SVGID_38_" cx="249.3389" cy="352.7344" r="71.3839" gradientTransform="matrix(1 0 0 1 0 -299.002)" gradientUnits="userSpaceOnUse">
				<stop  offset="0" style="stop-color:#231F20"/>
				<stop  offset="1" style="stop-color:#231F20"/>
			</radialGradient>
			<path class="st40" d="M289.6,119.8c0,3.8-3.1,6.9-6.9,6.9h-68.3c-3.8,0-6.9-3.1-6.9-6.9V81.2c0-3.8,3.1-6.9,6.9-6.9h68.3
				c3.8,0,6.9,3.1,6.9,6.9V119.8z"/>
			<path class="st1" d="M282.6,127.1h-68.3c-4,0-7.3-3.3-7.3-7.3V81.2c0-4,3.3-7.3,7.3-7.3h68.3c4,0,7.3,3.3,7.3,7.3v38.6
				C289.9,123.8,286.6,127.1,282.6,127.1z M214.4,74.6c-3.6,0-6.6,3-6.6,6.6v38.6c0,3.6,3,6.6,6.6,6.6h68.3c3.6,0,6.6-3,6.6-6.6
				V81.2c0-3.6-3-6.6-6.6-6.6L214.4,74.6L214.4,74.6z"/>
		</g>
		
			<radialGradient id="SVGID_39_" cx="236.124" cy="430.1915" r="89.1304" gradientTransform="matrix(1 0 0 1 0 -299.002)" gradientUnits="userSpaceOnUse">
			<stop  offset="0" style="stop-color:#FFFFFF;stop-opacity:0"/>
			<stop  offset="1" style="stop-color:#FFFFFF"/>
		</radialGradient>
		<path class="st41" d="M288,97.5V81.9c0-3.7-3-6.7-6.7-6.7h-65.7c-3.7,0-6.7,3-6.7,6.7v15.6C221.9,109.9,271.8,110.3,288,97.5z"/>
		<g>
			<g>
				<path class="st12" d="M234,96.6h-3.8v-3.6h11.7v3.6h-3.8V107H234L234,96.6L234,96.6z"/>
				<path class="st12" d="M245.8,93.1h4.1l4.9,13.9h-4.3l-0.6-2h-4.3l-0.6,2h-4.2L245.8,93.1z M249.1,102l-1.2-4.3h0l-1.3,4.3H249.1
					z"/>
				<path class="st12" d="M255.7,93.1h4.2l3.9,7.4h0v-7.4h3.9V107h-4l-4.1-7.6h0v7.6h-3.9L255.7,93.1L255.7,93.1z"/>
			</g>
		</g>
	</g>
	<g class="st42">
		<g class="st43">
			
				<radialGradient id="SVGID_40_" cx="651.194" cy="383.2879" r="153.0149" gradientTransform="matrix(1 0 0 1 0 -299.002)" gradientUnits="userSpaceOnUse">
				<stop  offset="0" style="stop-color:#231F20"/>
				<stop  offset="1" style="stop-color:#231F20"/>
			</radialGradient>
			<path class="st44" d="M736.2,38.6H679h-20.9h-93.2c-3.8,0-6.9,3.1-6.9,6.9v38.3c0,3.8,3.1,6.9,6.9,6.9h93.2H679h57.2
				c3.8,0,6.9-3.1,6.9-6.9V45.5C743,41.7,740,38.6,736.2,38.6z"/>
			<path class="st1" d="M736.2,91H564.8c-4,0-7.2-3.2-7.2-7.2V45.5c0-4,3.2-7.2,7.2-7.2h171.4c4,0,7.2,3.2,7.2,7.2v38.3
				C743.4,87.8,740.1,91,736.2,91z M564.8,38.9c-3.6,0-6.6,2.9-6.6,6.5v38.3c0,3.6,2.9,6.5,6.6,6.5h171.4c3.6,0,6.5-2.9,6.5-6.5
				V45.5c0-3.6-2.9-6.5-6.5-6.5H564.8z"/>
		</g>
		
			<linearGradient id="SVGID_41_" gradientUnits="userSpaceOnUse" x1="650.378" y1="386.4823" x2="650.3781" y2="321.2875" gradientTransform="matrix(1 0 0 1 0 -299.002)">
			<stop  offset="0" style="stop-color:#FFFFFF;stop-opacity:0"/>
			<stop  offset="1" style="stop-color:#FFFFFF"/>
		</linearGradient>
		<path class="st45" d="M741.5,61.7V46.2c0-3.7-3-6.6-6.6-6.6h-169c-3.7,0-6.6,3-6.6,6.6v15.5C572.1,73.9,725.4,74.3,741.5,61.7z"/>
		<g class="st43">
			<path class="st12" d="M663.4,63.6h-24.6v-5.9h24.6V63.6z M663.4,72.9h-24.6V67h24.6V72.9z"/>
		</g>
	</g>
	<g>
		<g>
			
				<radialGradient id="SVGID_42_" cx="355.0127" cy="708.1281" r="79.4211" gradientTransform="matrix(1 0 0 1 0 -299.002)" gradientUnits="userSpaceOnUse">
				<stop  offset="0" style="stop-color:#231F20"/>
				<stop  offset="1" style="stop-color:#231F20"/>
			</radialGradient>
			<path class="st46" d="M392.6,411.6c0,3.8-3.1,6.9-6.9,6.9h-67.8c-3.8,0-6.9-3.1-6.9-6.9v-38.3c0-3.8,3.1-6.9,6.9-6.9h67.8
				c3.8,0,6.9,3.1,6.9,6.9L392.6,411.6L392.6,411.6z"/>
			<path class="st1" d="M385.7,418.8h-67.8c-4,0-7.2-3.2-7.2-7.2v-38.3c0-4,3.2-7.2,7.2-7.2h67.8c4,0,7.2,3.2,7.2,7.2v38.3
				C392.9,415.6,389.7,418.8,385.7,418.8z M317.9,366.7c-3.6,0-6.5,2.9-6.5,6.5v38.3c0,3.6,2.9,6.6,6.5,6.6h67.8
				c3.6,0,6.6-2.9,6.6-6.6v-38.3c0-3.6-2.9-6.5-6.6-6.5H317.9z"/>
		</g>
		
			<radialGradient id="SVGID_43_" cx="339.4756" cy="721.8897" r="88.5241" gradientTransform="matrix(1 0 0 1 0 -299.002)" gradientUnits="userSpaceOnUse">
			<stop  offset="0" style="stop-color:#FFFFFF;stop-opacity:0"/>
			<stop  offset="1" style="stop-color:#FFFFFF"/>
		</radialGradient>
		<path class="st47" d="M391,389.5V374c0-3.7-3-6.6-6.6-6.6h-65.3c-3.7,0-6.6,3-6.6,6.6v15.5C325.3,401.7,374.9,402.1,391,389.5z"/>
		<g>
			<path class="st12" d="M342.8,391.3h6.8v-6.8h5.9v6.8h6.8v5.9h-6.8v6.8h-5.9v-6.8h-6.8V391.3z"/>
		</g>
	</g>
	<g>
		<g>
			
				<radialGradient id="SVGID_44_" cx="144.32" cy="421.4356" r="78.2903" gradientTransform="matrix(1 0 0 1 0 -299.002)" gradientUnits="userSpaceOnUse">
				<stop  offset="0" style="stop-color:#231F20"/>
				<stop  offset="1" style="stop-color:#231F20"/>
			</radialGradient>
			<path class="st48" d="M184.9,194c0,3.8-3.1,6.9-6.9,6.9h-68.3c-3.8,0-6.9-3.1-6.9-6.9v-38.6c0-3.8,3.1-6.9,6.9-6.9h68.3
				c3.8,0,6.9,3.1,6.9,6.9V194z"/>
			<path class="st1" d="M177.9,201.2h-68.3c-4,0-7.3-3.3-7.3-7.3v-38.6c0-4,3.3-7.3,7.3-7.3h68.3c4,0,7.3,3.3,7.3,7.3V194
				C185.2,198,181.9,201.2,177.9,201.2z M109.6,148.8c-3.6,0-6.6,3-6.6,6.6V194c0,3.6,3,6.6,6.6,6.6h68.3c3.6,0,6.6-3,6.6-6.6v-38.6
				c0-3.6-3-6.6-6.6-6.6H109.6z"/>
		</g>
		
			<radialGradient id="SVGID_45_" cx="131.4182" cy="504.3663" r="89.1338" gradientTransform="matrix(1 0 0 1 0 -299.002)" gradientUnits="userSpaceOnUse">
			<stop  offset="0" style="stop-color:#FFFFFF;stop-opacity:0"/>
			<stop  offset="1" style="stop-color:#FFFFFF"/>
		</radialGradient>
		<path class="st49" d="M183.3,171.7v-15.6c0-3.7-3-6.7-6.7-6.7h-65.7c-3.7,0-6.7,3-6.7,6.7v15.6C117.2,184,167.1,184.4,183.3,171.7
			z"/>
		<g>
			<path class="st12" d="M138,166.8l4.9,4.9l4.9-4.9l4.2,4.2l-4.9,4.9l4.9,4.9l-4.2,4.2l-4.9-4.9L138,185l-4.2-4.2l4.9-4.9l-4.9-4.9
				L138,166.8z"/>
		</g>
	</g>
	<g>
		<g>
			
				<radialGradient id="SVGID_46_" cx="42.362" cy="421.4596" r="78.2903" gradientTransform="matrix(1 0 0 1 0 -299.002)" gradientUnits="userSpaceOnUse">
				<stop  offset="0" style="stop-color:#231F20"/>
				<stop  offset="1" style="stop-color:#231F20"/>
			</radialGradient>
			<path class="st50" d="M82.9,194c0,3.8-3.1,6.9-6.9,6.9H7.7c-3.8,0-6.9-3.1-6.9-6.9v-38.6c0-3.8,3.1-6.9,6.9-6.9H76
				c3.8,0,6.9,3.1,6.9,6.9C82.9,155.4,82.9,194,82.9,194z"/>
			<path class="st1" d="M76,201.3H7.7c-4,0-7.3-3.3-7.3-7.3v-38.6c0-4,3.3-7.3,7.3-7.3H76c4,0,7.3,3.3,7.3,7.3V194
				C83.2,198,80,201.3,76,201.3z M7.7,148.8c-3.6,0-6.6,3-6.6,6.6V194c0,3.6,3,6.6,6.6,6.6H76c3.6,0,6.6-3,6.6-6.6v-38.6
				c0-3.6-3-6.6-6.6-6.6H7.7z"/>
		</g>
		
			<radialGradient id="SVGID_47_" cx="29.4602" cy="504.3903" r="89.1338" gradientTransform="matrix(1 0 0 1 0 -299.002)" gradientUnits="userSpaceOnUse">
			<stop  offset="0" style="stop-color:#FFFFFF;stop-opacity:0"/>
			<stop  offset="1" style="stop-color:#FFFFFF"/>
		</radialGradient>
		<path class="st51" d="M81.4,171.7v-15.6c0-3.7-3-6.7-6.7-6.7H9c-3.7,0-6.7,3-6.7,6.7v15.6C15.2,184.1,65.1,184.5,81.4,171.7z"/>
		<path class="st12" d="M41.8,176.1l3.4-9.6h4.9l-8.2,20.2h-5.2l2.4-5.5l-5.8-14.7h5L41.8,176.1z"/>
	</g>
	<g>
		<g>
			
				<radialGradient id="SVGID_48_" cx="352.5066" cy="426.1338" r="76.7469" gradientTransform="matrix(1 0 0 1 0 -299.002)" gradientUnits="userSpaceOnUse">
				<stop  offset="0" style="stop-color:#231F20"/>
				<stop  offset="1" style="stop-color:#231F20"/>
			</radialGradient>
			<path class="st52" d="M392,194c0,3.8-3.1,6.9-6.9,6.9h-68.3c-3.8,0-6.9-3.1-6.9-6.9v-38.6c0-3.8,3.1-6.9,6.9-6.9H385
				c3.8,0,6.9,3.1,6.9,6.9V194z"/>
			<path class="st1" d="M385,201.2h-68.3c-4,0-7.3-3.3-7.3-7.3v-38.6c0-4,3.3-7.3,7.3-7.3H385c4,0,7.3,3.3,7.3,7.3V194
				C392.3,198,389,201.2,385,201.2z M316.7,148.8c-3.6,0-6.6,3-6.6,6.6V194c0,3.6,3,6.6,6.6,6.6H385c3.6,0,6.6-3,6.6-6.6v-38.6
				c0-3.6-3-6.6-6.6-6.6H316.7z"/>
		</g>
		
			<radialGradient id="SVGID_49_" cx="338.5085" cy="504.3663" r="89.1304" gradientTransform="matrix(1 0 0 1 0 -299.002)" gradientUnits="userSpaceOnUse">
			<stop  offset="0" style="stop-color:#FFFFFF;stop-opacity:0"/>
			<stop  offset="1" style="stop-color:#FFFFFF"/>
		</radialGradient>
		<path class="st53" d="M390.4,171.7v-15.6c0-3.7-3-6.7-6.7-6.7H318c-3.7,0-6.7,3-6.7,6.7v15.6C324.3,184,374.2,184.4,390.4,171.7z"
			/>
		<polygon class="st12" points="365.3,187.5 352.2,171.5 339.1,187.5 339.1,177.2 352.2,161.2 365.3,177.2 		"/>
	</g>
	<g>
		<g>
			
				<radialGradient id="SVGID_50_" cx="247.863" cy="421.4356" r="78.2907" gradientTransform="matrix(1 0 0 1 0 -299.002)" gradientUnits="userSpaceOnUse">
				<stop  offset="0" style="stop-color:#231F20"/>
				<stop  offset="1" style="stop-color:#231F20"/>
			</radialGradient>
			<path class="st54" d="M288.4,194c0,3.8-3.1,6.9-6.9,6.9h-68.3c-3.8,0-6.9-3.1-6.9-6.9v-38.6c0-3.8,3.1-6.9,6.9-6.9h68.3
				c3.8,0,6.9,3.1,6.9,6.9V194z"/>
			<path class="st1" d="M281.5,201.2h-68.3c-4,0-7.3-3.3-7.3-7.3v-38.6c0-4,3.3-7.3,7.3-7.3h68.3c4,0,7.3,3.3,7.3,7.3V194
				C288.7,198,285.5,201.2,281.5,201.2z M213.2,148.8c-3.6,0-6.6,3-6.6,6.6V194c0,3.6,3,6.6,6.6,6.6h68.3c3.6,0,6.6-3,6.6-6.6v-38.6
				c0-3.6-3-6.6-6.6-6.6H213.2z"/>
		</g>
		
			<radialGradient id="SVGID_51_" cx="234.9631" cy="504.3663" r="89.1324" gradientTransform="matrix(1 0 0 1 0 -299.002)" gradientUnits="userSpaceOnUse">
			<stop  offset="0" style="stop-color:#FFFFFF;stop-opacity:0"/>
			<stop  offset="1" style="stop-color:#FFFFFF"/>
		</radialGradient>
		<path class="st55" d="M286.9,171.7v-15.6c0-3.7-3-6.7-6.7-6.7h-65.7c-3.7,0-6.7,3-6.7,6.7v15.6C220.7,184,270.6,184.4,286.9,171.7
			z"/>
		<polygon class="st12" points="255.5,174.7 248.1,165.7 240.9,174.7 240.9,168.9 248.1,160 255.5,168.9 		"/>
		<g>
			<g>
				<path class="st12" d="M224.5,166.7l4.9,4.9l4.9-4.9l4.2,4.2l-4.9,4.9l4.9,4.9l-4.2,4.2l-4.9-4.9l-4.9,4.9l-4.2-4.2l4.9-4.9
					l-4.9-4.9L224.5,166.7z"/>
			</g>
		</g>
		<g>
			<path class="st12" d="M258.3,172.3c-0.3-5.4,3.1-8.5,8.4-8.5c4.8,0,8,2,8,6.2c0,5-4.9,6.6-8.6,8.9v0v0.1h8.9v4.8h-17.1
				c-0.1-1.9,0.5-3.5,1.4-4.9c1.6-2.3,4.5-3.8,7-5.3c1-0.6,2.7-1.4,2.7-2.9c0-1.8-1-2.4-2.4-2.4c-2.3,0-3,1.6-3,4L258.3,172.3
				L258.3,172.3z"/>
		</g>
	</g>
	<g>
		<g>
			
				<radialGradient id="SVGID_52_" cx="351.374" cy="340.4693" r="86.6784" gradientTransform="matrix(1 0 0 1 0 -299.002)" gradientUnits="userSpaceOnUse">
				<stop  offset="0" style="stop-color:#231F20"/>
				<stop  offset="1" style="stop-color:#231F20"/>
			</radialGradient>
			<path class="st56" d="M393.1,119.8c0,3.8-3.1,6.9-6.9,6.9h-68.3c-3.8,0-6.9-3.1-6.9-6.9V81.2c0-3.8,3.1-6.9,6.9-6.9h68.3
				c3.8,0,6.9,3.1,6.9,6.9V119.8z"/>
			<path class="st1" d="M386.2,127.1h-68.3c-4,0-7.3-3.3-7.3-7.3V81.2c0-4,3.3-7.3,7.3-7.3h68.3c4,0,7.3,3.3,7.3,7.3v38.6
				C393.4,123.8,390.2,127.1,386.2,127.1z M317.9,74.6c-3.6,0-6.6,3-6.6,6.6v38.6c0,3.6,3,6.6,6.6,6.6h68.3c3.6,0,6.6-3,6.6-6.6
				V81.2c0-3.6-3-6.6-6.6-6.6L317.9,74.6L317.9,74.6z"/>
		</g>
		
			<radialGradient id="SVGID_53_" cx="339.668" cy="430.1915" r="89.1373" gradientTransform="matrix(1 0 0 1 0 -299.002)" gradientUnits="userSpaceOnUse">
			<stop  offset="0" style="stop-color:#FFFFFF;stop-opacity:0"/>
			<stop  offset="1" style="stop-color:#FFFFFF"/>
		</radialGradient>
		<path class="st57" d="M391.6,97.5V81.9c0-3.7-3-6.7-6.7-6.7h-65.7c-3.7,0-6.7,3-6.7,6.7v15.6C325.4,109.9,375.3,110.3,391.6,97.5z
			"/>
		<g>
			<polygon class="st12" points="359.7,103.3 352.4,94.4 345.1,103.3 345.1,97.6 352.4,88.6 359.7,97.6 			"/>
			<g>
				<g>
					<path class="st12" d="M328.7,95.4l4.9,4.9l4.9-4.9l4.2,4.2l-4.9,4.9l4.8,4.8l-4.2,4.2l-4.8-4.8l-4.9,4.9l-4.2-4.2l4.9-4.9
						l-4.9-4.9L328.7,95.4z"/>
				</g>
			</g>
			<g>
				<path class="st12" d="M362.6,99.2c0-2.3,1-4,2.5-5.2c1.5-1.1,3.5-1.6,5.8-1.6c5.7,0,7.6,3.4,7.6,5.1c0,4.1-2.6,4.1-2.6,4.2v0.1
					c0,0.2,3.2,0.2,3.2,4.6c0,2.4-1.8,6.2-8.3,6.2c-8.9,0-8.9-6.2-8.8-7.7h5.4c0,1,0.2,1.8,0.8,2.4c0.5,0.7,1.4,0.9,2.3,0.9
					c1.6,0,2.6-0.6,2.6-2.2c0-1.7-1.3-2-2.6-2c-0.8,0-1.2,0.1-1.6,0.1v-3.9c0.4,0,0.9,0.1,1.6,0.1c1.2,0,2.7-0.3,2.7-1.8
					c0-1.2-1.4-1.7-2.6-1.7c-1.5,0-2.8,0.8-2.7,2.5H362.6z"/>
			</g>
		</g>
	</g>
	<g>
		<g>
			
				<radialGradient id="SVGID_54_" cx="350.2285" cy="641.9796" r="72.4026" gradientTransform="matrix(1 0 0 1 0 -299.002)" gradientUnits="userSpaceOnUse">
				<stop  offset="0" style="stop-color:#231F20"/>
				<stop  offset="1" style="stop-color:#231F20"/>
			</radialGradient>
			<path class="st58" d="M392.6,338.1c0,3.8-3.1,6.9-6.9,6.9h-67.8c-3.8,0-6.9-3.1-6.9-6.9v-38.3c0-3.8,3.1-6.9,6.9-6.9h67.8
				c3.8,0,6.9,3.1,6.9,6.9L392.6,338.1L392.6,338.1z"/>
			<path class="st1" d="M385.7,345.3h-67.8c-4,0-7.2-3.2-7.2-7.2v-38.3c0-4,3.2-7.2,7.2-7.2h67.8c4,0,7.2,3.2,7.2,7.2v38.3
				C392.9,342,389.7,345.3,385.7,345.3z M317.9,293.2c-3.6,0-6.5,2.9-6.5,6.5v38.3c0,3.6,2.9,6.6,6.5,6.6h67.8
				c3.6,0,6.6-2.9,6.6-6.6v-38.3c0-3.6-2.9-6.5-6.6-6.5H317.9z"/>
		</g>
		
			<radialGradient id="SVGID_55_" cx="339.4756" cy="648.3663" r="88.5234" gradientTransform="matrix(1 0 0 1 0 -299.002)" gradientUnits="userSpaceOnUse">
			<stop  offset="0" style="stop-color:#FFFFFF;stop-opacity:0"/>
			<stop  offset="1" style="stop-color:#FFFFFF"/>
		</radialGradient>
		<path class="st59" d="M391,315.9v-15.5c0-3.7-3-6.6-6.6-6.6h-65.3c-3.7,0-6.6,3-6.6,6.6v15.5C325.3,328.2,374.9,328.6,391,315.9z"
			/>
		<g>
			<path class="st12" d="M355.1,316.7l4.7-1.7l1.5,4.1l-5,1.6l3.1,4.1l-3.5,2.7l-3.1-4.4l-3.1,4.4l-3.5-2.7l3.3-4.1l-5-1.6l1.4-4.1
				l4.8,1.7v-5.1h4.3L355.1,316.7L355.1,316.7z"/>
		</g>
	</g>
	<g>
		<g>
			
				<radialGradient id="SVGID_56_" cx="340.1522" cy="781.6181" r="69.5413" gradientTransform="matrix(1 0 0 1 0 -299.002)" gradientUnits="userSpaceOnUse">
				<stop  offset="0" style="stop-color:#231F20"/>
				<stop  offset="1" style="stop-color:#231F20"/>
			</radialGradient>
			<path class="st60" d="M391.9,484.8c0,3.8-3.1,6.9-6.9,6.9h-67.8c-3.8,0-6.9-3.1-6.9-6.9v-38.3c0-3.8,3.1-6.9,6.9-6.9H385
				c3.8,0,6.9,3.1,6.9,6.9L391.9,484.8L391.9,484.8z"/>
			<path class="st1" d="M385,492h-67.8c-4,0-7.2-3.2-7.2-7.2v-38.3c0-4,3.2-7.2,7.2-7.2H385c4,0,7.2,3.2,7.2,7.2v38.3
				C392.2,488.8,389,492,385,492z M317.2,439.9c-3.6,0-6.5,2.9-6.5,6.5v38.3c0,3.6,2.9,6.5,6.5,6.5H385c3.6,0,6.6-2.9,6.6-6.5v-38.3
				c0-3.6-2.9-6.5-6.6-6.5H317.2z"/>
		</g>
		
			<radialGradient id="SVGID_57_" cx="338.8251" cy="795.0898" r="88.5228" gradientTransform="matrix(1 0 0 1 0 -299.002)" gradientUnits="userSpaceOnUse">
			<stop  offset="0" style="stop-color:#FFFFFF;stop-opacity:0"/>
			<stop  offset="1" style="stop-color:#FFFFFF"/>
		</radialGradient>
		<path class="st61" d="M390.4,462.7v-15.5c0-3.7-3-6.6-6.6-6.6h-65.3c-3.7,0-6.6,3-6.6,6.6v15.5
			C324.7,474.9,374.2,475.3,390.4,462.7z"/>
		<g>
			<path class="st12" d="M356.1,462.3c-0.2-1-0.9-4.1-4.5-4.1c-4,0-5.3,3.9-5.3,7.6c0,3.7,1.3,7.6,5.3,7.6c2.9,0,4-2,4.5-4.6h8.4
				c0,5.6-4.5,11.5-12.6,11.5c-8.9,0-14-6.3-14-14.5c0-8.7,5.5-14.5,14-14.5c7.6,0,11.8,4,12.5,11L356.1,462.3L356.1,462.3
				L356.1,462.3z"/>
		</g>
	</g>
	<g>
		<g>
			
				<radialGradient id="SVGID_58_" cx="453.7715" cy="641.9796" r="72.3993" gradientTransform="matrix(1 0 0 1 0 -299.002)" gradientUnits="userSpaceOnUse">
				<stop  offset="0" style="stop-color:#231F20"/>
				<stop  offset="1" style="stop-color:#231F20"/>
			</radialGradient>
			<path class="st62" d="M496.1,338.1c0,3.8-3.1,6.9-6.9,6.9h-67.8c-3.8,0-6.9-3.1-6.9-6.9v-38.3c0-3.8,3.1-6.9,6.9-6.9h67.8
				c3.8,0,6.9,3.1,6.9,6.9V338.1z"/>
			<path class="st1" d="M489.2,345.3h-67.8c-4,0-7.2-3.2-7.2-7.2v-38.3c0-4,3.2-7.2,7.2-7.2h67.8c4,0,7.2,3.2,7.2,7.2v38.3
				C496.4,342,493.2,345.3,489.2,345.3z M421.4,293.2c-3.6,0-6.6,2.9-6.6,6.5v38.3c0,3.6,2.9,6.6,6.6,6.6h67.8
				c3.6,0,6.6-2.9,6.6-6.6v-38.3c0-3.6-2.9-6.5-6.6-6.5H421.4z"/>
		</g>
		
			<radialGradient id="SVGID_59_" cx="443.0215" cy="648.3663" r="88.518" gradientTransform="matrix(1 0 0 1 0 -299.002)" gradientUnits="userSpaceOnUse">
			<stop  offset="0" style="stop-color:#FFFFFF;stop-opacity:0"/>
			<stop  offset="1" style="stop-color:#FFFFFF"/>
		</radialGradient>
		<path class="st63" d="M494.6,315.9v-15.5c0-3.7-3-6.6-6.6-6.6h-65.3c-3.7,0-6.6,3-6.6,6.6v15.5
			C428.9,328.2,478.4,328.6,494.6,315.9z"/>
		<g>
			<path class="st12" d="M458.5,306.6h5.4L454,333h-5.4L458.5,306.6z"/>
		</g>
	</g>
	<g>
		<g>
			
				<radialGradient id="SVGID_60_" cx="458.5547" cy="708.1281" r="79.4192" gradientTransform="matrix(1 0 0 1 0 -299.002)" gradientUnits="userSpaceOnUse">
				<stop  offset="0" style="stop-color:#231F20"/>
				<stop  offset="1" style="stop-color:#231F20"/>
			</radialGradient>
			<path class="st64" d="M496.1,411.6c0,3.8-3.1,6.9-6.9,6.9h-67.8c-3.8,0-6.9-3.1-6.9-6.9v-38.3c0-3.8,3.1-6.9,6.9-6.9h67.8
				c3.8,0,6.9,3.1,6.9,6.9V411.6z"/>
			<path class="st1" d="M489.2,418.8h-67.8c-4,0-7.2-3.2-7.2-7.2v-38.3c0-4,3.2-7.2,7.2-7.2h67.8c4,0,7.2,3.2,7.2,7.2v38.3
				C496.4,415.6,493.2,418.8,489.2,418.8z M421.4,366.7c-3.6,0-6.6,2.9-6.6,6.5v38.3c0,3.6,2.9,6.6,6.6,6.6h67.8
				c3.6,0,6.6-2.9,6.6-6.6v-38.3c0-3.6-2.9-6.5-6.6-6.5H421.4z"/>
		</g>
		
			<radialGradient id="SVGID_61_" cx="443.0215" cy="721.8897" r="88.5186" gradientTransform="matrix(1 0 0 1 0 -299.002)" gradientUnits="userSpaceOnUse">
			<stop  offset="0" style="stop-color:#FFFFFF;stop-opacity:0"/>
			<stop  offset="1" style="stop-color:#FFFFFF"/>
		</radialGradient>
		<path class="st65" d="M494.6,389.5V374c0-3.7-3-6.6-6.6-6.6h-65.3c-3.7,0-6.6,3-6.6,6.6v15.5C428.9,401.7,478.4,402.1,494.6,389.5
			z"/>
		<g>
			<path class="st12" d="M445.8,389h19.4v6.1h-19.4V389z"/>
		</g>
	</g>
	<g>
		<g>
			
				<radialGradient id="SVGID_62_" cx="459.1737" cy="781.3311" r="79.4192" gradientTransform="matrix(1 0 0 1 0 -299.002)" gradientUnits="userSpaceOnUse">
				<stop  offset="0" style="stop-color:#231F20"/>
				<stop  offset="1" style="stop-color:#231F20"/>
			</radialGradient>
			<path class="st66" d="M496.7,484.8c0,3.8-3.1,6.9-6.9,6.9H422c-3.8,0-6.9-3.1-6.9-6.9v-38.3c0-3.8,3.1-6.9,6.9-6.9h67.8
				c3.8,0,6.9,3.1,6.9,6.9V484.8z"/>
			<path class="st1" d="M489.8,492H422c-4,0-7.2-3.2-7.2-7.2v-38.3c0-4,3.2-7.2,7.2-7.2h67.8c4,0,7.2,3.2,7.2,7.2v38.3
				C497.1,488.8,493.8,492,489.8,492z M422,439.9c-3.6,0-6.6,2.9-6.6,6.5v38.3c0,3.6,2.9,6.6,6.6,6.6h67.8c3.6,0,6.6-2.9,6.6-6.6
				v-38.3c0-3.6-2.9-6.5-6.6-6.5H422z"/>
		</g>
		
			<radialGradient id="SVGID_63_" cx="443.6405" cy="795.0927" r="88.5186" gradientTransform="matrix(1 0 0 1 0 -299.002)" gradientUnits="userSpaceOnUse">
			<stop  offset="0" style="stop-color:#FFFFFF;stop-opacity:0"/>
			<stop  offset="1" style="stop-color:#FFFFFF"/>
		</radialGradient>
		<path class="st67" d="M495.2,462.7v-15.5c0-3.7-3-6.6-6.6-6.6h-65.3c-3.7,0-6.6,3-6.6,6.6v15.5
			C429.5,474.9,479.1,475.3,495.2,462.7z"/>
		<g class="st42">
			<path class="st68" d="M446.4,462.2h19.4v6.1h-19.4L446.4,462.2L446.4,462.2z"/>
		</g>
		<g>
			<path class="st12" d="M469.3,462.7h-24.6v-5.9h24.6V462.7z M469.3,472h-24.6v-5.9h24.6V472z"/>
		</g>
	</g>
	<g>
		<g>
			
				<radialGradient id="SVGID_64_" cx="444.3467" cy="489.7031" r="69.5375" gradientTransform="matrix(1 0 0 1 0 -299.002)" gradientUnits="userSpaceOnUse">
				<stop  offset="0" style="stop-color:#231F20"/>
				<stop  offset="1" style="stop-color:#231F20"/>
			</radialGradient>
			<path class="st69" d="M496.1,192.9c0,3.8-3.1,6.9-6.9,6.9h-67.8c-3.8,0-6.9-3.1-6.9-6.9v-38.3c0-3.8,3.1-6.9,6.9-6.9h67.8
				c3.8,0,6.9,3.1,6.9,6.9V192.9z"/>
			<path class="st1" d="M489.2,200.1h-67.8c-4,0-7.2-3.2-7.2-7.2v-38.3c0-4,3.2-7.2,7.2-7.2h67.8c4,0,7.2,3.2,7.2,7.2v38.3
				C496.4,196.8,493.2,200.1,489.2,200.1z M421.4,148c-3.6,0-6.6,2.9-6.6,6.5v38.3c0,3.6,2.9,6.5,6.6,6.5h67.8
				c3.6,0,6.6-2.9,6.6-6.5v-38.3c0-3.6-2.9-6.5-6.6-6.5H421.4z"/>
		</g>
		
			<radialGradient id="SVGID_65_" cx="443.0215" cy="503.1748" r="88.5173" gradientTransform="matrix(1 0 0 1 0 -299.002)" gradientUnits="userSpaceOnUse">
			<stop  offset="0" style="stop-color:#FFFFFF;stop-opacity:0"/>
			<stop  offset="1" style="stop-color:#FFFFFF"/>
		</radialGradient>
		<path class="st70" d="M494.6,170.8v-15.5c0-3.7-3-6.6-6.6-6.6h-65.3c-3.7,0-6.6,3-6.6,6.6v15.5C428.9,183,478.4,183.4,494.6,170.8
			z"/>
		<g>
			<polygon class="st12" points="450.6,162.5 442.5,175.7 450.6,188.9 444.2,188.9 436.1,175.7 444.2,162.5 			"/>
			<g>
				<path class="st12" d="M441.6,172.5h16.8v6.1h-16.8V172.5z"/>
			</g>
			<g>
				<path class="st12" d="M461.3,172.5h11.6v6.1h-11.6V172.5z"/>
			</g>
		</g>
	</g>
	<g>
		<g>
			
				<radialGradient id="SVGID_66_" cx="350.8348" cy="494.002" r="72.9154" gradientTransform="matrix(1 0 0 1 0 -299.002)" gradientUnits="userSpaceOnUse">
				<stop  offset="0" style="stop-color:#231F20"/>
				<stop  offset="1" style="stop-color:#231F20"/>
			</radialGradient>
			<path class="st71" d="M392.3,265c0,3.8-3.1,6.9-6.9,6.9h-68.3c-3.8,0-6.9-3.1-6.9-6.9v-38.6c0-3.8,3.1-6.9,6.9-6.9h68.3
				c3.8,0,6.9,3.1,6.9,6.9V265z"/>
			<path class="st1" d="M385.4,272.2h-68.3c-4,0-7.3-3.3-7.3-7.3v-38.6c0-4,3.3-7.3,7.3-7.3h68.3c4,0,7.3,3.3,7.3,7.3V265
				C392.6,269,389.4,272.2,385.4,272.2z M317.1,219.8c-3.6,0-6.6,3-6.6,6.6V265c0,3.6,3,6.6,6.6,6.6h68.3c3.6,0,6.6-3,6.6-6.6v-38.6
				c0-3.6-3-6.6-6.6-6.6L317.1,219.8L317.1,219.8z"/>
		</g>
		
			<radialGradient id="SVGID_67_" cx="338.868" cy="575.3663" r="89.1373" gradientTransform="matrix(1 0 0 1 0 -299.002)" gradientUnits="userSpaceOnUse">
			<stop  offset="0" style="stop-color:#FFFFFF;stop-opacity:0"/>
			<stop  offset="1" style="stop-color:#FFFFFF"/>
		</radialGradient>
		<path class="st72" d="M390.8,242.7v-15.6c0-3.7-3-6.7-6.7-6.7h-65.7c-3.7,0-6.7,3-6.7,6.7v15.6C324.6,255,374.5,255.4,390.8,242.7
			z"/>
		<g>
			<path class="st12" d="M355.6,230.8c-2.3,5.7-3.2,10.6-3.2,16.1c0,5.3,0.9,10,3.2,15.8h-6.1c-2.6-5.4-3.8-10.2-3.8-15.8
				c0-5.6,1.2-10.9,3.8-16.1L355.6,230.8L355.6,230.8z"/>
		</g>
	</g>
	<g>
		<g class="st73">
			<path class="st1" d="M495.5,264.8c0,3.8-3.1,6.9-6.9,6.9h-68.3c-3.8,0-6.9-3.1-6.9-6.9v-38.6c0-3.8,3.1-6.9,6.9-6.9h68.3
				c3.8,0,6.9,3.1,6.9,6.9V264.8z"/>
		</g>
		<g>
			
				<radialGradient id="SVGID_68_" cx="475.576" cy="596.1163" r="146.7415" gradientTransform="matrix(1 0 0 1 0 -299.002)" gradientUnits="userSpaceOnUse">
				<stop  offset="0" style="stop-color:#231F20"/>
				<stop  offset="1" style="stop-color:#231F20"/>
			</radialGradient>
			<path class="st74" d="M497,265c0,3.8-3.1,6.9-6.9,6.9h-68.3c-3.8,0-6.9-3.1-6.9-6.9v-38.6c0-3.8,3.1-6.9,6.9-6.9h68.3
				c3.8,0,6.9,3.1,6.9,6.9V265z"/>
			<path class="st1" d="M490.1,272.2h-68.3c-4,0-7.3-3.3-7.3-7.3v-38.6c0-4,3.3-7.3,7.3-7.3h68.3c4,0,7.3,3.3,7.3,7.3V265
				C497.3,269,494.1,272.2,490.1,272.2z M421.8,219.8c-3.6,0-6.6,3-6.6,6.6V265c0,3.6,3,6.6,6.6,6.6h68.3c3.6,0,6.6-3,6.6-6.6v-38.6
				c0-3.6-3-6.6-6.6-6.6L421.8,219.8L421.8,219.8z"/>
		</g>
		
			<radialGradient id="SVGID_69_" cx="443.5564" cy="575.3663" r="89.1304" gradientTransform="matrix(1 0 0 1 0 -299.002)" gradientUnits="userSpaceOnUse">
			<stop  offset="0" style="stop-color:#FFFFFF;stop-opacity:0"/>
			<stop  offset="1" style="stop-color:#FFFFFF"/>
		</radialGradient>
		<path class="st75" d="M495.5,242.7v-15.6c0-3.7-3-6.7-6.7-6.7h-65.7c-3.7,0-6.7,3-6.7,6.7v15.6C429.3,255,479.2,255.4,495.5,242.7
			z"/>
		<g>
			<path class="st12" d="M452.4,262.7c2.2-5,3.2-10.2,3.2-15.8c0-5.9-1-10.4-3.2-16.1h6.1c2.6,5.1,3.8,10.6,3.8,16.1
				c0,6-1.2,10.3-3.8,15.8H452.4L452.4,262.7z"/>
		</g>
	</g>
	<g>
		<g>
			
				<radialGradient id="SVGID_70_" cx="457.0918" cy="303.2203" r="57.6367" fx="438.4179" fy="302.4196" gradientTransform="matrix(1 0 0 1 0 -299.002)" gradientUnits="userSpaceOnUse">
				<stop  offset="0" style="stop-color:#231F20"/>
				<stop  offset="1" style="stop-color:#231F20"/>
			</radialGradient>
			<path class="st76" d="M496.7,45.9c0,3.8-3.1,6.9-6.9,6.9h-68.3c-3.8,0-6.9-3.1-6.9-6.9V7.3c0-3.8,3.1-6.9,6.9-6.9h68.3
				c3.8,0,6.9,3.1,6.9,6.9V45.9z"/>
			<path class="st1" d="M489.7,53.1h-68.3c-4,0-7.3-3.3-7.3-7.3V7.3c0-4,3.3-7.3,7.3-7.3h68.3c4,0,7.3,3.3,7.3,7.3v38.6
				C497,49.9,493.7,53.1,489.7,53.1z M421.4,0.7c-3.6,0-6.6,3-6.6,6.6v38.6c0,3.6,3,6.6,6.6,6.6h68.3c3.6,0,6.6-3,6.6-6.6V7.3
				c0-3.6-3-6.6-6.6-6.6C489.7,0.7,421.4,0.7,421.4,0.7z"/>
		</g>
		
			<radialGradient id="SVGID_71_" cx="443.2178" cy="356.2442" r="89.1305" gradientTransform="matrix(1 0 0 1 0 -299.002)" gradientUnits="userSpaceOnUse">
			<stop  offset="0" style="stop-color:#FFFFFF;stop-opacity:0"/>
			<stop  offset="1" style="stop-color:#FFFFFF"/>
		</radialGradient>
		<path class="st77" d="M495.1,23.6V8c0-3.7-3-6.7-6.7-6.7h-65.7c-3.7,0-6.7,3-6.7,6.7v15.6C429,35.9,478.9,36.3,495.1,23.6z"/>
		<g>
			<g>
				<g>
					<g>
						<path class="st12" d="M464.7,19.8v11.8c0,3.4,0.3,5.2,0.5,6.3h-3.5c-0.4-0.7-0.7-2.5-0.7-5.9V19.8h-6.7
							c-0.2,5.6-1.4,14.6-2.9,18.1H448c1.5-4.1,2.7-12.5,2.8-18.1c-1.6,0-3.1,0.1-4.1,0.4l-0.5-2.3c0.9-0.6,2.6-1.1,5.9-1.1h15.8
							l-0.4,3C467.5,19.8,464.7,19.8,464.7,19.8z"/>
						<path class="st12" d="M465.6,38.3h-4.1l-0.1-0.2c-0.5-0.8-0.7-3-0.7-6.1V20.2h-6c-0.2,5.8-1.5,14.6-2.9,17.9l-0.1,0.2h-4.2
							l0.2-0.4c1.5-4.2,2.6-12.4,2.8-17.7c-1.7,0-2.9,0.1-3.7,0.4l-0.3,0.1l-0.6-2.8l0.2-0.1c1.1-0.8,3-1.1,6-1.1h16.2l-0.5,3.6H465
							v11.5c0,2.9,0.2,4.8,0.5,6.2L465.6,38.3z M461.9,37.6h2.9c-0.3-1.4-0.5-3.3-0.5-5.9V19.5h2.9l0.3-2.3H452
							c-2.7,0-4.5,0.3-5.5,0.9l0.4,1.7c0.9-0.2,2.1-0.3,3.9-0.3h0.3l0,0.3c-0.1,5.2-1.2,13.3-2.7,17.8h2.8
							c1.4-3.5,2.6-12.2,2.8-17.8l0-0.3h7.3V32C461.3,35.8,461.7,37.1,461.9,37.6z"/>
					</g>
				</g>
			</g>
		</g>
	</g>
</g>
</svg>
