<?xml version="1.0" encoding="utf-8"?>
<!-- Generator: Adobe Illustrator 15.1.0, SVG Export Plug-In  -->
<!DOCTYPE svg PUBLIC "-//W3C//DTD SVG 1.1//EN" "http://www.w3.org/Graphics/SVG/1.1/DTD/svg11.dtd" [
	<!ENTITY ns_flows "http://ns.adobe.com/Flows/1.0/">
]>
<svg version="1.1"
	 xmlns="http://www.w3.org/2000/svg" xmlns:xlink="http://www.w3.org/1999/xlink" xmlns:a="http://ns.adobe.com/AdobeSVGViewerExtensions/3.0/"
	 x="0px" y="0px" width="808px" height="204px" viewBox="-15 -20 808 204" enable-background="new -15 -20 808 204"
	 xml:space="preserve">
<defs>
</defs>
<ellipse fill="#E6E6E6" stroke="#4E5847" stroke-width="8" stroke-miterlimit="10" cx="388.25" cy="85.5" rx="384.25" ry="81.5"/>
<path d="M260.107,40.654c-0.884,0.032-2.178,0.221-3.883,0.568c-1.705,0.348-3.096,0.869-4.168,1.563
	c-1.074,0.727-1.816,2.226-2.227,4.5c-0.411,2.273-0.615,5.052-0.615,8.336v29.223c0,3.726-0.774,6.962-2.321,9.709
	c-1.548,2.747-3.584,5.005-6.11,6.772c-2.494,1.705-5.123,2.93-7.886,3.671s-5.407,1.113-7.933,1.113
	c-4.043,0-7.643-0.529-10.799-1.587c-3.158-1.057-5.811-2.486-7.957-4.286c-2.116-1.8-3.711-3.86-4.784-6.181
	c-1.074-2.321-1.61-4.744-1.61-7.271V47.048c0-1.105-0.182-2.028-0.545-2.771c-0.363-0.741-1.098-1.428-2.202-2.06
	c-0.79-0.442-1.8-0.797-3.031-1.066c-1.231-0.268-2.242-0.434-3.031-0.497v-3.363h27.991v3.363
	c-0.884,0.032-1.997,0.174-3.339,0.426s-2.329,0.489-2.96,0.709c-1.074,0.379-1.792,1.01-2.155,1.893
	c-0.363,0.884-0.544,1.846-0.544,2.887v37.103c0,1.798,0.196,3.684,0.592,5.656c0.395,1.972,1.176,3.81,2.344,5.513
	c1.232,1.736,2.905,3.156,5.021,4.26c2.114,1.104,5.02,1.656,8.715,1.656c3.473,0,6.386-0.552,8.738-1.656
	c2.352-1.104,4.207-2.555,5.564-4.354c1.295-1.704,2.21-3.486,2.748-5.348c0.536-1.861,0.805-3.739,0.805-5.632V56.224
	c0-3.502-0.253-6.364-0.758-8.589c-0.506-2.225-1.248-3.684-2.227-4.378c-1.105-0.789-2.612-1.404-4.522-1.846
	c-1.911-0.441-3.371-0.693-4.382-0.757v-3.363h27.471V40.654z"/>
<path d="M315.854,104.5h-22.828v-3.126c0.726-0.063,1.522-0.126,2.392-0.189c0.868-0.063,1.587-0.189,2.155-0.379
	c0.883-0.284,1.539-0.781,1.965-1.492c0.427-0.71,0.64-1.634,0.64-2.771V72.53c0-3.315-0.784-5.873-2.351-7.673
	s-3.474-2.7-5.721-2.7c-1.678,0-3.212,0.261-4.605,0.781c-1.393,0.521-2.626,1.161-3.702,1.918
	c-1.045,0.727-1.875,1.508-2.492,2.344c-0.617,0.837-1.069,1.508-1.353,2.013v26.855c0,1.073,0.22,1.958,0.662,2.652
	s1.105,1.231,1.99,1.61c0.662,0.316,1.381,0.553,2.154,0.711s1.57,0.268,2.393,0.331v3.126h-22.877v-3.126
	c0.726-0.063,1.476-0.126,2.25-0.189c0.773-0.063,1.444-0.188,2.013-0.378c0.884-0.283,1.539-0.78,1.966-1.49
	c0.426-0.709,0.639-1.633,0.639-2.768v-28.81c0-1.072-0.229-2.058-0.687-2.957s-1.098-1.632-1.918-2.2
	c-0.601-0.378-1.311-0.654-2.132-0.827c-0.821-0.173-1.705-0.292-2.652-0.355v-3.126l15.535-1.042l0.664,0.663v6.583h0.236
	c0.758-0.758,1.705-1.665,2.842-2.723c1.137-1.058,2.21-1.918,3.221-2.582c1.168-0.758,2.558-1.389,4.168-1.895
	c1.61-0.505,3.426-0.758,5.447-0.758c4.482,0,7.807,1.397,9.97,4.192c2.162,2.794,3.244,6.512,3.244,11.154v24.297
	c0,1.105,0.189,1.998,0.568,2.676c0.379,0.68,1.025,1.208,1.942,1.587c0.758,0.315,1.412,0.537,1.965,0.663
	c0.553,0.127,1.318,0.221,2.297,0.284V104.5z"/>
<path d="M372.738,103.647l-16.338,1.042l-0.713-0.663v-4.357l-0.378-0.095c-1.641,1.832-3.666,3.332-6.078,4.5
	c-2.413,1.168-4.896,1.752-7.449,1.752c-2.649,0-5.211-0.592-7.687-1.776c-2.476-1.184-4.628-2.849-6.455-4.997
	c-1.86-2.178-3.335-4.799-4.423-7.861s-1.632-6.442-1.632-10.136c0-3.378,0.583-6.583,1.749-9.615
	c1.167-3.031,2.775-5.684,4.825-7.957c1.923-2.115,4.28-3.805,7.071-5.068c2.79-1.263,5.636-1.895,8.537-1.895
	c2.176,0,4.312,0.277,6.408,0.829c2.097,0.553,3.902,1.255,5.416,2.108V43.18c0-1.329-0.222-2.539-0.663-3.63
	c-0.442-1.092-1.059-1.922-1.848-2.492c-0.884-0.601-2.076-1.036-3.575-1.305c-1.5-0.27-3.119-0.467-4.854-0.594v-2.937
	l19.133-1.042l0.712,0.709v62.951c0,1.104,0.213,2.044,0.64,2.816c0.426,0.773,1.049,1.428,1.871,1.965
	c0.599,0.379,1.468,0.614,2.604,0.709s2.179,0.158,3.126,0.189V103.647z M355.593,95.453V68.125
	c-0.252-0.821-0.662-1.705-1.229-2.652c-0.566-0.947-1.275-1.815-2.127-2.605c-0.914-0.789-1.985-1.445-3.215-1.965
	c-1.229-0.521-2.662-0.782-4.301-0.782c-1.892,0-3.633,0.49-5.224,1.468c-1.592,0.979-3.002,2.384-4.23,4.215
	c-1.166,1.769-2.088,4.019-2.766,6.75c-0.678,2.731-1.017,5.754-1.017,9.07c0,2.652,0.252,5.061,0.757,7.223
	c0.504,2.163,1.355,4.176,2.553,6.038c1.103,1.77,2.513,3.189,4.23,4.264c1.717,1.073,3.758,1.609,6.122,1.609
	c2.521,0,4.608-0.552,6.263-1.657C353.064,97.996,354.458,96.779,355.593,95.453z"/>
<path d="M418.775,93.512c-1.958,3.727-4.579,6.694-7.862,8.904c-3.284,2.21-7.058,3.315-11.319,3.315
	c-3.759,0-7.05-0.663-9.876-1.989s-5.155-3.126-6.985-5.399c-1.832-2.273-3.197-4.926-4.098-7.957
	c-0.899-3.031-1.35-6.236-1.35-9.615c0-3.031,0.481-6.007,1.444-8.928c0.963-2.92,2.376-5.549,4.239-7.886
	c1.8-2.242,4.033-4.05,6.702-5.423c2.668-1.374,5.659-2.061,8.976-2.061c3.41,0,6.33,0.537,8.762,1.61
	c2.431,1.074,4.404,2.542,5.92,4.405c1.452,1.769,2.534,3.853,3.245,6.252c0.71,2.4,1.065,5.005,1.065,7.815v3.126h-30.928
	c0,3.07,0.291,5.855,0.876,8.355c0.584,2.5,1.507,4.699,2.771,6.598c1.231,1.836,2.842,3.284,4.831,4.344
	c1.989,1.061,4.357,1.59,7.104,1.59c2.81,0,5.233-0.658,7.271-1.976c2.036-1.317,4.002-3.69,5.896-7.118L418.775,93.512z
	 M408.309,75.703c0-1.763-0.15-3.651-0.45-5.666c-0.301-2.014-0.782-3.699-1.444-5.053c-0.728-1.448-1.722-2.628-2.984-3.542
	c-1.264-0.913-2.889-1.37-4.879-1.37c-3.314,0-6.07,1.377-8.265,4.132s-3.386,6.587-3.575,11.498H408.309z"/>
<path d="M459.934,63.815c0,1.61-0.396,3.04-1.185,4.287c-0.79,1.248-2.006,1.871-3.647,1.871c-1.769,0-3.118-0.458-4.049-1.374
	c-0.932-0.916-1.397-1.926-1.397-3.031c0-0.694,0.055-1.326,0.166-1.895c0.11-0.568,0.213-1.137,0.308-1.705
	c-1.484,0-3.221,0.6-5.21,1.8c-1.989,1.2-3.679,2.905-5.067,5.115v27.187c0,1.105,0.213,2.005,0.639,2.7
	c0.427,0.694,1.097,1.215,2.014,1.563c0.788,0.316,1.807,0.553,3.055,0.711c1.247,0.158,2.328,0.268,3.244,0.331v3.126h-24.629
	v-3.126c0.726-0.063,1.476-0.126,2.25-0.189c0.773-0.063,1.444-0.188,2.013-0.378c0.884-0.283,1.539-0.78,1.966-1.49
	c0.426-0.709,0.639-1.633,0.639-2.768v-28.81c0-0.978-0.229-1.94-0.687-2.886s-1.098-1.703-1.918-2.271
	c-0.601-0.378-1.311-0.654-2.132-0.827c-0.821-0.173-1.705-0.292-2.652-0.355v-3.126l15.535-1.042l0.664,0.663v6.583h0.236
	c1.957-2.558,4.136-4.5,6.536-5.826c2.399-1.326,4.595-1.989,6.583-1.989c1.99,0,3.607,0.647,4.855,1.942
	C459.31,59.9,459.934,61.636,459.934,63.815z"/>
<path d="M485.794,104.5h-22.782v-3.126c0.727-0.063,1.5-0.134,2.321-0.213c0.82-0.079,1.499-0.198,2.036-0.356
	c0.884-0.284,1.547-0.781,1.99-1.492c0.441-0.711,0.662-1.635,0.662-2.773V42.412c0-1.138-0.244-2.204-0.733-3.199
	c-0.49-0.996-1.13-1.778-1.919-2.346c-0.568-0.379-1.609-0.727-3.125-1.042c-1.516-0.316-2.732-0.506-3.647-0.569v-3.031
	l17.571-1.042l0.664,0.71v64.083c0,1.105,0.204,2.013,0.615,2.724c0.41,0.71,1.073,1.255,1.989,1.634
	c0.694,0.316,1.381,0.553,2.061,0.711c0.679,0.158,1.444,0.268,2.297,0.331V104.5z"/>
<path d="M514.307,104.5h-22.545v-3.126c0.726-0.063,1.476-0.126,2.25-0.189c0.773-0.063,1.444-0.188,2.013-0.378
	c0.884-0.283,1.539-0.78,1.966-1.49c0.426-0.709,0.639-1.633,0.639-2.768v-28.81c0-1.009-0.229-1.932-0.687-2.768
	c-0.458-0.835-1.098-1.537-1.918-2.104c-0.601-0.378-1.468-0.702-2.604-0.97c-1.137-0.268-2.18-0.434-3.127-0.497v-3.126
	l16.482-1.042l0.664,0.663v38.08c0,1.105,0.211,2.021,0.635,2.747c0.423,0.727,1.089,1.263,1.999,1.61
	c0.689,0.284,1.363,0.514,2.022,0.687c0.658,0.175,1.396,0.292,2.211,0.355V104.5z M508.387,38.807c0,1.8-0.593,3.371-1.776,4.712
	c-1.185,1.343-2.646,2.013-4.382,2.013c-1.609,0-3.007-0.639-4.191-1.918c-1.184-1.278-1.775-2.739-1.775-4.381
	c0-1.736,0.592-3.252,1.775-4.547c1.185-1.294,2.582-1.942,4.191-1.942c1.801,0,3.276,0.608,4.429,1.824
	C507.81,35.784,508.387,37.197,508.387,38.807z"/>
<path d="M571.664,104.5h-22.83v-3.126c0.727-0.063,1.523-0.126,2.393-0.189c0.868-0.063,1.586-0.189,2.154-0.379
	c0.884-0.284,1.54-0.781,1.966-1.492c0.427-0.71,0.64-1.634,0.64-2.771V72.53c0-3.315-0.784-5.873-2.351-7.673s-3.474-2.7-5.721-2.7
	c-1.678,0-3.212,0.261-4.605,0.781c-1.393,0.521-2.626,1.161-3.702,1.918c-1.045,0.727-1.875,1.508-2.492,2.344
	c-0.617,0.837-1.068,1.508-1.354,2.013v26.855c0,1.073,0.221,1.958,0.664,2.652c0.441,0.694,1.104,1.231,1.988,1.61
	c0.664,0.316,1.382,0.553,2.155,0.711s1.57,0.268,2.392,0.331v3.126h-22.876v-3.126c0.726-0.063,1.476-0.126,2.25-0.189
	c0.773-0.063,1.444-0.188,2.013-0.378c0.884-0.283,1.539-0.78,1.966-1.49c0.426-0.709,0.64-1.633,0.64-2.768v-28.81
	c0-1.072-0.229-2.058-0.688-2.957s-1.098-1.632-1.918-2.2c-0.601-0.378-1.311-0.654-2.131-0.827
	c-0.822-0.173-1.705-0.292-2.652-0.355v-3.126l15.535-1.042l0.662,0.663v6.583h0.237c0.758-0.758,1.705-1.665,2.842-2.723
	c1.137-1.058,2.21-1.918,3.221-2.582c1.168-0.758,2.558-1.389,4.168-1.895c1.61-0.505,3.426-0.758,5.446-0.758
	c4.483,0,7.808,1.397,9.971,4.192c2.162,2.794,3.244,6.512,3.244,11.154v24.297c0,1.105,0.189,1.998,0.568,2.676
	c0.379,0.68,1.025,1.208,1.941,1.587c0.758,0.315,1.413,0.537,1.966,0.663c0.553,0.127,1.318,0.221,2.298,0.284V104.5z"/>
<path d="M618.885,93.512c-1.958,3.727-4.579,6.694-7.862,8.904c-3.284,2.21-7.058,3.315-11.319,3.315
	c-3.759,0-7.05-0.663-9.876-1.989s-5.155-3.126-6.985-5.399c-1.832-2.273-3.197-4.926-4.098-7.957
	c-0.899-3.031-1.35-6.236-1.35-9.615c0-3.031,0.481-6.007,1.444-8.928c0.963-2.92,2.376-5.549,4.239-7.886
	c1.8-2.242,4.033-4.05,6.702-5.423c2.668-1.374,5.659-2.061,8.976-2.061c3.41,0,6.33,0.537,8.762,1.61
	c2.431,1.074,4.404,2.542,5.92,4.405c1.452,1.769,2.534,3.853,3.245,6.252c0.71,2.4,1.065,5.005,1.065,7.815v3.126H586.82
	c0,3.07,0.291,5.855,0.876,8.355c0.584,2.5,1.507,4.699,2.771,6.598c1.231,1.836,2.842,3.284,4.831,4.344
	c1.989,1.061,4.357,1.59,7.104,1.59c2.81,0,5.233-0.658,7.271-1.976c2.036-1.317,4.002-3.69,5.896-7.118L618.885,93.512z
	 M608.418,75.703c0-1.763-0.15-3.651-0.45-5.666c-0.301-2.014-0.782-3.699-1.444-5.053c-0.728-1.448-1.722-2.628-2.984-3.542
	c-1.264-0.913-2.889-1.37-4.879-1.37c-3.314,0-6.07,1.377-8.265,4.132s-3.386,6.587-3.575,11.498H608.418z"/>
</svg>
