<?xml version="1.0" encoding="utf-8"?>
<!-- Generator: Adobe Illustrator 15.1.0, SVG Export Plug-In  -->
<!DOCTYPE svg PUBLIC "-//W3C//DTD SVG 1.1//EN" "http://www.w3.org/Graphics/SVG/1.1/DTD/svg11.dtd" [
	<!ENTITY ns_flows "http://ns.adobe.com/Flows/1.0/">
]>
<svg version="1.1"
	 xmlns="http://www.w3.org/2000/svg" xmlns:xlink="http://www.w3.org/1999/xlink" xmlns:a="http://ns.adobe.com/AdobeSVGViewerExtensions/3.0/"
	 x="0px" y="0px" width="808px" height="204px" viewBox="-15 -20 808 204" enable-background="new -15 -20 808 204"
	 xml:space="preserve">
<defs>
</defs>
<ellipse fill="#F4EF82" stroke="#4E5847" stroke-width="8" stroke-miterlimit="10" cx="388.25" cy="85.5" rx="384.25" ry="81.5"/>
<path d="M279.719,108.5h-27.897v-3.363c0.758-0.063,1.854-0.157,3.292-0.283c1.437-0.126,2.423-0.315,2.96-0.568
	c0.947-0.379,1.642-0.955,2.084-1.729c0.441-0.773,0.663-1.776,0.663-3.007V75.63h-31.592v23.397c0,1.105,0.182,2.037,0.545,2.795
	s1.081,1.42,2.155,1.988c0.536,0.285,1.492,0.568,2.865,0.854c1.374,0.283,2.455,0.442,3.245,0.473v3.363h-27.897v-3.363
	c0.758-0.063,1.854-0.157,3.292-0.283c1.437-0.126,2.423-0.315,2.96-0.568c0.947-0.379,1.642-0.955,2.084-1.729
	c0.441-0.773,0.663-1.776,0.663-3.007v-48.5c0-1.01-0.206-1.934-0.615-2.771c-0.411-0.836-1.122-1.492-2.132-1.965
	c-0.853-0.41-1.887-0.773-3.103-1.089c-1.216-0.315-2.266-0.505-3.149-0.568v-3.363h27.897v3.363
	c-0.885,0.032-1.966,0.174-3.245,0.426c-1.278,0.253-2.234,0.49-2.865,0.71c-1.074,0.379-1.792,1.011-2.155,1.895
	c-0.363,0.884-0.545,1.847-0.545,2.889v20.84h31.592V51.048c0-1.01-0.206-1.934-0.615-2.771c-0.411-0.836-1.122-1.492-2.132-1.965
	c-0.853-0.41-1.887-0.773-3.103-1.089c-1.216-0.315-2.266-0.505-3.149-0.568v-3.363h27.897v3.363
	c-0.885,0.032-1.966,0.174-3.245,0.426c-1.278,0.253-2.234,0.49-2.865,0.71c-1.074,0.379-1.792,1.011-2.155,1.895
	c-0.363,0.884-0.545,1.847-0.545,2.889v48.453c0,1.105,0.182,2.037,0.545,2.795s1.081,1.42,2.155,1.988
	c0.536,0.285,1.492,0.568,2.865,0.854c1.374,0.283,2.455,0.442,3.245,0.473V108.5z"/>
<path d="M310.599,108.5h-22.545v-3.126c0.726-0.063,1.476-0.126,2.25-0.189c0.773-0.063,1.444-0.188,2.013-0.378
	c0.884-0.283,1.539-0.78,1.966-1.49c0.426-0.709,0.64-1.632,0.64-2.768v-28.81c0-1.009-0.229-1.932-0.688-2.768
	c-0.458-0.835-1.098-1.537-1.918-2.104c-0.601-0.378-1.469-0.702-2.605-0.97c-1.137-0.268-2.178-0.434-3.125-0.497v-3.126
	l16.482-1.042l0.662,0.663v38.08c0,1.105,0.212,2.021,0.636,2.747c0.423,0.727,1.089,1.264,1.999,1.61
	c0.689,0.284,1.363,0.514,2.022,0.687c0.658,0.174,1.396,0.293,2.211,0.355V108.5z M304.678,42.807c0,1.8-0.592,3.371-1.775,4.712
	c-1.185,1.343-2.646,2.013-4.381,2.013c-1.611,0-3.008-0.639-4.192-1.918c-1.184-1.278-1.776-2.739-1.776-4.381
	c0-1.736,0.593-3.252,1.776-4.547c1.185-1.294,2.581-1.942,4.192-1.942c1.799,0,3.275,0.608,4.428,1.824
	C304.102,39.784,304.678,41.197,304.678,42.807z"/>
<path d="M356.398,103.669c1.263,1.2,2.258,2.558,2.984,4.073c0.726,1.516,1.09,3.394,1.09,5.637c0,2.241-0.49,4.349-1.469,6.322
	c-0.979,1.974-2.463,3.687-4.452,5.139c-2.116,1.484-4.642,2.637-7.578,3.458c-2.937,0.82-6.568,1.231-10.894,1.231
	c-7.073,0-12.361-1.034-15.867-3.103c-3.504-2.068-5.257-5.091-5.257-9.069c0-3.221,1.263-5.764,3.789-7.626
	c2.525-1.862,5.746-2.873,9.662-3.031v-0.663c-0.947-0.284-1.927-0.64-2.937-1.065c-1.011-0.427-1.879-0.924-2.605-1.492
	c-0.821-0.663-1.484-1.444-1.988-2.345c-0.506-0.899-0.758-2.013-0.758-3.339c0-1.673,0.592-3.213,1.775-4.618
	c1.185-1.404,2.976-2.612,5.376-3.623v-0.711c-3.031-1.42-5.384-3.244-7.058-5.47c-1.674-2.227-2.51-4.808-2.51-7.744
	c0-4.42,1.649-8.052,4.949-10.894s7.522-4.263,12.67-4.263c1.421,0,2.834,0.142,4.239,0.426c1.404,0.284,2.833,0.647,4.286,1.089
	h16.293v4.547h-10.988v0.284c1.168,1.358,2.037,2.858,2.605,4.5c0.568,1.642,0.852,3.252,0.852,4.831
	c0,4.105-1.665,7.578-4.996,10.42c-3.332,2.841-7.208,4.263-11.628,4.263h-5.731c-0.727,0.253-1.484,0.71-2.273,1.373
	s-1.184,1.563-1.184,2.699c0,1.169,0.332,2.061,0.994,2.677c0.664,0.615,1.469,1.034,2.416,1.255
	c0.915,0.253,1.981,0.411,3.197,0.474c1.215,0.063,2.47,0.111,3.766,0.142c1.389,0.032,3.291,0.127,5.707,0.285
	c2.415,0.158,4.128,0.253,5.139,0.283c1.452,0.064,2.913,0.411,4.381,1.043C353.865,101.696,355.198,102.564,356.398,103.669z
	 M352.705,115.131c0-1.769-0.411-3.221-1.232-4.357s-2.068-1.911-3.741-2.32c-0.885-0.126-2.7-0.269-5.446-0.427
	c-2.748-0.157-5.938-0.237-9.568-0.237c-3.41,0.664-5.833,1.776-7.27,3.34c-1.438,1.563-2.155,3.576-2.155,6.039
	c0,1.104,0.237,2.162,0.71,3.173c0.475,1.01,1.295,1.942,2.463,2.794c1.105,0.821,2.589,1.492,4.453,2.014
	c1.862,0.521,4.136,0.781,6.82,0.781c4.641,0,8.296-0.893,10.964-2.676C351.37,121.47,352.705,118.762,352.705,115.131z
	 M343.611,75.961c0-3.694-0.751-6.638-2.25-8.833c-1.5-2.194-3.608-3.292-6.323-3.292c-1.484,0-2.755,0.308-3.813,0.923
	c-1.059,0.616-1.919,1.492-2.581,2.629c-0.633,1.042-1.082,2.297-1.351,3.766c-0.269,1.468-0.402,2.976-0.402,4.523
	c0,3.505,0.766,6.363,2.297,8.573c1.531,2.21,3.513,3.315,5.944,3.315c2.715,0,4.808-1.097,6.275-3.292
	C342.877,82.08,343.611,79.309,343.611,75.961z"/>
<path d="M416.598,108.5h-22.971v-3.126c0.726-0.063,1.531-0.126,2.416-0.189c0.883-0.063,1.609-0.189,2.178-0.379
	c0.884-0.284,1.54-0.781,1.966-1.492c0.427-0.71,0.64-1.634,0.64-2.771V76.53c0-3.315-0.784-5.873-2.351-7.673s-3.474-2.7-5.721-2.7
	c-1.646,0-3.172,0.261-4.581,0.781c-1.408,0.521-2.667,1.161-3.773,1.918c-1.076,0.79-1.899,1.579-2.469,2.368
	c-0.57,0.79-1.013,1.453-1.33,1.989v26.855c0,1.074,0.214,1.958,0.64,2.652c0.427,0.695,1.081,1.231,1.966,1.61
	c0.694,0.316,1.413,0.553,2.155,0.711c0.741,0.158,1.555,0.269,2.438,0.331v3.126h-22.876v-3.126
	c0.721-0.063,1.474-0.134,2.258-0.213s1.442-0.198,1.976-0.356c0.878-0.284,1.536-0.781,1.976-1.492
	c0.438-0.711,0.659-1.635,0.659-2.773V46.128c0-1.075-0.245-2.148-0.734-3.223c-0.49-1.075-1.13-1.88-1.918-2.417
	c-0.568-0.41-1.571-0.703-3.008-0.876c-1.438-0.174-2.598-0.292-3.481-0.356v-3.031l17.288-1.042l0.662,0.71v32.586h0.189
	c1.044-1.042,1.993-1.965,2.847-2.771c0.854-0.805,1.977-1.649,3.369-2.534c1.201-0.758,2.616-1.389,4.245-1.895
	c1.629-0.505,3.455-0.758,5.479-0.758c4.175,0,7.385,1.319,9.63,3.955c2.246,2.637,3.369,6.434,3.369,11.391v24.297
	c0,1.105,0.198,1.997,0.596,2.676c0.397,0.68,1.058,1.208,1.979,1.587c0.731,0.284,1.391,0.497,1.979,0.64
	c0.588,0.142,1.359,0.245,2.313,0.308V108.5z"/>
<path d="M444.116,108.5h-22.782v-3.126c0.727-0.063,1.5-0.134,2.321-0.213c0.82-0.079,1.499-0.198,2.036-0.356
	c0.884-0.284,1.547-0.781,1.99-1.492c0.441-0.711,0.662-1.635,0.662-2.773V46.412c0-1.138-0.244-2.204-0.733-3.199
	c-0.49-0.996-1.13-1.778-1.919-2.346c-0.568-0.379-1.609-0.727-3.125-1.042c-1.516-0.316-2.732-0.506-3.647-0.569v-3.031
	l17.571-1.042l0.664,0.71v64.083c0,1.105,0.204,2.013,0.615,2.724c0.41,0.71,1.073,1.255,1.989,1.634
	c0.694,0.316,1.381,0.553,2.061,0.711c0.679,0.158,1.444,0.269,2.297,0.331V108.5z"/>
<path d="M472.629,108.5h-22.545v-3.126c0.726-0.063,1.476-0.126,2.25-0.189c0.773-0.063,1.444-0.188,2.013-0.378
	c0.884-0.283,1.539-0.78,1.966-1.49c0.426-0.709,0.639-1.632,0.639-2.768v-28.81c0-1.009-0.229-1.932-0.687-2.768
	c-0.458-0.835-1.098-1.537-1.918-2.104c-0.601-0.378-1.468-0.702-2.604-0.97c-1.137-0.268-2.18-0.434-3.127-0.497v-3.126
	l16.482-1.042l0.664,0.663v38.08c0,1.105,0.211,2.021,0.635,2.747c0.423,0.727,1.089,1.264,1.999,1.61
	c0.689,0.284,1.363,0.514,2.022,0.687c0.658,0.174,1.396,0.293,2.211,0.355V108.5z M466.709,42.807c0,1.8-0.593,3.371-1.776,4.712
	c-1.185,1.343-2.646,2.013-4.382,2.013c-1.609,0-3.007-0.639-4.191-1.918c-1.184-1.278-1.775-2.739-1.775-4.381
	c0-1.736,0.592-3.252,1.775-4.547c1.185-1.294,2.582-1.942,4.191-1.942c1.801,0,3.276,0.608,4.429,1.824
	C466.132,39.784,466.709,41.197,466.709,42.807z"/>
<path d="M518.43,103.669c1.262,1.2,2.257,2.558,2.983,4.073c0.726,1.516,1.089,3.394,1.089,5.637c0,2.241-0.489,4.349-1.468,6.322
	c-0.979,1.974-2.463,3.687-4.452,5.139c-2.116,1.484-4.642,2.637-7.578,3.458c-2.937,0.82-6.568,1.231-10.894,1.231
	c-7.073,0-12.362-1.034-15.866-3.103c-3.506-2.068-5.258-5.091-5.258-9.069c0-3.221,1.263-5.764,3.789-7.626
	c2.525-1.862,5.746-2.873,9.662-3.031v-0.663c-0.947-0.284-1.927-0.64-2.937-1.065c-1.011-0.427-1.879-0.924-2.604-1.492
	c-0.822-0.663-1.485-1.444-1.99-2.345c-0.505-0.899-0.758-2.013-0.758-3.339c0-1.673,0.593-3.213,1.776-4.618
	c1.185-1.404,2.976-2.612,5.376-3.623v-0.711c-3.031-1.42-5.384-3.244-7.057-5.47c-1.675-2.227-2.511-4.808-2.511-7.744
	c0-4.42,1.649-8.052,4.949-10.894s7.522-4.263,12.67-4.263c1.421,0,2.834,0.142,4.239,0.426c1.404,0.284,2.833,0.647,4.286,1.089
	h16.293v4.547h-10.988v0.284c1.168,1.358,2.036,2.858,2.604,4.5c0.568,1.642,0.854,3.252,0.854,4.831
	c0,4.105-1.666,7.578-4.997,10.42c-3.332,2.841-7.208,4.263-11.628,4.263h-5.73c-0.728,0.253-1.485,0.71-2.273,1.373
	c-0.79,0.663-1.185,1.563-1.185,2.699c0,1.169,0.331,2.061,0.995,2.677c0.662,0.615,1.468,1.034,2.415,1.255
	c0.915,0.253,1.981,0.411,3.197,0.474c1.215,0.063,2.47,0.111,3.765,0.142c1.39,0.032,3.292,0.127,5.708,0.285
	c2.415,0.158,4.128,0.253,5.139,0.283c1.452,0.064,2.913,0.411,4.381,1.043C515.896,101.696,517.229,102.564,518.43,103.669z
	 M514.734,115.131c0-1.769-0.41-3.221-1.23-4.357c-0.822-1.137-2.069-1.911-3.742-2.32c-0.885-0.126-2.699-0.269-5.447-0.427
	c-2.746-0.157-5.937-0.237-9.566-0.237c-3.41,0.664-5.834,1.776-7.271,3.34c-1.438,1.563-2.155,3.576-2.155,6.039
	c0,1.104,0.236,2.162,0.711,3.173c0.473,1.01,1.294,1.942,2.463,2.794c1.104,0.821,2.588,1.492,4.451,2.014
	c1.863,0.521,4.137,0.781,6.82,0.781c4.643,0,8.297-0.893,10.965-2.676C513.4,121.47,514.734,118.762,514.734,115.131z
	 M505.641,75.961c0-3.694-0.75-6.638-2.249-8.833c-1.5-2.194-3.608-3.292-6.323-3.292c-1.484,0-2.755,0.308-3.813,0.923
	c-1.059,0.616-1.918,1.492-2.582,2.629c-0.632,1.042-1.081,2.297-1.35,3.766c-0.269,1.468-0.402,2.976-0.402,4.523
	c0,3.505,0.766,6.363,2.297,8.573c1.531,2.21,3.513,3.315,5.944,3.315c2.715,0,4.808-1.097,6.275-3.292
	C504.907,82.08,505.641,79.309,505.641,75.961z"/>
<path d="M578.627,108.5h-22.971v-3.126c0.726-0.063,1.531-0.126,2.416-0.189c0.883-0.063,1.609-0.189,2.178-0.379
	c0.884-0.284,1.54-0.781,1.966-1.492c0.427-0.71,0.64-1.634,0.64-2.771V76.53c0-3.315-0.784-5.873-2.351-7.673s-3.474-2.7-5.721-2.7
	c-1.646,0-3.172,0.261-4.581,0.781c-1.408,0.521-2.667,1.161-3.773,1.918c-1.076,0.79-1.899,1.579-2.469,2.368
	c-0.57,0.79-1.013,1.453-1.33,1.989v26.855c0,1.074,0.214,1.958,0.64,2.652c0.427,0.695,1.081,1.231,1.966,1.61
	c0.694,0.316,1.413,0.553,2.155,0.711c0.741,0.158,1.555,0.269,2.438,0.331v3.126h-22.876v-3.126
	c0.721-0.063,1.474-0.134,2.258-0.213s1.442-0.198,1.976-0.356c0.878-0.284,1.536-0.781,1.976-1.492
	c0.438-0.711,0.659-1.635,0.659-2.773V46.128c0-1.075-0.245-2.148-0.734-3.223c-0.49-1.075-1.13-1.88-1.918-2.417
	c-0.568-0.41-1.571-0.703-3.008-0.876c-1.438-0.174-2.598-0.292-3.481-0.356v-3.031l17.288-1.042l0.662,0.71v32.586h0.189
	c1.044-1.042,1.993-1.965,2.847-2.771c0.854-0.805,1.977-1.649,3.369-2.534c1.201-0.758,2.616-1.389,4.245-1.895
	c1.629-0.505,3.455-0.758,5.479-0.758c4.175,0,7.385,1.319,9.63,3.955c2.246,2.637,3.369,6.434,3.369,11.391v24.297
	c0,1.105,0.198,1.997,0.596,2.676c0.397,0.68,1.058,1.208,1.979,1.587c0.731,0.284,1.391,0.497,1.979,0.64
	c0.588,0.142,1.359,0.245,2.313,0.308V108.5z"/>
<path d="M613.107,106.463c-2.053,0.854-3.994,1.571-5.825,2.155c-1.832,0.584-4.073,0.876-6.726,0.876
	c-3.916,0-6.671-0.986-8.265-2.96c-1.595-1.973-2.392-4.76-2.392-8.359V66.536h-8.432v-4.547h8.621V47.449h8.619v14.541h13.404
	v4.547h-13.309v26.097c0,1.959,0.07,3.593,0.213,4.902c0.142,1.311,0.48,2.456,1.018,3.434c0.505,0.917,1.263,1.611,2.273,2.084
	c1.011,0.475,2.369,0.711,4.074,0.711c0.788,0,1.949-0.071,3.48-0.213c1.531-0.143,2.612-0.323,3.244-0.545V106.463z"/>
</svg>
