<svg id="Layer_1" data-name="Layer 1" xmlns="http://www.w3.org/2000/svg" width="230.93" height="64.85" viewBox="0 0 230.93 64.85"><defs><style>.cls-1{fill:#fff;}.cls-2{fill:#262323;}.cls-3{fill:#fdfdf8;}.cls-4{fill:#272424;}.cls-5{fill:#272425;}.cls-6{fill:#282526;}.cls-7{fill:#282425;}.cls-8{fill:#fffef9;}.cls-9{fill:#5a5b5d;}.cls-10{fill:#fffcf2;}.cls-11{fill:#fbfdf6;}.cls-12{fill:#5a5b5e;}.cls-13{fill:#5b5b5e;}.cls-14{fill:#5c5c5f;}.cls-15{fill:#5c5d5f;}.cls-16{fill:#5b5c5f;}.cls-17{fill:#fcf9ea;}.cls-18{fill:#2d2b2c;}.cls-19{fill:#2a2524;}.cls-20{fill:#f9f6e4;}.cls-21{fill:#e5a31f;}.cls-22{fill:#fafbf5;}.cls-23{fill:#f7f2de;}.cls-24{fill:#39332a;}.cls-25{fill:#363536;}.cls-26{fill:#312f31;}.cls-27{fill:#302e2f;}.cls-28{fill:#383738;}.cls-29{fill:#3b3b3c;}.cls-30{fill:#3c3b3c;}.cls-31{fill:#444446;}.cls-32{fill:#474749;}.cls-33{fill:#6a6c6e;}.cls-34{fill:#434243;}.cls-35{fill:#818285;}.cls-36{fill:#646568;}.cls-37{fill:#696a6d;}.cls-38{fill:#262324;}.cls-39{fill:#55504a;}.cls-40{fill:#4c4c4e;}.cls-41{fill:#474138;}.cls-42{fill:#7c7e81;}.cls-43{fill:#808285;}.cls-44{fill:#bfd630;}.cls-45{fill:#e1eba7;}.cls-46{fill:#e6edb8;}.cls-47{fill:#dee99d;}.cls-48{fill:#bfd631;}.cls-49{fill:#dbe793;}.cls-50{fill:#c7da4b;}.cls-51{fill:#fbfcf4;}.cls-52{fill:#4d3916;}.cls-53{fill:#c9dc53;}.cls-54{fill:#d8e58b;}.cls-55{fill:#f6f9e9;}.cls-56{fill:#d0e06d;}.cls-57{fill:#f9fbf0;}.cls-58{fill:#d7e486;}.cls-59{fill:#cbdd5b;}.cls-60{fill:#e6edbd;}.cls-61{fill:#c1d735;}.cls-62{fill:#edf2cc;}.cls-63{fill:#c5da45;}.cls-64{fill:#c2d83a;}.cls-65{fill:#c4d843;}.cls-66{fill:#f3f7df;}.cls-67{fill:#ccdd61;}.cls-68{fill:#e8efbe;}.cls-69{fill:#cadc58;}.cls-70{fill:#c7da4c;}.cls-71{fill:#c0d735;}.cls-72{fill:#eef3d1;}.cls-73{fill:#cbdd5f;}.cls-74{fill:#c2d83b;}.cls-75{fill:#cfde6c;}.cls-76{fill:#f0f5d7;}.cls-77{fill:#d8e48f;}.cls-78{fill:#ecf2c8;}.cls-79{fill:#dfe9a2;}.cls-80{fill:#dce797;}.cls-81{fill:#d0df73;}.cls-82{fill:#d1df79;}.cls-83{fill:#d7e488;}.cls-84{fill:#f9faf0;}.cls-85{fill:#eef3d0;}.cls-86{fill:#e3ebaf;}.cls-87{fill:#d3e27c;}.cls-88{fill:#cede68;}.cls-89{fill:#dae690;}.cls-90{fill:#d5e382;}.cls-91{fill:#f0f5d8;}.cls-92{fill:#e2ebab;}.cls-93{fill:#b85d26;}.cls-94{fill:#bc6625;}.cls-95{fill:#e7af34;}.cls-96{fill:#f3f7e3;}.cls-97{fill:#d2e174;}.cls-98{fill:#d5e380;}.cls-99{fill:#d9942f;}.cls-100{fill:#c07836;}.cls-101{fill:#ca8837;}.cls-102{fill:#c3d83f;}.cls-103{fill:#b7682e;}.cls-104{fill:#e7eeb9;}.cls-105{fill:#fafcf3;}.cls-106{fill:#f9fbef;}.cls-107{fill:#f7faee;}.cls-108{fill:#f4f7e5;}.cls-109{fill:#ecf2cb;}.cls-110{fill:#f2f6dd;}.cls-111{fill:#eef3d3;}.cls-112{fill:#eaefd0;}.cls-113{fill:#f2f6de;}.cls-114{fill:#f4f7e6;}.cls-115{fill:#f6f9ec;}.cls-116{fill:#f1f5d8;}.cls-117{fill:#f8f8f9;}.cls-118{fill:#f9f9fa;}.cls-119{fill:#fefefe;}.cls-120{fill:#fbfcfc;}.cls-121{fill:#fdfdfd;}.cls-122{fill:#fbfbfb;}.cls-123{fill:#f7f8f8;}.cls-124{fill:#da9222;}.cls-125{fill:#cf8224;}.cls-126{fill:#cb7b25;}.cls-127{fill:#c36e25;}.cls-128{fill:#d38723;}.cls-129{fill:#c67325;}.cls-130{fill:#d68c23;}.cls-131{fill:#f6f2db;}.cls-132{fill:#df9a22;}.cls-133{fill:#eaab1d;}.cls-134{fill:#f2ecd2;}.cls-135{fill:#fafbf2;}.cls-136{fill:#eeb21c;}.cls-137{fill:#55401d;}.cls-138{fill:#523d1a;}.cls-139{fill:#5d4724;}.cls-140{fill:#5b4621;}.cls-141{fill:#c2b383;}.cls-142{fill:#d0cf91;}.cls-143{fill:#c7b989;}.cls-144{fill:#dbd0a5;}.cls-145{fill:#b09d70;}.cls-146{fill:#6e5734;}.cls-147{fill:#68532e;}.cls-148{fill:#c4d941;}.cls-149{fill:#745d39;}.cls-150{fill:#79623d;}.cls-151{fill:#cdde65;}.cls-152{fill:#8b754f;}.cls-153{fill:#927c55;}.cls-154{fill:#a9966a;}.cls-155{fill:#a28e64;}.cls-156{fill:#836d47;}.cls-157{fill:#7d6641;}.cls-158{fill:#97815a;}.cls-159{fill:#dfd5ac;}.cls-160{fill:#e2d8b2;}.cls-161{fill:#614b28;}.cls-162{fill:#9c865e;}.cls-163{fill:#ede6c7;}.cls-164{fill:#bdad7c;}.cls-165{fill:#e5ddb8;}.cls-166{fill:#d0c495;}.cls-167{fill:#ccbe8f;}.cls-168{fill:#d2e078;}.cls-169{fill:#b9a879;}.cls-170{fill:#d4e17f;}.cls-171{fill:#e9e2c0;}.cls-172{fill:#d7cb9e;}.cls-173{fill:#323032;}.cls-174{fill:#dcddde;}.cls-175{fill:#b4a274;}.cls-176{fill:#d3d4d6;}</style></defs><title>cPass_logo_registered</title><path class="cls-1" d="M350.68,18.24q57.18,0,114.36,0c.9,0,1.1.2,1.1,1.1q0,31.38,0,62.76c0,.82-.16,1-1,1q-114.48,0-229,0c-.82,0-1-.16-1-1q0-31.44,0-62.88c0-.82.16-1,1-1Q293.44,18.25,350.68,18.24Z" transform="translate(-235.22 -18.22)"/><path class="cls-2" d="M246.72,60.7a3.43,3.43,0,0,1-3.24,1c1.19-1.27,2.25-2.42,3.33-3.55,5-5.25,10-10.5,15.81-14.95a2.19,2.19,0,0,1,.85-.91c.41-.35.76-.76,1.16-1.12a2.15,2.15,0,0,1,.54-.34,5.67,5.67,0,0,0,1.19-.69,9.68,9.68,0,0,0,1.37-1c.53-.46,1.23-.66,1.74-1.15.78-.55,1.7-.86,2.48-1.44a42.74,42.74,0,0,1,3.95-1.81c.38-.1.74-.38,1.18-.21A51.25,51.25,0,0,1,292,30.84c8-.91,15.86-.35,23.4,2.79,3.2,1.34,6.3,2.87,9.36,4.5,5.49,2.9,10.86,6,16.68,8.57-1.06.79-2,1.25-3.24.59a12.69,12.69,0,0,0-1.21-.48,6.23,6.23,0,0,1-2.14-.76,6.28,6.28,0,0,1-1-.49,5.89,5.89,0,0,0-1-.51,4.38,4.38,0,0,1-1-.48,4.72,4.72,0,0,0-.75-.51c-.45-.25-.92-.46-1.38-.68a6.72,6.72,0,0,0-1.1-.49,1.83,1.83,0,0,1-.38-.23c-.23-.18-.48-.32-.71-.49a4.76,4.76,0,0,0-.49-.28l-.53-.25c-.4-.21-.8-.41-1.18-.65s-.74-.3-1.09-.49a7.31,7.31,0,0,1-.76-.46l-.5-.32-.37-.25a6.34,6.34,0,0,0-.82-.42,6.92,6.92,0,0,1-1-.44,3.32,3.32,0,0,0-.54-.25,7.62,7.62,0,0,1-1.19-.65l-.27-.14a6.2,6.2,0,0,0-1.22-.58c-.4-.12-.72-.39-1.11-.52l-.74-.26a8.19,8.19,0,0,0-.85-.39c-.65-.13-1.14-.61-1.77-.78a13.06,13.06,0,0,0-1.23-.48,5.25,5.25,0,0,0-1-.22,14.92,14.92,0,0,0-1.94-.69c-.58-.16-1.16-.29-1.74-.44-1.12-.32-2.29-.45-3.39-.84-1-.74-2.21-.19-3.31-.3a45.41,45.41,0,0,0-23.89,4.07c-1.86.83-3.63,1.84-5.4,2.84-1,.64-2.08,1.2-3,1.94a18.46,18.46,0,0,0-1.71,1.23c-.51.46-1.12.8-1.67,1.21a14.42,14.42,0,0,1-1.22,1c-.37.29-.67.66-1.06.94a10.76,10.76,0,0,0-1.55,1.39c-.25.21-.53.36-.78.57s-.62.6-.92.9-.63.61-.93.92l-.57.56c-.33.34-.75.57-1.1.88s-.52.49-.77.74-.51.5-.75.76l-.66.66-.56.56-.67.68a4.5,4.5,0,0,0-.61.7,5,5,0,0,1-.58.71l-.74.74-.53.54-.88.89c-.33.32-.66.65-1,1a4.72,4.72,0,0,0-1,1.16A3.19,3.19,0,0,1,246.72,60.7Z" transform="translate(-235.22 -18.22)"/><path class="cls-3" d="M334.85,45.81a7.68,7.68,0,0,1,2.13,1c-3.19.86-6.48,1.1-9.71,1.7-2.54.47-5.08.84-7.63,1.24q-5.81.9-11.62,1.85c-3.26.53-6.52,1.12-9.79,1.59-2.89.42-5.8.71-8.7,1.05a.68.68,0,0,1,.05-1.1A66.11,66.11,0,0,1,296.13,52c1.53-.24,3.06-.48,4.58-.8a2.47,2.47,0,0,1,.61,0c1.54.18,3-.44,4.46-.69,2.24-.39,4.51-.57,6.73-1,3.5-.75,7.06-1.14,10.59-1.74,2.08-.36,4.18-.6,6.24-1C331.17,46.27,333,46.13,334.85,45.81Z" transform="translate(-235.22 -18.22)"/><path class="cls-4" d="M365.56,56c.28-.52.73-.46,1.07-.58a3.73,3.73,0,0,0-1.8-7.23c-.57.08-.72.36-.72.88,0,3.84,0,7.68,0,11.51a1.41,1.41,0,0,0,1.5,1.62c.25,0,.76-.06.65.44-.07.33-.46.18-.72.18H361c-.24,0-.62.2-.7-.2s.35-.41.57-.42c1.07-.06,1.32-.75,1.32-1.63,0-3.6,0-7.2,0-10.79a1.31,1.31,0,0,0-1.45-1.5c-.21,0-.53,0-.52-.32s.32-.3.54-.32a23.54,23.54,0,0,1,7.16.17,4,4,0,0,1,3.39,3.94,4,4,0,0,1-3.17,4A4.77,4.77,0,0,1,365.56,56Z" transform="translate(-235.22 -18.22)"/><path class="cls-5" d="M395.12,46.31v8.38a9.08,9.08,0,0,1,2.22-1c2.36-.6,4,.6,4,3,0,1.32,0,2.64,0,4-.05,1,.18,1.65,1.31,1.68.09,0,.18.12.27.2s0,.06.05.34h-4.47a.24.24,0,0,1-.27-.3.32.32,0,0,1,.32-.29c1.09-.07,1.08-.85,1.08-1.64,0-1.24,0-2.48,0-3.72a2.28,2.28,0,0,0-3.58-2,1.5,1.5,0,0,0-.94,1.51c0,1.43,0,2.87,0,4.31,0,.77,0,1.48,1,1.53.2,0,.41.08.37.36s-.27.24-.46.24c-1.24,0-2.48,0-3.71,0-.21,0-.45,0-.49-.23s.27-.36.49-.38c.93-.06,1-.67,1-1.42,0-3.8,0-7.59,0-11.39a1.5,1.5,0,0,0-.62-1.46c-.56-.35-.51-.64.12-.85Z" transform="translate(-235.22 -18.22)"/><path class="cls-4" d="M301.23,51.36l-.44-.07a.63.63,0,0,1-.29-.33,7.69,7.69,0,0,0-.45-.91,2.79,2.79,0,0,0-.69-.76,8.33,8.33,0,0,0-1.25-.67,6.55,6.55,0,0,0-6.19,1.1,10.45,10.45,0,0,0-.83.8,3.83,3.83,0,0,0-.9,1.61c-.08.25-.15.5-.22.75a.77.77,0,0,1-.27.39,1.44,1.44,0,0,0-.17,1c-.32,4.8,2.48,8.15,6.8,8.16A5,5,0,0,0,301,59.77c.16-.29.22-.82.69-.62s.11.58,0,.88c-.41,2-.9,2.48-2.92,2.84a13.39,13.39,0,0,1-5.35,0c-4.05-.93-6.13-3.6-6.35-8.11-.4-.45-.2-.9,0-1.36a6.78,6.78,0,0,0,.3-.79,8.89,8.89,0,0,1,.49-1.2c.18-.27.37-.53.54-.8s.66-.72,1-1.09a5.61,5.61,0,0,1,1.81-1.35A14.05,14.05,0,0,1,295.8,47a19.72,19.72,0,0,1,3.17.22,12.74,12.74,0,0,1,1.75.27,1.17,1.17,0,0,1,.54.22.93.93,0,0,1,.24.52,4.4,4.4,0,0,1,.05.73,4.57,4.57,0,0,0,.1,1.38,2.21,2.21,0,0,1,0,.35A.72.72,0,0,1,301.23,51.36Z" transform="translate(-235.22 -18.22)"/><path class="cls-5" d="M409,54.08c-1.93.35-1.2,1.35-.81,2.27.53,1.28,1.07,2.57,1.72,4.15.7-1.71,1.35-3.17,1.89-4.67.25-.68-.22-1.11-.85-1.35-.27-.11-.76-.06-.64-.51s.55-.15.83-.16c1.18,0,2.35,0,3.53,0a3,3,0,0,1,0,.34c-1.64.32-1.23,1.28-.76,2.3.57,1.26,1.11,2.55,1.76,4.06.72-1.84,1.36-3.46,2-5.09.17-.47.24-1-.5-1-.19,0-.44-.07-.41-.33s.33-.24.55-.24l2.52,0c.19,0,.42,0,.47.23s-.09.29-.25.32c-1.1.21-1.37,1.15-1.72,2-.87,2-1.69,4-2.53,6.06-.13.32-.12.82-.56.81s-.41-.54-.54-.85c-.75-1.79-1.49-3.59-2.34-5.62-.87,2.07-1.62,3.89-2.41,5.7-.13.29-.11.81-.6.77s-.37-.47-.48-.75c-.81-2-1.59-3.91-2.41-5.85-.38-.9-.57-2-1.77-2.22a.28.28,0,0,1-.21-.37.34.34,0,0,1,.25-.2h4.07Z" transform="translate(-235.22 -18.22)"/><path class="cls-6" d="M437,60.78a52.53,52.53,0,0,0,2.29-5.19c.25-.63.27-1.08-.58-1.16-.24,0-.64,0-.56-.45s.38-.2.6-.21h3c.2,0,.42,0,.43.27a.33.33,0,0,1-.27.34c-1.29.23-1.61,1.36-2.07,2.29-1.72,3.54-3.4,7.11-5.07,10.67-.29.61-.62,1.14-1.31,1.27a1,1,0,0,1-1.28-.77c-.12-.66.23-1.15.91-1.1.91.07,1.25-.49,1.64-1.12a4.85,4.85,0,0,0,.52-5.16,36.22,36.22,0,0,1-1.65-4.36c-.28-.81-.55-1.6-1.59-1.7-.19,0-.39-.13-.35-.38s.26-.26.46-.26h3.59c.2,0,.42,0,.43.29s-.22.34-.41.35c-.87.07-.78.53-.55,1.16C435.72,57.21,436.28,58.87,437,60.78Z" transform="translate(-235.22 -18.22)"/><path class="cls-7" d="M428.55,58.19c0,.84-.05,1.68,0,2.51s.31,1.64,1.47,1.31c.23-.06.39,0,.47.18s-.15.25-.25.34a2,2,0,0,1-2.81,0,1,1,0,0,0-1.45-.11,3.08,3.08,0,0,1-2.49.56,2,2,0,0,1-1.64-1.83,1.68,1.68,0,0,1,1.21-1.84c1-.42,2.09-.78,3.15-1.13,1.34-.44.69-1.53.73-2.33a1.37,1.37,0,0,0-1.45-1.45c-.86,0-1.61.13-1.76,1.18a.8.8,0,0,1-.5.75c-.4.14-.89.51-1.22.12s.06-.82.36-1.14a5.72,5.72,0,0,1,3.67-1.82,2.19,2.19,0,0,1,2.62,2.37c0,.76,0,1.52,0,2.28Z" transform="translate(-235.22 -18.22)"/><path class="cls-7" d="M311,57.29c0,1.07-.05,2.15,0,3.23.05.92.2,1.84,1.53,1.47a.32.32,0,0,1,.4.14c.13.2-.08.27-.18.36a2,2,0,0,1-2.82.13,1,1,0,0,0-1.54-.13,2.87,2.87,0,0,1-2.61.49,2,2,0,0,1-1.47-1.83,1.64,1.64,0,0,1,1.16-1.76,26.05,26.05,0,0,1,3-1.08c1.45-.39.88-1.5.91-2.35a1.38,1.38,0,0,0-1.39-1.5c-.91-.07-1.7.11-1.84,1.23a.69.69,0,0,1-.33.6c-.43.2-.95.59-1.33.24s0-.87.35-1.21a5.75,5.75,0,0,1,3.57-1.78,2.21,2.21,0,0,1,2.68,2.31c0,.48,0,1,0,1.44Z" transform="translate(-235.22 -18.22)"/><path class="cls-7" d="M379.83,57.26c0,1.11-.05,2.23,0,3.35,0,.87.24,1.75,1.5,1.39.17,0,.31,0,.41.11s-.11.32-.24.44a2,2,0,0,1-2.81,0c-.56-.56-1-.38-1.45-.08a2.93,2.93,0,0,1-2.72.47,2,2,0,0,1-1.39-1.77,1.61,1.61,0,0,1,1.13-1.77c1-.42,2.08-.82,3.15-1.14,1.43-.43.78-1.57.8-2.4a1.35,1.35,0,0,0-1.46-1.42c-.87,0-1.61.16-1.74,1.21a.74.74,0,0,1-.42.67c-.43.17-.95.58-1.31.15s.08-.82.38-1.14a5.8,5.8,0,0,1,3.69-1.8A2.18,2.18,0,0,1,380,55.82c0,.48,0,1,0,1.44Z" transform="translate(-235.22 -18.22)"/><path class="cls-5" d="M331.52,60.44a4.13,4.13,0,0,1-6.12,2c-1.87-1.17-2.52-4-1.42-6.32a4.49,4.49,0,0,1,5.51-2.4,2.78,2.78,0,0,1,1.86,1.72c.37,1,.11,1.4-1,1.41-1.47,0-2.95,0-4.43,0-.86,0-1,.33-.95,1a4,4,0,0,0,3.66,3.91C329.74,61.91,330.49,61.27,331.52,60.44Z" transform="translate(-235.22 -18.22)"/><path class="cls-5" d="M342.12,60.63a3.22,3.22,0,0,1-1.78,2,4.21,4.21,0,0,1-4.82-.53c-1.65-1.41-1.8-3.31-1.24-5.26a4.5,4.5,0,0,1,5.85-3.08,2.88,2.88,0,0,1,1.5,1.14,1.76,1.76,0,0,1,.35,1.58c-.25.65-.9.37-1.38.38-1.39,0-2.79,0-4.19,0-.37,0-.77-.11-.86.52A4,4,0,0,0,340,61.77C340.77,61.62,341.21,60.93,342.12,60.63Z" transform="translate(-235.22 -18.22)"/><path class="cls-8" d="M280.12,58.56c-.28,1.28-1.38,1.4-2.33,1.41-5.38.06-10.76,0-16.14.06-1.14,0-.53-.93-1-1.23.42-.92,1.26-.47,1.92-.59,1.55,0,3.08-.33,4.65-.23,4,.24,8,.07,11.94.2C279.55,58.19,279.92,58.16,280.12,58.56Z" transform="translate(-235.22 -18.22)"/><path class="cls-9" d="M333.1,69.12c2.67,0,4.4,1.66,4.38,4.17a4.36,4.36,0,0,1-4.6,4.47,4.13,4.13,0,0,1-4.32-4.29A4.21,4.21,0,0,1,333.1,69.12Z" transform="translate(-235.22 -18.22)"/><path class="cls-9" d="M261.11,69.12c2.67,0,4.4,1.67,4.37,4.19a4.37,4.37,0,0,1-4.62,4.45,4.14,4.14,0,0,1-4.3-4.31A4.22,4.22,0,0,1,261.11,69.12Z" transform="translate(-235.22 -18.22)"/><path class="cls-6" d="M447.45,53.52c1.7,0,2.26.38,2.34,1.66,0,.24.21.6-.2.7s-.38-.24-.49-.43a2.09,2.09,0,0,0-2-1.25,1.35,1.35,0,0,0-1.28.92,1.17,1.17,0,0,0,.37,1.4c.63.48,1.33.88,2,1.31,1.4.9,2,2,1.67,3.27s-1.47,1.93-3.08,2c-2.16.11-3-.57-3-2.37,0-.25-.15-.62.25-.69s.36.27.44.48a2.93,2.93,0,0,0,1.21,1.59,1.78,1.78,0,0,0,2.39-.25,1.56,1.56,0,0,0-.49-2.3,19,19,0,0,0-1.61-1c-1.48-1-2-1.91-1.65-3.13S445.85,53.53,447.45,53.52Z" transform="translate(-235.22 -18.22)"/><path class="cls-5" d="M389.87,61.74A3,3,0,0,1,386.45,63c-1.26-.34-1.5-1.3-1.49-2.41V56.27c0-1.41,0-1.41-1.55-1.83a5.05,5.05,0,0,0,2.81-2.15c.23-.37.5,0,.45.31-.25,1.3.59,1.19,1.41,1.16.4,0,.8,0,1.2,0s.61.12.59.54-.27.43-.58.42c-.6,0-1.2,0-1.8,0s-.84.19-.82.82c0,1.28,0,2.56,0,3.84C386.68,61.93,387.31,62.43,389.87,61.74Z" transform="translate(-235.22 -18.22)"/><path class="cls-6" d="M318.08,54.88a7.67,7.67,0,0,1,2.15-1.29,1.08,1.08,0,0,1,1.29.37.89.89,0,0,1-.1,1.2,1,1,0,0,1-1.3.14c-1.37-.6-2-.19-2.07,1.32s0,2.72,0,4.07c0,1,.25,1.63,1.36,1.6a.46.46,0,0,1,.49.28c-.07.3-.3.3-.55.3l-3.83,0c-.22,0-.52.12-.57-.23s.17-.35.37-.36c1-.09,1-.83,1-1.57,0-1.28,0-2.56,0-3.84,0-.89.09-1.79-1.22-2.26L318,53.17Z" transform="translate(-235.22 -18.22)"/><path class="cls-6" d="M349.4,62.6c-.25.5-.7.22-1.06.23-.84,0-1.68,0-2.51,0-.45,0-1.17.28-1.3-.14-.21-.63.61-.35.9-.59a1.29,1.29,0,0,0,.4-1.08q0-2.46,0-4.92c0-.26,0-.66-.19-.78-1.28-.92-.25-1.14.42-1.44a3.94,3.94,0,0,1,1.46-.59l.07,1.52a15.15,15.15,0,0,1,2.08-1.19,1.14,1.14,0,0,1,1.39.36.88.88,0,0,1-.06,1.11,1,1,0,0,1-1.39.2c-1.3-.59-2-.18-2,1.24s0,2.8,0,4.2c0,.94.19,1.57,1.28,1.55C349.06,62.28,349.32,62.28,349.4,62.6Z" transform="translate(-235.22 -18.22)"/><path class="cls-9" d="M346,77.25a28.66,28.66,0,0,0,0-7.63c.55-.33,1.19,0,1.75-.21a11.2,11.2,0,0,1,1.42,0,2,2,0,0,1,1.83,1.31,1.93,1.93,0,0,1-.58,2.18c-.85.7-.55,1.18,0,1.8.91,1,1.57,2.2,3,2.7-1.7.43-2.72-.32-3.61-1.55-.51-.7-.82-2.14-2-1.61-.83.37-.21,1.62-.29,2.47a1.92,1.92,0,0,0,0,.24C347.21,77.76,346.6,77.35,346,77.25Z" transform="translate(-235.22 -18.22)"/><path class="cls-9" d="M317.08,69.4c.12,0,.24,0,.35,0,.93,0,1.9.07,2.35,1.08s-.29,1.63-.88,2.25c0,.09,0,.18.09.21,1.37.83,1.88,1.69,1.62,2.74s-1.3,1.84-2.86,1.88c-.88,0-1.76,0-2.53,0a25.22,25.22,0,0,0,.11-7.9C315.88,69.28,316.52,69.65,317.08,69.4Z" transform="translate(-235.22 -18.22)"/><path class="cls-10" d="M280.12,58.56c-2.19.18-4.37-.35-6.58,0s-4.12-.25-6.19-.24c-1.59,0-3.16.25-4.75.27-.05-.63.34-.81.87-.85,2.15.15,4.24-.41,6.37-.6s4-.56,6.05-.72a18.11,18.11,0,0,1,5.19.25A2.81,2.81,0,0,1,280.12,58.56Z" transform="translate(-235.22 -18.22)"/><path class="cls-11" d="M263.32,57.84a1.57,1.57,0,0,0-.72.72c-.64.11-1.33-.24-1.92.24-4.66.57-9.26,1.6-14,1.9a4.41,4.41,0,0,1,1.14-1.22c1.91-.73,4-.69,5.95-1.16,2.74-.65,5.59-.69,8.33-1.35a2.94,2.94,0,0,1,1.18-.09c.29.06.58.16.56.51A.44.44,0,0,1,263.32,57.84Z" transform="translate(-235.22 -18.22)"/><path class="cls-9" d="M367.06,77.52a2.59,2.59,0,0,0-.55,0c-1,.18-1.57-.18-1.88-1.27-.44-1.58-1.24-1.94-2.79-1.57-.61.14-1.17,1.75-1,2.8h-2.15c1-.06,1.19-.92,1.48-1.62.94-2.24,1.84-4.5,2.81-6.89C364.69,71.81,365.15,75.06,367.06,77.52Z" transform="translate(-235.22 -18.22)"/><path class="cls-9" d="M300.9,77.48h-2.17c.88-.08,1.11-.76,1.39-1.43.94-2.31,1.89-4.61,2.91-7.09,1.6,2.88,2.17,6,4,8.56a2,2,0,0,0-.55,0c-1.1.24-1.55-.29-1.85-1.3a2,2,0,0,0-2.83-1.54C301.22,74.85,300.7,76.41,300.9,77.48Z" transform="translate(-235.22 -18.22)"/><path class="cls-12" d="M248.62,71c-1.48-1.54-3.74-1.8-5-.55-1.42,1.41-1.24,4.42.34,5.85a3.05,3.05,0,0,0,4.67-.35c.11,1.28-.43,1.87-1.73,1.85a10.89,10.89,0,0,1-2.61-.24,4.06,4.06,0,0,1-3.15-4.12,4,4,0,0,1,3.15-4.1,8.2,8.2,0,0,1,3.91.07C249.22,69.6,248.44,70.43,248.62,71Z" transform="translate(-235.22 -18.22)"/><path class="cls-13" d="M419.39,72.77l-.09,1.32c-.46-.51-2.13-.89-2.49-.58a6.92,6.92,0,0,0,.08,3.13c.5.54,2.09.34,2.88-.36.2.92-.12,1.31-1.11,1.26-1.31-.07-2.63,0-4,0,.89-.86.85-7.39-.22-8.21,1.64,0,3.1-.1,4.53,0,.93.09,0,.86.32,1.27-.59-1-1.54-.69-2.37-.69-.31,0-.24.34-.27.56C416.41,72.86,416.86,73.25,419.39,72.77Z" transform="translate(-235.22 -18.22)"/><path class="cls-9" d="M405.55,69.37l1.26.07L403,78c-.78-1.83-1.43-3.37-2.08-4.91-.31-.73-.6-1.47-.91-2.21s-.42-1.26-1.15-1.51h2.26a58.17,58.17,0,0,0,2.27,6.39C404,73.46,405.26,71.63,405.55,69.37Z" transform="translate(-235.22 -18.22)"/><path class="cls-14" d="M376.1,77c0-2.07,0-4.15.08-6.23,0-.73-.27-.87-.92-.85a4.8,4.8,0,0,0-2.09.45c-.07-.91.14-1.14,1.12-1.08a32.82,32.82,0,0,0,6.34-.09v1.46c-.73-.86-1.67-.7-2.57-.72-.57,0-.5.38-.5.74.05,2.19-.1,4.39.1,6.58C377.12,77.31,376.5,77.79,376.1,77Z" transform="translate(-235.22 -18.22)"/><path class="cls-15" d="M273.52,69.39h2.7a2.85,2.85,0,0,0-.41,2.13c0,1.28,0,2.55,0,3.83,0,.55-.21,1.31.62,1.47s1.76.39,2.4-.5c.09-.11.15-.24.26-.41.15,1.22-.25,1.75-1.51,1.63-1.1-.1-2.22,0-3.34,0a69.71,69.71,0,0,0,.16-7.2C274.41,69.73,274.05,69.49,273.52,69.39Z" transform="translate(-235.22 -18.22)"/><path class="cls-16" d="M292.16,77.09c-.09.53-.5.43-.84.43h-4.66a1.11,1.11,0,0,0,.93-1.24c0-1.92,0-3.84,0-5.76,0-.58-.11-1.06-.84-1.1h2.67a1.74,1.74,0,0,0-.43,1.44c0,1.44,0,2.88,0,4.32,0,1.63.4,2,2,1.73a1.38,1.38,0,0,0,.88-.34C292.36,76.56,292.22,76.85,292.16,77.09Z" transform="translate(-235.22 -18.22)"/><path class="cls-17" d="M281.08,56.64a16.2,16.2,0,0,1-3.12.07c-1.38-.33-2.77.12-4.14.25a33.78,33.78,0,0,1-4,.4c-1.48.15-3,.35-4.44.44-.4,0-1,.17-1.12-.38s.45-.82,1-.93c2.5-.4,5.06.16,7.52-.36s4.85.07,7.23-.5a1.45,1.45,0,0,1,1.36.29Z" transform="translate(-235.22 -18.22)"/><path class="cls-15" d="M390.56,69.9V77c-.43.8-1.09.35-1.68.3a23.91,23.91,0,0,0-.09-8,2,2,0,0,0,.53.13c.39.17.84,0,1.23.16A.26.26,0,0,1,390.56,69.9Z" transform="translate(-235.22 -18.22)"/><path class="cls-18" d="M455.36,52.61a3.19,3.19,0,0,1-3.16-3.12,3.13,3.13,0,0,1,6.24-.07A3.18,3.18,0,0,1,455.36,52.61Z" transform="translate(-235.22 -18.22)"/><path class="cls-19" d="M263.56,42.5l-.94.7a10.07,10.07,0,0,1-.25-5.39,7.75,7.75,0,0,1,3.76-5c.2-.1.31,0,.38.18a1.18,1.18,0,0,1-.41.7c-.22.22-.46.44-.68.67l-.32.33a3.72,3.72,0,0,0-.43.61c-.14.26-.3.52-.45.77a4.81,4.81,0,0,0-.29.71,4.06,4.06,0,0,0-.38,1.24,1.86,1.86,0,0,1-.07.34A20.16,20.16,0,0,0,263.56,42.5Z" transform="translate(-235.22 -18.22)"/><path class="cls-20" d="M281.32,55.92c-2.28.16-4.64,0-6.84.35-3,.53-6,0-9,.57-.08,0-.19-.13-.28-.2a.94.94,0,0,1,0-.16,2.13,2.13,0,0,1,.68-.75.68.68,0,0,1,.69-.07c1.25.42,2.5-.31,3.75,0,2.74.07,5.47-.36,8.21-.37a14.45,14.45,0,0,1,2.71.15Z" transform="translate(-235.22 -18.22)"/><path class="cls-21" d="M268.38,32.14l.13-.18a1.7,1.7,0,0,1,.5.15,23,23,0,0,1,3.47,2.4,1.15,1.15,0,0,1,.62,1.28,1.64,1.64,0,0,1-1.14.75,27,27,0,0,0-3.59-2.89c-.37-.29-.84-.47-.85-1S268.13,32.36,268.38,32.14Z" transform="translate(-235.22 -18.22)"/><path class="cls-22" d="M287.33,53.28l-.24,1.44c-1.47.21-2.93.39-4.39.65-.43.07-.75-.18-1.14-.17a.58.58,0,0,1-.19-.31,1.15,1.15,0,0,1,0-.37.75.75,0,0,1,.53-.52c1.75-.25,3.48-.68,5.26-.81Z" transform="translate(-235.22 -18.22)"/><path class="cls-23" d="M281.56,55v.24l-.24.24c-.81.54-1.7.09-2.55.15-2.68.22-5.37.36-8,.51-.14,0-.29-.12-.44-.18.29-.88,1.16-.7,1.71-.72,2.7-.1,5.38-.55,8.09-.57A2,2,0,0,1,281.56,55Z" transform="translate(-235.22 -18.22)"/><path class="cls-24" d="M268.85,32.2l-.34-.24c2.91-.64,5.6-.41,7.77,1.93.24.45-.07.54-.41.61a1.26,1.26,0,0,1-.69-.27,7.43,7.43,0,0,0-4.43-1.85C270.12,32.26,269.45,32.6,268.85,32.2Z" transform="translate(-235.22 -18.22)"/><path class="cls-25" d="M267.29,28.79c0,.24.07.65-.36.7s-.36-.42-.39-.68a6.75,6.75,0,0,0-1.45-3.34c-.14-.19-.5-.4-.18-.67s.51-.08.72.18A7.06,7.06,0,0,1,267.29,28.79Z" transform="translate(-235.22 -18.22)"/><path class="cls-26" d="M270.67,28.86a8,8,0,0,0-.13-4.93.28.28,0,0,1,.18-.38.42.42,0,0,1,.52.16c.62.81.67,4.07,0,4.86C271.18,28.67,271,28.7,270.67,28.86Z" transform="translate(-235.22 -18.22)"/><path class="cls-27" d="M263.39,31.46c-.05.07-.09.19-.18.23a.49.49,0,0,1-.62-.2,36.25,36.25,0,0,0-3.12-3.32c-.13-.14-.32-.29-.12-.48s.35-.13.43-.06a18.48,18.48,0,0,1,3.56,3.67A.6.6,0,0,1,263.39,31.46Z" transform="translate(-235.22 -18.22)"/><path class="cls-28" d="M274,29.1a6.84,6.84,0,0,0,1.48-4.18c0-.32,0-.71.45-.66s.3.42.28.66a7.31,7.31,0,0,1-.94,3.42C275.07,28.72,274.88,29.23,274,29.1Z" transform="translate(-235.22 -18.22)"/><path class="cls-29" d="M256,32.66c2,.59,4,1.56,6.23,1.9C261,35.11,257.18,34,256,32.66Z" transform="translate(-235.22 -18.22)"/><path class="cls-25" d="M282.75,30.13a9.73,9.73,0,0,1-4.07,2.81c-.14.05-.32.08-.42-.09s-.06-.37.09-.41C280,32,281.1,30.6,282.75,30.13Z" transform="translate(-235.22 -18.22)"/><path class="cls-30" d="M277.47,30a8.29,8.29,0,0,0,1.84-3c.11-.32.25-.7.63-.55s.06.55,0,.8a5.64,5.64,0,0,1-2.19,3A.3.3,0,0,1,277.47,30Z" transform="translate(-235.22 -18.22)"/><path class="cls-31" d="M255.34,44.37l5.24-1.93a10.62,10.62,0,0,1-4.71,2.16C255.72,44.46,255.45,44.6,255.34,44.37Z" transform="translate(-235.22 -18.22)"/><path class="cls-32" d="M259.23,38.84a17.23,17.23,0,0,1-5-.1v-.31l3.7.17C258.4,38.61,258.92,38.19,259.23,38.84Z" transform="translate(-235.22 -18.22)"/><path class="cls-33" d="M346,77.25c.53,0,1.13.25,1.57-.29l.77.5h-2.6s0-.06-.07-.09Z" transform="translate(-235.22 -18.22)"/><path class="cls-34" d="M275.76,34.33c.29,0,.5-.12.52-.44.37.07.51.44.8.63L276,35C275.83,34.82,275.64,34.63,275.76,34.33Z" transform="translate(-235.22 -18.22)"/><path class="cls-35" d="M376.1,77c.45.5,1,.17,1.56.26-.67.6-1.47,0-2.23.16Z" transform="translate(-235.22 -18.22)"/><path class="cls-36" d="M388.88,77.28c.56-.11,1.2.24,1.68-.3l.7.48C390.38,77.44,389.62,77.72,388.88,77.28Z" transform="translate(-235.22 -18.22)"/><path class="cls-36" d="M317.08,69.4c-.54.41-1.17.11-1.75.22l-.53-.06V69.4Z" transform="translate(-235.22 -18.22)"/><path class="cls-36" d="M347.8,69.41c-.54.4-1.17.1-1.75.21l-.53-.06v-.15Z" transform="translate(-235.22 -18.22)"/><path class="cls-37" d="M259.23,38.84c-.37-.36-.85-.09-1.26-.24.43-.27.92-.12,1.38-.19.15,0,.47-.1.44.18S259.48,38.9,259.23,38.84Z" transform="translate(-235.22 -18.22)"/><path class="cls-38" d="M255.34,44.37l.53.23c-.18,0-.36.12-.55.16s-.53.21-.56-.09S255.11,44.41,255.34,44.37Z" transform="translate(-235.22 -18.22)"/><path class="cls-39" d="M268.38,32.14c-.11.37-.58.2-.75.49a.3.3,0,0,1-.37.11l-.1-.1C267.26,31.74,267.89,32.11,268.38,32.14Z" transform="translate(-235.22 -18.22)"/><path class="cls-40" d="M277.47,30l.25.24c-.14.38-.49.28-.82.44C276.89,30.18,277.23,30.13,277.47,30Z" transform="translate(-235.22 -18.22)"/><path class="cls-35" d="M292.16,77.09l-.26-.52.34-.82A1.51,1.51,0,0,1,292.16,77.09Z" transform="translate(-235.22 -18.22)"/><path class="cls-41" d="M266.43,33.11l-.3-.27c.3-.28.6-.58,1-.2h0c.1.18,0,.29-.13.4S266.64,33.26,266.43,33.11Z" transform="translate(-235.22 -18.22)"/><path class="cls-42" d="M390.56,69.9l0-.31c-.08,0-.11-.09-.08-.14s.05-.07.08-.07h.82Z" transform="translate(-235.22 -18.22)"/><path class="cls-43" d="M390.52,69.38v.21c-.4,0-.84.15-1.2-.18Z" transform="translate(-235.22 -18.22)"/><path class="cls-44" d="M271,38.85a46.87,46.87,0,0,1,29-7.18c.25,0,.58-.12.73.24a4.4,4.4,0,0,1-2.4.52,39.13,39.13,0,0,0-11.43,2.79,7.14,7.14,0,0,0-1.84.9,7.32,7.32,0,0,0-1.44,1,4.68,4.68,0,0,1-.64.52,2.08,2.08,0,0,1-.8.29c-2.76.59-5.61.67-8.34,1.45a5.31,5.31,0,0,1-2.14,0C271.39,39.36,270.93,39.42,271,38.85Z" transform="translate(-235.22 -18.22)"/><path class="cls-45" d="M325.46,40.8a2.81,2.81,0,0,1,1.26.7c-.34.43-.87.41-1.31.48-4,.63-7.93,1.32-11.9,2q-7.78,1.24-15.56,2.51c-4.61.75-9.22,1.48-13.82,2.29a3.38,3.38,0,0,1-1.89-.07.6.6,0,0,1-.27-.32.78.78,0,0,1,.38-.73c3.23-.67,6.5-1.09,9.76-1.64,5.05-.86,10.12-1.67,15.19-2.49,5.53-.9,11.06-1.89,16.62-2.65A8.82,8.82,0,0,1,325.46,40.8Z" transform="translate(-235.22 -18.22)"/><path class="cls-46" d="M282.06,48.49c2.53,0,5-.65,7.43-1,3.84-.59,7.67-1.24,11.51-1.87,3.68-.6,7.35-1.22,11-1.79,4.9-.77,9.77-1.73,14.69-2.31a.46.46,0,0,1,.47.25,1.19,1.19,0,0,1-.69.49,4.72,4.72,0,0,1-1,.26,6.23,6.23,0,0,0-1.3.12,1.87,1.87,0,0,1-.32.08,7.79,7.79,0,0,0-1.27.19,2.44,2.44,0,0,1-.47.09,4,4,0,0,0-1.09.12l-.31.08a6,6,0,0,0-1.12.22,2.1,2.1,0,0,1-.5.09,10.79,10.79,0,0,0-2.4.36,1.94,1.94,0,0,1-.33.07,7.4,7.4,0,0,0-1.15.16l-.31.07a5.71,5.71,0,0,0-1.1.15,1.67,1.67,0,0,1-.32.08,6.12,6.12,0,0,0-1.28.22l-.34.07a3.63,3.63,0,0,0-1.38.25,15.76,15.76,0,0,1-3,.52,6.5,6.5,0,0,0-2.36.34,3.41,3.41,0,0,1-.54.1,4.56,4.56,0,0,0-1.21.15l-.34.07a4.17,4.17,0,0,0-1.21.22,5.3,5.3,0,0,1-1.63.32,31.06,31.06,0,0,0-3.85.43c-.22.09-.48,0-.69.18a16.83,16.83,0,0,0-4.57,1.19c-2.55.79-5.23.89-7.84,1.39a1.9,1.9,0,0,1-1.18,0,.69.69,0,0,1-.32-.46,1.14,1.14,0,0,1,.11-.75Z" transform="translate(-235.22 -18.22)"/><path class="cls-47" d="M325.46,40.8c-2.3.4-4.59.81-6.9,1.2q-6.27,1-12.55,2c-5.32.85-10.65,1.67-16,2.52-2.08.33-4.15.66-6.21,1a10.13,10.13,0,0,1-1.54.14.39.39,0,0,1,0-.39c1.06-1,2.45-.91,3.71-1.07,2.81-.36,5.58-.95,8.38-1.35,4.41-.63,8.8-1.41,13.21-2.11,3.53-.56,7.06-1.23,10.61-1.72,2-.28,4-1,6.11-.83A2.52,2.52,0,0,1,325.46,40.8Z" transform="translate(-235.22 -18.22)"/><path class="cls-48" d="M303.88,32.13l3.58.81c.05.57-.35.79-.78.9a14.74,14.74,0,0,1-2.81.57c-1.6.07-3.09.73-4.7.83a28.45,28.45,0,0,0-6.84,1.14c-.71.23-1.28,0-1.22-.93a12.09,12.09,0,0,1,4.13-1.8A34.57,34.57,0,0,1,302.72,32,1.84,1.84,0,0,1,303.88,32.13Z" transform="translate(-235.22 -18.22)"/><path class="cls-49" d="M324.29,40.29c-2.7.65-5.45,1-8.18,1.47L309,42.91l-10.56,1.73-10.8,1.79-4,.62a2.23,2.23,0,0,0-1.31.47.71.71,0,0,1-.24-.51,1,1,0,0,1,.16-.56.89.89,0,0,1,.5-.33c3.41-.56,6.81-1.13,10.21-1.66,3-.47,6-1.18,9.06-1.36a28.34,28.34,0,0,0,6-.83c2.65-.45,5.33-.75,8-1.26s5.09-.82,7.63-1.23Z" transform="translate(-235.22 -18.22)"/><path class="cls-50" d="M313.24,34.82c.75,0,1.17.76,1.91.75,0,.71-.62.65-1.06.7-3.48.4-6.92,1.09-10.39,1.59-2.32.33-4.62.83-6.94,1.18-3.93.58-7.84,1.35-11.78,1.93a.63.63,0,0,1-.34-.16c-.12-.43.19-.7.36-1a1.55,1.55,0,0,1,.86-.6c.65,0,1.27-.24,1.93-.22,3.13-.33,6.24-.82,9.33-1.39C302.48,36.58,307.9,35.91,313.24,34.82Z" transform="translate(-235.22 -18.22)"/><path class="cls-51" d="M301.23,51.36c.26-.18.22-.47.26-.72a1,1,0,0,1,1-.52,4.19,4.19,0,0,0,1.9-.07c2.19-.59,4.5-.53,6.66-1.27a2.12,2.12,0,0,1,.79-.14c2.44,0,4.79-.72,7.18-1,3.08-.39,6.11-1,9.18-1.43,1.52-.2,3-.73,4.56-.84.39,0,.76-.2,1.15,0,.21.36.74.08.93.47a7.24,7.24,0,0,1-2.53.62,37.52,37.52,0,0,0-5.09.92c-1.44.25-2.9.4-4.34.64-2.72.46-5.5.68-8.18,1.29-2.9.66-5.86.8-8.76,1.46-1.29.29-2.63.47-3.93.81C301.72,51.63,301.49,51.46,301.23,51.36Z" transform="translate(-235.22 -18.22)"/><path class="cls-52" d="M303.88,32.13a41.63,41.63,0,0,0-12.06,3.21,6,6,0,0,0-.61.34.94.94,0,0,1-.69.3c-1.13,0-2.27-.07-3.39-.18-.36,0-1.12,0-.53-.76a26.38,26.38,0,0,1,7.6-2.34,43.45,43.45,0,0,1,6.53-.79C301.79,31.82,302.89,31.21,303.88,32.13Z" transform="translate(-235.22 -18.22)"/><path class="cls-53" d="M284.7,40.81c2.69-.69,5.47-.91,8.17-1.49,2.44-.51,4.92-.7,7.36-1.2A31.48,31.48,0,0,1,305,37.4a34,34,0,0,0,3.71-.67c1.95-.29,3.91-.54,5.87-.78a.72.72,0,0,0,.56-.38c.37-.06.43.38.72.45,0,.59-.5.68-.92.74l-1.64.29c-4.19.72-8.39,1.32-12.57,2-4.39.76-8.78,1.5-13.19,2.07a13,13,0,0,1-3.17.52c-.45-.26-.23-.57,0-.87A.25.25,0,0,1,284.7,40.81Z" transform="translate(-235.22 -18.22)"/><path class="cls-54" d="M302,43.44A65,65,0,0,0,295,44.5c-3.85.64-7.72,1.23-11.57,1.87a4.14,4.14,0,0,1-.94,0c.14-.9.9-.91,1.54-1,3.61-.56,7.24-1,10.81-1.84,1.31-.3,2.69-.35,4-.53,2.68-.37,5.32-1,8-1.37,4.76-.73,9.52-1.47,14.27-2.27a4,4,0,0,1,1.66.07l.28.15c0,.66-.61.59-.94.63-3.83.44-7.59,1.29-11.41,1.79a71.68,71.68,0,0,0-7.52,1.31C302.81,43.35,302.35,43.18,302,43.44Z" transform="translate(-235.22 -18.22)"/><path class="cls-55" d="M332,44.37c.21.38.76.08,1,.48-.41.6-1.06.56-1.67.64a8,8,0,0,0-1.37.33c-6.18.55-12.22,2-18.36,2.8-2.92.37-5.74,1.28-8.69,1.37-.47,0-.94.22-1.41,0-.3-1.12.63-1.16,1.26-1.28,1.6-.32,3.22-.51,4.83-.78q4.51-.78,9-1.48c2.59-.41,5.17-.86,7.77-1.23a19.06,19.06,0,0,0,4.54-.86,1.17,1.17,0,0,1,.37-.08C330.2,44.58,331.13,44.18,332,44.37Z" transform="translate(-235.22 -18.22)"/><path class="cls-56" d="M319,37.42a.16.16,0,0,1,.19.06c-.17.7-.81.81-1.33,1.06a1.28,1.28,0,0,1-.39,0c-2,.16-4,.63-6,.93s-3.85.57-5.75.95q-3.22.63-6.47,1.06c-3.57.48-7.11,1.24-10.7,1.63a30.45,30.45,0,0,0-3.86.72,2.4,2.4,0,0,1-1.52,0,.61.61,0,0,1-.28-.31.79.79,0,0,1,.59-.78c4.18-.8,8.37-1.49,12.57-2.16a70,70,0,0,1,7.06-1.1c1.86-.12,3.68-.6,5.52-.8,2.38-.27,4.68-.94,7.07-1.13C316.84,37.5,317.92,37.06,319,37.42Z" transform="translate(-235.22 -18.22)"/><path class="cls-57" d="M265.24,56.64c-.32.2-.75.26-.92.75,1.87.57,3.67-.22,5.48,0-2.15.26-4.27,1.06-6.48.48.21-.12.48-.25.35-.52s-.49-.22-.74-.17c-1.4.26-2.78.67-4.19.79-3.35.28-6.59,1.21-9.93,1.57a7.6,7.6,0,0,1-.95,0,3.83,3.83,0,0,1,1.07-1.16,6.08,6.08,0,0,1,1.73-.47c4.37-.61,8.72-1.36,13.08-2.1a2.27,2.27,0,0,1,1.29,0,.56.56,0,0,1,.21.9Z" transform="translate(-235.22 -18.22)"/><path class="cls-58" d="M322.83,39.37c-4,.64-8.09,1.26-12.14,1.92-2.49.41-5,.9-7.48,1.28s-5.16.81-7.74,1.17c-2,.28-4.05.72-6.08,1.06-1.64.27-3.27.58-4.92.78a3,3,0,0,0-1.94.74l-.21.24a.6.6,0,0,1-.24-.3,1.26,1.26,0,0,1,0-.58.66.66,0,0,1,.37-.46q5.69-1,11.41-1.91c3.41-.53,6.8-1.21,10.22-1.68,4.61-.64,9.13-1.76,13.77-2.15.4,0,.77-.2,1.17-.26a1.93,1.93,0,0,1,.54-.12c.78,0,1.55-.15,2.33-.22A1.81,1.81,0,0,1,322.83,39.37Z" transform="translate(-235.22 -18.22)"/><path class="cls-59" d="M284.22,41.52c3.59-.8,7.26-1.15,10.88-1.76,3.38-.57,6.76-1.24,10.16-1.73,1.36-.2,2.75-.4,4.09-.66,2-.37,4-.57,5.93-1a1.88,1.88,0,0,0,.59-.37c.35-.19.48.19.73.26-.33,1.08-1.38,1.09-2.13,1.13-3,.16-5.78,1-8.67,1.38-.55.08-1.1.24-1.65.27a31.36,31.36,0,0,0-4.22.64c-2.57.52-5.2.66-7.74,1.37-1.68.7-3.52.59-5.27,1a8.84,8.84,0,0,1-2.95.4.58.58,0,0,1-.31-.22.72.72,0,0,1,.21-.71A.27.27,0,0,1,284.22,41.52Z" transform="translate(-235.22 -18.22)"/><path class="cls-60" d="M307.48,45.12l3.12-.48c.44-.3,1,.07,1.44-.24h.24c.44-.3,1,.07,1.44-.24h0c.36-.28.84.05,1.2-.24h.24c.36-.28.84.06,1.2-.24h.24c.88-.18,1.78-.22,2.64-.48h.48c.36-.28.84.06,1.2-.24s.84,0,1.2-.24h.48c.44-.3,1,.07,1.44-.24s1,.07,1.44-.24l1-.24c.4.21.8-.18,1.21,0l.81.45a1.73,1.73,0,0,1-1.27.57c-5.75.75-11.44,1.88-17.18,2.71-3.54.51-7,1.27-10.59,1.63a1,1,0,0,0-.33.12l-3.37-.22.48-.21c1.34-.35,2.72-.47,4.08-.72l1.68-.24c.36-.28.84.06,1.2-.24h.24c.36-.28.84.06,1.2-.24h.48C305.87,45.36,306.69,45.31,307.48,45.12Z" transform="translate(-235.22 -18.22)"/><path class="cls-61" d="M290.75,35.79l.46-.11c.75,1.33,1.65.12,2.35,0,1.33-.24,2.66-.43,4-.62a29.26,29.26,0,0,0,5.12-.85c1.15-.37,2.5-.23,3.73-.57a1.66,1.66,0,0,0,1-.69l1.7.47c.23.66-.34.75-.7.85a24,24,0,0,1-5.49,1.1,27.72,27.72,0,0,0-3.4.57c-2.9.42-5.8.83-8.65,1.52a4.64,4.64,0,0,1-2.25-.08c-.5-.74.39-.72.58-1.09C289.65,35.81,290.24,35.93,290.75,35.79Z" transform="translate(-235.22 -18.22)"/><path class="cls-62" d="M299.09,47.47a6.4,6.4,0,0,1,3.12-.87c4.85-.75,9.7-1.49,14.53-2.35,3.42-.6,6.88-1,10.32-1.54.47-.07.93-.18,1.4-.27l.16.27c-.2.55-.72.6-1.17.69-4.09.83-8.22,1.42-12.34,2.09-1.88.3-3.77.53-5.64.89-2.88.57-5.79,1-8.7,1.32Z" transform="translate(-235.22 -18.22)"/><path class="cls-63" d="M313.24,34.82c0,.24-.07.53-.36.55-3.67.21-7.22,1.26-10.88,1.65-3.33.35-6.6,1.24-9.93,1.72a13.93,13.93,0,0,1-4.51.38c.08-.68.67-.79,1.13-.8a21.36,21.36,0,0,0,3.38-.6,2.53,2.53,0,0,1,.55-.09,7.82,7.82,0,0,0,2.67-.35,2.37,2.37,0,0,1,.36-.09,5.71,5.71,0,0,0,2.34-.45c4.22-.69,8.49-1.16,12.64-2.24l.34-.07c.35-.11.74.43,1.07-.07A2.94,2.94,0,0,1,313.24,34.82Z" transform="translate(-235.22 -18.22)"/><path class="cls-55" d="M265,55.92c-2.05.35-4.1.84-6.15,1-2.4.24-4.72,1-7.12,1.08-.95,0-1.83.55-2.8.27a2.94,2.94,0,0,1,.92-1c1.37-.78,3-.71,4.41-1,3.73-.61,7.45-1.26,11.19-1.83.6-.09,1.2-.25,1.56.45,0,.42-.08.7-.57.66l-.48.24C265.64,56,265.32,55.76,265,55.92Z" transform="translate(-235.22 -18.22)"/><path class="cls-64" d="M288.56,37.21c2.47.09,4.81-.71,7.22-1.06,1.51-.22,3.05-.39,4.56-.66,2.75-.49,5.57-.66,8.24-1.59.26-.09.55-.13.58-.49.71,0,1.25.51,1.91.67a.31.31,0,0,1,0,.48h0q-3.93.7-7.88,1.34c-3.65.59-7.29,1.26-10.95,1.73a6,6,0,0,0-1.37.42c-1.21.15-2.41.37-3.62.53-.51-.38-.1-.65.11-.94s.37-.3.56-.44S288.36,37,288.56,37.21Z" transform="translate(-235.22 -18.22)"/><path class="cls-65" d="M264.76,43.2,266.43,42c3.22-1.28,6.66-1.38,10-2a7.5,7.5,0,0,1,3.05-.34c.29.15.23.37.12.61a3.54,3.54,0,0,1-.57.65,2,2,0,0,1-.72.52,1.35,1.35,0,0,1-.36.07,73.66,73.66,0,0,0-11.33,1.82C266.06,43.51,265.31,44.05,264.76,43.2Z" transform="translate(-235.22 -18.22)"/><path class="cls-66" d="M266.92,55.2a.77.77,0,0,0-1-.43c-3.31.78-6.69,1.14-10,1.76a31.56,31.56,0,0,1-6.06.82,2.94,2.94,0,0,1,1-1c2.69-.74,5.46-1,8.19-1.45,2.34-.41,4.67-.84,7-1.15.68-.09,1.39-.44,2.07,0,.42.63-.07.92-.47,1.25C267.4,55.19,267.19,55.33,266.92,55.2Z" transform="translate(-235.22 -18.22)"/><path class="cls-67" d="M260.84,46.51A7.66,7.66,0,0,1,262.57,45c3.84-.54,7.67-1.24,11.51-1.82a4.31,4.31,0,0,1,2.11-.13c.28.22.12.45,0,.67a2.32,2.32,0,0,1-.71.65,34.21,34.21,0,0,1-5.51,1c-2.65.49-5.34.83-8,1.35C261.56,46.82,261.13,47.07,260.84,46.51Z" transform="translate(-235.22 -18.22)"/><path class="cls-68" d="M252.6,54.48a1.51,1.51,0,0,1,.68-.71,6.31,6.31,0,0,1,3-.79c2.51-.4,5-.87,7.53-1.28,2-.32,4-.6,6-.89a1.45,1.45,0,0,1,.94.07c.26.32.11.64-.05.95a.89.89,0,0,1-.46.37,1.08,1.08,0,0,1-.4,0c-3.66.45-7.29,1.11-10.92,1.7a45.19,45.19,0,0,1-5.18.75C253.34,54.68,252.93,54.81,252.6,54.48Z" transform="translate(-235.22 -18.22)"/><path class="cls-69" d="M276.24,43.2c-2.76.46-5.51,1-8.28,1.35-1.58.2-3.13.51-4.7.74-.31,0-.55.06-.69-.26a2.87,2.87,0,0,1,1-.83A50.89,50.89,0,0,1,271,42.82c1.44-.22,2.88-.54,4.32-.78a3.63,3.63,0,0,1,1.88,0,.46.46,0,0,1,.15.31,1.09,1.09,0,0,1-.64.79A.9.9,0,0,1,276.24,43.2Z" transform="translate(-235.22 -18.22)"/><path class="cls-70" d="M277.23,42.21a45.44,45.44,0,0,0-5.69.87c-1.83.3-3.67.66-5.52.78-.8.06-1.39.65-2.19.62-.25,0-.24-.13-.26-.28l1.19-1a1.73,1.73,0,0,0,1.56-.06,43.57,43.57,0,0,1,7.74-1.43,25.83,25.83,0,0,1,4.11-.44c.19.24,0,.41-.09.6S277.65,42.44,277.23,42.21Z" transform="translate(-235.22 -18.22)"/><path class="cls-71" d="M271,38.85a3.41,3.41,0,0,0,2.8.18c1.69-.36,3.38-.66,5.1-.87a19,19,0,0,1,3.37-.49.27.27,0,0,1,.1.29c-.21.43-.63.61-1,.89a1.21,1.21,0,0,1-.95.37,3.16,3.16,0,0,0-1.3,0c-3.31.83-6.77.87-10.05,1.87-.39.11-.83.38-1-.31A17.45,17.45,0,0,1,271,38.85Z" transform="translate(-235.22 -18.22)"/><path class="cls-72" d="M300.77,47.7c.58-.75,1.49-.52,2.21-.61,2.88-.36,5.71-.94,8.57-1.37,4.35-.66,8.69-1.33,13-2.06,1.36-.22,2.7-.63,4-.95a1.36,1.36,0,0,1,1.21.48,7.39,7.39,0,0,1-2.55.81c-2.89.4-5.79.8-8.65,1.37a10.59,10.59,0,0,0-2.73.44c-.56.16-1.17,0-1.73.25a23.61,23.61,0,0,0-4,.71,1.8,1.8,0,0,1-.39.08c-1.82.19-3.61.51-5.4.82a5.56,5.56,0,0,1-3.21.11Z" transform="translate(-235.22 -18.22)"/><path class="cls-73" d="M292.12,40.8a28,28,0,0,1,5-1A30.09,30.09,0,0,0,301.5,39c.81-.28,1.67,0,2.48-.19,3-.82,6.16-1,9.21-1.71.95-.21,2-.24,3.05-.44a.39.39,0,0,0,.36-.38c.51-.11.72.5,1.18.5,0,.41-.38.48-.68.54-3.53.67-7.07,1.3-10.62,1.8-4.06.38-8,1.23-12.06,1.81C293.66,41,292.85,41.4,292.12,40.8Z" transform="translate(-235.22 -18.22)"/><path class="cls-74" d="M268.11,40.78c.2.3.45.25.73.14,2.62-1,5.41-1.13,8.14-1.54a14.68,14.68,0,0,1,2.65-.56c.37,0,.7,0,1,.26a.3.3,0,0,1,.09.31c-.26.36-.56.61-1,.45-2.8.41-5.6.85-8.4,1.23a16.23,16.23,0,0,0-3.82,1,1,1,0,0,1-1-.06A5.87,5.87,0,0,1,268.11,40.78Z" transform="translate(-235.22 -18.22)"/><path class="cls-75" d="M260.84,46.51a6.93,6.93,0,0,0,2.94-.4c1.93-.45,3.9-.55,5.82-1,1.45-.33,2.94-.36,4.38-.79.46-.14,1,.11,1.48-.17a.22.22,0,0,1,.18.24,1.61,1.61,0,0,1-.55.69,2,2,0,0,1-.67.35c-4.34.61-8.64,1.43-13,2-.47.07-1.05.33-1.25-.43C260.29,46.71,260.63,46.69,260.84,46.51Z" transform="translate(-235.22 -18.22)"/><path class="cls-76" d="M268.12,54c-1.71-.2-3.33.36-5,.59-3.4.45-6.75,1.24-10.17,1.57-.72.07-1.38.61-2.15.22l.44-.49c1.25-.85,2.74-.72,4.13-1,3.76-.66,7.55-1.21,11.31-1.86a2.56,2.56,0,0,1,2.19.22c.18.41,0,.65-.37.81A.44.44,0,0,1,268.12,54Z" transform="translate(-235.22 -18.22)"/><path class="cls-77" d="M255.92,51.12a1.78,1.78,0,0,1,.72-.72,19.34,19.34,0,0,1,5.57-1.16c3-.46,5.94-1.13,9-1.43a4,4,0,0,1,1.3,0,.5.5,0,0,1,.29.26,1.18,1.18,0,0,1-.59,1,.91.91,0,0,1-.4,0c-3.38.3-6.7,1-10,1.49-1.49.22-2.94.67-4.45.77C256.79,51.39,256.31,51.52,255.92,51.12Z" transform="translate(-235.22 -18.22)"/><path class="cls-78" d="M252.6,54.48c3.92-.35,7.76-1.17,11.64-1.78l5.28-.84a.5.5,0,0,1,.52.22,1,1,0,0,1-.08.53.6.6,0,0,1-.65.31,48.14,48.14,0,0,0-7,1c-3.09.47-6.19.95-9.27,1.53a1.29,1.29,0,0,1-1.13-.24Z" transform="translate(-235.22 -18.22)"/><path class="cls-79" d="M254.44,52.56l.75-.71a6.09,6.09,0,0,1,2.3-.57c3.68-.57,7.34-1.23,11-1.82a12.53,12.53,0,0,1,2.12-.26c.4,0,.81,0,1,.47s-.2.65-.59.76c-4.47.51-8.89,1.42-13.35,2C256.62,52.63,255.54,53.24,254.44,52.56Z" transform="translate(-235.22 -18.22)"/><path class="cls-80" d="M271.48,49.68c-1.44-.63-2.78.14-4.15.32-3.48.47-6.95,1.08-10.42,1.59-.57.08-1.09.56-1.72.26a1.83,1.83,0,0,1,.73-.73c2.79-.16,5.5-.86,8.26-1.28,2.46-.37,4.92-.74,7.38-1.09.12,0,.27.13.4.21a.28.28,0,0,1,.1.26,1.07,1.07,0,0,1-.31.52A.23.23,0,0,1,271.48,49.68Z" transform="translate(-235.22 -18.22)"/><path class="cls-81" d="M260.2,47a.68.68,0,0,0,.75.22l10.73-1.76c1-.16,1.95-.26,2.92-.38a.35.35,0,0,1,.09.31c-.18.46-.4.87-.93,1a1,1,0,0,1-.37-.08,33.29,33.29,0,0,0-5.62.84c-2.56.51-5.16.77-7.75,1.16a.67.67,0,0,1-.8-.34Z" transform="translate(-235.22 -18.22)"/><path class="cls-82" d="M317.8,38.4H318a2.63,2.63,0,0,1,2.39-.21.39.39,0,0,1,.49.2c.24,1-.62.53-1,.72a2.68,2.68,0,0,0-.89.1c-.29.13-.62.13-.92.23-2.45.26-4.88.67-7.3,1.12-2.69.49-5.44.71-8.1,1.37a1.69,1.69,0,0,1-1.17-.06c-.28-.3-.06-.5.13-.71a22,22,0,0,1,5.14-1C310.49,39.58,314.13,38.92,317.8,38.4Z" transform="translate(-235.22 -18.22)"/><path class="cls-83" d="M272.63,48c-5.09.55-10.11,1.53-15.16,2.37a5.76,5.76,0,0,1-.83,0,4.31,4.31,0,0,1,1.12-1c3.57-.46,7.1-1.19,10.65-1.75,1-.17,2.13-.26,3.16-.53.53-.12,1.12-.56,1.51.22a.81.81,0,0,1,0,.38A.52.52,0,0,1,272.63,48Z" transform="translate(-235.22 -18.22)"/><path class="cls-84" d="M330,45.6c.9-.59,2-.37,2.95-.75a1.83,1.83,0,0,1,.93.49c-3.35.82-6.77,1.32-10.17,1.84-2.31.36-4.59.86-6.9,1.15-1.68.2-3.32.81-5.05.63.14-.71.81-.61,1.23-.67,4.12-.6,8.22-1.29,12.31-2C326.9,46,328.47,45.79,330,45.6Z" transform="translate(-235.22 -18.22)"/><path class="cls-85" d="M252,55.17a31.5,31.5,0,0,0,5.39-.75c3.75-.56,7.48-1.23,11.22-1.84.34,0,.73-.12,1,.22a.25.25,0,0,1,.08.27,1.18,1.18,0,0,1-.53.53.25.25,0,0,1-.27-.08c-1-.63-2.11-.12-3.12,0-4.15.64-8.28,1.39-12.42,2.06a7.58,7.58,0,0,0-2.06.28A1.7,1.7,0,0,1,252,55.17Z" transform="translate(-235.22 -18.22)"/><path class="cls-86" d="M270.76,51.12a53.18,53.18,0,0,0-6.87.91c-3.54.53-7.08,1.15-10.61,1.74a1.7,1.7,0,0,1,.71-.72,21.15,21.15,0,0,1,4.3-.8c4.11-.63,8.2-1.4,12.32-2a1,1,0,0,1,.39.05.58.58,0,0,1,.09.72A.22.22,0,0,1,270.76,51.12Z" transform="translate(-235.22 -18.22)"/><path class="cls-87" d="M259.22,48c.77.26,1.47-.16,2.2-.22,3.82-.31,7.53-1.35,11.34-1.77.4,0,.79-.31.89.34a1,1,0,0,1-.07.15c-.94.33-1.92.48-2.87.75l-.53.07a5,5,0,0,0-2.29.4,2.65,2.65,0,0,1-.38,0,21.23,21.23,0,0,0-4.26.74c-1.31.3-2.66.3-4,.63a1,1,0,0,1-1.1-.21Z" transform="translate(-235.22 -18.22)"/><path class="cls-88" d="M306.52,38.88c3.76-.69,7.57-1.07,11.26-2.1a3.14,3.14,0,0,1,1.26.64c-3.34.33-6.61,1.13-10,1.52-2,.23-3.92.78-5.93.9.3-.81,1.08-.56,1.66-.69A9.11,9.11,0,0,0,306.52,38.88Z" transform="translate(-235.22 -18.22)"/><path class="cls-89" d="M302,43.44c1.87-.82,3.93-.74,5.87-1.19,2.65-.63,5.38-.74,8.06-1.33A47,47,0,0,1,322,40a1.39,1.39,0,0,0,1.15-.48l.48.26a6.37,6.37,0,0,1-2.69.77c-4.27.72-8.55,1.48-12.84,2.07C306,42.89,304,43.52,302,43.44Z" transform="translate(-235.22 -18.22)"/><path class="cls-90" d="M267.64,47.52h.24c.76-.38,1.64-.12,2.4-.48h.48c.36-.09.78-.4,1,.24a36.43,36.43,0,0,1-5,.94c-2.78.56-5.58,1-8.37,1.5-.41.08-.48-.12-.61-.37l.43-.43,5.13-.68C264.75,48,266.2,47.77,267.64,47.52Z" transform="translate(-235.22 -18.22)"/><path class="cls-91" d="M318.52,45.12c1.45-.63,3-.52,4.55-.82,2.25-.43,4.51-.75,6.76-1.11a3.79,3.79,0,0,1,1.39.73c-.5.35-1.08.19-1.62.26-3.39.45-6.79.89-10.13,1.62a2,2,0,0,1-1.29,0C317.68,45.23,318.39,45.32,318.52,45.12Z" transform="translate(-235.22 -18.22)"/><path class="cls-92" d="M271,50.4c-3.75.62-7.48,1.34-11.25,1.83a40,40,0,0,1-5.76.82c.11-.21.18-.44.45-.49,2,0,3.83-.63,5.76-.83,3.63-.37,7.16-1.43,10.82-1.56a.15.15,0,0,1,0,.16C271,50.38,271,50.4,271,50.4Z" transform="translate(-235.22 -18.22)"/><path class="cls-93" d="M263.56,42.5a6,6,0,0,1-.27-4.37,8.65,8.65,0,0,0,1.2,1.44c.61.46.49,1.1.3,1.72A5,5,0,0,1,263.56,42.5Z" transform="translate(-235.22 -18.22)"/><path class="cls-94" d="M264.79,41.29a2.06,2.06,0,0,0-1.19-2.08c-.41-.21-.24-.71-.31-1.08a.29.29,0,0,1,.06-.21,3,3,0,0,1,2.54,2.31,2.29,2.29,0,0,1-.66.79Z" transform="translate(-235.22 -18.22)"/><path class="cls-95" d="M275.76,34.33c.11.22.38.39.24.7l-4,1.72-.07-.14.06-.13,1-.72a1.45,1.45,0,0,1,.72-.64,4,4,0,0,0,1.68-1.06Z" transform="translate(-235.22 -18.22)"/><path class="cls-96" d="M329.8,43.92a3.57,3.57,0,0,1,1.42,0,1.21,1.21,0,0,1,.81.45c-.9.26-1.8.7-2.71,0C329.19,44,329.69,44.13,329.8,43.92Z" transform="translate(-235.22 -18.22)"/><path class="cls-97" d="M320.43,38.19,318,38.4c.21-.55.86-.52,1.19-.92Z" transform="translate(-235.22 -18.22)"/><path class="cls-98" d="M320,38.88c.25-.31.94.26,1-.49.25.3.75.12,1,.49-.63.58-1.41.44-2.16.48C319.57,39.08,319.83,39,320,38.88Z" transform="translate(-235.22 -18.22)"/><path class="cls-99" d="M272,36.75c-.58.83-1.67.85-2.38,1.49a.42.42,0,0,1-.16-.28c0-.31.24-.48.45-.65a4.08,4.08,0,0,1,.87-.68c.4,0,.81-.18,1.2.06Z" transform="translate(-235.22 -18.22)"/><path class="cls-100" d="M267.81,39.34a4,4,0,0,1-1.4,1,.19.19,0,0,1-.28,0,.52.52,0,0,1,.12-.6,9.34,9.34,0,0,1,.84-.69.66.66,0,0,1,.46,0A.4.4,0,0,1,267.81,39.34Z" transform="translate(-235.22 -18.22)"/><path class="cls-101" d="M267.81,39.34l-.17-.22c-.14-.34.11-.47.32-.63a6.89,6.89,0,0,0,.93-.49,2.13,2.13,0,0,1,.41-.18.28.28,0,0,1,.26.1l0,.32C269.12,38.8,268.35,38.88,267.81,39.34Z" transform="translate(-235.22 -18.22)"/><path class="cls-102" d="M311.08,34.56c0-.16,0-.32,0-.48a1.31,1.31,0,0,1,1,.28C312,35.58,311.4,34.47,311.08,34.56Z" transform="translate(-235.22 -18.22)"/><path class="cls-103" d="M266.18,40.3l.23,0c-.35.3-.65.69-1.18.69a.76.76,0,0,1,.49-.7A.32.32,0,0,1,266.18,40.3Z" transform="translate(-235.22 -18.22)"/><path class="cls-104" d="M327.65,42c-.4.18-.81.47-1.21,0l.75-.25A.5.5,0,0,1,327.65,42Z" transform="translate(-235.22 -18.22)"/><path class="cls-105" d="M289.7,53.27l.07-.48a2.54,2.54,0,0,1,1.87-.9c1.54-.23,3.05-.63,4.59-.78a11.76,11.76,0,0,0,2.21-.48,2.06,2.06,0,0,1,2.25.25l.1.41c-1.39.75-3,.7-4.45,1C294.15,52.69,291.92,53,289.7,53.27Z" transform="translate(-235.22 -18.22)"/><path class="cls-106" d="M330,45.6a39.37,39.37,0,0,1-6.36,1.19c-3.78.66-7.57,1.28-11.36,1.93a2.21,2.21,0,0,0-.52.24h-.72c-1.66.57-3.44.5-5.13.93a20.77,20.77,0,0,1-3.51.51,1.52,1.52,0,0,0-.95.24.2.2,0,0,1,0-.22c-.12-.18-.15-.35.07-.49a9.69,9.69,0,0,1,3.28-.47,8.68,8.68,0,0,0,2.55-.5c3.74-.72,7.5-1.3,11.26-1.82S326.14,45.36,330,45.6Z" transform="translate(-235.22 -18.22)"/><path class="cls-66" d="M329.8,43.92l-.48.48h0c-2.7.64-5.45,1-8.18,1.44s-5.31.89-8,1.33c-3.28.54-6.56,1.11-9.85,1.5-.68.09-1.29.77-2,.29l0-.72a25.87,25.87,0,0,1,5-.93,18.43,18.43,0,0,0,2.33-.45,10.26,10.26,0,0,0,2.7-.41,1.66,1.66,0,0,1,.38-.11,47.43,47.43,0,0,0,5.81-.91.68.68,0,0,1,.56.17c1.78-.29,3.54-.68,5.33-.83C325.53,44.59,327.6,43.75,329.8,43.92Z" transform="translate(-235.22 -18.22)"/><path class="cls-96" d="M301.28,49c1.41-.35,2.85-.53,4.28-.79s3.16-.39,4.69-.72c2-.42,3.95-.71,5.93-1,4.38-.65,8.72-1.62,13.14-2a2.19,2.19,0,0,1-1.5.67c-3.48.53-7,.88-10.46,1.53-2.88.55-5.78.94-8.66,1.5-1.87.36-3.76.55-5.64.88-.6.1-1.45-.06-1.52,1,0,.16-.05.33-.07.49A2.9,2.9,0,0,1,301.28,49Z" transform="translate(-235.22 -18.22)"/><path class="cls-107" d="M300.69,50.88c-1.12-.32-2.12.2-3.18.39-1.59.3-3.19.56-4.8.77a20.42,20.42,0,0,0-2.94.75,1,1,0,0,1,.22-.71c.29-.77.88-.94,1.66-1.09,2.37-.46,4.78-.73,7.14-1.27.53-.12,1-.22,1.44.2A1.61,1.61,0,0,1,300.69,50.88Z" transform="translate(-235.22 -18.22)"/><path class="cls-108" d="M300.23,49.92a1.78,1.78,0,0,0-.92,0c-1.83.68-3.86.45-5.64,1.07-1.22.43-2.74-.14-3.68,1.12a3.11,3.11,0,0,1,.92-1.68,56.54,56.54,0,0,1,7.53-1.34,1.85,1.85,0,0,1,1.16.12A1.16,1.16,0,0,1,300.23,49.92Z" transform="translate(-235.22 -18.22)"/><path class="cls-109" d="M282.05,49.69c2.81-.51,5.68-.68,8.45-1.42a.58.58,0,0,1,.65.17l-1.67,1.24c-2,.4-4,.76-6,1a2.13,2.13,0,0,1-1.51-.08A.68.68,0,0,1,282.05,49.69Z" transform="translate(-235.22 -18.22)"/><path class="cls-110" d="M299.6,49.18a73.65,73.65,0,0,0-7.67,1.34,1.42,1.42,0,0,1-1-.12,1.34,1.34,0,0,1,.68-.74,15.33,15.33,0,0,1,6.78-1.22C298.74,48.76,299.37,48.64,299.6,49.18Z" transform="translate(-235.22 -18.22)"/><path class="cls-111" d="M282,50.64c1.51-.24,3-.55,4.52-.7,1-.09,1.9-.85,2.92-.26l-.92,1c-1.71,0-3.36.5-5.07.59a1.16,1.16,0,0,0-1.17.84c-.1.21-.18.44-.48.42a.92.92,0,0,1-.31-.78,1.93,1.93,0,0,1,0-.34,1.69,1.69,0,0,1,.13-.49A.59.59,0,0,1,282,50.64Z" transform="translate(-235.22 -18.22)"/><path class="cls-112" d="M298.37,48.44c-.46.55-1.13.31-1.67.35-1.74.13-3.4.65-5.11.87A6.4,6.4,0,0,1,298.37,48.44Z" transform="translate(-235.22 -18.22)"/><path class="cls-113" d="M282,52.08c.07-1.07,1-1.1,1.66-1.14a30.14,30.14,0,0,0,4.23-.61c.38-.08.5.11.63.38l-.48.73c-1.71.29-3.45.42-5.15.79A.93.93,0,0,1,282,52.08Z" transform="translate(-235.22 -18.22)"/><path class="cls-114" d="M282,52.08a45.66,45.66,0,0,1,5.2-.8c.28,0,.62-.19.84.16l-.52,1.12c-1.12-.3-2.2.14-3.29.2A9.37,9.37,0,0,1,282,53a.49.49,0,0,1-.28-.25l.06-.18A.5.5,0,0,0,282,52.08Z" transform="translate(-235.22 -18.22)"/><path class="cls-115" d="M281.81,52.8c1.46-.21,2.92-.43,4.39-.62.49-.07,1.1-.43,1.36.38a.86.86,0,0,1-.23.72h-.05c-1.39-.25-2.68.44-4.06.46-.42,0-.84.18-1.28.14a.47.47,0,0,1-.34-.4.93.93,0,0,1,0-.37A.55.55,0,0,1,281.81,52.8Z" transform="translate(-235.22 -18.22)"/><path class="cls-116" d="M308.68,47c-1.69.77-3.56.54-5.32,1a20.61,20.61,0,0,1-2.11.25l-.08-.46a30.05,30.05,0,0,1,3.67-.54,23.08,23.08,0,0,1,5-.68C309.72,47.33,309,46.64,308.68,47Z" transform="translate(-235.22 -18.22)"/><path class="cls-117" d="M426.87,60a1.61,1.61,0,0,1-1.53,2.07,1.39,1.39,0,0,1-1.62-.93,1.16,1.16,0,0,1,.7-1.56c.42-.22.88-.35,1.31-.53C426.7,58.64,427.21,58.8,426.87,60Z" transform="translate(-235.22 -18.22)"/><path class="cls-117" d="M309.31,59.77c-.09,1.66-.7,2.4-1.86,2.31a1.35,1.35,0,0,1-1.4-1.46c0-.76,1.7-1.82,2.82-1.78C309.72,58.88,309.16,59.55,309.31,59.77Z" transform="translate(-235.22 -18.22)"/><path class="cls-117" d="M378.19,59.8c-.09,1.63-.73,2.39-1.88,2.27a1.35,1.35,0,0,1-1.38-1.48c0-.74,1.79-1.83,2.85-1.75C378.6,58.91,378,59.57,378.19,59.8Z" transform="translate(-235.22 -18.22)"/><path class="cls-118" d="M325.3,56.14a2.72,2.72,0,0,1,3.54-1.74,1.15,1.15,0,0,1,.82,1.19c-.05.6-.62.53-1,.55C327.53,56.16,326.43,56.14,325.3,56.14Z" transform="translate(-235.22 -18.22)"/><path class="cls-118" d="M335.87,56.12a2.7,2.7,0,0,1,3.63-1.67,1.14,1.14,0,0,1,.73,1.13c-.06.6-.62.54-1,.56-.91,0-1.83,0-2.75,0C336.26,56.16,336.07,56.14,335.87,56.12Z" transform="translate(-235.22 -18.22)"/><path class="cls-119" d="M330.05,72.51a2.65,2.65,0,0,1,2.47-2.86c1.64-.12,3,1.08,3.3,3a6.08,6.08,0,0,1,0,2.25A2.54,2.54,0,0,1,334,77.15a2.83,2.83,0,0,1-3-1A5,5,0,0,1,330.05,72.51Z" transform="translate(-235.22 -18.22)"/><path class="cls-119" d="M258,73.05c0-2,.89-3.27,2.43-3.4a3.23,3.23,0,0,1,3.35,2.92,5.86,5.86,0,0,1,0,2.36,2.52,2.52,0,0,1-1.75,2.21,2.81,2.81,0,0,1-2.92-.9A4.37,4.37,0,0,1,258,73.05Z" transform="translate(-235.22 -18.22)"/><path class="cls-120" d="M349.86,71.8a2.3,2.3,0,0,1-.45,1.43,1.36,1.36,0,0,1-1.42.36c-.66-.14-.39-.68-.42-1.06a6.13,6.13,0,0,1,0-1.42c.05-.41-.34-1,.34-1.2a1.5,1.5,0,0,1,1.56.65A2.35,2.35,0,0,1,349.86,71.8Z" transform="translate(-235.22 -18.22)"/><path class="cls-121" d="M316.84,74.91a1.92,1.92,0,0,1,0-.48c.08-.4-.27-1,.21-1.18a1.42,1.42,0,0,1,1.58.58,2.55,2.55,0,0,1,.64,1.87A1.24,1.24,0,0,1,317.94,77c-.91,0-1.18-.48-1.1-1.3C316.86,75.47,316.84,75.19,316.84,74.91Z" transform="translate(-235.22 -18.22)"/><path class="cls-122" d="M316.75,71.19c.4-.4-.49-1.36.66-1.33.92,0,1.3.7,1.34,1.53s-.37,1.37-1.29,1.33C316.17,72.66,317.2,71.63,316.75,71.19Z" transform="translate(-235.22 -18.22)"/><path class="cls-123" d="M361.73,74.08l1.07-2.77,1.05,2.77Z" transform="translate(-235.22 -18.22)"/><path class="cls-123" d="M302.8,71.29l1,2.81h-2.11Z" transform="translate(-235.22 -18.22)"/><path class="cls-122" d="M457.72,49.45a2.41,2.41,0,1,1-4.8.06,2.4,2.4,0,0,1,4.8-.06Z" transform="translate(-235.22 -18.22)"/><path class="cls-124" d="M270.76,36.72a1.57,1.57,0,0,1-.72.72A15,15,0,0,0,267,35c-.51-.32-1.12-.63-1.07-1.41l.48-.49.49-.18c1,1,2.29,1.68,3.34,2.64C270.59,35.88,271.09,36.12,270.76,36.72Z" transform="translate(-235.22 -18.22)"/><path class="cls-125" d="M269.08,38.16c-.33.14-.54.52-1,.47-1-.93-2.1-1.8-3.21-2.63-.25-.18-.56-.35-.41-.75a1,1,0,0,1,.49-.69,27.82,27.82,0,0,1,3.68,2.7C268.93,37.47,269.22,37.73,269.08,38.16Z" transform="translate(-235.22 -18.22)"/><path class="cls-126" d="M264.5,35.25l2.46,2c.48.39,1.06.71,1.16,1.41l-.48.49h-.48a7.68,7.68,0,0,0-2.69-2.31c-.3-.16-.72-.3-.43-.79A1.24,1.24,0,0,1,264.5,35.25Z" transform="translate(-235.22 -18.22)"/><path class="cls-127" d="M266.18,40.3l-.46,0c.13-.94-.73-1.13-1.23-1.57s-.76-.55-1.14-.83a1.55,1.55,0,0,1,.4-1.26A7.87,7.87,0,0,1,266,38.22a1.45,1.45,0,0,1,.46,1.62Z" transform="translate(-235.22 -18.22)"/><path class="cls-128" d="M269.08,38.16c-.77-1.18-2.06-1.73-3.08-2.6a4.17,4.17,0,0,1-1-1l.24-.26c1.79.29,3,1.49,4.14,2.73a.67.67,0,0,1-.05.89Z" transform="translate(-235.22 -18.22)"/><path class="cls-129" d="M266.44,39.84a3.25,3.25,0,0,0-1.77-2.31,2.27,2.27,0,0,1-.92-.87c.05-.23.05-.49.29-.64.53.7,1.43.89,2,1.49s1.14.79,1.07,1.61A1.57,1.57,0,0,1,266.44,39.84Z" transform="translate(-235.22 -18.22)"/><path class="cls-130" d="M269.32,37.92a1.44,1.44,0,0,0-.64-1.3,16.68,16.68,0,0,0-3.45-2.32,1.33,1.33,0,0,1,.72-.7c.62,1.08,1.85,1.42,2.71,2.19.54.49,1.32.76,1.38,1.65l-.48.48Z" transform="translate(-235.22 -18.22)"/><path class="cls-131" d="M266.92,55.2l.48-.24c1.86-.19,3.77.15,5.57-.22a42.56,42.56,0,0,1,7.12-.38,1.92,1.92,0,0,1,1.46.36V55c-3.65,0-7.26.43-10.88.74-.14,0-.27.14-.4.22a13,13,0,0,0-2.23.17c-.5.1-1.28.49-1.61-.41A.81.81,0,0,0,266.92,55.2Z" transform="translate(-235.22 -18.22)"/><path class="cls-17" d="M265,55.92a.58.58,0,0,1,1,0,1.57,1.57,0,0,1-.72.72C265.23,56.38,265.28,56.09,265,55.92Z" transform="translate(-235.22 -18.22)"/><path class="cls-132" d="M270.76,36.72c-.38-1.1-1.42-1.53-2.26-2.12a3.65,3.65,0,0,1-1.58-1.67l.23-.28.48,0c1.18.91,2.35,1.85,3.56,2.72a1.53,1.53,0,0,1,.77,1.13v.21C271.56,36.78,271.17,37.05,270.76,36.72Z" transform="translate(-235.22 -18.22)"/><path class="cls-133" d="M273.64,35.28l-.72.48a.87.87,0,0,0-.51-1c-1.18-.53-1.85-1.83-3.18-2.15-.16,0-.26-.29-.38-.44a4.1,4.1,0,0,1,1.94-.08c.65.63,1.53,1,2.19,1.59C273.42,34.13,274,34.51,273.64,35.28Z" transform="translate(-235.22 -18.22)"/><path class="cls-134" d="M281.55,54.72c-.95,0-1.91,0-2.86,0-3.59-.16-7.13.72-10.72.6-.34,0-.53,0-.57-.35.24-.32.77-.42.72-1h.24c2.8-.07,5.61,0,8.4-.29a12.41,12.41,0,0,1,3.54-.21c.55.09,1-.22,1.49-.22v.48a.31.31,0,0,1,0,.48A.51.51,0,0,0,281.55,54.72Z" transform="translate(-235.22 -18.22)"/><path class="cls-135" d="M281.79,54.24v-.48c1.56-.59,3.26-.43,4.83-.94.3-.1.65,0,.65.45A25.48,25.48,0,0,1,281.79,54.24Z" transform="translate(-235.22 -18.22)"/><path class="cls-136" d="M273.64,35.28c-.16-1.25-1.27-1.62-2.1-2.23-.34-.26-.82-.36-.75-.93a6.37,6.37,0,0,1,4.53,1.94C275.15,35,274.45,35.22,273.64,35.28Z" transform="translate(-235.22 -18.22)"/><path class="cls-137" d="M288.56,37.21l-.57.23c-1.32.23-2.65-.13-4,0-.27,0-.66-.08-.57-.56a3.9,3.9,0,0,1,1.44-1,13.54,13.54,0,0,1,4.56.56Z" transform="translate(-235.22 -18.22)"/><path class="cls-138" d="M289.44,36.48a11.57,11.57,0,0,1-4.56-.56A4.34,4.34,0,0,1,286.6,35c-.24.68.3.47.58.47a17.79,17.79,0,0,1,3.57.28Z" transform="translate(-235.22 -18.22)"/><path class="cls-139" d="M282.26,37.88a.74.74,0,0,0,0-.21l.69-.32a28.48,28.48,0,0,0,3.33.07,2.27,2.27,0,0,1,1.37.3l-.64.65a.66.66,0,0,1-.37.21c-1.06-.09-2.13,0-3.19-.09C283,38.47,282.37,38.65,282.26,37.88Z" transform="translate(-235.22 -18.22)"/><path class="cls-140" d="M287.65,37.72l-3.52,0c-.42,0-.89.13-1.18-.33l.49-.46c.45.52,1,.32,1.56.24a8.62,8.62,0,0,1,3,.31C288,37.62,287.81,37.68,287.65,37.72Z" transform="translate(-235.22 -18.22)"/><path class="cls-141" d="M272.19,49a.83.83,0,0,1,.47-.74,16.67,16.67,0,0,1,3.08-.06c1.94.07,3.86-.16,5.8-.28a.86.86,0,0,1,.42,0,.21.21,0,0,1,.09.34c0,.09,0,.17,0,.25h0a.91.91,0,0,1-.9.78q-4.15.09-8.31,0A.81.81,0,0,1,272.19,49Z" transform="translate(-235.22 -18.22)"/><path class="cls-142" d="M282.05,48.24l0-.25a.76.76,0,0,1-.21-.45.83.83,0,0,1,.13-.48.29.29,0,0,1,.31-.05l0,.51v.24A.54.54,0,0,1,282.05,48.24Z" transform="translate(-235.22 -18.22)"/><path class="cls-143" d="M272.19,49h8.46c.52,0,1,0,1.37-.48v.71a.81.81,0,0,1-.46.48c-1.85.23-3.72,0-5.57.11a24.45,24.45,0,0,0-3.2.11c-.41.07-1.06.14-.83-.69V49Z" transform="translate(-235.22 -18.22)"/><path class="cls-104" d="M300.28,46.32a17.12,17.12,0,0,1-4.08.72A9.67,9.67,0,0,1,300.28,46.32Z" transform="translate(-235.22 -18.22)"/><path class="cls-104" d="M319.24,43.2a4.65,4.65,0,0,1-2.64.48A5.57,5.57,0,0,1,319.24,43.2Z" transform="translate(-235.22 -18.22)"/><path class="cls-104" d="M307.48,45.12a5.22,5.22,0,0,1-2.4.48A4.16,4.16,0,0,1,307.48,45.12Z" transform="translate(-235.22 -18.22)"/><path class="cls-144" d="M281.8,49.44l.22-.25,0,.5c0,.31,0,.63,0,1l-.23.25-.12-.11a1,1,0,0,1-.13-.45,1.72,1.72,0,0,1,.05-.64A.92.92,0,0,1,281.8,49.44Z" transform="translate(-235.22 -18.22)"/><path class="cls-104" d="M324,42.48c-.42.44-1,.16-1.44.24C323,42.28,323.56,42.56,324,42.48Z" transform="translate(-235.22 -18.22)"/><path class="cls-104" d="M325.48,42.24c-.42.44-1,.16-1.44.24C324.46,42,325,42.32,325.48,42.24Z" transform="translate(-235.22 -18.22)"/><path class="cls-104" d="M313.72,44.16c-.42.44-1,.16-1.44.24C312.7,44,313.24,44.24,313.72,44.16Z" transform="translate(-235.22 -18.22)"/><path class="cls-104" d="M312,44.4c-.42.44-1,.16-1.44.24C311,44.2,311.56,44.48,312,44.4Z" transform="translate(-235.22 -18.22)"/><path class="cls-104" d="M304.6,45.6c-.34.4-.8.18-1.2.24C303.74,45.44,304.2,45.66,304.6,45.6Z" transform="translate(-235.22 -18.22)"/><path class="cls-104" d="M303.16,45.84c-.34.4-.8.18-1.2.24C302.3,45.68,302.76,45.9,303.16,45.84Z" transform="translate(-235.22 -18.22)"/><path class="cls-104" d="M314.92,43.92c-.34.4-.8.18-1.2.24C314.06,43.76,314.52,44,314.92,43.92Z" transform="translate(-235.22 -18.22)"/><path class="cls-104" d="M320.92,43c-.34.4-.8.18-1.2.24C320.06,42.8,320.52,43,320.92,43Z" transform="translate(-235.22 -18.22)"/><path class="cls-104" d="M316.36,43.68c-.34.4-.8.18-1.2.24C315.5,43.52,316,43.74,316.36,43.68Z" transform="translate(-235.22 -18.22)"/><path class="cls-104" d="M322.12,42.72c-.34.4-.8.18-1.2.24C321.26,42.56,321.72,42.78,322.12,42.72Z" transform="translate(-235.22 -18.22)"/><path class="cls-145" d="M282.26,47a.76.76,0,0,1-.21,0,19.83,19.83,0,0,1-8.4-.07.49.49,0,0,1,0-.64h0l.23,0a62,62,0,0,1,8.4,0c0,.08,0,.16,0,.24Z" transform="translate(-235.22 -18.22)"/><path class="cls-146" d="M279.64,39.84l.92-.54a11.89,11.89,0,0,0,3.42.15c.5,0,1-.05,1.27.42a1.08,1.08,0,0,1-.55.7c-1.6.6-3.25.3-4.89.22a.41.41,0,0,1-.41-.48Z" transform="translate(-235.22 -18.22)"/><path class="cls-147" d="M285.25,39.87c-1.06-.35-2.13.1-3.19,0-.57-.06-1.13,0-1.5-.55l0-.22.7-.51a24.25,24.25,0,0,0,4.74.21c.3.25.1.43-.1.6Z" transform="translate(-235.22 -18.22)"/><path class="cls-148" d="M285.93,39.38l.28-.46c-.06-.46.44-.3.58-.54a.55.55,0,0,1,.22,0c1.33,0,2.55-.76,3.91-.45.4-.16.8-.34,1.2,0a8.59,8.59,0,0,1-3.19.66,2.4,2.4,0,0,0-1.37.54A2.43,2.43,0,0,1,285.93,39.38Z" transform="translate(-235.22 -18.22)"/><path class="cls-149" d="M279.4,40.31c1.05.52,2.18.15,3.27.24.67.06,1.35,0,2,0a1,1,0,0,1,0,.24h-.2a1.55,1.55,0,0,1-1.15.54c-1.19,0-2.38,0-3.57,0-.38,0-.83,0-.88-.57A.83.83,0,0,1,279.4,40.31Z" transform="translate(-235.22 -18.22)"/><path class="cls-57" d="M302.44,50.4a25.54,25.54,0,0,1,5-.92c1.22-.09,2.34-.78,3.6-.52-.47.83-1.42.64-2,.63-1.89,0-3.59.91-5.47.9C303.19,50.49,302.82,50.42,302.44,50.4Z" transform="translate(-235.22 -18.22)"/><path class="cls-150" d="M278.9,40.78a13.38,13.38,0,0,0,5.6,0l-.28.7-.21,0c-1.69.6-3.42.28-5.13.22a.45.45,0,0,1-.48-.54Z" transform="translate(-235.22 -18.22)"/><path class="cls-97" d="M317.8,38.4a1.4,1.4,0,0,1-1.17.48,31.72,31.72,0,0,0-4.54.8c-2,.3-4,.41-6,.86-1.45.33-2.93.5-4.4.74-1.67.7-3.48.69-5.22,1.06-2,.43-4.05.73-6.07,1a57.61,57.61,0,0,1-7.39,1,.48.48,0,0,1-.14-.56l.13-.16c1.62-.14,3.19-.59,4.79-.8,1.89-.26,3.75-.61,5.64-.89,2.25-.33,4.49-.75,6.74-1.08s4.63-.68,6.93-1.11c1.54-.3,3.09-.49,4.63-.79,1.77-.35,3.59-.6,5.4-.85A.6.6,0,0,1,317.8,38.4Z" transform="translate(-235.22 -18.22)"/><path class="cls-151" d="M306.52,38.88a3.18,3.18,0,0,1-2.09.49,2,2,0,0,0-1.27.47c-3.51.58-7,1.12-10.54,1.73-2.29.41-4.59.87-6.9,1.13-.78.08-1.51.59-2.33.23a.53.53,0,0,1,0-.46.44.44,0,0,1,.39-.23l8.35-1.44c2.2.16,4.28-.63,6.44-.82C301.23,39.74,303.81,38.79,306.52,38.88Z" transform="translate(-235.22 -18.22)"/><path class="cls-152" d="M283.5,42.48c0,.15-.07.3-.11.45l-.39.51a1.43,1.43,0,0,1-1,.33c-1.54,0-3.08,0-4.62,0-.39,0-1.06.09-.86-.72l.68-.58A44,44,0,0,1,283.5,42.48Z" transform="translate(-235.22 -18.22)"/><path class="cls-153" d="M276.53,43c.17.64.7.4,1.09.41,1.79,0,3.58,0,5.38,0l0,.25-.08,0a.94.94,0,0,1-.95.58c-1.73,0-3.47.07-5.2,0-.34,0-.74,0-.76-.55.07-.16.14-.32.2-.48Z" transform="translate(-235.22 -18.22)"/><path class="cls-98" d="M301.48,41.76c1.22.21,2.32-.4,3.48-.56,4.18-.58,8.32-1.44,12.52-1.87a4.72,4.72,0,0,0,.8-.21c.25.27.59,0,.85.13l.11.11c-1.09.74-2.39.42-3.57.67-2.16.47-4.36.76-6.53,1.17-3.41.66-6.91.9-10.32,1.56-3,.58-6.09,1-9.11,1.52-2.26.42-4.52.8-6.78,1.18a1.8,1.8,0,0,1-.58-.11l-.08-.19a.78.78,0,0,1,.53-.58c2.42-.4,4.85-.79,7.26-1.2,3.39-.58,6.8-1.06,10.18-1.73C300.67,41.57,301.09,41.43,301.48,41.76Z" transform="translate(-235.22 -18.22)"/><path class="cls-154" d="M282.28,46.32a3.57,3.57,0,0,1-2,.23q-2.64,0-5.28,0c-.38,0-.81.14-1.13-.23l.72-1c2,.26,4.06.06,6.09.12a2.28,2.28,0,0,1,1.59.36Z" transform="translate(-235.22 -18.22)"/><path class="cls-155" d="M282.28,45.84c-2.21,0-4.43,0-6.64,0-.39,0-.92.2-1-.47v-.24l.46-.27c2-.14,4.07-.05,6.1-.05.45,0,.89.06,1.1.56h.09C282.33,45.51,282.31,45.68,282.28,45.84Z" transform="translate(-235.22 -18.22)"/><path class="cls-98" d="M320,38.88l-.24.48h-.48c-.13-.13-.38-.21-.24-.48Z" transform="translate(-235.22 -18.22)"/><path class="cls-156" d="M283.5,42.48a15.5,15.5,0,0,1-6.29,0,1.79,1.79,0,0,0,0-.23c.24-.16.47-.33.7-.5,1.52.09,3,0,4.56.06.42,0,.89-.12,1.25.24a.85.85,0,0,1,0,.23Z" transform="translate(-235.22 -18.22)"/><path class="cls-157" d="M283.74,42H279c-.38,0-.8.11-1.08-.29l.24-.44.23-.05c.4.5,1,.28,1.44.29,1.39,0,2.78,0,4.17,0Z" transform="translate(-235.22 -18.22)"/><path class="cls-102" d="M292.12,37.92h-1.2c1.12-1,2.55-.74,3.83-.91,2.43-.33,4.86-.73,7.26-1.13,2.15-.35,4.35-.61,6.48-1.17a5.5,5.5,0,0,1,2.59-.15,17.6,17.6,0,0,1-5.48,1.29A63,63,0,0,1,297.88,37c-.75.42-1.66,0-2.4.48-.94.27-1.94.19-2.88.48Z" transform="translate(-235.22 -18.22)"/><path class="cls-148" d="M295.48,37.44c.68-.75,1.59-.39,2.4-.48C297.2,37.71,296.29,37.35,295.48,37.44Z" transform="translate(-235.22 -18.22)"/><path class="cls-148" d="M292.6,37.92a5.1,5.1,0,0,1,2.88-.48A5.1,5.1,0,0,1,292.6,37.92Z" transform="translate(-235.22 -18.22)"/><path class="cls-158" d="M276,43.68c.56.47,1.23.25,1.83.22,1.69-.07,3.41.31,5.08-.23,0,.15,0,.3,0,.44a.78.78,0,0,1-.33.53c-.41.35-.91.23-1.37.24-1.56,0-3.11,0-4.67,0-.44,0-.89,0-1.11-.49a.26.26,0,0,0,0-.21Z" transform="translate(-235.22 -18.22)"/><path class="cls-144" d="M281.81,50.89v.47a1.33,1.33,0,0,1-1,.32c-2.16-.13-4.29.33-6.44.25-.81,0-1.58.18-2.38.22a1.71,1.71,0,0,1-1.46-.31l.24-.72H271a14.47,14.47,0,0,1,3.53-.33c1.94.13,3.86-.35,5.8-.24a2.11,2.11,0,0,1,1.47.32Z" transform="translate(-235.22 -18.22)"/><path class="cls-159" d="M270.52,51.84c3.76-.14,7.5-.57,11.28-.48v.24a1.57,1.57,0,0,1-1.26.56c-2.84,0-5.68.26-8.52.41-.55,0-1.38.41-1.74-.49Z" transform="translate(-235.22 -18.22)"/><path class="cls-160" d="M270.28,52.08c.55.51,1.26.22,1.81.19,2.84-.2,5.69-.42,8.55-.44a6.1,6.1,0,0,0,1.16-.23c0,.32,0,.64,0,1h0a.61.61,0,0,1-.41.13,4.14,4.14,0,0,0-2.12-.23,64.62,64.62,0,0,1-8.11.43c-.53,0-1.06,0-1.35-.57l.23-.24Z" transform="translate(-235.22 -18.22)"/><path class="cls-161" d="M286.79,38.38l-.58.54a17.45,17.45,0,0,1-4.51.12c-.34,0-.36-.24-.4-.47l1-.69c.45.5,1.05.24,1.58.27A10.48,10.48,0,0,1,286.79,38.38Z" transform="translate(-235.22 -18.22)"/><path class="cls-116" d="M311.56,46.56h-.24a1.37,1.37,0,0,1-1.2,0,10.16,10.16,0,0,1,4.08-.72l0,.19C313.41,46.55,312.43,46.31,311.56,46.56Z" transform="translate(-235.22 -18.22)"/><path class="cls-116" d="M318,45.6h-.48a3.9,3.9,0,0,1-1.52.11l-.16-.11a4.65,4.65,0,0,1,2.64-.48Z" transform="translate(-235.22 -18.22)"/><path class="cls-91" d="M310.12,46.56h1.2a4.65,4.65,0,0,1-2.64.48c.28-.46.92,0,1.2-.48Z" transform="translate(-235.22 -18.22)"/><path class="cls-116" d="M314.2,45.84c.51-.46,1.12-.15,1.68-.24h0c-.48.61-1.08.45-1.68.24Z" transform="translate(-235.22 -18.22)"/><path class="cls-162" d="M275.49,44.37a4.4,4.4,0,0,0,2.43.24c1.61,0,3.24.3,4.83-.21.15.17.17.33,0,.47s-.31.33-.46.49c-1.7-.53-3.45-.09-5.16-.25-.68-.06-1.42.27-2-.26Z" transform="translate(-235.22 -18.22)"/><path class="cls-163" d="M281.79,53.28c-.29.49-.55.82-1.29.61a4.57,4.57,0,0,0-2.35-.08,25.57,25.57,0,0,1-7,.4c-.86,0-1.68.69-2.57.13a.41.41,0,0,1-.24-.34l.48-.48h.24a29.36,29.36,0,0,1,5.13-.34c2.15,0,4.3-.25,6.44-.38a1.53,1.53,0,0,1,1.14.24Z" transform="translate(-235.22 -18.22)"/><path class="cls-164" d="M281.8,48a7.94,7.94,0,0,1-2.89.44c-1.82.14-3.66,0-5.5,0a.81.81,0,0,1-.75-.26.78.78,0,0,0,0-.22l.28-.25c2.67-.19,5.35,0,8-.07A1.06,1.06,0,0,1,281.8,48Z" transform="translate(-235.22 -18.22)"/><path class="cls-165" d="M269.81,52.32a17.54,17.54,0,0,0,5.46.13c1.7-.1,3.4-.23,5.1-.38.5,0,.82.28,1.19.49-.35.7-1.06.44-1.54.44-2.68,0-5.33.42-8,.28a4.52,4.52,0,0,0-1.41.15c-.38.1-.9.28-1-.39V52.8A.53.53,0,0,0,269.81,52.32Z" transform="translate(-235.22 -18.22)"/><path class="cls-166" d="M281.8,49.68v.71a1,1,0,0,1-.66.24c-3,0-6,.31-9,.33A1.09,1.09,0,0,1,271,50.4h0a1.64,1.64,0,0,1,0-.23.44.44,0,0,0,.46-.49h.23c.62.46,1.24,0,1.86,0Z" transform="translate(-235.22 -18.22)"/><path class="cls-167" d="M281.8,49.68c-1.44.45-2.91.15-4.37.24-1.65.1-3.32-.21-5,.19-.38.09-.6-.13-.75-.44a.48.48,0,0,1,.24-.47.45.45,0,0,0,.56.46c3.08-.49,6.19-.09,9.28-.22Z" transform="translate(-235.22 -18.22)"/><path class="cls-168" d="M282.72,44.87l0-.47c.07-.1.15-.19.22-.28,1.72-.28,3.46-.44,5.18-.76s3.49-.57,5.23-.86c2.34-.4,4.72-.59,7-1.19a6.33,6.33,0,0,1,1.31,0l-.24.48c-2.64.4-5.28.88-7.91,1.33-1.9.32-3.82.6-5.73.85C286.12,44.16,284.42,44.55,282.72,44.87Z" transform="translate(-235.22 -18.22)"/><path class="cls-98" d="M319,38.88l.24.48c-.33,0-.71.11-1-.24Z" transform="translate(-235.22 -18.22)"/><path class="cls-169" d="M281.8,48c-2.55,0-5.1,0-7.65,0-.42,0-.89.16-1.24-.24v-.24a1.47,1.47,0,0,1,.4-.24c2.56,0,5.13,0,7.69,0a1.42,1.42,0,0,1,1,.24V48Z" transform="translate(-235.22 -18.22)"/><path class="cls-170" d="M273.13,47.51h-.21c-.24-.95-.81-.11-1.2-.23-.25-.35-.63-.21-1-.24a9.94,9.94,0,0,1,2.9-.71c0,.15,0,.3-.05.46C273.61,47.14,273.37,47.32,273.13,47.51Z" transform="translate(-235.22 -18.22)"/><path class="cls-171" d="M269.56,53c.68.63,1.36,0,2,0,3,.15,6-.4,9-.23.34,0,.73.11,1-.23h.24c0,.08,0,.16,0,.24l0,.24a101.06,101.06,0,0,1-10.44.49c-.75,0-1.51.56-2.27,0Z" transform="translate(-235.22 -18.22)"/><path class="cls-172" d="M271,50.4a11.59,11.59,0,0,0,4.83.18c2-.21,4-.09,5.94-.19v.48c-3.26.06-6.52.15-9.77.48a1.78,1.78,0,0,1-1-.23Z" transform="translate(-235.22 -18.22)"/><path class="cls-170" d="M267.64,47.52a14.13,14.13,0,0,1-4.32.72A11.19,11.19,0,0,1,267.64,47.52Z" transform="translate(-235.22 -18.22)"/><path class="cls-170" d="M270.28,47a3.48,3.48,0,0,1-2.4.48C268.56,46.77,269.47,47.13,270.28,47Z" transform="translate(-235.22 -18.22)"/><path class="cls-91" d="M314.2,45.84c.56-.09,1.17.22,1.68-.24h1.68a23.06,23.06,0,0,1-6,1C312.37,46.08,313.43,46.47,314.2,45.84Z" transform="translate(-235.22 -18.22)"/><path class="cls-173" d="M455.32,50.88h-1.23a3.72,3.72,0,0,0,.05-2.78,3.49,3.49,0,0,1,1.64-.05c.45.1,1,.47.68.89-.6.83-.06,1.26.38,1.81-.39.3-.7,0-1-.12C455.45,50.31,455.36,50.56,455.32,50.88Z" transform="translate(-235.22 -18.22)"/><path class="cls-174" d="M455.32,50.88c-.08-.38-.55-.7-.15-1.16.37.2.46.59.64.91Z" transform="translate(-235.22 -18.22)"/><path class="cls-175" d="M273.13,47.51a.88.88,0,0,1,.48-.72,2.91,2.91,0,0,0,1.62.25h6.82c0,.16,0,.32,0,.48Z" transform="translate(-235.22 -18.22)"/><path class="cls-176" d="M455.77,48.87c0,.28-.16.51-.42.52-.42,0-.33-.35-.33-.6s0-.51.38-.42A.5.5,0,0,1,455.77,48.87Z" transform="translate(-235.22 -18.22)"/></svg>