<?xml version="1.0" encoding="utf-8"?>
<!-- Generator: Adobe Illustrator 16.0.0, SVG Export Plug-In . SVG Version: 6.00 Build 0)  -->
<!DOCTYPE svg PUBLIC "-//W3C//DTD SVG 1.1//EN" "http://www.w3.org/Graphics/SVG/1.1/DTD/svg11.dtd">
<svg version="1.1" id="Layer_1" xmlns="http://www.w3.org/2000/svg" xmlns:xlink="http://www.w3.org/1999/xlink" x="0px" y="0px"
	 width="439px" height="155px" viewBox="0 0 439 155" enable-background="new 0 0 439 155" xml:space="preserve">
<g>
	<path fill-rule="evenodd" clip-rule="evenodd" fill="#2C409A" d="M112.09,41.188c6.312-4.244,13.945-4.849,21.488-4.962
		c17.152-0.263,19.808-0.14,36.967-0.179c2.34-0.005,2.955,3.864,5.637,4.119c1.057,0.099,2.266,0.354,6.347-0.045
		c2.337-0.229,1.581,2.193,1.812,2.58c0.239,0.395-5.592,5.188-5.174,6.122c0.321,0.717,2.389,1.557,4.697,1.723
		c1.328,0.094-0.203,2.562,1.047,3.062c6.963,2.793,8.896,2.386,8.932,2.796c1.56,18.116,2.051,25.484,3.489,43.607
		c0.73,9.203,1.5,18.405,2.153,27.612c0.324,4.568-1.662,6.206-7.457,6.209c-15.266,0.009-30.529-0.073-45.795-0.052
		c-3.542,0.006-7.108,0.122-10.617,0.476c-3.807,0.383-11.463,1.396-13.802,4.356c-1.102,1.398-3.999,2.46-6.193,2.608
		c-5.403,0.366-3.241,0.216-8.677,0.052c-1.518-0.047-3.668-0.506-4.386-1.382c-4.772-5.806-15.311-6.129-22.779-6.127
		c-15.502,0.003-31.003,0.046-46.505,0.062c-7.657,0.009-9.138-1.259-8.638-7.434c2.174-26.85,4.352-53.699,6.568-80.546
		c0.082-1.009,0.228-2.306,1.008-2.925c1.914-1.515,3.285-2.976,3.424-5.303c0.035-0.568,2.758-1.464,4.255-1.477
		c12.78-0.122,25.562-0.116,38.341-0.051c5.791,0.03,11.591,0.154,17.368,0.465C101.549,36.879,107.283,37.924,112.09,41.188z"/>
	<path fill="#FFFFFF" stroke="#2C409A" stroke-miterlimit="10" d="M109.25,39.477c6.31-4.246,13.943-4.849,21.484-4.964
		c17.156-0.261,19.811-0.138,36.969-0.179c2.342-0.004,2.955,3.866,5.638,4.119c1.056,0.101,2.265,0.355,6.347-0.043
		c2.334-0.229,1.58,2.192,1.812,2.579c0.236,0.395-5.595,5.188-5.177,6.122c0.323,0.718,2.391,1.555,4.699,1.721
		c1.326,0.096-0.205,2.562,1.046,3.064c6.965,2.794,8.896,2.387,8.932,2.794c1.558,18.118,2.052,25.486,3.49,43.61
		c0.73,9.202,1.498,18.404,2.152,27.612c0.326,4.567-1.662,6.205-7.457,6.209c-15.265,0.006-30.528-0.074-45.794-0.051
		c-3.542,0.004-7.108,0.121-10.616,0.475c-3.811,0.382-11.467,1.395-13.803,4.356c-1.104,1.397-3.998,2.459-6.193,2.607
		c-5.404,0.365-3.242,0.216-8.678,0.052c-1.516-0.046-3.668-0.506-4.387-1.381c-4.77-5.807-15.31-6.131-22.776-6.129
		c-15.502,0.003-31.005,0.048-46.505,0.065c-7.658,0.008-9.138-1.262-8.64-7.436c2.172-26.85,4.352-53.698,6.57-80.546
		c0.082-1.008,0.109-2.272,0.156-3.153c0.174-3.369,0.711-6.175,4.417-6.648c0.752-0.094,2.579-0.011,4.077-0.025
		c12.779-0.119,25.596,0.008,38.375,0.072c5.793,0.03,11.592,0.154,17.368,0.466C98.705,35.166,104.443,36.211,109.25,39.477z"/>
	<path fill="#FFFFFF" d="M185.311,129.017c-8.598-2.885-5.096-17.062-5.096-17.062s-48.918,0.228-58.719,1.17
		c-9.496,0.911-12.147,7.864-12.306,8.295c-0.153-0.431-2.808-7.384-12.301-8.295c-9.803-0.942-58.721-1.17-58.721-1.17
		s3.502,14.178-5.095,17.062c-8.6,2.888,51.386-3.438,60.242,1.573c8.843,5.005,11.59,5.618,15.867,5.648l0,0
		c0.002,0,0.005,0,0.007,0c0.005,0,0.007,0,0.009,0h0.002c4.276-0.03,7.024-0.644,15.868-5.648
		C133.922,125.578,193.908,131.904,185.311,129.017z"/>
	<g>
		<path fill="none" stroke="#2C409A" stroke-linecap="round" stroke-linejoin="round" stroke-miterlimit="10" d="M109.297,134.036
			c0,0-0.49-11.507,25.146-10.855c25.638,0.652,61.922,0,61.922,0"/>
		<path fill="none" stroke="#2C409A" stroke-linecap="round" stroke-linejoin="round" stroke-miterlimit="10" d="M109.086,134.036
			c0,0,0.491-11.507-25.146-10.855c-25.638,0.652-62.022-0.026-62.022-0.026"/>
	</g>
	<g>
		<path fill="none" stroke="#2C409A" stroke-linecap="round" stroke-linejoin="round" stroke-miterlimit="10" d="M109.297,137.1
			c0,0-0.49-11.507,25.146-10.854c25.638,0.652,61.922,0,61.922,0"/>
		<path fill="none" stroke="#2C409A" stroke-linecap="round" stroke-linejoin="round" stroke-miterlimit="10" d="M109.086,137.1
			c0,0,0.491-11.507-25.146-10.854s-62.022-0.027-62.022-0.027"/>
	</g>
	<g>
		<path fill="none" stroke="#2C409A" stroke-linecap="round" stroke-linejoin="round" stroke-miterlimit="10" d="M109.297,127.907
			c0,0-0.49-11.507,25.146-10.854c25.638,0.652,60.831,0,60.831,0"/>
		<path fill="none" stroke="#2C409A" stroke-linecap="round" stroke-linejoin="round" stroke-miterlimit="10" d="M109.086,127.907
			c0,0,0.491-11.507-25.146-10.854s-60.831,0-60.831,0"/>
	</g>
	<g>
		<path fill="none" stroke="#2C409A" stroke-linecap="round" stroke-linejoin="round" stroke-miterlimit="10" d="M109.297,130.972
			c0,0-0.49-11.507,25.146-10.854c25.638,0.652,61.922,0,61.922,0"/>
		<path fill="none" stroke="#2C409A" stroke-linecap="round" stroke-linejoin="round" stroke-miterlimit="10" d="M109.086,130.972
			c0,0,0.491-11.507-25.146-10.854s-61.072-0.027-61.072-0.027"/>
	</g>
	<g>
		<path fill="none" stroke="#2C409A" stroke-linecap="round" stroke-linejoin="round" stroke-miterlimit="10" d="M109.297,140.164
			c0,0-0.49-11.507,25.146-10.854c25.638,0.652,61.922,0,61.922,0"/>
		<path fill="none" stroke="#2C409A" stroke-linecap="round" stroke-linejoin="round" stroke-miterlimit="10" d="M109.086,140.164
			c0,0,0.491-11.507-25.146-10.854s-61.851-0.027-61.851-0.027"/>
	</g>
	
		<line fill="none" stroke="#2C409A" stroke-linecap="round" stroke-linejoin="round" stroke-miterlimit="10" x1="109.087" y1="125.53" x2="109.087" y2="140.164"/>
	<path fill="#FFFFFF" stroke="#2C409A" stroke-width="0.75" stroke-linejoin="round" stroke-miterlimit="10" d="M109.186,39.477
		c0,0-20.94-20.87-66.56-15.598c-0.145,25.092-4.02,83.276-4.02,83.276s44.184-12.545,70.65,13.44
		C109.099,90.609,109.186,39.477,109.186,39.477z"/>
	<path fill="#FFFFFF" stroke="#2C409A" stroke-width="0.75" stroke-linejoin="round" stroke-miterlimit="10" d="M109.186,39.477
		c0,0-12.582-30.689-56.679-30.689c-0.145,25.093,0,86.676,0,86.676s31.451-8.157,56.75,25.133
		C109.099,90.609,109.186,39.477,109.186,39.477z"/>
</g>
<g>
	<g>
		<path fill="#2C409A" d="M220.287,56.138V39.902h-2.708v-2.708h8.764v2.708h-2.786v16.235h2.49v2.709h-8.468v-2.709H220.287z
			 M223.665,47.413l6.942-7.511h-2.475v-2.708h8.483v2.708h-2.304l-6.666,7.511l6.854,8.725h2.318v2.709h-8.795v-2.709h2.336
			L223.665,47.413z"/>
		<path fill="#2C409A" d="M252.832,51.234h-7.801l-1.656,4.903h2.631v2.709h-8.53v-2.709h2.62l5.912-16.5h-2.617v-2.443h11.067
			v2.443h-2.706l6.059,16.5h2.423v2.709h-8.483v-2.709h2.693L252.832,51.234z M252.016,48.697l-2.881-9.06h-0.296l-2.999,9.06
			H252.016z"/>
		<path fill="#2C409A" d="M264.035,56.138V39.902h-3.098v-2.708h7.391l9.498,16.831V39.902h-3.066v-2.708h8.889v2.708h-3.191v19.162
			h-3.355l-10.39-18.48v15.554h3.098v2.709h-8.872v-2.709H264.035z"/>
		<path fill="#2C409A" d="M284.814,58.847v-7.861h2.709V52.9c1.297,2.355,2.994,3.533,5.09,3.533c1.068,0,1.971-0.326,2.709-0.98
			c0.736-0.653,1.105-1.51,1.105-2.568c0-1.027-0.303-1.767-0.904-2.218c-0.602-0.452-1.738-0.9-3.408-1.347
			c-1.941-0.519-3.377-1.009-4.312-1.471c-0.934-0.462-1.679-1.121-2.233-1.978c-0.556-0.855-0.833-1.87-0.833-3.043
			c0-1.815,0.604-3.267,1.813-4.351s2.727-1.627,4.553-1.627c1.732,0,3.342,0.561,4.826,1.682v-1.448h2.645v6.569h-2.645v-1.51
			c-1.111-1.671-2.643-2.507-4.594-2.507c-1.182,0-2.09,0.272-2.723,0.817s-0.949,1.196-0.949,1.954c0,0.581,0.16,1.092,0.482,1.533
			c0.321,0.44,0.731,0.765,1.229,0.973c0.497,0.208,1.478,0.498,2.942,0.87c1.91,0.497,3.295,0.961,4.156,1.392
			s1.604,1.149,2.225,2.156c0.623,1.007,0.934,2.164,0.934,3.472c0,1.849-0.65,3.374-1.953,4.578s-2.914,1.807-4.832,1.807
			c-1.973,0-3.746-0.711-5.324-2.133v1.79H284.814z"/>
		<path fill="#2C409A" d="M315.738,51.234h-7.801l-1.656,4.903h2.631v2.709h-8.531v-2.709h2.621l5.91-16.5h-2.615v-2.443h11.066
			v2.443h-2.705l6.059,16.5h2.422v2.709h-8.482v-2.709h2.691L315.738,51.234z M314.922,48.697l-2.881-9.06h-0.297l-3,9.06H314.922z"
			/>
		<path fill="#2C409A" d="M324.793,58.847v-7.861h2.707V52.9c1.297,2.355,2.994,3.533,5.092,3.533c1.068,0,1.971-0.326,2.707-0.98
			c0.736-0.653,1.105-1.51,1.105-2.568c0-1.027-0.301-1.767-0.902-2.218c-0.602-0.452-1.738-0.9-3.41-1.347
			c-1.939-0.519-3.377-1.009-4.311-1.471s-1.68-1.121-2.234-1.978c-0.555-0.855-0.832-1.87-0.832-3.043
			c0-1.815,0.604-3.267,1.812-4.351s2.727-1.627,4.553-1.627c1.734,0,3.342,0.561,4.826,1.682v-1.448h2.646v6.569h-2.646v-1.51
			c-1.111-1.671-2.641-2.507-4.592-2.507c-1.184,0-2.092,0.272-2.725,0.817s-0.949,1.196-0.949,1.954
			c0,0.581,0.16,1.092,0.482,1.533c0.322,0.44,0.732,0.765,1.23,0.973s1.479,0.498,2.941,0.87c1.91,0.497,3.295,0.961,4.156,1.392
			s1.604,1.149,2.227,2.156s0.934,2.164,0.934,3.472c0,1.849-0.652,3.374-1.953,4.578c-1.303,1.204-2.914,1.807-4.834,1.807
			c-1.971,0-3.746-0.711-5.324-2.133v1.79H324.793z"/>
		<path fill="#2C409A" d="M232.111,85.631h-7.801l-1.657,4.903h2.631v2.709h-8.53v-2.709h2.62l5.911-16.5h-2.616v-2.443h11.067
			v2.443h-2.707l6.061,16.5h2.422v2.709h-8.484v-2.709h2.693L232.111,85.631z M231.295,83.094l-2.882-9.06h-0.296l-3,9.06H231.295z"
			/>
		<path fill="#2C409A" d="M241.164,93.243v-7.861h2.709v1.915c1.297,2.355,2.994,3.533,5.09,3.533c1.069,0,1.973-0.326,2.709-0.98
			c0.736-0.653,1.105-1.51,1.105-2.568c0-1.027-0.301-1.767-0.902-2.218c-0.603-0.452-1.739-0.9-3.41-1.347
			c-1.94-0.519-3.377-1.009-4.312-1.471c-0.934-0.462-1.679-1.121-2.233-1.978c-0.556-0.855-0.833-1.87-0.833-3.043
			c0-1.815,0.604-3.267,1.813-4.351s2.727-1.627,4.553-1.627c1.733,0,3.342,0.561,4.826,1.682v-1.448h2.646v6.569h-2.646v-1.51
			c-1.111-1.671-2.642-2.507-4.592-2.507c-1.184,0-2.092,0.272-2.725,0.817s-0.949,1.196-0.949,1.954
			c0,0.581,0.16,1.092,0.482,1.533c0.321,0.44,0.731,0.765,1.229,0.973s1.479,0.498,2.942,0.87c1.91,0.497,3.295,0.961,4.156,1.392
			s1.604,1.149,2.226,2.156s0.935,2.164,0.935,3.472c0,1.849-0.652,3.374-1.954,4.578c-1.303,1.204-2.913,1.807-4.833,1.807
			c-1.973,0-3.746-0.711-5.324-2.133v1.79H241.164z"/>
		<path fill="#2C409A" d="M258.882,93.243v-7.861h2.708v1.915c1.298,2.355,2.994,3.533,5.091,3.533c1.069,0,1.972-0.326,2.708-0.98
			c0.737-0.653,1.105-1.51,1.105-2.568c0-1.027-0.301-1.767-0.902-2.218c-0.602-0.452-1.738-0.9-3.409-1.347
			c-1.94-0.519-3.378-1.009-4.312-1.471s-1.68-1.121-2.234-1.978c-0.555-0.855-0.832-1.87-0.832-3.043
			c0-1.815,0.604-3.267,1.812-4.351s2.727-1.627,4.554-1.627c1.733,0,3.341,0.561,4.825,1.682v-1.448h2.646v6.569h-2.646v-1.51
			c-1.11-1.671-2.641-2.507-4.592-2.507c-1.184,0-2.092,0.272-2.725,0.817s-0.949,1.196-0.949,1.954
			c0,0.581,0.161,1.092,0.482,1.533c0.322,0.44,0.732,0.765,1.23,0.973s1.479,0.498,2.941,0.87c1.91,0.497,3.296,0.961,4.157,1.392
			c0.86,0.431,1.603,1.149,2.226,2.156c0.622,1.007,0.934,2.164,0.934,3.472c0,1.849-0.651,3.374-1.953,4.578
			c-1.303,1.204-2.914,1.807-4.834,1.807c-1.972,0-3.746-0.711-5.324-2.133v1.79H258.882z"/>
		<path fill="#2C409A" d="M279.168,90.534V74.299h-2.802v-2.708h17.995v6.522h-2.678v-3.814h-9.246v6.444h8.047v2.709h-8.047v7.082
			h9.246v-3.938h2.678v6.646h-17.995v-2.709H279.168z"/>
		<path fill="#2C409A" d="M297.32,93.243v-7.861h2.709v1.915c1.297,2.355,2.994,3.533,5.09,3.533c1.068,0,1.971-0.326,2.709-0.98
			c0.736-0.653,1.105-1.51,1.105-2.568c0-1.027-0.303-1.767-0.904-2.218c-0.602-0.452-1.738-0.9-3.408-1.347
			c-1.941-0.519-3.377-1.009-4.312-1.471c-0.934-0.462-1.678-1.121-2.232-1.978c-0.557-0.855-0.834-1.87-0.834-3.043
			c0-1.815,0.605-3.267,1.814-4.351s2.727-1.627,4.553-1.627c1.732,0,3.342,0.561,4.826,1.682v-1.448h2.645v6.569h-2.645v-1.51
			c-1.111-1.671-2.643-2.507-4.594-2.507c-1.182,0-2.09,0.272-2.723,0.817s-0.949,1.196-0.949,1.954c0,0.581,0.16,1.092,0.482,1.533
			c0.32,0.44,0.73,0.765,1.229,0.973s1.479,0.498,2.943,0.87c1.91,0.497,3.295,0.961,4.156,1.392s1.604,1.149,2.225,2.156
			c0.623,1.007,0.934,2.164,0.934,3.472c0,1.849-0.65,3.374-1.953,4.578s-2.914,1.807-4.832,1.807c-1.973,0-3.748-0.711-5.324-2.133
			v1.79H297.32z"/>
		<path fill="#2C409A" d="M315.039,93.243v-7.861h2.707v1.915c1.297,2.355,2.994,3.533,5.092,3.533c1.068,0,1.971-0.326,2.707-0.98
			c0.736-0.653,1.105-1.51,1.105-2.568c0-1.027-0.301-1.767-0.902-2.218c-0.602-0.452-1.738-0.9-3.41-1.347
			c-1.939-0.519-3.377-1.009-4.311-1.471s-1.68-1.121-2.234-1.978c-0.555-0.855-0.832-1.87-0.832-3.043
			c0-1.815,0.604-3.267,1.812-4.351s2.727-1.627,4.553-1.627c1.734,0,3.342,0.561,4.826,1.682v-1.448h2.646v6.569h-2.646v-1.51
			c-1.111-1.671-2.641-2.507-4.592-2.507c-1.184,0-2.092,0.272-2.725,0.817s-0.949,1.196-0.949,1.954
			c0,0.581,0.16,1.092,0.482,1.533c0.322,0.44,0.732,0.765,1.23,0.973s1.479,0.498,2.941,0.87c1.91,0.497,3.295,0.961,4.156,1.392
			s1.604,1.149,2.227,2.156s0.934,2.164,0.934,3.472c0,1.849-0.652,3.374-1.953,4.578c-1.303,1.204-2.914,1.807-4.834,1.807
			c-1.971,0-3.746-0.711-5.324-2.133v1.79H315.039z"/>
		<path fill="#2C409A" d="M335.027,90.534V74.299h-2.6v-2.708h7.41l5.697,14.842l5.76-14.842h7.486v2.708h-2.615v16.235h2.615v2.709
			h-8.156v-2.709h2.584V74.299l-7.473,19.162H345.1l-7.395-19.162v16.235h2.381v2.709h-7.658v-2.709H335.027z"/>
		<path fill="#2C409A" d="M364.016,90.534V74.299h-2.803v-2.708h17.994v6.522h-2.678v-3.814h-9.246v6.444h8.049v2.709h-8.049v7.082
			h9.246v-3.938h2.678v6.646h-17.994v-2.709H364.016z"/>
		<path fill="#2C409A" d="M384.316,90.534V74.299h-3.098v-2.708h7.391l9.498,16.831V74.299h-3.066v-2.708h8.889v2.708h-3.191v19.162
			h-3.355l-10.389-18.48v15.554h3.098v2.709h-8.873v-2.709H384.316z"/>
		<path fill="#2C409A" d="M412.307,90.534V74.299h-4.467v5.526h-2.678v-8.234h17.543v8.234h-2.678v-5.526h-4.451v16.235h2.816v2.709
			h-8.855v-2.709H412.307z"/>
		<path fill="#2C409A" d="M220.365,124.931v-16.235h-2.725v-2.708h7.736c2.273,0,3.975,0.161,5.106,0.482
			c1.131,0.321,2.078,1.051,2.841,2.187c0.763,1.137,1.145,2.479,1.145,4.024c0,1.235-0.252,2.343-0.756,3.323
			c-0.503,0.98-1.126,1.704-1.867,2.172c-0.742,0.467-1.578,0.78-2.507,0.941s-2.332,0.241-4.21,0.241h-1.494v5.572h2.801v2.709
			h-8.795v-2.709H220.365z M223.635,116.743h1.867c2.127,0,3.602-0.304,4.421-0.91c0.819-0.607,1.229-1.679,1.229-3.215
			c0-0.976-0.218-1.784-0.653-2.428c-0.437-0.644-0.976-1.054-1.619-1.23c-0.644-0.176-1.718-0.265-3.222-0.265h-2.023V116.743z"/>
		<path fill="#2C409A" d="M239.453,124.931v-16.235h-2.974v-2.708h8.795c1.837,0,3.294,0.143,4.374,0.428
			c1.079,0.286,1.972,0.888,2.678,1.806c0.705,0.919,1.059,2.062,1.059,3.432c0,2.864-1.488,4.665-4.463,5.401l3.824,7.877h2.646
			v2.709h-4.689l-4.931-10.118h-3.051v7.409h2.771v2.709h-9.013v-2.709H239.453z M242.722,114.813h2.553
			c1.235,0,2.146-0.081,2.731-0.241c0.586-0.161,1.066-0.488,1.439-0.981c0.375-0.492,0.561-1.154,0.561-1.984
			c0-0.705-0.189-1.302-0.567-1.79c-0.38-0.487-0.847-0.796-1.401-0.926s-1.403-0.195-2.545-0.195h-2.771V114.813z"/>
		<path fill="#2C409A" d="M257.076,116.712c0-3.145,1.027-5.774,3.082-7.892s4.732-3.176,8.033-3.176
			c3.33,0,6.044,1.059,8.141,3.176c2.096,2.117,3.145,4.769,3.145,7.954c0,3.248-1.066,5.929-3.199,8.04
			c-2.133,2.112-4.844,3.168-8.133,3.168c-2.097,0-4.024-0.501-5.783-1.503c-1.76-1.001-3.08-2.396-3.962-4.187
			S257.076,118.643,257.076,116.712z M260.641,116.728c0,2.377,0.695,4.369,2.086,5.978s3.217,2.413,5.48,2.413
			c2.24,0,4.082-0.822,5.525-2.468c1.442-1.645,2.164-3.608,2.164-5.892c0-2.304-0.734-4.252-2.203-5.845s-3.312-2.39-5.533-2.39
			c-2.211,0-4.017,0.783-5.418,2.351C261.342,112.442,260.641,114.393,260.641,116.728z"/>
		<path fill="#2C409A" d="M296.408,117.194h7.877c0.01,0.28,0.016,0.529,0.016,0.748c0,3.04-0.996,5.474-2.988,7.3
			c-1.992,1.827-4.623,2.74-7.893,2.74c-3.912,0-6.828-1.113-8.748-3.339c-1.92-2.227-2.879-4.859-2.879-7.9
			c0-3.186,0.98-5.832,2.941-7.938s4.623-3.16,7.986-3.16c3.02,0,5.551,0.919,7.596,2.755v-2.412h2.756v7.113h-2.756
			c-0.52-1.193-1.439-2.254-2.764-3.183c-1.322-0.929-2.836-1.394-4.537-1.394c-2.365,0-4.234,0.799-5.604,2.397
			c-1.37,1.598-2.055,3.523-2.055,5.774c0,2.584,0.78,4.634,2.342,6.149c1.562,1.515,3.443,2.272,5.643,2.272
			c1.723,0,3.26-0.48,4.607-1.44c1.35-0.959,2.139-2.218,2.367-3.774h-3.908V117.194z"/>
		<path fill="#2C409A" d="M309.986,124.931v-16.235h-2.975v-2.708h8.795c1.838,0,3.295,0.143,4.375,0.428
			c1.08,0.286,1.971,0.888,2.678,1.806c0.705,0.919,1.059,2.062,1.059,3.432c0,2.864-1.488,4.665-4.463,5.401l3.824,7.877h2.646
			v2.709h-4.689l-4.932-10.118h-3.051v7.409h2.771v2.709h-9.014v-2.709H309.986z M313.254,114.813h2.553
			c1.236,0,2.146-0.081,2.732-0.241c0.586-0.161,1.066-0.488,1.439-0.981c0.375-0.492,0.561-1.154,0.561-1.984
			c0-0.705-0.189-1.302-0.568-1.79c-0.379-0.487-0.846-0.796-1.4-0.926s-1.404-0.195-2.545-0.195h-2.771V114.813z"/>
		<path fill="#2C409A" d="M342.246,120.027h-7.801l-1.656,4.903h2.631v2.709h-8.531v-2.709h2.621l5.91-16.5h-2.615v-2.443h11.066
			v2.443h-2.705l6.059,16.5h2.422v2.709h-8.482v-2.709h2.691L342.246,120.027z M341.43,117.49l-2.881-9.06h-0.297l-3,9.06H341.43z"
			/>
		<path fill="#2C409A" d="M353.572,124.931v-16.235h-2.6v-2.708h7.41l5.697,14.842l5.76-14.842h7.486v2.708h-2.615v16.235h2.615
			v2.709h-8.156v-2.709h2.584v-16.235l-7.473,19.162h-0.637l-7.395-19.162v16.235h2.381v2.709h-7.658v-2.709H353.572z"/>
	</g>
</g>
</svg>
