<?xml version="1.0" encoding="utf-8"?>
<!-- Generator: Adobe Illustrator 21.1.0, SVG Export Plug-In . SVG Version: 6.00 Build 0)  -->
<svg version="1.1" id="Layer_1" xmlns="http://www.w3.org/2000/svg" xmlns:xlink="http://www.w3.org/1999/xlink" x="0px" y="0px"
	 viewBox="0 0 361 125.6" style="enable-background:new 0 0 361 125.6;" xml:space="preserve">
<style type="text/css">
	.st0{fill:#051C35;}
	.st1{fill:#064F88;}
	.st2{fill:#0081C5;}
</style>
<path class="st0" d="M63.7,28.6H56c-2.7,0-4.9-2.2-4.9-4.9v-7.7c0-2.7,2.2-4.9,4.9-4.9h7.7c2.7,0,4.9,2.2,4.9,4.9v7.7
	C68.6,26.4,66.4,28.6,63.7,28.6z"/>
<path class="st1" d="M63.7,49.1H56c-2.7,0-4.9-2.2-4.9-4.9v-7.7c0-2.7,2.2-4.9,4.9-4.9h7.7c2.7,0,4.9,2.2,4.9,4.9v7.7
	C68.6,46.9,66.4,49.1,63.7,49.1z"/>
<path class="st2" d="M63.7,69.5H56c-2.7,0-4.9-2.2-4.9-4.9v-7.7c0-2.7,2.2-4.9,4.9-4.9h7.7c2.7,0,4.9,2.2,4.9,4.9v7.7
	C68.6,67.3,66.4,69.5,63.7,69.5z"/>
<path class="st2" d="M41.5,69.5h-7.7c-2.7,0-4.9-2.2-4.9-4.9v-7.7c0-2.7,2.2-4.9,4.9-4.9h7.7c2.7,0,4.9,2.2,4.9,4.9v7.7
	C46.4,67.3,44.2,69.5,41.5,69.5z"/>
<path class="st1" d="M41.5,49.1h-7.7c-2.7,0-4.9-2.2-4.9-4.9v-7.7c0-2.7,2.2-4.9,4.9-4.9h7.7c2.7,0,4.9,2.2,4.9,4.9v7.7
	C46.4,46.9,44.2,49.1,41.5,49.1z"/>
<path class="st2" d="M19.3,69.5h-7.7c-2.7,0-4.9-2.2-4.9-4.9v-7.7c0-2.7,2.2-4.9,4.9-4.9h7.7c2.7,0,4.9,2.2,4.9,4.9v7.7
	C24.2,67.3,22,69.5,19.3,69.5z"/>
<g>
	<path class="st0" d="M87.7,11.3v58.2h-8.3V11.3H87.7z M89.2,38.3l20.3-27h10.6L97.9,40.2l24.6,29.3h-11l-22.2-27V38.3z"/>
	<path class="st0" d="M134.8,61.1h27.1v8.4h-35.6V11.3h35.5v8.4h-27v16.4h26.4v8.5h-26.4V61.1z"/>
	<path class="st0" d="M178.7,61.1h27.4v8.4h-35.8V11.3h8.4V61.1z"/>
	<path class="st0" d="M232.7,11.2c12.6,0,18.9,9.7,18.9,19.5s-6.3,19.4-18.9,19.4h-12.8v19.4h-8.5V11.2H232.7z M232.7,41.8
		c7.1,0,10.6-5.5,10.6-11c0-5.6-3.5-11.1-10.6-11.1h-12.8v22.1H232.7z"/>
	<path class="st0" d="M285.5,52.4h-20.9c-2.2,5.3-5.2,12.3-7,17.2h-9.1l23.4-59h6.2l23.4,59h-9L285.5,52.4z M267.8,44.5h14.5
		l-7.2-20.6L267.8,44.5z"/>
	<path class="st2" d="M305.5,29.5c1.5-10.5,8.2-19,20.4-19c22.2,0,28.2,24.4,12.4,35.4c-8.3,6.9-10.5,8.4-18.9,15.4h26.9v8.1h-41.1
		V63l27.6-23.5h-0.1c9.2-6.6,7-20.5-6.7-20.5c-7.2,0-11,4.7-12,11.2L305.5,29.5z"/>
</g>
<g>
	<path class="st0" d="M81.4,79.1V93h-2V79.1H81.4z M81.8,85.5l4.9-6.5h2.5L83.8,86l5.9,7h-2.6l-5.3-6.5V85.5z"/>
	<path class="st0" d="M99.3,88.9h-5c-0.5,1.3-1.2,3-1.7,4.1h-2.2L96,78.9h1.5l5.6,14.1h-2.2L99.3,88.9z M95,87h3.5l-1.7-4.9L95,87z"
		/>
	<path class="st0" d="M104.4,93V79l1.6,0l6.8,9.8V79h2v14h-1.6l-6.7-9.8V93H104.4z"/>
	<path class="st0" d="M124.9,82.7c-0.3-1.3-1.6-1.8-2.9-1.8c-0.9,0-2,0.3-2.5,1.1c-0.3,0.4-0.4,0.8-0.3,1.3c0.1,1.4,1.7,1.6,3.2,1.8
		c1.9,0.2,4.3,0.7,4.8,3c0.1,0.3,0.1,0.6,0.1,0.9c0,2.7-2.7,4.2-5.2,4.2c-2.2,0-4.8-1.3-5-3.8l0-0.4l2,0l0,0.3v-0.1
		c0.1,1.3,1.7,2,3,2c1.5,0,3.1-0.8,3.1-2.3c0-0.1,0-0.3-0.1-0.5c-0.2-1.1-1.7-1.2-3.1-1.4c-2.2-0.2-4.7-0.7-4.9-3.6v0
		c-0.1-0.9,0.2-1.9,0.8-2.7c0.9-1.2,2.6-1.9,4.2-1.9c2.2,0,4.4,1.1,4.7,3.7L124.9,82.7z"/>
	<path class="st0" d="M136.7,88.9h-5c-0.5,1.3-1.2,3-1.7,4.1h-2.2l5.6-14.1h1.5l5.6,14.1h-2.2L136.7,88.9z M132.4,87h3.5l-1.7-4.9
		L132.4,87z"/>
	<path class="st0" d="M149,82.7c-0.3-1.3-1.6-1.8-2.9-1.8c-0.9,0-2,0.3-2.5,1.1c-0.3,0.4-0.4,0.8-0.3,1.3c0.1,1.4,1.7,1.6,3.2,1.8
		c1.9,0.2,4.3,0.7,4.8,3c0.1,0.3,0.1,0.6,0.1,0.9c0,2.7-2.7,4.2-5.2,4.2c-2.2,0-4.8-1.3-5-3.8l0-0.4l2,0l0,0.3v-0.1
		c0.1,1.3,1.7,2,3,2c1.5,0,3.1-0.8,3.1-2.3c0-0.1,0-0.3-0.1-0.5c-0.2-1.1-1.7-1.2-3.1-1.4c-2.2-0.2-4.7-0.7-4.9-3.6v0
		c-0.1-0.9,0.2-1.9,0.8-2.7c0.9-1.2,2.6-1.9,4.2-1.9c2.2,0,4.4,1.1,4.7,3.7L149,82.7z"/>
	<path class="st0" d="M160.5,91h6.5v2h-8.5V79.1h8.5v2h-6.5V85h6.3v2h-6.3V91z"/>
	<path class="st0" d="M169.3,93V79l1.6,0l6.8,9.8V79h2v14H178l-6.7-9.8V93H169.3z"/>
	<path class="st0" d="M193.2,84.1c-0.6-2.3-2.7-3.1-4.5-3.1c-2.7,0-4.8,2.1-4.8,5.1c0,3,2.1,5.1,4.8,5.1c1.7,0,3.5-0.8,4.4-2.8h-5.2
		v-2h7.5c-0.1,1.2-0.2,2-0.4,2.4v0c-1,2.7-3.8,4.4-6.4,4.4c-3.9,0-6.9-3-6.9-7.1c0-4.1,3-7.1,6.9-7.1c2.7,0,5.9,1.4,6.6,5.1H193.2z"
		/>
	<path class="st0" d="M199.6,91h6.6v2h-8.6V79.1h2V91z"/>
	<path class="st0" d="M214.8,81.1h-2.6V91h2.6v2h-7.2v-2h2.6v-9.9h-2.6v-2h7.2V81.1z"/>
	<path class="st0" d="M224,82.7c-0.3-1.3-1.6-1.8-2.9-1.8c-0.9,0-2,0.3-2.5,1.1c-0.3,0.4-0.4,0.8-0.3,1.3c0.1,1.4,1.7,1.6,3.2,1.8
		c1.9,0.2,4.3,0.7,4.8,3c0.1,0.3,0.1,0.6,0.1,0.9c0,2.7-2.7,4.2-5.2,4.2c-2.2,0-4.8-1.3-5-3.8l0-0.4l2,0l0,0.3v-0.1
		c0.1,1.3,1.7,2,3,2c1.5,0,3.1-0.8,3.1-2.3c0-0.1,0-0.3-0.1-0.5c-0.2-1.1-1.7-1.2-3.1-1.4c-2.2-0.2-4.7-0.7-4.9-3.6v0
		c-0.1-0.9,0.2-1.9,0.8-2.7c0.9-1.2,2.6-1.9,4.2-1.9c2.2,0,4.4,1.1,4.7,3.7L224,82.7z"/>
	<path class="st0" d="M230.6,84.9h5.9v-5.9h2V93h-2v-6.1h-5.9V93h-2V79.1h2V84.9z"/>
	<path class="st0" d="M248,91h6.6v2H246V79.1h2V91z"/>
	<path class="st0" d="M264.4,88.9h-5c-0.5,1.3-1.2,3-1.7,4.1h-2.2l5.6-14.1h1.5l5.6,14.1h-2.2L264.4,88.9z M260.2,87h3.5l-1.7-4.9
		L260.2,87z"/>
	<path class="st0" d="M269.6,93V79l1.6,0l6.8,9.8V79h2v14h-1.6l-6.7-9.8V93H269.6z"/>
	<path class="st0" d="M293.5,84.1c-0.6-2.3-2.7-3.1-4.5-3.1c-2.7,0-4.8,2.1-4.8,5.1c0,3,2.1,5.1,4.8,5.1c1.7,0,3.5-0.8,4.4-2.8h-5.2
		v-2h7.5c-0.1,1.2-0.2,2-0.4,2.4v0c-1,2.7-3.8,4.4-6.4,4.4c-3.9,0-6.9-3-6.9-7.1c0-4.1,3-7.1,6.9-7.1c2.7,0,5.9,1.4,6.6,5.1H293.5z"
		/>
	<path class="st0" d="M297.9,88.8v-9.8h2v9.8c0,1.5,1.7,2.3,3.1,2.3c1.5,0,3.1-0.8,3.1-2.3v-9.8h2v9.8c0,2.8-2.8,4.3-5.1,4.3
		C300.7,93.1,297.9,91.7,297.9,88.8z"/>
	<path class="st0" d="M317.9,88.9h-5c-0.5,1.3-1.2,3-1.7,4.1h-2.2l5.6-14.1h1.5l5.6,14.1h-2.2L317.9,88.9z M313.7,87h3.5l-1.7-4.9
		L313.7,87z"/>
	<path class="st0" d="M333.4,84.1c-0.6-2.3-2.7-3.1-4.5-3.1c-2.7,0-4.8,2.1-4.8,5.1c0,3,2.1,5.1,4.8,5.1c1.7,0,3.5-0.8,4.4-2.8h-5.2
		v-2h7.5c-0.1,1.2-0.2,2-0.4,2.4v0c-1,2.7-3.8,4.4-6.4,4.4c-3.9,0-6.9-3-6.9-7.1c0-4.1,3-7.1,6.9-7.1c2.7,0,5.9,1.4,6.6,5.1H333.4z"
		/>
	<path class="st0" d="M339.9,91h6.5v2h-8.5V79.1h8.5v2h-6.5V85h6.3v2h-6.3V91z"/>
	<path class="st0" d="M84.4,103c3,0,4.5,2.3,4.5,4.7c0,2.3-1.5,4.6-4.5,4.6h-3.1v4.6h-2v-14H84.4z M84.4,110.3
		c1.7,0,2.5-1.3,2.5-2.6c0-1.3-0.8-2.7-2.5-2.7h-3.1v5.3H84.4z"/>
	<path class="st0" d="M93.6,109.9h2.4c1.7,0,2.5-1.2,2.5-2.4c0-1.2-0.8-2.4-2.5-2.4h-3.1v11.9h-2v-14h5.1c3,0,4.5,2.2,4.5,4.4
		c0,2-1.2,3.8-3.6,4.3l4.4,5.2h-2.6l-5.1-6.1V109.9z"/>
	<path class="st0" d="M103.9,104.9c1.3-1.3,3.1-2.1,5-2.1c2,0,3.7,0.8,5,2.1c1.3,1.3,2.1,3.1,2.1,5c0,2-0.8,3.8-2.1,5
		c-1.3,1.3-3.1,2.1-5,2.1c-2,0-3.7-0.8-5-2.1c-1.3-1.3-2.1-3.1-2.1-5C101.8,108,102.7,106.2,103.9,104.9z M112.5,106.3
		c-0.9-0.9-2.2-1.5-3.6-1.5c-1.4,0-2.7,0.6-3.6,1.5c-0.9,0.9-1.5,2.2-1.5,3.6s0.6,2.7,1.5,3.6c0.9,0.9,2.2,1.5,3.6,1.5
		c1.4,0,2.7-0.6,3.6-1.5c0.9-0.9,1.5-2.2,1.5-3.6C114,108.5,113.4,107.3,112.5,106.3z"/>
	<path class="st0" d="M120.3,116.9h-2V103h8.3v2h-6.3v3.9h5.6v2h-5.6V116.9z"/>
	<path class="st0" d="M135.1,105h-2.6v9.9h2.6v2h-7.2v-2h2.6V105h-2.6v-2h7.2V105z"/>
	<path class="st0" d="M138.1,105c1.2-1.3,2.9-2.1,4.8-2.1c3.2,0,5.7,2,6.5,5.1h-2c-0.7-2.1-2.5-3.2-4.5-3.2c-1.3,0-2.6,0.6-3.4,1.5
		c-0.9,0.9-1.4,2.2-1.4,3.6c0,1.4,0.6,2.6,1.4,3.5c0.9,0.9,2.1,1.5,3.4,1.5c2.1,0,3.9-1.2,4.6-3.3h2c-0.8,3.2-3.4,5.3-6.6,5.3
		c-1.9,0-3.6-0.8-4.8-2.1c-1.2-1.3-2-3-2-5C136.1,108,136.9,106.3,138.1,105z"/>
	<path class="st0" d="M157.7,105h-2.6v9.9h2.6v2h-7.2v-2h2.6V105h-2.6v-2h7.2V105z"/>
	<path class="st0" d="M161.7,114.9h6.5v2h-8.5V103h8.5v2h-6.5v3.9h6.3v2h-6.3V114.9z"/>
	<path class="st0" d="M170.5,116.9v-14l1.6,0l6.8,9.8V103h2v14h-1.6l-6.7-9.8v9.8H170.5z"/>
	<path class="st0" d="M185,105c1.2-1.3,2.9-2.1,4.8-2.1c3.2,0,5.7,2,6.5,5.1h-2c-0.7-2.1-2.5-3.2-4.5-3.2c-1.3,0-2.6,0.6-3.4,1.5
		c-0.9,0.9-1.4,2.2-1.4,3.6c0,1.4,0.6,2.6,1.4,3.5c0.9,0.9,2.1,1.5,3.4,1.5c2.1,0,3.9-1.2,4.6-3.3h2c-0.8,3.2-3.4,5.3-6.6,5.3
		c-1.9,0-3.6-0.8-4.8-2.1c-1.2-1.3-2-3-2-5C183,108,183.8,106.3,185,105z"/>
	<path class="st0" d="M198.5,103l3.8,6.1l3.8-6.1h2.4l-5.2,8.3v5.7h-2v-5.7l-5.2-8.3H198.5z"/>
	<path class="st0" d="M222.6,112.8h-5c-0.5,1.3-1.2,3-1.7,4.1h-2.2l5.6-14.1h1.5l5.6,14.1h-2.2L222.6,112.8z M218.4,110.9h3.5
		l-1.7-4.9L218.4,110.9z"/>
	<path class="st0" d="M234.9,106.6c-0.3-1.3-1.6-1.8-2.9-1.8c-0.9,0-2,0.3-2.5,1.1c-0.3,0.4-0.4,0.8-0.3,1.3
		c0.1,1.4,1.7,1.6,3.2,1.8c1.9,0.2,4.3,0.7,4.8,3c0.1,0.3,0.1,0.6,0.1,0.9c0,2.7-2.7,4.2-5.2,4.2c-2.2,0-4.8-1.3-5-3.8l0-0.4l2,0
		l0,0.3v-0.1c0.1,1.3,1.7,2,3,2c1.5,0,3.1-0.8,3.1-2.3c0-0.1,0-0.3-0.1-0.5c-0.2-1.1-1.7-1.2-3.1-1.4c-2.2-0.2-4.7-0.7-4.9-3.6v0
		c-0.1-0.9,0.2-1.9,0.8-2.7c0.9-1.2,2.6-1.9,4.2-1.9c2.2,0,4.4,1.1,4.7,3.7L234.9,106.6z"/>
	<path class="st0" d="M246.9,106.6c-0.3-1.3-1.6-1.8-2.9-1.8c-0.9,0-2,0.3-2.5,1.1c-0.3,0.4-0.4,0.8-0.3,1.3
		c0.1,1.4,1.7,1.6,3.2,1.8c1.9,0.2,4.3,0.7,4.8,3c0.1,0.3,0.1,0.6,0.1,0.9c0,2.7-2.7,4.2-5.2,4.2c-2.2,0-4.8-1.3-5-3.8l0-0.4l2,0
		l0,0.3v-0.1c0.1,1.3,1.7,2,3,2c1.5,0,3.1-0.8,3.1-2.3c0-0.1,0-0.3-0.1-0.5c-0.2-1.1-1.7-1.2-3.1-1.4c-2.2-0.2-4.7-0.7-4.9-3.6v0
		c-0.1-0.9,0.2-1.9,0.8-2.7c0.9-1.2,2.6-1.9,4.2-1.9c2.2,0,4.4,1.1,4.7,3.7L246.9,106.6z"/>
	<path class="st0" d="M253.5,114.9h6.5v2h-8.5V103h8.5v2h-6.5v3.9h6.3v2h-6.3V114.9z"/>
	<path class="st0" d="M269.5,106.6c-0.3-1.3-1.6-1.8-2.9-1.8c-0.9,0-2,0.3-2.5,1.1c-0.3,0.4-0.4,0.8-0.3,1.3
		c0.1,1.4,1.7,1.6,3.2,1.8c1.9,0.2,4.3,0.7,4.8,3c0.1,0.3,0.1,0.6,0.1,0.9c0,2.7-2.7,4.2-5.2,4.2c-2.2,0-4.8-1.3-5-3.8l0-0.4l2,0
		l0,0.3v-0.1c0.1,1.3,1.7,2,3,2c1.5,0,3.1-0.8,3.1-2.3c0-0.1,0-0.3-0.1-0.5c-0.2-1.1-1.7-1.2-3.1-1.4c-2.2-0.2-4.7-0.7-4.9-3.6v0
		c-0.1-0.9,0.2-1.9,0.8-2.7c0.9-1.2,2.6-1.9,4.2-1.9c2.2,0,4.4,1.1,4.7,3.7L269.5,106.6z"/>
	<path class="st0" d="M281.5,106.6c-0.3-1.3-1.6-1.8-2.9-1.8c-0.9,0-2,0.3-2.5,1.1c-0.3,0.4-0.4,0.8-0.3,1.3
		c0.1,1.4,1.7,1.6,3.2,1.8c1.9,0.2,4.3,0.7,4.8,3c0.1,0.3,0.1,0.6,0.1,0.9c0,2.7-2.7,4.2-5.2,4.2c-2.2,0-4.8-1.3-5-3.8l0-0.4l2,0
		l0,0.3v-0.1c0.1,1.3,1.7,2,3,2c1.5,0,3.1-0.8,3.1-2.3c0-0.1,0-0.3-0.1-0.5c-0.2-1.1-1.7-1.2-3.1-1.4c-2.2-0.2-4.7-0.7-4.9-3.6v0
		c-0.1-0.9,0.2-1.9,0.8-2.7c0.9-1.2,2.6-1.9,4.2-1.9c2.2,0,4.4,1.1,4.7,3.7L281.5,106.6z"/>
	<path class="st0" d="M288.1,116.9h-2v-14h1.6l4.6,6.8l4.6-6.8h1.6v14h-2v-9.8l-3.7,5.4h-1.1l-3.6-5.4V116.9z"/>
	<path class="st0" d="M303.4,114.9h6.5v2h-8.5V103h8.5v2h-6.5v3.9h6.3v2h-6.3V114.9z"/>
	<path class="st0" d="M312.2,116.9v-14l1.6,0l6.8,9.8V103h2v14h-1.6l-6.7-9.8v9.8H312.2z"/>
	<path class="st0" d="M328.3,117v-12h-4.2v-2h10.5v2h-4.2v12H328.3z"/>
</g>
</svg>
