<?xml version="1.0" encoding="utf-8"?>
<!-- Generator: Adobe Illustrator 19.0.0, SVG Export Plug-In . SVG Version: 6.00 Build 0)  -->
<svg version="1.1" id="Layer_1" xmlns="http://www.w3.org/2000/svg" xmlns:xlink="http://www.w3.org/1999/xlink" x="0px" y="0px"
	 width="208.7px" height="40.2px" viewBox="-201 379.8 208.7 35.2" enable-background="new -201 379.8 208.7 35.2"
	 xml:space="preserve">
<rect id="XMLID_10_" x="-201" y="379.8" fill="#FFFFFF" width="208.7" height="35.2"/>
<g id="XMLID_2_">
</g>
<g id="XMLID_14_">
</g>
<g id="XMLID_15_">
</g>
<g id="XMLID_16_">
</g>
<g id="XMLID_17_">
</g>
<g id="XMLID_18_">
</g>
<g>
	<g id="XMLID_32_">
		<defs>
			<rect id="XMLID_33_" x="-196" y="398.4" width="180.7" height="1"/>
		</defs>
		<clipPath id="XMLID_5_">
			<use xlink:href="#XMLID_33_"  overflow="visible"/>
		</clipPath>
		<line id="XMLID_34_" clip-path="url(#XMLID_5_)" fill="none" stroke="#929497" x1="-196" y1="398.9" x2="2.7" y2="398.9"/>
	</g>
	<g id="XMLID_22_">
		<polygon id="XMLID_31_" fill="#FFFFFF" stroke="#929497" stroke-miterlimit="10" points="-165.1,383.1 -160.5,392.5 -150,394 
			-157.6,401.4 -155.8,411.8 -165.1,406.9 -174.5,411.8 -172.7,401.4 -180.2,394 -169.8,392.5 		"/>
		<g id="XMLID_30_">
			<path fill="#929497" d="M-162.1,403.7h-6.3V402h2v-5h-2v-1.5c0.3,0,0.6,0,0.9-0.1s0.5-0.1,0.7-0.2c0.2-0.1,0.4-0.2,0.5-0.4
				c0.1-0.2,0.2-0.4,0.2-0.6h2.1v7.8h1.9V403.7z"/>
		</g>
	</g>
	<g id="XMLID_19_" transform="translate(14,0)" >
		<polygon id="XMLID_21_" fill="#FFFFFF" stroke="#929497" stroke-miterlimit="10" points="-120,383.1 -115.4,392.5 -104.9,394 
			-112.5,401.4 -110.7,411.8 -120,406.9 -129.4,411.8 -127.6,401.4 -135.1,394 -124.7,392.5 		"/>
		<g id="XMLID_20_">
			<path fill="#929497" d="M-116.1,403.7h-7.4v-1.6c0.6-0.4,1.1-0.8,1.7-1.3c0.6-0.5,1-0.9,1.4-1.2c0.5-0.5,0.9-0.9,1.1-1.3
				s0.3-0.7,0.3-1.1c0-0.4-0.1-0.8-0.4-1c-0.3-0.2-0.7-0.4-1.2-0.4c-0.4,0-0.8,0.1-1.2,0.2c-0.4,0.2-0.8,0.4-1.2,0.6h-0.2v-2.1
				c0.3-0.1,0.7-0.3,1.3-0.4c0.6-0.1,1.2-0.2,1.8-0.2c1.2,0,2.1,0.2,2.7,0.7s0.9,1.2,0.9,2.1c0,0.6-0.1,1.2-0.4,1.7
				c-0.3,0.5-0.8,1.1-1.4,1.7c-0.4,0.4-0.8,0.7-1.2,1c-0.4,0.3-0.7,0.5-0.8,0.6h4.2V403.7z"/>
		</g>
	</g>
	<g id="XMLID_8_" transform="translate(28,0)" >
		<polygon id="XMLID_13_" fill="#FFFFFF" stroke="#929497" stroke-miterlimit="10" points="-74.9,383.1 -70.3,392.5 -59.8,394 
			-67.4,401.4 -65.6,411.8 -74.9,406.9 -84.3,411.8 -82.5,401.4 -90,394 -79.6,392.5 		"/>
		<g id="XMLID_11_">
			<path fill="#929497" d="M-71.5,399.2c0.2,0.2,0.4,0.4,0.5,0.6c0.1,0.2,0.2,0.6,0.2,0.9c0,0.4-0.1,0.9-0.3,1.2
				c-0.2,0.4-0.4,0.7-0.8,1c-0.4,0.3-0.8,0.5-1.3,0.6s-1.1,0.2-1.7,0.2c-0.8,0-1.5-0.1-2-0.2c-0.6-0.1-1-0.3-1.4-0.4v-2.1h0.2
				c0.4,0.2,0.8,0.4,1.3,0.6s1,0.2,1.4,0.2c0.2,0,0.5,0,0.8-0.1c0.3,0,0.5-0.1,0.7-0.3c0.2-0.1,0.3-0.2,0.4-0.4
				c0.1-0.2,0.1-0.4,0.1-0.7c0-0.3-0.1-0.5-0.2-0.6s-0.3-0.3-0.5-0.3c-0.2-0.1-0.5-0.1-0.7-0.1c-0.3,0-0.6,0-0.8,0h-0.5v-1.7h0.5
				c0.3,0,0.6,0,0.9,0c0.3,0,0.5-0.1,0.6-0.1c0.2-0.1,0.3-0.2,0.4-0.3c0.1-0.1,0.1-0.3,0.1-0.6c0-0.2,0-0.3-0.1-0.5
				c-0.1-0.1-0.2-0.2-0.4-0.3c-0.2-0.1-0.4-0.1-0.6-0.2c-0.2,0-0.4,0-0.6,0c-0.4,0-0.8,0.1-1.3,0.2c-0.5,0.1-0.9,0.3-1.4,0.6H-78v-2
				c0.3-0.1,0.8-0.3,1.4-0.4s1.2-0.2,1.8-0.2c0.6,0,1.1,0.1,1.6,0.2c0.4,0.1,0.8,0.2,1.1,0.4c0.3,0.2,0.6,0.5,0.8,0.8
				c0.2,0.3,0.3,0.6,0.3,1c0,0.5-0.2,1-0.5,1.4c-0.3,0.4-0.8,0.7-1.3,0.8v0.1c0.2,0,0.4,0.1,0.7,0.2
				C-72,398.9-71.7,399.1-71.5,399.2z"/>
		</g>
	</g>
	
</g>
<g id="XMLID_231_">
</g>
</svg>
