<?xml version="1.0" encoding="utf-8"?>
<!-- Generator: Adobe Illustrator 19.0.0, SVG Export Plug-In . SVG Version: 6.00 Build 0)  -->
<svg version="1.1" id="Layer_1" xmlns="http://www.w3.org/2000/svg" xmlns:xlink="http://www.w3.org/1999/xlink" x="0px" y="0px"
	 width="208.7px" height="40.2px" viewBox="-201 376.5 208.7 40.2" enable-background="new -201 376.5 208.7 40.2"
	 xml:space="preserve">
<rect id="XMLID_10_" x="-201" y="376.3" fill="#FFFFFF" width="208.7" height="40.5"/>
<g>
	<g id="XMLID_207_">
		<defs>
			<rect id="XMLID_208_" x="-196" y="398.3" width="180.7" height="1"/>
		</defs>
		<clipPath id="XMLID_5_">
			<use xlink:href="#XMLID_208_"  overflow="visible"/>
		</clipPath>
		<line id="XMLID_209_" clip-path="url(#XMLID_5_)" fill="none" stroke="#929497" x1="-196" y1="398.8" x2="2.7" y2="398.8"/>
	</g>
	<g id="XMLID_204_">
		<polygon id="XMLID_206_" fill="#FFFFFF" stroke="#929497" stroke-miterlimit="10" points="-165.1,382.9 -160.5,392.4 -150,393.9 
			-157.6,401.3 -155.8,411.7 -165.1,406.8 -174.5,411.7 -172.7,401.3 -180.2,393.9 -169.8,392.4 		"/>
		<g id="XMLID_205_">
			<g>
				<path fill="#929497" d="M-162.1,403.6h-6.3v-1.7h2v-5h-2v-1.5c0.3,0,0.6,0,0.9-0.1s0.5-0.1,0.7-0.2c0.2-0.1,0.4-0.2,0.5-0.4
					c0.1-0.2,0.2-0.4,0.2-0.6h2.1v7.8h1.9V403.6z"/>
			</g>
		</g>
	</g>
	<g id="XMLID_201_" transform="translate(14,0)" >
		<g id="XMLID_203_">
			<polygon fill="#EE9622" points="-120,382.9 -115.4,392.4 -104.9,393.9 -112.5,401.3 -110.7,411.7 -120,406.8 -129.4,411.7 
				-127.6,401.3 -135.1,393.9 -124.7,392.4 			"/>
			<polygon fill="none" stroke="#EE9622" stroke-width="4" stroke-miterlimit="10" points="-120,382.9 -115.4,392.4 -104.9,393.9 
				-112.5,401.3 -110.7,411.7 -120,406.8 -129.4,411.7 -127.6,401.3 -135.1,393.9 -124.7,392.4 			"/>
			<polygon fill="none" stroke="#231F20" stroke-miterlimit="10" points="-120,382.9 -115.4,392.4 -104.9,393.9 -112.5,401.3 
				-110.7,411.7 -120,406.8 -129.4,411.7 -127.6,401.3 -135.1,393.9 -124.7,392.4 			"/>
		</g>
		<g id="XMLID_202_">
			<path fill="#231F20" d="M-116.1,403.6h-7.4V402c0.6-0.4,1.1-0.8,1.7-1.3c0.6-0.5,1-0.9,1.4-1.2c0.5-0.5,0.9-0.9,1.1-1.3
				s0.3-0.7,0.3-1.1c0-0.4-0.1-0.8-0.4-1c-0.3-0.2-0.7-0.4-1.2-0.4c-0.4,0-0.8,0.1-1.2,0.2c-0.4,0.2-0.8,0.4-1.2,0.6h-0.2v-2.1
				c0.3-0.1,0.7-0.3,1.3-0.4c0.6-0.1,1.2-0.2,1.8-0.2c1.2,0,2.1,0.2,2.7,0.7s0.9,1.2,0.9,2.1c0,0.6-0.1,1.2-0.4,1.7
				c-0.3,0.5-0.8,1.1-1.4,1.7c-0.4,0.4-0.8,0.7-1.2,1c-0.4,0.3-0.7,0.5-0.8,0.6h4.2V403.6z"/>
		</g>
	</g>
	<g id="XMLID_198_" transform="translate(28,0)" >
		<polygon id="XMLID_200_" fill="#FFFFFF" stroke="#929497" stroke-miterlimit="10" points="-74.9,382.9 -70.3,392.4 -59.8,393.9 
			-67.4,401.3 -65.6,411.7 -74.9,406.8 -84.3,411.7 -82.5,401.3 -90,393.9 -79.6,392.4 		"/>
		<g id="XMLID_199_">
			<path fill="#929497" d="M-71.5,399.1c0.2,0.2,0.4,0.4,0.5,0.6c0.1,0.2,0.2,0.6,0.2,0.9c0,0.4-0.1,0.9-0.3,1.2
				c-0.2,0.4-0.4,0.7-0.8,1c-0.4,0.3-0.8,0.5-1.3,0.6s-1.1,0.2-1.7,0.2c-0.8,0-1.5-0.1-2-0.2c-0.6-0.1-1-0.3-1.4-0.4v-2.1h0.2
				c0.4,0.2,0.8,0.4,1.3,0.6s1,0.2,1.4,0.2c0.2,0,0.5,0,0.8-0.1c0.3,0,0.5-0.1,0.7-0.3c0.2-0.1,0.3-0.2,0.4-0.4
				c0.1-0.2,0.1-0.4,0.1-0.7c0-0.3-0.1-0.5-0.2-0.6s-0.3-0.3-0.5-0.3c-0.2-0.1-0.5-0.1-0.7-0.1c-0.3,0-0.6,0-0.8,0h-0.5v-1.7h0.5
				c0.3,0,0.6,0,0.9,0c0.3,0,0.5-0.1,0.6-0.1c0.2-0.1,0.3-0.2,0.4-0.3c0.1-0.1,0.1-0.3,0.1-0.6c0-0.2,0-0.3-0.1-0.5
				c-0.1-0.1-0.2-0.2-0.4-0.3c-0.2-0.1-0.4-0.1-0.6-0.2c-0.2,0-0.4,0-0.6,0c-0.4,0-0.8,0.1-1.3,0.2c-0.5,0.1-0.9,0.3-1.4,0.6H-78v-2
				c0.3-0.1,0.8-0.3,1.4-0.4s1.2-0.2,1.8-0.2c0.6,0,1.1,0.1,1.6,0.2c0.4,0.1,0.8,0.2,1.1,0.4c0.3,0.2,0.6,0.5,0.8,0.8
				c0.2,0.3,0.3,0.6,0.3,1c0,0.5-0.2,1-0.5,1.4c-0.3,0.4-0.8,0.7-1.3,0.8v0.1c0.2,0,0.4,0.1,0.7,0.2C-72,398.8-71.7,399-71.5,399.1z
				"/>
		</g>
	</g>
</g>
<g id="XMLID_2_">
</g>
<g id="XMLID_14_">
</g>
<g id="XMLID_15_">
</g>
<g id="XMLID_16_">
</g>
<g id="XMLID_17_">
</g>
<g id="XMLID_18_">
</g>
<g id="XMLID_231_">
</g>
</svg>
