<?xml version="1.0" encoding="utf-8"?>
<!-- Generator: Adobe Illustrator 14.0.0, SVG Export Plug-In . SVG Version: 6.00 Build 43363)  -->
<!DOCTYPE svg PUBLIC "-//W3C//DTD SVG 1.1//EN" "http://www.w3.org/Graphics/SVG/1.1/DTD/svg11.dtd">
<svg version="1.1" id="Layer_1" xmlns="http://www.w3.org/2000/svg" xmlns:xlink="http://www.w3.org/1999/xlink" x="0px" y="0px"
	 width="201.333px" height="347.275px" viewBox="0 0 201.333 347.275" enable-background="new 0 0 201.333 347.275"
	 xml:space="preserve">
<g>
	<defs>
		<rect id="SVGID_1_" y="0" width="201.333" height="347.275"/>
	</defs>
	<clipPath id="SVGID_2_">
		<use xlink:href="#SVGID_1_"  overflow="visible"/>
	</clipPath>
	<path clip-path="url(#SVGID_2_)" fill="#15254B" d="M140.482,81.878c-0.021-0.184-0.037-0.366-0.048-0.551l-0.015-0.236
		l-0.183-0.15c-2.106-1.733-3.336-3.445-3.557-4.951c-0.142-0.964-0.302-1.791-0.475-2.461l0.52-16.899l10.282-8.679l-37.205,5.639
		L79.887,73.797l21.963-4.202c-1.522,4.454-0.692,8.307-0.653,8.48l0.445,1.984l0.187-0.603l0.417-1.342
		c0.016-0.049,1.656-4.985,11.847-7.792c0.577-0.159,1.209-0.24,1.873-0.24c3.13,0,6.129,1.772,6.159,1.789l0.588,0.353l0.207-0.655
		c0.219-0.688,1.051-2.564,2.268-2.972c0.327-0.11,0.676-0.165,1.036-0.165c1.876,0,3.595,1.465,3.862,1.703
		c0.022,0.019,0.054,0.048,0.055,0.049l1.547,1.454l-0.658-2.017c-0.039-0.121-0.945-2.856-2.973-5.676l5.891-4.971l-0.444,14.495
		c-0.533,1.26-1.036,2.821-1.087,4.293c0.001,0.053,0.002,0.105,0.003,0.159c-0.01,0.787,0.104,1.546,0.433,2.211
		c0.942,1.909,2.714,3.631,4.035,4.739l0.449,0.223l2.087-1.402c0.059-0.022,0.114-0.047,0.174-0.069l-0.027-0.027l0.921-0.618
		l0.071-0.412v-0.16l-0.051-0.292L140.482,81.878z"/>
	<path clip-path="url(#SVGID_2_)" fill="#15254B" d="M132.189,75.526c-0.069-0.399-0.154-0.792-0.256-1.181
		c-0.11-0.421-0.235-0.836-0.382-1.242l-0.659-0.619l-1.544-1.452c-0.434-0.401-1.841-1.44-3.125-1.44
		c-0.234,0-0.459,0.036-0.668,0.106c-0.571,0.191-1.275,1.423-1.528,2.222l-0.207,0.654l-0.443,1.397l-1.258-0.751l-0.584-0.349
		c-0.028-0.016-2.794-1.628-5.569-1.628c-0.56,0-1.087,0.066-1.564,0.198c-9.376,2.582-11.04,7-11.047,7.018l-0.604,1.944
		l-0.462,1.489c1.617,5.876,6.83,10.436,13.41,11.019c7.819,0.692,14.796-4.473,16.38-11.781c0.069-0.318,0.118-0.643,0.167-0.97
		C131.651,78.762,131.783,77.086,132.189,75.526"/>
	<path clip-path="url(#SVGID_2_)" fill="#15254B" d="M108.957,103.298c-10.291,8.886-16.124,21.82-13.103,36.982
		c0.991-9.344,4.718-19.082,14.982-27.31c1.256,4.963,2.243,10.558,2.042,12.772c-2.767,19.476-23.931,44.781-24.57,47.719
		c19.283-8.737,50.447-57.609,19.601,3.58c33.75-38.192,36.07-69.207,24.967-81.702C128.381,92.559,112.604,97.88,108.957,103.298"
		/>
	<path clip-path="url(#SVGID_2_)" fill="#15254B" d="M146.532,57.218c2.623,10.572,1.994,22.897-8.524,36.207
		c1.666,3.647,2.959,7.321,3.916,10.251C152.652,90.64,156.25,73.242,146.532,57.218"/>
	<polygon clip-path="url(#SVGID_2_)" fill="#FFA400" points="147.376,4.475 147.866,24.955 160.299,8.673 148.657,25.531 
		168.287,19.666 148.959,26.46 168.287,33.254 148.657,27.391 160.299,44.247 147.866,27.966 147.376,48.447 146.887,27.966 
		134.454,44.247 146.096,27.391 126.466,33.254 145.793,26.46 126.466,19.666 146.096,25.531 134.454,8.673 146.887,24.955 	"/>
	<path clip-path="url(#SVGID_2_)" fill="#15254B" d="M68.921,145.316c-14.261,14.325-12.43,35.392,4.09,47.047
		c16.519,11.654,41.472,9.485,55.732-4.847c5.091-5.11,8.126-11.082,9.183-17.177c-0.123,8.362-3.596,16.816-10.556,23.817
		c-15.685,15.759-43.121,18.144-61.292,5.328C47.912,186.668,45.9,163.504,61.58,147.74c6.614-6.639,15.315-10.907,24.528-12.661
		C79.659,137.09,73.692,140.522,68.921,145.316"/>
	<path clip-path="url(#SVGID_2_)" fill="#15254B" d="M56.096,145.46c-17.826,17.907-15.537,44.24,5.112,58.81
		c20.65,14.569,51.839,11.857,69.667-6.057c6.362-6.392,10.157-13.854,11.478-21.473c-0.153,10.452-4.495,21.021-13.194,29.771
		c-19.606,19.698-53.903,22.679-76.615,6.66c-22.709-16.023-25.222-44.977-5.623-64.682c8.268-8.299,19.143-13.634,30.659-15.826
		C69.519,135.18,62.059,139.469,56.096,145.46"/>
	<polygon clip-path="url(#SVGID_2_)" fill="#15254B" points="21.167,229.586 24.214,229.586 24.214,240.801 36.161,229.586 
		40.173,229.586 25.819,242.993 41.291,259.472 37.313,259.472 24.214,245.551 24.214,259.472 21.167,259.472 	"/>
	<path clip-path="url(#SVGID_2_)" fill="#15254B" d="M67.307,237.366v22.105h-2.804v-3.799c-1.192,1.449-2.53,2.539-4.012,3.27
		c-1.484,0.732-3.106,1.098-4.866,1.098c-3.129,0-5.8-1.135-8.016-3.402c-2.214-2.27-3.321-5.029-3.321-8.28
		c0-3.182,1.118-5.905,3.352-8.168c2.235-2.261,4.923-3.392,8.066-3.392c1.814,0,3.457,0.386,4.926,1.158
		c1.47,0.772,2.76,1.93,3.871,3.474v-4.063H67.307z M55.94,239.541c-1.584,0-3.045,0.389-4.384,1.167
		c-1.34,0.776-2.405,1.869-3.197,3.276c-0.791,1.408-1.187,2.896-1.187,4.465c0,1.557,0.4,3.044,1.198,4.465
		c0.799,1.421,1.87,2.525,3.216,3.317c1.346,0.792,2.791,1.188,4.333,1.188c1.556,0,3.031-0.394,4.424-1.179
		c1.393-0.783,2.465-1.847,3.217-3.185c0.75-1.34,1.126-2.848,1.126-4.526c0-2.556-0.842-4.693-2.527-6.413
		C60.475,240.399,58.402,239.541,55.94,239.541"/>
	<path clip-path="url(#SVGID_2_)" fill="#15254B" d="M73.707,237.366h2.845v3.963c1.136-1.519,2.396-2.651,3.778-3.403
		c1.382-0.752,2.886-1.128,4.511-1.128c1.652,0,3.118,0.42,4.398,1.259c1.28,0.84,2.226,1.971,2.835,3.393
		c0.61,1.424,0.913,3.638,0.913,6.645v11.377h-2.843v-10.543c0-2.547-0.106-4.248-0.317-5.1c-0.329-1.465-0.962-2.564-1.896-3.303
		c-0.935-0.737-2.154-1.106-3.658-1.106c-1.72,0-3.261,0.567-4.623,1.706c-1.362,1.138-2.258,2.547-2.692,4.226
		c-0.272,1.097-0.406,3.103-0.406,6.014v8.106h-2.845V237.366z"/>
	<path clip-path="url(#SVGID_2_)" fill="#15254B" d="M110.195,239.785l-1.828,1.889c-1.522-1.477-3.008-2.214-4.461-2.214
		c-0.923,0-1.715,0.304-2.373,0.914c-0.659,0.608-0.987,1.319-0.987,2.133c0,0.717,0.27,1.402,0.814,2.051
		c0.542,0.664,1.683,1.444,3.42,2.337c2.117,1.097,3.556,2.154,4.315,3.17c0.746,1.03,1.12,2.188,1.12,3.475
		c0,1.814-0.637,3.352-1.913,4.611c-1.274,1.26-2.868,1.89-4.781,1.89c-1.274,0-2.492-0.277-3.652-0.832
		c-1.16-0.557-2.119-1.321-2.879-2.296l1.787-2.032c1.453,1.639,2.994,2.459,4.623,2.459c1.141,0,2.109-0.367,2.912-1.099
		c0.801-0.73,1.202-1.591,1.202-2.579c0-0.813-0.266-1.537-0.796-2.175c-0.528-0.623-1.723-1.408-3.583-2.355
		c-1.995-1.03-3.353-2.046-4.072-3.048c-0.72-1.002-1.079-2.147-1.079-3.435c0-1.679,0.573-3.074,1.72-4.185
		c1.146-1.111,2.594-1.666,4.344-1.666C106.084,236.798,108.132,237.794,110.195,239.785"/>
	<path clip-path="url(#SVGID_2_)" fill="#15254B" d="M137.258,237.366v22.105h-2.806v-3.799c-1.19,1.449-2.528,2.539-4.011,3.27
		c-1.484,0.732-3.105,1.098-4.866,1.098c-3.128,0-5.8-1.135-8.015-3.402c-2.215-2.27-3.321-5.029-3.321-8.28
		c0-3.182,1.117-5.905,3.352-8.168c2.235-2.261,4.923-3.392,8.065-3.392c1.815,0,3.458,0.386,4.928,1.158
		c1.469,0.772,2.759,1.93,3.868,3.474v-4.063H137.258z M125.891,239.541c-1.583,0-3.044,0.389-4.384,1.167
		c-1.339,0.776-2.405,1.869-3.196,3.276c-0.792,1.408-1.188,2.896-1.188,4.465c0,1.557,0.4,3.044,1.199,4.465
		c0.798,1.421,1.87,2.525,3.215,3.317c1.347,0.792,2.791,1.188,4.333,1.188c1.557,0,3.031-0.394,4.425-1.179
		c1.394-0.783,2.466-1.847,3.217-3.185c0.75-1.34,1.126-2.848,1.126-4.526c0-2.556-0.842-4.693-2.527-6.413
		C130.426,240.399,128.353,239.541,125.891,239.541"/>
	<path clip-path="url(#SVGID_2_)" fill="#15254B" d="M143.658,237.366h2.845v3.963c1.137-1.519,2.397-2.651,3.778-3.403
		c1.382-0.752,2.886-1.128,4.511-1.128c1.652,0,3.118,0.42,4.398,1.259c1.279,0.84,2.226,1.971,2.835,3.393
		c0.609,1.424,0.914,3.638,0.914,6.645v11.377h-2.845v-10.543c0-2.547-0.105-4.248-0.316-5.1c-0.329-1.465-0.962-2.564-1.896-3.303
		c-0.935-0.737-2.153-1.106-3.658-1.106c-1.72,0-3.261,0.567-4.623,1.706c-1.36,1.138-2.258,2.547-2.691,4.226
		c-0.272,1.097-0.406,3.103-0.406,6.014v8.106h-2.845V237.366z"/>
	<path clip-path="url(#SVGID_2_)" fill="#15254B" d="M180.147,239.785l-1.829,1.889c-1.522-1.477-3.008-2.214-4.461-2.214
		c-0.923,0-1.715,0.304-2.373,0.914c-0.658,0.608-0.987,1.319-0.987,2.133c0,0.717,0.271,1.402,0.814,2.051
		c0.542,0.664,1.683,1.444,3.42,2.337c2.117,1.097,3.556,2.154,4.315,3.17c0.747,1.03,1.12,2.188,1.12,3.475
		c0,1.814-0.637,3.352-1.913,4.611c-1.274,1.26-2.868,1.89-4.78,1.89c-1.275,0-2.493-0.277-3.653-0.832
		c-1.16-0.557-2.119-1.321-2.879-2.296l1.787-2.032c1.453,1.639,2.994,2.459,4.623,2.459c1.141,0,2.109-0.367,2.912-1.099
		c0.802-0.73,1.201-1.591,1.201-2.579c0-0.813-0.265-1.537-0.795-2.175c-0.528-0.623-1.723-1.408-3.583-2.355
		c-1.994-1.03-3.352-2.046-4.071-3.048c-0.721-1.002-1.079-2.147-1.079-3.435c0-1.679,0.573-3.074,1.72-4.185
		c1.146-1.111,2.595-1.666,4.345-1.666C176.036,236.798,178.083,237.794,180.147,239.785"/>
	<path clip-path="url(#SVGID_2_)" fill="#15254B" d="M85.287,270.707l-3.979,3.793c-2.706-2.86-5.751-4.29-9.134-4.29
		c-2.856,0-5.261,0.976-7.217,2.928c-1.955,1.952-2.933,4.359-2.933,7.22c0,1.993,0.433,3.762,1.299,5.309
		c0.866,1.545,2.091,2.759,3.674,3.64c1.584,0.881,3.344,1.322,5.278,1.322c1.651,0,3.16-0.309,4.527-0.927
		c1.367-0.615,2.869-1.737,4.506-3.364l3.857,4.023c-2.208,2.156-4.294,3.649-6.257,4.483c-1.965,0.833-4.206,1.25-6.725,1.25
		c-4.646,0-8.449-1.475-11.408-4.419c-2.96-2.947-4.439-6.723-4.439-11.327c0-2.98,0.673-5.628,2.02-7.945
		c1.349-2.314,3.279-4.177,5.791-5.587c2.513-1.408,5.218-2.113,8.117-2.113c2.464,0,4.838,0.522,7.121,1.563
		C81.667,267.307,83.634,268.786,85.287,270.707"/>
	<path clip-path="url(#SVGID_2_)" fill="#15254B" d="M99.381,265.454h5.77l11.495,29.888h-5.912l-2.339-6.156H96.2l-2.431,6.156
		h-5.912L99.381,265.454z M102.302,273.379l-4.01,10.26h7.997L102.302,273.379z"/>
	<polygon clip-path="url(#SVGID_2_)" fill="#15254B" points="121.065,265.454 126.523,265.454 139.31,285.122 139.31,265.454 
		144.999,265.454 144.999,295.342 139.526,295.342 126.753,275.734 126.753,295.342 121.065,295.342 	"/>
	<path clip-path="url(#SVGID_2_)" fill="#15254B" d="M27.731,322.162H26.55c-0.304-0.768-0.614-1.526-0.929-2.282
		c-0.316-0.755-0.625-1.521-0.93-2.295l-1.106,0.832l-0.792,3.745h-1.08l1.962-9.28h1.078l-0.958,4.507l4.444-4.507h1.327
		l-4.057,4.043L27.731,322.162z"/>
	<path clip-path="url(#SVGID_2_)" fill="#15254B" d="M32.467,315.078c0.389,0,0.736,0.104,1.041,0.313
		c0.305,0.209,0.541,0.511,0.711,0.905h0.069l0.425-1.092h0.807l-1.479,6.957h-0.844l0.165-1.327h-0.051
		c-0.758,0.969-1.555,1.454-2.393,1.454c-0.589,0-1.05-0.21-1.385-0.629c-0.334-0.419-0.501-0.992-0.501-1.721
		c0-0.881,0.151-1.696,0.451-2.449c0.3-0.755,0.715-1.345,1.244-1.771S31.836,315.078,32.467,315.078 M31.26,321.406
		c0.411,0,0.819-0.195,1.226-0.588c0.406-0.392,0.736-0.9,0.99-1.528c0.254-0.629,0.381-1.259,0.381-1.89
		c0-0.436-0.118-0.782-0.356-1.041c-0.237-0.259-0.548-0.388-0.932-0.388c-0.441,0-0.85,0.184-1.229,0.546
		c-0.379,0.365-0.676,0.858-0.892,1.48c-0.215,0.622-0.324,1.276-0.324,1.968c0,0.482,0.1,0.842,0.298,1.082
		C30.621,321.287,30.901,321.406,31.26,321.406"/>
	<path clip-path="url(#SVGID_2_)" fill="#15254B" d="M40.381,322.162l0.939-4.394c0.085-0.439,0.127-0.745,0.127-0.914
		c0-0.266-0.074-0.479-0.224-0.641c-0.151-0.16-0.391-0.241-0.721-0.241c-0.377,0-0.744,0.127-1.101,0.38
		c-0.358,0.254-0.673,0.617-0.946,1.086c-0.273,0.471-0.479,1.039-0.619,1.707l-0.641,3.017h-1.066l1.484-6.957h0.883l-0.139,1.288
		h0.063c0.406-0.517,0.799-0.882,1.178-1.096s0.771-0.319,1.178-0.319c0.537,0,0.96,0.146,1.272,0.44
		c0.311,0.294,0.466,0.706,0.466,1.235c0,0.334-0.048,0.715-0.146,1.142l-0.907,4.267H40.381z"/>
	<path clip-path="url(#SVGID_2_)" fill="#15254B" d="M47.923,320.188c0,0.659-0.234,1.176-0.702,1.546s-1.126,0.556-1.978,0.556
		c-0.715,0-1.36-0.146-1.935-0.439v-1.003c0.296,0.179,0.615,0.316,0.959,0.413c0.342,0.098,0.66,0.146,0.951,0.146
		c0.533,0,0.935-0.106,1.207-0.318c0.27-0.211,0.406-0.481,0.406-0.812c0-0.241-0.074-0.444-0.222-0.61
		c-0.149-0.165-0.468-0.391-0.959-0.678c-0.55-0.311-0.94-0.612-1.168-0.908c-0.229-0.296-0.342-0.648-0.342-1.054
		c0-0.584,0.213-1.056,0.64-1.412c0.428-0.358,0.991-0.536,1.689-0.536c0.724,0,1.422,0.156,2.095,0.469l-0.343,0.869l-0.356-0.158
		c-0.427-0.182-0.892-0.272-1.396-0.272c-0.394,0-0.702,0.093-0.927,0.275c-0.224,0.186-0.336,0.422-0.336,0.714
		c0,0.237,0.074,0.441,0.225,0.609c0.15,0.17,0.461,0.388,0.93,0.655c0.453,0.254,0.778,0.471,0.974,0.653
		c0.197,0.183,0.344,0.378,0.442,0.588C47.874,319.689,47.923,319.925,47.923,320.188"/>
	<path clip-path="url(#SVGID_2_)" fill="#15254B" d="M52.881,315.078c0.389,0,0.736,0.104,1.041,0.313
		c0.305,0.209,0.541,0.511,0.711,0.905h0.069l0.425-1.092h0.807l-1.479,6.957h-0.844l0.165-1.327h-0.051
		c-0.758,0.969-1.555,1.454-2.393,1.454c-0.589,0-1.05-0.21-1.385-0.629c-0.334-0.419-0.501-0.992-0.501-1.721
		c0-0.881,0.151-1.696,0.451-2.449c0.3-0.755,0.715-1.345,1.244-1.771C51.67,315.292,52.25,315.078,52.881,315.078 M51.674,321.406
		c0.411,0,0.819-0.195,1.226-0.588c0.406-0.392,0.736-0.9,0.99-1.528c0.254-0.629,0.381-1.259,0.381-1.89
		c0-0.436-0.118-0.782-0.356-1.041c-0.237-0.259-0.548-0.388-0.932-0.388c-0.441,0-0.85,0.184-1.229,0.546
		c-0.379,0.365-0.676,0.858-0.892,1.48c-0.215,0.622-0.324,1.276-0.324,1.968c0,0.482,0.1,0.842,0.298,1.082
		C51.035,321.287,51.315,321.406,51.674,321.406"/>
	<path clip-path="url(#SVGID_2_)" fill="#15254B" d="M60.834,320.188c0,0.659-0.234,1.176-0.702,1.546
		c-0.468,0.37-1.126,0.556-1.978,0.556c-0.715,0-1.36-0.146-1.935-0.439v-1.003c0.296,0.179,0.615,0.316,0.959,0.413
		c0.342,0.098,0.66,0.146,0.951,0.146c0.533,0,0.935-0.106,1.207-0.318c0.27-0.211,0.406-0.481,0.406-0.812
		c0-0.241-0.074-0.444-0.222-0.61c-0.149-0.165-0.468-0.391-0.959-0.678c-0.55-0.311-0.94-0.612-1.168-0.908
		c-0.229-0.296-0.342-0.648-0.342-1.054c0-0.584,0.213-1.056,0.64-1.412c0.428-0.358,0.991-0.536,1.689-0.536
		c0.724,0,1.422,0.156,2.095,0.469l-0.343,0.869l-0.356-0.158c-0.427-0.182-0.892-0.272-1.396-0.272
		c-0.394,0-0.702,0.093-0.927,0.275c-0.224,0.186-0.336,0.422-0.336,0.714c0,0.237,0.074,0.441,0.225,0.609
		c0.15,0.17,0.461,0.388,0.93,0.655c0.453,0.254,0.778,0.471,0.974,0.653c0.197,0.183,0.344,0.378,0.442,0.588
		C60.785,319.689,60.834,319.925,60.834,320.188"/>
	<polygon clip-path="url(#SVGID_2_)" fill="#15254B" points="66.54,322.162 65.474,322.162 67.581,312.285 68.646,312.285 	"/>
	<path clip-path="url(#SVGID_2_)" fill="#15254B" d="M71.535,322.289c-0.778,0-1.39-0.231-1.834-0.693
		c-0.445-0.461-0.667-1.099-0.667-1.917c0-0.795,0.157-1.557,0.473-2.288c0.315-0.729,0.733-1.298,1.254-1.704
		c0.52-0.405,1.094-0.608,1.719-0.608c0.649,0,1.135,0.14,1.461,0.422c0.326,0.281,0.489,0.673,0.489,1.177
		c0,0.762-0.352,1.36-1.054,1.793c-0.702,0.435-1.708,0.651-3.015,0.651h-0.21l-0.025,0.508c0,0.554,0.13,0.987,0.391,1.298
		c0.259,0.312,0.663,0.466,1.209,0.466c0.266,0,0.541-0.038,0.822-0.113c0.281-0.076,0.632-0.217,1.05-0.419v0.927
		c-0.398,0.186-0.748,0.315-1.053,0.39C72.24,322.252,71.903,322.289,71.535,322.289 M72.418,315.985
		c-0.437,0-0.846,0.198-1.229,0.597c-0.382,0.397-0.675,0.95-0.878,1.657h0.076c0.965,0,1.704-0.126,2.218-0.378
		c0.514-0.252,0.771-0.617,0.771-1.096c0-0.224-0.077-0.411-0.231-0.558C72.99,316.059,72.749,315.985,72.418,315.985"/>
	<path clip-path="url(#SVGID_2_)" fill="#15254B" d="M78.88,315.078c0.389,0,0.736,0.104,1.041,0.313
		c0.305,0.209,0.541,0.511,0.711,0.905h0.069l0.425-1.092h0.807l-1.479,6.957H79.61l0.165-1.327h-0.051
		c-0.758,0.969-1.555,1.454-2.393,1.454c-0.589,0-1.05-0.21-1.385-0.629c-0.334-0.419-0.501-0.992-0.501-1.721
		c0-0.881,0.151-1.696,0.451-2.449c0.3-0.755,0.715-1.345,1.244-1.771C77.669,315.292,78.249,315.078,78.88,315.078 M77.673,321.406
		c0.411,0,0.819-0.195,1.226-0.588c0.406-0.392,0.736-0.9,0.99-1.528c0.254-0.629,0.381-1.259,0.381-1.89
		c0-0.436-0.118-0.782-0.356-1.041c-0.237-0.259-0.548-0.388-0.932-0.388c-0.441,0-0.85,0.184-1.229,0.546
		c-0.379,0.365-0.676,0.858-0.892,1.48c-0.215,0.622-0.324,1.276-0.324,1.968c0,0.482,0.1,0.842,0.298,1.082
		C77.034,321.287,77.314,321.406,77.673,321.406"/>
	<path clip-path="url(#SVGID_2_)" fill="#15254B" d="M86.225,315.091c0.82,0,1.415,0.401,1.783,1.206h0.064
		c0.072-0.657,0.167-1.237,0.286-1.74l0.494-2.271h1.055l-2.096,9.877h-0.882l0.14-1.327h-0.051
		c-0.428,0.529-0.827,0.902-1.199,1.124c-0.373,0.219-0.758,0.33-1.156,0.33c-0.588,0-1.047-0.208-1.377-0.622
		c-0.331-0.415-0.496-0.99-0.496-1.728c0-0.905,0.153-1.734,0.457-2.487c0.305-0.754,0.716-1.335,1.235-1.746
		C85,315.296,85.581,315.091,86.225,315.091 M85.018,321.406c0.398,0,0.809-0.197,1.232-0.594c0.423-0.396,0.758-0.9,1.006-1.517
		c0.247-0.616,0.371-1.244,0.371-1.882c0-0.471-0.114-0.827-0.342-1.073c-0.229-0.246-0.561-0.369-0.997-0.369
		c-0.427,0-0.824,0.175-1.19,0.525c-0.366,0.348-0.66,0.84-0.883,1.472c-0.221,0.632-0.333,1.298-0.333,1.997
		C83.882,320.926,84.261,321.406,85.018,321.406"/>
	<path clip-path="url(#SVGID_2_)" fill="#15254B" d="M94.337,320.188c0,0.659-0.234,1.176-0.702,1.546
		c-0.468,0.37-1.126,0.556-1.978,0.556c-0.715,0-1.36-0.146-1.935-0.439v-1.003c0.296,0.179,0.615,0.316,0.959,0.413
		c0.342,0.098,0.66,0.146,0.951,0.146c0.533,0,0.935-0.106,1.207-0.318c0.27-0.211,0.406-0.481,0.406-0.812
		c0-0.241-0.074-0.444-0.222-0.61c-0.149-0.165-0.468-0.391-0.959-0.678c-0.55-0.311-0.94-0.612-1.168-0.908
		c-0.229-0.296-0.342-0.648-0.342-1.054c0-0.584,0.213-1.056,0.64-1.412c0.428-0.358,0.991-0.536,1.689-0.536
		c0.724,0,1.422,0.156,2.095,0.469l-0.343,0.869l-0.356-0.158c-0.427-0.182-0.892-0.272-1.396-0.272
		c-0.394,0-0.702,0.093-0.927,0.275c-0.224,0.186-0.336,0.422-0.336,0.714c0,0.237,0.074,0.441,0.225,0.609
		c0.15,0.17,0.461,0.388,0.93,0.655c0.453,0.254,0.778,0.471,0.974,0.653c0.197,0.183,0.344,0.378,0.442,0.588
		C94.288,319.689,94.337,319.925,94.337,320.188"/>
	<path clip-path="url(#SVGID_2_)" fill="#15254B" d="M101.124,321.419c0.231,0,0.537-0.056,0.914-0.165v0.818
		c-0.145,0.06-0.322,0.11-0.533,0.153c-0.212,0.042-0.381,0.063-0.508,0.063c-0.529,0-0.935-0.126-1.216-0.378
		c-0.281-0.252-0.423-0.627-0.423-1.127c0-0.278,0.039-0.596,0.116-0.952l0.805-3.82h-1.092l0.089-0.463l1.174-0.495l0.794-1.447
		h0.622l-0.35,1.599h1.74l-0.166,0.807h-1.733l-0.817,3.834c-0.076,0.368-0.115,0.646-0.115,0.838c0,0.237,0.061,0.419,0.184,0.546
		S100.902,321.419,101.124,321.419"/>
	<path clip-path="url(#SVGID_2_)" fill="#15254B" d="M107.458,322.162l0.938-4.394c0.077-0.397,0.116-0.683,0.116-0.856
		c0-0.626-0.312-0.939-0.934-0.939c-0.377,0-0.744,0.125-1.102,0.375c-0.357,0.249-0.673,0.612-0.945,1.088
		c-0.273,0.477-0.479,1.05-0.619,1.724l-0.642,3.003h-1.065l2.094-9.877h1.066c-0.076,0.347-0.148,0.684-0.22,1.009
		c-0.068,0.326-0.141,0.657-0.215,0.994c-0.075,0.336-0.154,0.688-0.242,1.057c-0.086,0.368-0.187,0.767-0.3,1.199h0.069
		c0.396-0.521,0.79-0.894,1.178-1.117c0.386-0.224,0.792-0.336,1.216-0.336c0.554,0,0.982,0.152,1.285,0.457
		c0.302,0.304,0.453,0.736,0.453,1.295c0,0.261-0.048,0.613-0.146,1.053c-0.165,0.817-0.472,2.239-0.922,4.267H107.458z"/>
	<path clip-path="url(#SVGID_2_)" fill="#15254B" d="M113.457,322.289c-0.778,0-1.391-0.231-1.834-0.693
		c-0.445-0.461-0.667-1.099-0.667-1.917c0-0.795,0.156-1.557,0.473-2.288c0.315-0.729,0.733-1.298,1.254-1.704
		c0.521-0.405,1.094-0.608,1.719-0.608c0.649,0,1.136,0.14,1.461,0.422c0.326,0.281,0.489,0.673,0.489,1.177
		c0,0.762-0.352,1.36-1.054,1.793c-0.702,0.435-1.708,0.651-3.016,0.651h-0.21l-0.024,0.508c0,0.554,0.13,0.987,0.391,1.298
		c0.259,0.312,0.663,0.466,1.209,0.466c0.267,0,0.541-0.038,0.822-0.113c0.281-0.076,0.632-0.217,1.05-0.419v0.927
		c-0.397,0.186-0.748,0.315-1.053,0.39C114.162,322.252,113.824,322.289,113.457,322.289 M114.339,315.985
		c-0.438,0-0.846,0.198-1.229,0.597c-0.382,0.397-0.675,0.95-0.878,1.657h0.076c0.965,0,1.704-0.126,2.218-0.378
		c0.515-0.252,0.771-0.617,0.771-1.096c0-0.224-0.077-0.411-0.231-0.558C114.912,316.059,114.669,315.985,114.339,315.985"/>
	<path clip-path="url(#SVGID_2_)" fill="#15254B" d="M125.397,322.162l-0.203-3.821c-0.018-0.399-0.026-0.762-0.026-1.092v-0.99
		h-0.057l-0.318,0.749l-0.526,1.199l-1.848,3.955h-1.281l-0.273-6.957h1.041l0.115,3.77v0.56c0,0.621-0.019,1.19-0.051,1.706h0.037
		c0.199-0.523,0.489-1.205,0.869-2.044l1.873-3.991h1.156l0.234,3.77c0.025,0.711,0.038,1.265,0.038,1.664v0.336l-0.013,0.266h0.038
		c0.118-0.362,0.294-0.825,0.526-1.387c0.232-0.56,0.917-2.109,2.051-4.648h1.13l-3.212,6.957H125.397z"/>
	<path clip-path="url(#SVGID_2_)" fill="#15254B" d="M133.522,315.116c0.804,0,1.438,0.237,1.904,0.714
		c0.465,0.476,0.697,1.131,0.697,1.964c0,0.795-0.152,1.547-0.458,2.253c-0.304,0.707-0.716,1.253-1.236,1.638
		c-0.521,0.387-1.108,0.578-1.765,0.578c-0.813,0-1.449-0.238-1.911-0.718c-0.462-0.477-0.691-1.131-0.691-1.96
		c0-0.805,0.154-1.561,0.464-2.27c0.308-0.709,0.725-1.254,1.25-1.632C132.3,315.305,132.882,315.116,133.522,315.116
		 M135.02,317.648c0-0.486-0.133-0.882-0.397-1.185c-0.265-0.302-0.624-0.454-1.075-0.454c-0.463,0-0.875,0.158-1.241,0.471
		c-0.366,0.313-0.649,0.747-0.851,1.305c-0.202,0.556-0.302,1.175-0.302,1.855c0,0.556,0.135,0.984,0.403,1.286
		s0.653,0.453,1.158,0.453c0.44,0,0.836-0.154,1.188-0.462c0.35-0.31,0.625-0.749,0.821-1.318
		C134.92,319.031,135.02,318.38,135.02,317.648"/>
	<path clip-path="url(#SVGID_2_)" fill="#15254B" d="M141.506,315.078c0.292,0,0.546,0.028,0.762,0.089l-0.229,0.952
		c-0.225-0.057-0.446-0.083-0.666-0.083c-0.387,0-0.746,0.127-1.083,0.381c-0.336,0.254-0.63,0.605-0.883,1.057
		c-0.252,0.451-0.437,0.951-0.555,1.501l-0.679,3.188h-1.066l1.484-6.957h0.883l-0.14,1.288h0.063
		c0.305-0.401,0.557-0.69,0.755-0.866c0.199-0.176,0.408-0.312,0.625-0.406C140.998,315.126,141.239,315.078,141.506,315.078"/>
	<polygon clip-path="url(#SVGID_2_)" fill="#15254B" points="143.309,322.162 142.243,322.162 144.35,312.285 145.416,312.285 	"/>
	<path clip-path="url(#SVGID_2_)" fill="#15254B" d="M149.239,315.091c0.82,0,1.415,0.401,1.783,1.206h0.063
		c0.072-0.657,0.167-1.237,0.286-1.74l0.494-2.271h1.055l-2.096,9.877h-0.882l0.14-1.327h-0.051
		c-0.428,0.529-0.827,0.902-1.199,1.124c-0.373,0.219-0.758,0.33-1.156,0.33c-0.588,0-1.047-0.208-1.377-0.622
		c-0.331-0.415-0.496-0.99-0.496-1.728c0-0.905,0.153-1.734,0.457-2.487c0.306-0.754,0.717-1.335,1.235-1.746
		C148.013,315.296,148.594,315.091,149.239,315.091 M148.032,321.406c0.397,0,0.809-0.197,1.231-0.594
		c0.424-0.396,0.759-0.9,1.007-1.517c0.246-0.616,0.37-1.244,0.37-1.882c0-0.471-0.113-0.827-0.342-1.073s-0.561-0.369-0.997-0.369
		c-0.427,0-0.823,0.175-1.189,0.525c-0.366,0.348-0.66,0.84-0.883,1.472c-0.222,0.632-0.333,1.298-0.333,1.997
		C146.896,320.926,147.275,321.406,148.032,321.406"/>
	<path clip-path="url(#SVGID_2_)" fill="#15254B" d="M157.503,322.161h-1.066l1.484-6.957h1.066L157.503,322.161z M158.22,313.428
		c0-0.237,0.066-0.432,0.203-0.581c0.136-0.15,0.311-0.227,0.526-0.227c0.373,0,0.56,0.191,0.56,0.572
		c0,0.232-0.071,0.429-0.213,0.59s-0.306,0.242-0.492,0.242c-0.169,0-0.31-0.052-0.419-0.156
		C158.275,313.765,158.22,313.617,158.22,313.428"/>
	<path clip-path="url(#SVGID_2_)" fill="#15254B" d="M163.99,322.162l0.938-4.394c0.085-0.439,0.127-0.745,0.127-0.914
		c0-0.266-0.073-0.479-0.224-0.641c-0.151-0.16-0.391-0.241-0.721-0.241c-0.377,0-0.744,0.127-1.102,0.38
		c-0.357,0.254-0.673,0.617-0.945,1.086c-0.273,0.471-0.479,1.039-0.619,1.707l-0.642,3.017h-1.065l1.483-6.957h0.884l-0.14,1.288
		h0.063c0.406-0.517,0.799-0.882,1.178-1.096s0.771-0.319,1.178-0.319c0.537,0,0.96,0.146,1.272,0.44
		c0.311,0.294,0.466,0.706,0.466,1.235c0,0.334-0.048,0.715-0.146,1.142l-0.907,4.267H163.99z"/>
	<path clip-path="url(#SVGID_2_)" fill="#15254B" d="M23.675,337.02c0.232,0,0.537-0.057,0.914-0.165v0.817
		c-0.144,0.061-0.322,0.111-0.533,0.153c-0.212,0.043-0.381,0.063-0.508,0.063c-0.529,0-0.935-0.126-1.216-0.378
		c-0.281-0.251-0.423-0.627-0.423-1.126c0-0.278,0.039-0.596,0.116-0.952l0.805-3.82h-1.092l0.089-0.464l1.174-0.495l0.794-1.447
		h0.622l-0.349,1.599h1.74l-0.166,0.808h-1.733l-0.818,3.834c-0.076,0.368-0.115,0.646-0.115,0.838c0,0.236,0.061,0.419,0.184,0.546
		S23.454,337.02,23.675,337.02"/>
	<path clip-path="url(#SVGID_2_)" fill="#15254B" d="M30.009,337.762l0.939-4.394c0.077-0.396,0.116-0.683,0.116-0.855
		c0-0.627-0.312-0.939-0.934-0.939c-0.377,0-0.744,0.125-1.101,0.374c-0.358,0.25-0.673,0.612-0.946,1.088
		c-0.273,0.477-0.479,1.051-0.619,1.725l-0.641,3.002h-1.066l2.094-9.877h1.066c-0.076,0.348-0.148,0.684-0.219,1.01
		c-0.069,0.325-0.141,0.655-0.215,0.993c-0.075,0.336-0.155,0.688-0.242,1.057c-0.086,0.368-0.187,0.768-0.3,1.2h0.069
		c0.397-0.521,0.79-0.895,1.178-1.117c0.386-0.225,0.792-0.337,1.216-0.337c0.553,0,0.982,0.152,1.285,0.457
		c0.302,0.304,0.453,0.735,0.453,1.295c0,0.262-0.048,0.614-0.146,1.053c-0.165,0.818-0.471,2.24-0.921,4.267H30.009z"/>
	<path clip-path="url(#SVGID_2_)" fill="#15254B" d="M36.008,337.889c-0.778,0-1.39-0.231-1.834-0.692
		c-0.445-0.462-0.667-1.1-0.667-1.917c0-0.796,0.157-1.558,0.473-2.289c0.315-0.729,0.733-1.298,1.254-1.704
		c0.52-0.405,1.094-0.608,1.719-0.608c0.649,0,1.135,0.14,1.461,0.422s0.489,0.674,0.489,1.177c0,0.762-0.352,1.36-1.054,1.793
		c-0.702,0.436-1.708,0.652-3.015,0.652h-0.21l-0.025,0.508c0,0.553,0.13,0.986,0.391,1.297c0.259,0.312,0.663,0.467,1.209,0.467
		c0.266,0,0.541-0.038,0.822-0.113c0.281-0.076,0.632-0.217,1.05-0.419v0.927c-0.398,0.185-0.748,0.315-1.053,0.389
		C36.713,337.852,36.376,337.889,36.008,337.889 M36.891,331.586c-0.437,0-0.846,0.197-1.229,0.597
		c-0.382,0.396-0.675,0.95-0.878,1.656h0.076c0.965,0,1.704-0.126,2.218-0.378c0.514-0.251,0.771-0.616,0.771-1.096
		c0-0.223-0.077-0.41-0.231-0.558C37.463,331.659,37.221,331.586,36.891,331.586"/>
	<path clip-path="url(#SVGID_2_)" fill="#15254B" d="M47.339,335.788c0,0.659-0.234,1.175-0.702,1.545
		c-0.468,0.371-1.126,0.556-1.978,0.556c-0.715,0-1.36-0.146-1.935-0.438v-1.004c0.296,0.179,0.615,0.316,0.959,0.412
		c0.342,0.099,0.66,0.147,0.951,0.147c0.533,0,0.935-0.107,1.207-0.318c0.27-0.212,0.406-0.481,0.406-0.812
		c0-0.241-0.074-0.444-0.222-0.61c-0.149-0.165-0.468-0.391-0.959-0.679c-0.55-0.31-0.94-0.612-1.168-0.907
		c-0.229-0.297-0.342-0.648-0.342-1.054c0-0.584,0.213-1.056,0.64-1.413c0.428-0.358,0.991-0.536,1.689-0.536
		c0.724,0,1.422,0.157,2.095,0.469l-0.343,0.87l-0.356-0.159c-0.427-0.181-0.892-0.271-1.396-0.271
		c-0.394,0-0.702,0.092-0.927,0.274c-0.224,0.186-0.336,0.423-0.336,0.716c0,0.235,0.074,0.439,0.225,0.608
		c0.15,0.169,0.461,0.387,0.93,0.654c0.453,0.254,0.778,0.471,0.974,0.654c0.197,0.182,0.344,0.377,0.442,0.587
		C47.29,335.289,47.339,335.524,47.339,335.788"/>
	<path clip-path="url(#SVGID_2_)" fill="#15254B" d="M51.104,330.805l-0.953,4.411c-0.076,0.377-0.113,0.672-0.113,0.883
		c0,0.604,0.31,0.907,0.932,0.907c0.372,0,0.738-0.127,1.099-0.381c0.359-0.254,0.677-0.618,0.951-1.092
		c0.275-0.474,0.485-1.045,0.629-1.713l0.635-3.016h1.053l-1.465,6.957h-0.883l0.139-1.288h-0.076
		c-0.415,0.527-0.81,0.896-1.186,1.104c-0.377,0.207-0.767,0.312-1.168,0.312c-0.542,0-0.968-0.147-1.277-0.441
		c-0.308-0.294-0.463-0.714-0.463-1.26c0-0.263,0.046-0.626,0.14-1.092l0.926-4.291H51.104z"/>
	<path clip-path="url(#SVGID_2_)" fill="#15254B" d="M58.956,337.889c-0.821,0-1.458-0.228-1.911-0.68
		c-0.452-0.453-0.679-1.092-0.679-1.917c0-0.846,0.156-1.627,0.47-2.342c0.313-0.715,0.746-1.273,1.298-1.673
		c0.552-0.4,1.174-0.601,1.863-0.601c0.58,0,1.147,0.108,1.701,0.324l-0.298,0.896c-0.507-0.216-0.971-0.323-1.39-0.323
		c-0.474,0-0.907,0.161-1.298,0.485c-0.392,0.322-0.698,0.773-0.921,1.351c-0.222,0.579-0.333,1.206-0.333,1.883
		c0,0.541,0.141,0.963,0.422,1.264s0.67,0.45,1.165,0.45c0.305,0,0.593-0.043,0.863-0.127c0.271-0.085,0.537-0.184,0.8-0.299v0.909
		C60.184,337.755,59.6,337.889,58.956,337.889"/>
	<path clip-path="url(#SVGID_2_)" fill="#15254B" d="M64.808,337.889c-0.821,0-1.458-0.228-1.911-0.68
		c-0.452-0.453-0.679-1.092-0.679-1.917c0-0.846,0.156-1.627,0.47-2.342c0.313-0.715,0.746-1.273,1.298-1.673
		c0.552-0.4,1.174-0.601,1.863-0.601c0.58,0,1.147,0.108,1.701,0.324l-0.298,0.896c-0.507-0.216-0.971-0.323-1.39-0.323
		c-0.474,0-0.907,0.161-1.298,0.485c-0.392,0.322-0.698,0.773-0.921,1.351c-0.222,0.579-0.333,1.206-0.333,1.883
		c0,0.541,0.141,0.963,0.422,1.264c0.281,0.301,0.67,0.45,1.165,0.45c0.305,0,0.593-0.043,0.863-0.127
		c0.271-0.085,0.537-0.184,0.8-0.299v0.909C66.036,337.755,65.452,337.889,64.808,337.889"/>
	<path clip-path="url(#SVGID_2_)" fill="#15254B" d="M70.571,337.889c-0.778,0-1.39-0.231-1.834-0.692
		c-0.445-0.462-0.667-1.1-0.667-1.917c0-0.796,0.157-1.558,0.473-2.289c0.315-0.729,0.733-1.298,1.254-1.704
		c0.52-0.405,1.094-0.608,1.719-0.608c0.649,0,1.135,0.14,1.461,0.422s0.489,0.674,0.489,1.177c0,0.762-0.352,1.36-1.054,1.793
		c-0.702,0.436-1.708,0.652-3.015,0.652h-0.21l-0.025,0.508c0,0.553,0.13,0.986,0.391,1.297c0.259,0.312,0.663,0.467,1.209,0.467
		c0.266,0,0.541-0.038,0.822-0.113c0.281-0.076,0.632-0.217,1.05-0.419v0.927c-0.398,0.185-0.748,0.315-1.053,0.389
		C71.276,337.852,70.939,337.889,70.571,337.889 M71.455,331.586c-0.437,0-0.846,0.197-1.229,0.597
		c-0.382,0.396-0.675,0.95-0.878,1.656h0.076c0.965,0,1.704-0.126,2.218-0.378c0.514-0.251,0.771-0.616,0.771-1.096
		c0-0.223-0.077-0.41-0.231-0.558C72.026,331.659,71.785,331.586,71.455,331.586"/>
	<path clip-path="url(#SVGID_2_)" fill="#15254B" d="M78.526,335.788c0,0.659-0.234,1.175-0.702,1.545
		c-0.468,0.371-1.126,0.556-1.978,0.556c-0.715,0-1.36-0.146-1.935-0.438v-1.004c0.296,0.179,0.615,0.316,0.959,0.412
		c0.342,0.099,0.66,0.147,0.951,0.147c0.533,0,0.935-0.107,1.207-0.318c0.27-0.212,0.406-0.481,0.406-0.812
		c0-0.241-0.074-0.444-0.222-0.61c-0.149-0.165-0.468-0.391-0.959-0.679c-0.55-0.31-0.94-0.612-1.168-0.907
		c-0.229-0.297-0.342-0.648-0.342-1.054c0-0.584,0.213-1.056,0.64-1.413c0.428-0.358,0.991-0.536,1.689-0.536
		c0.724,0,1.422,0.157,2.095,0.469l-0.343,0.87l-0.356-0.159c-0.427-0.181-0.892-0.271-1.396-0.271
		c-0.394,0-0.702,0.092-0.927,0.274c-0.224,0.186-0.336,0.423-0.336,0.716c0,0.235,0.074,0.439,0.225,0.608
		c0.15,0.169,0.461,0.387,0.93,0.654c0.453,0.254,0.778,0.471,0.974,0.654c0.197,0.182,0.344,0.377,0.442,0.587
		C78.477,335.289,78.526,335.524,78.526,335.788"/>
	<path clip-path="url(#SVGID_2_)" fill="#15254B" d="M84.092,335.788c0,0.659-0.234,1.175-0.702,1.545
		c-0.468,0.371-1.126,0.556-1.978,0.556c-0.715,0-1.36-0.146-1.935-0.438v-1.004c0.296,0.179,0.615,0.316,0.959,0.412
		c0.342,0.099,0.66,0.147,0.951,0.147c0.533,0,0.935-0.107,1.207-0.318c0.27-0.212,0.406-0.481,0.406-0.812
		c0-0.241-0.074-0.444-0.222-0.61c-0.149-0.165-0.468-0.391-0.959-0.679c-0.55-0.31-0.94-0.612-1.168-0.907
		c-0.229-0.297-0.342-0.648-0.342-1.054c0-0.584,0.213-1.056,0.64-1.413c0.428-0.358,0.991-0.536,1.689-0.536
		c0.724,0,1.422,0.157,2.095,0.469l-0.343,0.87l-0.356-0.159c-0.427-0.181-0.892-0.271-1.396-0.271
		c-0.394,0-0.702,0.092-0.927,0.274c-0.224,0.186-0.336,0.423-0.336,0.716c0,0.235,0.074,0.439,0.225,0.608
		c0.15,0.169,0.461,0.387,0.93,0.654c0.453,0.254,0.778,0.471,0.974,0.654c0.197,0.182,0.344,0.377,0.442,0.587
		C84.043,335.289,84.092,335.524,84.092,335.788"/>
	<path clip-path="url(#SVGID_2_)" fill="#15254B" d="M92.452,330.716c0.804,0,1.438,0.237,1.904,0.714
		c0.465,0.476,0.698,1.132,0.698,1.965c0,0.795-0.153,1.546-0.458,2.253c-0.304,0.706-0.716,1.252-1.237,1.638
		c-0.52,0.386-1.108,0.577-1.764,0.577c-0.813,0-1.45-0.238-1.911-0.717c-0.462-0.478-0.692-1.131-0.692-1.961
		c0-0.804,0.154-1.561,0.464-2.27c0.308-0.708,0.725-1.253,1.25-1.632C91.229,330.904,91.812,330.716,92.452,330.716 M93.95,333.249
		c0-0.487-0.133-0.883-0.397-1.186c-0.265-0.301-0.624-0.453-1.076-0.453c-0.462,0-0.875,0.157-1.241,0.471
		c-0.366,0.313-0.649,0.747-0.85,1.304c-0.202,0.556-0.302,1.176-0.302,1.856c0,0.555,0.135,0.983,0.403,1.285
		c0.269,0.304,0.654,0.454,1.158,0.454c0.441,0,0.836-0.154,1.188-0.463c0.35-0.309,0.625-0.748,0.821-1.318
		C93.851,334.632,93.95,333.979,93.95,333.249"/>
	<path clip-path="url(#SVGID_2_)" fill="#15254B" d="M95.002,340.885c-0.292,0-0.557-0.046-0.793-0.134v-0.894
		c0.271,0.091,0.508,0.138,0.711,0.138c0.321,0,0.568-0.131,0.742-0.392c0.174-0.265,0.314-0.638,0.419-1.124l1.441-6.868h-1.225
		l0.082-0.426l1.309-0.419l0.145-0.636c0.194-0.846,0.465-1.443,0.81-1.793c0.344-0.35,0.855-0.522,1.533-0.522
		c0.169,0,0.376,0.023,0.621,0.072c0.246,0.049,0.436,0.103,0.572,0.161l-0.273,0.819c-0.322-0.123-0.612-0.184-0.869-0.184
		c-0.37,0-0.652,0.102-0.848,0.307c-0.197,0.206-0.356,0.581-0.48,1.127l-0.159,0.687h1.512l-0.159,0.807h-1.505l-1.473,6.969
		c-0.164,0.8-0.418,1.384-0.761,1.751C96.012,340.7,95.562,340.885,95.002,340.885"/>
	<path clip-path="url(#SVGID_2_)" fill="#15254B" d="M106.231,337.889c-0.778,0-1.391-0.231-1.834-0.692
		c-0.445-0.462-0.667-1.1-0.667-1.917c0-0.796,0.156-1.558,0.473-2.289c0.315-0.729,0.733-1.298,1.254-1.704
		c0.521-0.405,1.094-0.608,1.719-0.608c0.649,0,1.136,0.14,1.461,0.422c0.326,0.282,0.489,0.674,0.489,1.177
		c0,0.762-0.352,1.36-1.054,1.793c-0.702,0.436-1.708,0.652-3.016,0.652h-0.21l-0.024,0.508c0,0.553,0.13,0.986,0.391,1.297
		c0.259,0.312,0.663,0.467,1.209,0.467c0.267,0,0.541-0.038,0.822-0.113c0.281-0.076,0.632-0.217,1.05-0.419v0.927
		c-0.397,0.185-0.748,0.315-1.053,0.389C106.936,337.852,106.598,337.889,106.231,337.889 M107.114,331.586
		c-0.438,0-0.846,0.197-1.229,0.597c-0.382,0.396-0.675,0.95-0.878,1.656h0.076c0.965,0,1.704-0.126,2.218-0.378
		c0.515-0.251,0.771-0.616,0.771-1.096c0-0.223-0.077-0.41-0.231-0.558C107.686,331.659,107.444,331.586,107.114,331.586"/>
	<path clip-path="url(#SVGID_2_)" fill="#15254B" d="M113.576,330.678c0.389,0,0.735,0.104,1.041,0.313
		c0.305,0.209,0.541,0.511,0.711,0.905h0.069l0.425-1.092h0.807l-1.479,6.957h-0.845l0.165-1.326h-0.051
		c-0.758,0.968-1.555,1.453-2.393,1.453c-0.59,0-1.051-0.209-1.386-0.628c-0.334-0.419-0.501-0.992-0.501-1.722
		c0-0.88,0.151-1.695,0.451-2.449s0.715-1.345,1.244-1.771C112.365,330.892,112.945,330.678,113.576,330.678 M112.369,337.007
		c0.411,0,0.818-0.196,1.226-0.589c0.406-0.391,0.736-0.9,0.99-1.528c0.254-0.629,0.381-1.258,0.381-1.89
		c0-0.435-0.118-0.781-0.355-1.041c-0.237-0.258-0.549-0.387-0.933-0.387c-0.44,0-0.85,0.182-1.229,0.546s-0.676,0.857-0.893,1.479
		c-0.215,0.622-0.323,1.277-0.323,1.968c0,0.482,0.1,0.843,0.298,1.082S112.009,337.007,112.369,337.007"/>
	<path clip-path="url(#SVGID_2_)" fill="#15254B" d="M120.076,337.889c-0.821,0-1.458-0.228-1.911-0.68
		c-0.452-0.453-0.679-1.092-0.679-1.917c0-0.846,0.155-1.627,0.47-2.342c0.313-0.715,0.746-1.273,1.298-1.673
		c0.552-0.4,1.174-0.601,1.863-0.601c0.58,0,1.146,0.108,1.701,0.324l-0.298,0.896c-0.508-0.216-0.972-0.323-1.391-0.323
		c-0.474,0-0.907,0.161-1.298,0.485c-0.392,0.322-0.698,0.773-0.921,1.351c-0.222,0.579-0.333,1.206-0.333,1.883
		c0,0.541,0.141,0.963,0.422,1.264s0.67,0.45,1.165,0.45c0.305,0,0.593-0.043,0.863-0.127c0.271-0.085,0.537-0.184,0.8-0.299v0.909
		C121.303,337.755,120.719,337.889,120.076,337.889"/>
	<path clip-path="url(#SVGID_2_)" fill="#15254B" d="M127.343,337.762l0.938-4.394c0.077-0.396,0.116-0.683,0.116-0.855
		c0-0.627-0.312-0.939-0.934-0.939c-0.377,0-0.744,0.125-1.102,0.374c-0.357,0.25-0.673,0.612-0.945,1.088
		c-0.273,0.477-0.479,1.051-0.619,1.725l-0.642,3.002h-1.065l2.094-9.877h1.066c-0.076,0.348-0.148,0.684-0.22,1.01
		c-0.068,0.325-0.141,0.655-0.215,0.993c-0.075,0.336-0.155,0.688-0.242,1.057c-0.086,0.368-0.187,0.768-0.3,1.2h0.069
		c0.396-0.521,0.79-0.895,1.178-1.117c0.386-0.225,0.792-0.337,1.216-0.337c0.554,0,0.982,0.152,1.285,0.457
		c0.302,0.304,0.453,0.735,0.453,1.295c0,0.262-0.048,0.614-0.146,1.053c-0.165,0.818-0.472,2.24-0.922,4.267H127.343z"/>
	<path clip-path="url(#SVGID_2_)" fill="#15254B" d="M138.262,335.788c0,0.659-0.234,1.175-0.702,1.545
		c-0.468,0.371-1.126,0.556-1.978,0.556c-0.716,0-1.36-0.146-1.936-0.438v-1.004c0.296,0.179,0.615,0.316,0.959,0.412
		c0.342,0.099,0.66,0.147,0.951,0.147c0.533,0,0.935-0.107,1.207-0.318c0.27-0.212,0.406-0.481,0.406-0.812
		c0-0.241-0.074-0.444-0.223-0.61c-0.148-0.165-0.468-0.391-0.959-0.679c-0.55-0.31-0.939-0.612-1.168-0.907
		c-0.229-0.297-0.342-0.648-0.342-1.054c0-0.584,0.213-1.056,0.64-1.413c0.429-0.358,0.991-0.536,1.689-0.536
		c0.724,0,1.422,0.157,2.095,0.469l-0.343,0.87l-0.356-0.159c-0.427-0.181-0.892-0.271-1.396-0.271
		c-0.394,0-0.702,0.092-0.927,0.274c-0.225,0.186-0.336,0.423-0.336,0.716c0,0.235,0.073,0.439,0.225,0.608
		c0.15,0.169,0.461,0.387,0.93,0.654c0.453,0.254,0.778,0.471,0.975,0.654c0.197,0.182,0.344,0.377,0.441,0.587
		C138.213,335.289,138.262,335.524,138.262,335.788"/>
	<path clip-path="url(#SVGID_2_)" fill="#15254B" d="M141.67,337.02c0.231,0,0.537-0.057,0.914-0.165v0.817
		c-0.145,0.061-0.322,0.111-0.533,0.153c-0.212,0.043-0.381,0.063-0.508,0.063c-0.529,0-0.936-0.126-1.216-0.378
		c-0.281-0.251-0.423-0.627-0.423-1.126c0-0.278,0.038-0.596,0.115-0.952l0.806-3.82h-1.093l0.09-0.464l1.174-0.495l0.794-1.447
		h0.622l-0.35,1.599h1.74l-0.166,0.808h-1.732l-0.818,3.834c-0.076,0.368-0.115,0.646-0.115,0.838c0,0.236,0.062,0.419,0.185,0.546
		C141.278,336.956,141.45,337.02,141.67,337.02"/>
	<path clip-path="url(#SVGID_2_)" fill="#15254B" d="M146.241,330.805l-0.953,4.411c-0.076,0.377-0.113,0.672-0.113,0.883
		c0,0.604,0.311,0.907,0.933,0.907c0.372,0,0.737-0.127,1.099-0.381c0.359-0.254,0.677-0.618,0.951-1.092s0.484-1.045,0.629-1.713
		l0.635-3.016h1.053l-1.465,6.957h-0.883l0.139-1.288h-0.075c-0.415,0.527-0.811,0.896-1.187,1.104
		c-0.377,0.207-0.767,0.312-1.168,0.312c-0.542,0-0.968-0.147-1.277-0.441c-0.308-0.294-0.463-0.714-0.463-1.26
		c0-0.263,0.046-0.626,0.141-1.092l0.926-4.291H146.241z"/>
	<path clip-path="url(#SVGID_2_)" fill="#15254B" d="M154.937,330.69c0.819,0,1.415,0.402,1.783,1.206h0.063
		c0.072-0.656,0.167-1.236,0.286-1.74l0.494-2.271h1.055l-2.096,9.877h-0.882l0.14-1.326h-0.051
		c-0.428,0.528-0.827,0.903-1.199,1.123c-0.373,0.22-0.758,0.33-1.156,0.33c-0.588,0-1.047-0.207-1.377-0.622
		c-0.331-0.414-0.496-0.99-0.496-1.728c0-0.904,0.153-1.733,0.457-2.487c0.306-0.753,0.716-1.335,1.235-1.745
		C153.711,330.896,154.292,330.69,154.937,330.69 M153.73,337.007c0.397,0,0.809-0.198,1.231-0.595
		c0.424-0.395,0.759-0.9,1.007-1.517c0.246-0.616,0.37-1.243,0.37-1.882c0-0.471-0.113-0.827-0.342-1.072
		c-0.229-0.247-0.561-0.369-0.997-0.369c-0.427,0-0.823,0.174-1.189,0.524c-0.366,0.348-0.66,0.84-0.883,1.472
		c-0.222,0.633-0.333,1.298-0.333,1.997C152.594,336.526,152.973,337.007,153.73,337.007"/>
	<path clip-path="url(#SVGID_2_)" fill="#15254B" d="M161.506,337.889c-0.778,0-1.391-0.231-1.834-0.692
		c-0.445-0.462-0.667-1.1-0.667-1.917c0-0.796,0.156-1.558,0.473-2.289c0.315-0.729,0.733-1.298,1.254-1.704
		c0.521-0.405,1.094-0.608,1.719-0.608c0.649,0,1.136,0.14,1.461,0.422c0.326,0.282,0.489,0.674,0.489,1.177
		c0,0.762-0.352,1.36-1.054,1.793c-0.702,0.436-1.708,0.652-3.016,0.652h-0.21l-0.024,0.508c0,0.553,0.13,0.986,0.391,1.297
		c0.259,0.312,0.663,0.467,1.209,0.467c0.267,0,0.541-0.038,0.822-0.113c0.281-0.076,0.632-0.217,1.05-0.419v0.927
		c-0.397,0.185-0.748,0.315-1.053,0.389C162.211,337.852,161.874,337.889,161.506,337.889 M162.389,331.586
		c-0.438,0-0.846,0.197-1.229,0.597c-0.382,0.396-0.675,0.95-0.878,1.656h0.076c0.965,0,1.704-0.126,2.218-0.378
		c0.515-0.251,0.771-0.616,0.771-1.096c0-0.223-0.077-0.41-0.231-0.558C162.961,331.659,162.719,331.586,162.389,331.586"/>
	<path clip-path="url(#SVGID_2_)" fill="#15254B" d="M169.421,337.762l0.938-4.394c0.085-0.438,0.127-0.744,0.127-0.914
		c0-0.266-0.073-0.479-0.224-0.64c-0.151-0.161-0.391-0.241-0.721-0.241c-0.377,0-0.744,0.126-1.102,0.38s-0.673,0.616-0.945,1.085
		c-0.273,0.47-0.479,1.039-0.619,1.708l-0.642,3.016h-1.065l1.483-6.957h0.884l-0.14,1.289h0.063
		c0.405-0.518,0.799-0.883,1.178-1.097c0.379-0.213,0.771-0.319,1.178-0.319c0.537,0,0.96,0.146,1.272,0.44
		c0.311,0.294,0.466,0.706,0.466,1.235c0,0.335-0.048,0.716-0.146,1.142l-0.907,4.267H169.421z"/>
	<path clip-path="url(#SVGID_2_)" fill="#15254B" d="M174.805,337.02c0.231,0,0.537-0.057,0.914-0.165v0.817
		c-0.145,0.061-0.322,0.111-0.533,0.153c-0.212,0.043-0.381,0.063-0.508,0.063c-0.529,0-0.936-0.126-1.216-0.378
		c-0.281-0.251-0.424-0.627-0.424-1.126c0-0.278,0.039-0.596,0.116-0.952l0.806-3.82h-1.093l0.089-0.464l1.175-0.495l0.794-1.447
		h0.622l-0.35,1.599h1.74l-0.166,0.808h-1.733l-0.817,3.834c-0.076,0.368-0.115,0.646-0.115,0.838c0,0.236,0.061,0.419,0.184,0.546
		S174.584,337.02,174.805,337.02"/>
	<path clip-path="url(#SVGID_2_)" fill="#15254B" d="M176.786,337.292c0-0.325,0.085-0.585,0.257-0.777
		c0.171-0.193,0.407-0.289,0.708-0.289c0.181,0,0.328,0.055,0.44,0.165s0.169,0.277,0.169,0.502c0,0.299-0.085,0.55-0.254,0.752
		c-0.171,0.201-0.398,0.301-0.686,0.301c-0.196,0-0.35-0.055-0.464-0.165C176.842,337.671,176.786,337.508,176.786,337.292"/>
</g>
</svg>
