<?xml version="1.0" encoding="utf-8"?>
<!-- Generator: Adobe Illustrator 19.0.0, SVG Export Plug-In . SVG Version: 6.00 Build 0)  -->
<svg version="1.1" id="Layer_1" xmlns="http://www.w3.org/2000/svg" xmlns:xlink="http://www.w3.org/1999/xlink" x="0px" y="0px"
	 width="208.7px" height="35.2px" viewBox="0 0 208.7 35.2" enable-background="new 0 0 208.7 35.2" xml:space="preserve">
<rect id="XMLID_10_" x="0" y="0" fill="#FFFFFF" width="208.7" height="35.2"/>
<g id="XMLID_2_">
	<g id="XMLID_116_">
		<defs>
			<rect id="XMLID_117_" x="5" y="17.1" width="198.7" height="1"/>
		</defs>
		<clipPath id="XMLID_25_">
			<use xlink:href="#XMLID_117_"  overflow="visible"/>
		</clipPath>
		<line id="XMLID_118_" clip-path="url(#XMLID_25_)" fill="none" stroke="#929497" x1="5" y1="17.6" x2="203.7" y2="17.6"/>
	</g>
	<g id="XMLID_113_">
		<circle id="XMLID_115_" fill="#FFFFFF" stroke="#929497" cx="35.5" cy="17.6" r="11.5"/>
		<g id="XMLID_114_">
			<path id="XMLID_16_" fill="#929497" d="M38.9,22.4h-6.3v-1.7h2v-5h-2v-1.5c0.3,0,0.6,0,0.9-0.1s0.5-0.1,0.7-0.2
				c0.2-0.1,0.4-0.2,0.5-0.4c0.1-0.2,0.2-0.4,0.2-0.6H37v7.8h1.9V22.4z"/>
		</g>
	</g>
	<g id="XMLID_110_">
		<circle id="XMLID_112_" fill="#FFFFFF" stroke="#929497" cx="80.8" cy="17.6" r="11.5"/>
		<g id="XMLID_111_">
			<path id="XMLID_9_" fill="#929497" d="M84.5,22.4h-7.4v-1.6c0.6-0.4,1.1-0.8,1.7-1.3s1-0.9,1.4-1.2c0.5-0.5,0.9-0.9,1.1-1.3
				s0.3-0.7,0.3-1.1c0-0.4-0.1-0.8-0.4-1c-0.3-0.2-0.7-0.4-1.2-0.4c-0.4,0-0.8,0.1-1.2,0.2c-0.4,0.2-0.8,0.4-1.2,0.6h-0.2v-2.1
				c0.3-0.1,0.7-0.3,1.3-0.4c0.6-0.1,1.2-0.2,1.8-0.2c1.2,0,2.1,0.2,2.7,0.7s0.9,1.2,0.9,2.1c0,0.6-0.1,1.2-0.4,1.7
				c-0.3,0.5-0.8,1.1-1.4,1.7c-0.4,0.4-0.8,0.7-1.2,1c-0.4,0.3-0.7,0.5-0.8,0.6h4.2V22.4z"/>
		</g>
	</g>
	<g id="XMLID_107_">
		<g id="XMLID_109_">
			<circle id="XMLID_15_" fill="#EBBC6B" cx="126" cy="17.6" r="11.5"/>
			<circle id="XMLID_14_" fill="none" stroke="#EBBC6B" stroke-width="4" cx="126" cy="17.6" r="11.5"/>
			<circle id="XMLID_13_" fill="none" stroke="#231F20" cx="126" cy="17.6" r="11.5"/>
		</g>
		<g id="XMLID_108_">
			<path id="XMLID_7_" fill="#231F20" d="M129.2,17.9c0.2,0.2,0.4,0.4,0.5,0.6c0.1,0.2,0.2,0.6,0.2,0.9c0,0.4-0.1,0.9-0.3,1.2
				c-0.2,0.4-0.4,0.7-0.8,1c-0.4,0.3-0.8,0.5-1.3,0.6c-0.5,0.1-1.1,0.2-1.7,0.2c-0.8,0-1.5-0.1-2-0.2s-1-0.3-1.4-0.4v-2.1h0.2
				c0.4,0.2,0.8,0.4,1.3,0.6c0.5,0.2,1,0.2,1.4,0.2c0.2,0,0.5,0,0.8-0.1c0.3,0,0.5-0.1,0.7-0.3c0.2-0.1,0.3-0.2,0.4-0.4
				c0.1-0.2,0.1-0.4,0.1-0.7c0-0.3-0.1-0.5-0.2-0.6s-0.3-0.3-0.5-0.3c-0.2-0.1-0.5-0.1-0.7-0.1c-0.3,0-0.6,0-0.8,0h-0.5v-1.7h0.5
				c0.3,0,0.6,0,0.9,0c0.3,0,0.5-0.1,0.6-0.1c0.2-0.1,0.3-0.2,0.4-0.3c0.1-0.1,0.1-0.3,0.1-0.6c0-0.2,0-0.3-0.1-0.5
				c-0.1-0.1-0.2-0.2-0.4-0.3c-0.2-0.1-0.4-0.1-0.6-0.2c-0.2,0-0.4,0-0.6,0c-0.4,0-0.8,0.1-1.3,0.2c-0.5,0.1-0.9,0.3-1.4,0.6h-0.2
				v-2c0.3-0.1,0.8-0.3,1.4-0.4s1.2-0.2,1.8-0.2c0.6,0,1.1,0.1,1.6,0.2c0.4,0.1,0.8,0.2,1.1,0.4c0.3,0.2,0.6,0.5,0.8,0.8
				c0.2,0.3,0.3,0.6,0.3,1c0,0.5-0.2,1-0.5,1.4c-0.3,0.4-0.8,0.7-1.3,0.8v0.1c0.2,0,0.4,0.1,0.7,0.2C128.8,17.6,129,17.8,129.2,17.9
				z"/>
		</g>
	</g>
	<g id="XMLID_104_">
		<circle id="XMLID_106_" fill="#FFFFFF" stroke="#929497" cx="171.3" cy="17.6" r="11.5"/>
		<g id="XMLID_105_">
			<path id="XMLID_4_" fill="#929497" d="M174.6,20.2h-1.3v2.2H171v-2.2h-4.6v-1.8l4.4-5.5h2.5v5.5h1.3V20.2z M171,18.5V15l-2.8,3.4
				H171z"/>
		</g>
	</g>
</g>
<g id="XMLID_3_">
</g>
<g id="XMLID_18_">
</g>
<g id="XMLID_20_">
</g>
<g id="XMLID_21_">
</g>
<g id="XMLID_22_">
</g>
<g id="XMLID_23_">
</g>
</svg>
