<?xml version="1.0" encoding="utf-8"?>
<!-- Generator: Adobe Illustrator 19.0.0, SVG Export Plug-In . SVG Version: 6.00 Build 0)  -->
<svg version="1.1" id="Layer_1" xmlns="http://www.w3.org/2000/svg" xmlns:xlink="http://www.w3.org/1999/xlink" x="0px" y="0px"
	 width="208.7px" height="40.5px" viewBox="-402 753.1 208.7 40.5" enable-background="new -402 753.1 208.7 40.5"
	 xml:space="preserve">
<rect id="XMLID_10_" x="-402" y="753.1" fill="#FFFFFF" width="208.7" height="40.5"/>
<g>
	<g id="XMLID_207_">
		<g>
			<defs>
				<rect id="SVGID_1_" x="-397" y="775.1" width="198.7" height="1"/>
			</defs>
			<clipPath id="SVGID_2_">
				<use xlink:href="#SVGID_1_"  overflow="visible"/>
			</clipPath>
			<line id="XMLID_209_" clip-path="url(#SVGID_2_)" fill="none" stroke="#929497" x1="-397" y1="775.6" x2="-198.3" y2="775.6"/>
		</g>
	</g>
	<g id="XMLID_204_">
		<polygon id="XMLID_206_" fill="#FFFFFF" stroke="#929497" stroke-miterlimit="10" points="-366.1,759.7 -361.5,769.2 -351,770.7 
			-358.6,778.1 -356.8,788.5 -366.1,783.6 -375.5,788.5 -373.7,778.1 -381.2,770.7 -370.8,769.2 		"/>
		<g id="XMLID_205_">
			<g>
				<path fill="#929497" d="M-363.1,780.4h-6.3v-1.7h2v-5h-2v-1.5c0.3,0,0.6,0,0.9-0.1s0.5-0.1,0.7-0.2s0.4-0.2,0.5-0.4
					c0.1-0.2,0.2-0.4,0.2-0.6h2.1v7.8h1.9L-363.1,780.4L-363.1,780.4z"/>
			</g>
		</g>
	</g>
	<g id="XMLID_201_">
		<polygon id="XMLID_203_" fill="#FFFFFF" stroke="#929497" stroke-miterlimit="10" points="-321,759.7 -316.4,769.2 -305.9,770.7 
			-313.5,778.1 -311.7,788.5 -321,783.6 -330.4,788.5 -328.6,778.1 -336.1,770.7 -325.7,769.2 		"/>
		<g id="XMLID_202_">
			<g>
				<path fill="#929497" d="M-317.1,780.4h-7.4v-1.6c0.6-0.4,1.1-0.8,1.7-1.3c0.6-0.5,1-0.9,1.4-1.2c0.5-0.5,0.9-0.9,1.1-1.3
					c0.2-0.4,0.3-0.7,0.3-1.1c0-0.4-0.1-0.8-0.4-1c-0.3-0.2-0.7-0.4-1.2-0.4c-0.4,0-0.8,0.1-1.2,0.2c-0.4,0.2-0.8,0.4-1.2,0.6h-0.2
					v-2.1c0.3-0.1,0.7-0.3,1.3-0.4c0.6-0.1,1.2-0.2,1.8-0.2c1.2,0,2.1,0.2,2.7,0.7s0.9,1.2,0.9,2.1c0,0.6-0.1,1.2-0.4,1.7
					c-0.3,0.5-0.8,1.1-1.4,1.7c-0.4,0.4-0.8,0.7-1.2,1c-0.4,0.3-0.7,0.5-0.8,0.6h4.2C-317.1,778.4-317.1,780.4-317.1,780.4z"/>
			</g>
		</g>
	</g>
	<g id="XMLID_198_">
		<g id="XMLID_200_">
			<polygon fill="#EBBC6B" points="-275.9,759.7 -271.3,769.2 -260.8,770.7 -268.4,778.1 -266.6,788.5 -275.9,783.6 -285.3,788.5 
				-283.5,778.1 -291,770.7 -280.6,769.2 			"/>
			<polygon fill="none" stroke="#EBBC6B" stroke-width="4" stroke-miterlimit="10" points="-275.9,759.7 -271.3,769.2 -260.8,770.7 
				-268.4,778.1 -266.6,788.5 -275.9,783.6 -285.3,788.5 -283.5,778.1 -291,770.7 -280.6,769.2 			"/>
			<polygon fill="none" stroke="#231F20" stroke-miterlimit="10" points="-275.9,759.7 -271.3,769.2 -260.8,770.7 -268.4,778.1 
				-266.6,788.5 -275.9,783.6 -285.3,788.5 -283.5,778.1 -291,770.7 -280.6,769.2 			"/>
		</g>
		<g id="XMLID_199_">
			<path fill="#231F20" d="M-272.5,775.9c0.2,0.2,0.4,0.4,0.5,0.6s0.2,0.6,0.2,0.9c0,0.4-0.1,0.9-0.3,1.2c-0.2,0.4-0.4,0.7-0.8,1
				c-0.4,0.3-0.8,0.5-1.3,0.6s-1.1,0.2-1.7,0.2c-0.8,0-1.5-0.1-2-0.2c-0.6-0.1-1-0.3-1.4-0.4v-2.1h0.2c0.4,0.2,0.8,0.4,1.3,0.6
				c0.5,0.2,1,0.2,1.4,0.2c0.2,0,0.5,0,0.8-0.1c0.3,0,0.5-0.1,0.7-0.3c0.2-0.1,0.3-0.2,0.4-0.4c0.1-0.2,0.1-0.4,0.1-0.7
				c0-0.3-0.1-0.5-0.2-0.6s-0.3-0.3-0.5-0.3c-0.2-0.1-0.5-0.1-0.7-0.1c-0.3,0-0.6,0-0.8,0h-0.5v-1.7h0.5c0.3,0,0.6,0,0.9,0
				c0.3,0,0.5-0.1,0.6-0.1c0.2-0.1,0.3-0.2,0.4-0.3c0.1-0.1,0.1-0.3,0.1-0.6c0-0.2,0-0.3-0.1-0.5c-0.1-0.1-0.2-0.2-0.4-0.3
				c-0.2-0.1-0.4-0.1-0.6-0.2c-0.2,0-0.4,0-0.6,0c-0.4,0-0.8,0.1-1.3,0.2c-0.5,0.1-0.9,0.3-1.4,0.6l0,0v-2c0.3-0.1,0.8-0.3,1.4-0.4
				c0.6-0.1,1.2-0.2,1.8-0.2c0.6,0,1.1,0.1,1.6,0.2c0.4,0.1,0.8,0.2,1.1,0.4c0.3,0.2,0.6,0.5,0.8,0.8c0.2,0.3,0.3,0.6,0.3,1
				c0,0.5-0.2,1-0.5,1.4c-0.3,0.4-0.8,0.7-1.3,0.8v0.1c0.2,0,0.4,0.1,0.7,0.2C-273,775.6-272.7,775.8-272.5,775.9z"/>
		</g>
	</g>
	<g id="XMLID_195_">
		<polygon id="XMLID_197_" fill="#FFFFFF" stroke="#929497" stroke-miterlimit="10" points="-230.9,759.7 -226.2,769.2 
			-215.8,770.7 -223.3,778.1 -221.5,788.5 -230.9,783.6 -240.2,788.5 -238.4,778.1 -246,770.7 -235.5,769.2 		"/>
		<g id="XMLID_196_">
			<path fill="#929497" d="M-227.4,778.2h-1.3v2.2h-2.3v-2.2h-4.6v-1.8l4.4-5.5h2.5v5.5h1.3V778.2z M-231,776.4V773l-2.8,3.4H-231z"
				/>
		</g>
	</g>
</g>
<g id="XMLID_2_">
</g>
<g id="XMLID_14_">
</g>
<g id="XMLID_15_">
</g>
<g id="XMLID_16_">
</g>
<g id="XMLID_17_">
</g>
<g id="XMLID_18_">
</g>
<g id="XMLID_231_">
</g>
</svg>
