<svg id="Layer_1" data-name="Layer 1" xmlns="http://www.w3.org/2000/svg" xmlns:xlink="http://www.w3.org/1999/xlink" width="349.0343" height="148.8375" viewBox="0 0 349.0343 148.8375">
  <defs>
    <style>
      .cls-1 {
        fill: none;
      }

      .cls-2 {
        clip-path: url(#clip-path);
      }

      .cls-3 {
        fill: #051c35;
      }

      .cls-4 {
        fill: #0081c5;
      }

      .cls-5 {
        fill: #064f88;
      }
    </style>
    <clipPath id="clip-path" transform="translate(-26.2407 -19.8287)">
      <rect class="cls-1" width="402.591" height="188.333"/>
    </clipPath>
  </defs>
  <title>reportKAPlogo</title>
  <g>
    <g class="cls-2">
      <path class="cls-3" d="M141.418,48.354a41.1278,41.1278,0,0,0-14.143-16.06,40.0282,40.0282,0,0,0-9.687-4.626,48.3222,48.3222,0,0,0-10.54-2.024,69.562,69.562,0,0,0-21.365,1.821A71.2925,71.2925,0,0,0,65.97,35.836c-12.225,7.437-22.846,17.789-29.659,30.38a73.6958,73.6958,0,0,0-4.336,9.773,69.6507,69.6507,0,0,0-2.667,10.339,65.43,65.43,0,0,0-.012,21.278,69.9773,69.9773,0,0,0,18.696,37.765,70.9428,70.9428,0,0,0,37.02,20.316c1.748.388,3.524.617,5.294.883,1.781.171,3.561.388,5.352.433,1.789.124,3.582.067,5.374.064,1.789-.102,3.582-.158,5.363-.384a69.6155,69.6155,0,0,0,20.758-5.427,76.4136,76.4136,0,0,0,18.353-11.273,71.9819,71.9819,0,0,0,7.778-7.526,65.6874,65.6874,0,0,0,6.565-8.628c-7.423,12.494-19.036,22.307-32.249,28.434a70.4863,70.4863,0,0,1-21.046,5.827c-1.813.256-3.641.342-5.467.47-1.829.029-3.661.112-5.49.015-1.833-.022-3.656-.218-5.482-.367-1.815-.246-3.637-.457-5.434-.828a72.0376,72.0376,0,0,1-57.597-59.423A67.6535,67.6535,0,0,1,27.2,85.965a71.8926,71.8926,0,0,1,2.805-10.67,75.88,75.88,0,0,1,4.517-10.053,82.3778,82.3778,0,0,1,5.99-9.232,88.9621,88.9621,0,0,1,7.227-8.282A84.8561,84.8561,0,0,1,65.095,34.36a72.8122,72.8122,0,0,1,20.263-8.267,70.28,70.28,0,0,1,21.791-1.537,49.2986,49.2986,0,0,1,10.705,2.315,40.2916,40.2916,0,0,1,23.564,21.483" transform="translate(-26.2407 -19.8287)"/>
    </g>
    <g class="cls-2">
      <path class="cls-4" d="M124.192,41.601a40.1126,40.1126,0,0,0-16.22-11.708A42.7244,42.7244,0,0,0,88.197,27.51a64.9955,64.9955,0,0,0-19.342,5.172,45.149,45.149,0,0,0-8.754,4.805c-.682.477-1.405.898-2.053,1.421l-1.922,1.594c-.633.541-1.3,1.041-1.904,1.614l-1.759,1.773A60.8179,60.8179,0,0,0,41.162,60.251,74.5111,74.5111,0,0,0,35.13,79.28a81.0618,81.0618,0,0,0-1.05,19.953l.19,2.495c.084.829.225,1.652.334,2.478l.35,2.477c.137.8.317,1.611.505,2.42a78.8456,78.8456,0,0,0,2.949,9.556c4.648,12.497,12.178,24.067,22.464,32.593a66.4912,66.4912,0,0,0,17.047,10.314,69.2706,69.2706,0,0,0,19.31,5.058,77.2825,77.2825,0,0,0,29.824-2.758,60.0255,60.0255,0,0,0,9.391-3.572c1.543-.665,2.999-1.505,4.496-2.269,1.442-.86,2.917-1.672,4.306-2.622a69.0749,69.0749,0,0,0,8.046-6.089,77.5828,77.5828,0,0,0,13.329-15.176,73.5666,73.5666,0,0,1-29.7,27.146,59.772,59.772,0,0,1-9.5,3.788,78.7331,78.7331,0,0,1-30.371,3.267l-5.092-.683-5.036-1.044-4.936-1.446c-1.619-.559-3.208-1.211-4.813-1.812A68.5636,68.5636,0,0,1,59.57,152.822c-10.644-8.739-18.441-20.588-23.26-33.382a80.8443,80.8443,0,0,1-2.983-9.842c-.191-.841-.373-1.683-.518-2.549l-.348-2.552c-.109-.85-.249-1.697-.331-2.551l-.184-2.565a83.1266,83.1266,0,0,1,1.18-20.464,76.46,76.46,0,0,1,6.292-19.506,59.8683,59.8683,0,0,1,11.83-16.737l1.843-1.801c.632-.58,1.329-1.089,1.99-1.636l2.008-1.614c.677-.528,1.429-.954,2.139-1.435a46.6718,46.6718,0,0,1,9.075-4.805A65.7136,65.7136,0,0,1,88.101,26.42a43.5812,43.5812,0,0,1,20.091,2.923,38.65,38.65,0,0,1,8.814,5.094,42.07,42.07,0,0,1,7.186,7.164" transform="translate(-26.2407 -19.8287)"/>
    </g>
    <g class="cls-2">
      <path class="cls-4" d="M125.054,39.003c-.957-.32-1.491-.141-1.572.205-.08.353.297.751,1.22,1.064.925.303,2.117.37,2.197.165.072-.206-.878-1.129-1.845-1.434" transform="translate(-26.2407 -19.8287)"/>
    </g>
    <g class="cls-2">
      <path class="cls-4" d="M122.785,36.69c-.976-.232-1.499-.018-1.551.335-.051.358.364.736,1.323.962.957.224,2.145.12,2.193-.088.047-.212-.98-.989-1.965-1.209" transform="translate(-26.2407 -19.8287)"/>
    </g>
    <g class="cls-2">
      <path class="cls-4" d="M120.363,34.557c-.987-.17-1.497.067-1.529.424-.032.361.408.719,1.383.885.973.167,2.148-.035,2.179-.246.031-.213-1.039-.901-2.033-1.063" transform="translate(-26.2407 -19.8287)"/>
    </g>
    <g class="cls-2">
      <path class="cls-4" d="M117.835,32.559c-.995-.121-1.491.136-1.508.496-.015.361.443.699,1.427.819.981.12,2.143-.148,2.162-.36.02-.216-1.082-.841-2.081-.955" transform="translate(-26.2407 -19.8287)"/>
    </g>
    <g class="cls-2">
      <path class="cls-4" d="M115.221,30.678c-1.002-.072-1.481.201-1.483.563-.001.365.472.678,1.46.755.985.077,2.135-.246,2.143-.458.01-.215-1.118-.787-2.12-.86" transform="translate(-26.2407 -19.8287)"/>
    </g>
    <g class="cls-2">
      <path class="cls-4" d="M121.945,42.055c-.199-.945-.044-1.468.315-1.541.354-.074.77.348.972,1.315.209.971-.094,2.105-.3,2.125-.206.026-.774-.96-.987-1.899" transform="translate(-26.2407 -19.8287)"/>
    </g>
    <g class="cls-2">
      <path class="cls-4" d="M119.769,39.904c-.263-.931-.131-1.463.221-1.557.35-.095.782.299,1.048,1.244.264.951.081,2.105-.126,2.149-.204.043-.875-.909-1.143-1.836" transform="translate(-26.2407 -19.8287)"/>
    </g>
    <g class="cls-2">
      <path class="cls-4" d="M117.47,37.874c-.31-.917-.205-1.455.142-1.566.345-.113.795.259,1.109,1.188.311.934.197,2.097-.007,2.154-.202.054-.931-.863-1.244-1.776" transform="translate(-26.2407 -19.8287)"/>
    </g>
    <g class="cls-2">
      <path class="cls-4" d="M115.072,35.964c-.357-.897-.286-1.441.055-1.572.339-.131.813.217,1.174,1.129.36.917.304,2.085.103,2.152-.199.064-.971-.816-1.332-1.709" transform="translate(-26.2407 -19.8287)"/>
    </g>
    <g class="cls-2">
      <path class="cls-4" d="M112.57,34.211c-.424-.858-.403-1.418-.075-1.573.323-.155.844.155,1.269,1.045.426.894.431,2.062.235,2.141-.194.073-1.009-.748-1.429-1.613" transform="translate(-26.2407 -19.8287)"/>
    </g>
    <g class="cls-2">
      <path class="cls-3" d="M138.739,39.837c-.936-.375-1.48-.228-1.582.113-.1.347.252.766,1.156,1.134.906.356,2.092.492,2.183.293.085-.201-.809-1.179-1.757-1.54" transform="translate(-26.2407 -19.8287)"/>
    </g>
    <g class="cls-2">
      <path class="cls-3" d="M136.61,37.395c-.96-.289-1.495-.105-1.568.244-.072.354.319.755,1.264,1.037.942.28,2.134.247,2.195.041.059-.209-.92-1.045-1.891-1.322" transform="translate(-26.2407 -19.8287)"/>
    </g>
    <g class="cls-2">
      <path class="cls-3" d="M134.317,35.124c-.976-.228-1.499-.021-1.552.333-.052.359.365.742,1.33.965.961.223,2.146.092,2.189-.117.045-.213-.985-.962-1.967-1.181" transform="translate(-26.2407 -19.8287)"/>
    </g>
    <g class="cls-2">
      <path class="cls-3" d="M131.911,32.981c-.986-.179-1.497.048-1.535.406-.037.361.401.724,1.376.902.973.177,2.148-.022,2.18-.233.031-.213-1.031-.902-2.021-1.075" transform="translate(-26.2407 -19.8287)"/>
    </g>
    <g class="cls-2">
      <path class="cls-3" d="M129.411,30.95c-.997-.13-1.491.113-1.514.476s.432.704,1.414.838c.979.135,2.145-.12,2.166-.331.023-.214-1.07-.851-2.066-.983" transform="translate(-26.2407 -19.8287)"/>
    </g>
    <g class="cls-2">
      <path class="cls-3" d="M135.591,42.46c-.144-.955.042-1.468.405-1.52.358-.053.748.393.893,1.371.151.981-.218,2.095-.424,2.103-.207.015-.717-1.003-.874-1.954" transform="translate(-26.2407 -19.8287)"/>
    </g>
    <g class="cls-2">
      <path class="cls-3" d="M133.544,40.186c-.208-.945-.045-1.469.312-1.541.355-.074.763.344.973,1.302.208.965-.042,2.107-.252,2.139-.205.032-.82-.959-1.033-1.9" transform="translate(-26.2407 -19.8287)"/>
    </g>
    <g class="cls-2">
      <path class="cls-3" d="M131.369,38.024c-.255-.934-.119-1.464.234-1.555.351-.092.779.305,1.037,1.25.256.951.074,2.106-.133,2.151-.204.042-.879-.916-1.138-1.846" transform="translate(-26.2407 -19.8287)"/>
    </g>
    <g class="cls-2">
      <path class="cls-3" d="M129.087,35.978c-.304-.917-.201-1.456.147-1.565.346-.112.799.263,1.106,1.194.306.937.181,2.1-.024,2.155-.202.052-.921-.871-1.229-1.784" transform="translate(-26.2407 -19.8287)"/>
    </g>
    <g class="cls-2">
      <path class="cls-3" d="M126.692,34.082c-.373-.881-.32-1.44.017-1.575.331-.135.834.204,1.206,1.118.372.917.31,2.084.109,2.151-.198.06-.964-.807-1.332-1.694" transform="translate(-26.2407 -19.8287)"/>
    </g>
    <g class="cls-2">
      <path class="cls-5" d="M151.997,40.54c-.929-.392-1.476-.254-1.583.084-.107.346.239.771,1.136,1.155.899.372,2.082.529,2.177.331.088-.199-.789-1.193-1.73-1.57" transform="translate(-26.2407 -19.8287)"/>
    </g>
    <g class="cls-2">
      <path class="cls-5" d="M149.911,38.06c-.955-.306-1.493-.132-1.572.216-.078.353.306.761,1.246,1.06.936.296,2.129.284,2.193.079.064-.209-.901-1.061-1.867-1.355" transform="translate(-26.2407 -19.8287)"/>
    </g>
    <g class="cls-2">
      <path class="cls-5" d="M147.659,35.748c-.972-.245-1.498-.047-1.558.307-.059.357.353.747,1.313.987.957.24,2.144.13,2.191-.079.047-.211-.968-.978-1.946-1.215" transform="translate(-26.2407 -19.8287)"/>
    </g>
    <g class="cls-2">
      <path class="cls-5" d="M145.291,33.563c-.983-.196-1.498.021-1.542.379-.043.36.389.731,1.36.926s2.148.016,2.183-.195-1.014-.92-2.001-1.11" transform="translate(-26.2407 -19.8287)"/>
    </g>
    <g class="cls-2">
      <path class="cls-5" d="M142.827,31.489c-.994-.148-1.492.087-1.522.449s.419.712,1.399.863c.977.152,2.147-.082,2.171-.293.027-.214-1.055-.87-2.048-1.019" transform="translate(-26.2407 -19.8287)"/>
    </g>
    <g class="cls-2">
      <path class="cls-5" d="M148.559,42.97c-.127-.958.067-1.467.431-1.513.36-.047.741.406.869,1.386.134.983-.255,2.091-.461,2.096-.208.011-.698-1.016-.839-1.969" transform="translate(-26.2407 -19.8287)"/>
    </g>
    <g class="cls-2">
      <path class="cls-5" d="M146.552,40.66c-.191-.948-.019-1.469.339-1.535.356-.069.757.357.951,1.319.19.968-.08,2.106-.29,2.134-.206.027-.803-.974-1-1.918" transform="translate(-26.2407 -19.8287)"/>
    </g>
    <g class="cls-2">
      <path class="cls-5" d="M144.415,38.46c-.239-.937-.093-1.466.261-1.55.353-.086.774.319,1.015,1.268.239.955.037,2.107-.172,2.148-.204.039-.861-.931-1.104-1.866" transform="translate(-26.2407 -19.8287)"/>
    </g>
    <g class="cls-2">
      <path class="cls-5" d="M142.17,36.374c-.288-.922-.176-1.459.174-1.563.348-.105.794.277,1.086,1.214.288.943.143,2.103-.063,2.154-.203.049-.905-.887-1.197-1.805" transform="translate(-26.2407 -19.8287)"/>
    </g>
    <g class="cls-2">
      <path class="cls-5" d="M139.808,34.435c-.357-.888-.294-1.445.045-1.574.334-.13.83.219,1.186,1.139.356.923.273,2.089.071,2.153-.198.057-.949-.823-1.302-1.718" transform="translate(-26.2407 -19.8287)"/>
    </g>
    <g class="cls-2">
      <path class="cls-4" d="M128.961,44.999c-1.48.224-4.411-2.908-4.812-3.608" transform="translate(-26.2407 -19.8287)"/>
    </g>
    <g class="cls-2">
      <path class="cls-4" d="M127.962,47.954c-.382-.736-.749-1.474-1.1-2.22a17.8,17.8,0,0,0-1.249-2.129,29.7451,29.7451,0,0,0-3.014-3.916,22.2729,22.2729,0,0,1,3.169,3.816,18.1177,18.1177,0,0,1,1.203,2.173q.519,1.13.991,2.276" transform="translate(-26.2407 -19.8287)"/>
    </g>
    <g class="cls-2">
      <path class="cls-4" d="M125.691,47.025c.803-.885-.362-4.104-1.449-5.536" transform="translate(-26.2407 -19.8287)"/>
    </g>
    <g class="cls-2">
      <path class="cls-3" d="M142.486,45.613c-1.48.224-4.411-2.908-4.812-3.608" transform="translate(-26.2407 -19.8287)"/>
    </g>
    <g class="cls-2">
      <path class="cls-3" d="M141.486,48.568c-.381-.736-.749-1.474-1.1-2.22a17.8,17.8,0,0,0-1.249-2.129,29.7451,29.7451,0,0,0-3.014-3.916,22.2579,22.2579,0,0,1,3.169,3.815,17.93,17.93,0,0,1,1.203,2.174q.5205,1.13.991,2.276" transform="translate(-26.2407 -19.8287)"/>
    </g>
    <g class="cls-2">
      <path class="cls-3" d="M139.215,47.639c.804-.886-.362-4.104-1.449-5.536" transform="translate(-26.2407 -19.8287)"/>
    </g>
    <g class="cls-2">
      <path class="cls-5" d="M155.733,46.214c-1.48.224-4.411-2.908-4.812-3.608" transform="translate(-26.2407 -19.8287)"/>
    </g>
    <g class="cls-2">
      <path class="cls-5" d="M154.734,49.17c-.382-.736-.749-1.474-1.1-2.22a17.8793,17.8793,0,0,0-1.249-2.129,29.7463,29.7463,0,0,0-3.014-3.916,22.273,22.273,0,0,1,3.169,3.816,18.1177,18.1177,0,0,1,1.203,2.173c.346.752.676,1.513.991,2.276" transform="translate(-26.2407 -19.8287)"/>
    </g>
    <g class="cls-2">
      <path class="cls-5" d="M152.463,48.241c.803-.885-.362-4.104-1.449-5.536" transform="translate(-26.2407 -19.8287)"/>
    </g>
    <g class="cls-2">
      <path class="cls-5" d="M151.468,43.45c-8.703-11.524-22.049-18.983-36.113-21.241a73.2994,73.2994,0,0,0-10.629-1.075c-1.782.023-3.565-.061-5.343.078-.889.052-1.78.082-2.667.152l-2.657.278A69.9416,69.9416,0,0,0,83.59,23.653a60.7532,60.7532,0,0,0-9.993,3.623A78.7463,78.7463,0,0,0,41.923,54.969,69.5593,69.5593,0,0,0,30.015,95.057a66.8119,66.8119,0,0,0,14.037,39.299,74.6119,74.6119,0,0,0,34.262,24.271,72.6856,72.6856,0,0,0,20.865,4.067,60.391,60.391,0,0,0,21.053-2.729,55.2486,55.2486,0,0,0,9.782-4.252,57.3883,57.3883,0,0,0,8.8-6.09,73.5128,73.5128,0,0,0,14.15-16.107A70.6593,70.6593,0,0,1,139.2,150.075a57.9847,57.9847,0,0,1-8.763,6.372,56.3161,56.3161,0,0,1-9.857,4.562,54.4121,54.4121,0,0,1-10.585,2.499,66.2233,66.2233,0,0,1-10.865.603,74.3415,74.3415,0,0,1-21.372-3.85,75.0456,75.0456,0,0,1-35.315-24.649A68.8876,68.8876,0,0,1,27.776,95.113,71.6984,71.6984,0,0,1,40.225,53.846,82.1038,82.1038,0,0,1,54.608,37.511,73.6812,73.6812,0,0,1,72.885,25.716a62.2714,62.2714,0,0,1,10.306-3.573,71.4322,71.4322,0,0,1,10.714-1.901l2.709-.245c.904-.058,1.812-.076,2.717-.116,1.81-.115,3.624-.005,5.436-.001a72.2058,72.2058,0,0,1,10.786,1.256c1.79.295,3.533.801,5.287,1.248.883.198,1.727.541,2.591.808.855.297,1.728.54,2.566.883,1.663.715,3.38,1.3,4.973,2.166l2.426,1.212,2.327,1.391a53.5213,53.5213,0,0,1,8.636,6.499,55.7713,55.7713,0,0,1,7.109,8.107" transform="translate(-26.2407 -19.8287)"/>
    </g>
    <g class="cls-2">
      <polygon class="cls-3" points="194.844 45.349 200.324 38.216 205.876 38.216 199.018 46.404 206.518 55.509 200.693 55.509 194.844 48.009 194.844 55.509 190.348 55.509 190.348 38.216 194.844 38.216 194.844 45.349"/>
    </g>
    <g class="cls-2">
      <path class="cls-3" d="M245.351,72.333h-6.423l-1.032,3.005h-4.793l6.583-17.293h4.907l6.583,17.293h-4.793Zm-1.194-3.416-2.019-5.756-2.018,5.756Z" transform="translate(-26.2407 -19.8287)"/>
    </g>
    <g class="cls-2">
      <polygon class="cls-3" points="226.907 55.509 226.907 38.217 231.403 38.217 239.704 48.79 239.704 38.217 244.178 38.217 244.178 55.509 239.704 55.509 231.403 44.936 231.403 55.509 226.907 55.509"/>
    </g>
    <g class="cls-2">
      <path class="cls-3" d="M283.537,62.472a5.5254,5.5254,0,0,0-1.469-.883,3.8752,3.8752,0,0,0-1.421-.286,2.3037,2.3037,0,0,0-1.423.413,1.2816,1.2816,0,0,0-.549,1.076,1.0763,1.0763,0,0,0,.274.759,2.4168,2.4168,0,0,0,.722.515,6.2307,6.2307,0,0,0,1.01.379c.374.107.745.22,1.111.344a6.9342,6.9342,0,0,1,3.223,1.959,4.835,4.835,0,0,1,1.022,3.2,6.2416,6.2416,0,0,1-.448,2.41,5.02,5.02,0,0,1-1.308,1.846,6.04,6.04,0,0,1-2.109,1.192,8.7881,8.7881,0,0,1-2.834.424,10.4211,10.4211,0,0,1-6.077-1.949l1.928-3.624a7.7981,7.7981,0,0,0,1.994,1.33,4.7939,4.7939,0,0,0,1.949.437,2.3287,2.3287,0,0,0,1.64-.506,1.5316,1.5316,0,0,0,.539-1.147,1.5523,1.5523,0,0,0-.138-.677,1.4635,1.4635,0,0,0-.457-.526,3.6123,3.6123,0,0,0-.839-.448q-.516-.2055-1.249-.459-.8715-.2745-1.709-.607a5.4046,5.4046,0,0,1-1.49-.882,4.1323,4.1323,0,0,1-1.055-1.389,4.8862,4.8862,0,0,1-.401-2.122,6.1194,6.1194,0,0,1,.424-2.327,5.1955,5.1955,0,0,1,1.191-1.789,5.33,5.33,0,0,1,1.882-1.158,7.1053,7.1053,0,0,1,2.487-.413,10.9,10.9,0,0,1,2.685.355,11.9263,11.9263,0,0,1,2.684,1.043Z" transform="translate(-26.2407 -19.8287)"/>
    </g>
    <g class="cls-2">
      <path class="cls-3" d="M299.134,72.333h-6.423l-1.032,3.005h-4.793l6.583-17.293h4.907l6.583,17.293h-4.793Zm-1.194-3.416-2.019-5.756-2.018,5.756Z" transform="translate(-26.2407 -19.8287)"/>
    </g>
    <g class="cls-2">
      <path class="cls-3" d="M316.427,62.472a5.5407,5.5407,0,0,0-1.469-.883,3.8831,3.8831,0,0,0-1.421-.286,2.2986,2.2986,0,0,0-1.422.413,1.281,1.281,0,0,0-.551,1.076,1.0815,1.0815,0,0,0,.275.759,2.4168,2.4168,0,0,0,.722.515,6.2887,6.2887,0,0,0,1.009.379c.375.107.746.22,1.112.344a6.9486,6.9486,0,0,1,3.224,1.959,4.8454,4.8454,0,0,1,1.021,3.2,6.2416,6.2416,0,0,1-.448,2.41,5.0176,5.0176,0,0,1-1.307,1.846,6.0361,6.0361,0,0,1-2.11,1.192,8.7817,8.7817,0,0,1-2.833.424,10.4218,10.4218,0,0,1-6.078-1.949l1.928-3.624a7.8022,7.8022,0,0,0,1.995,1.33,4.7939,4.7939,0,0,0,1.949.437,2.3287,2.3287,0,0,0,1.64-.506,1.5628,1.5628,0,0,0,.401-1.824,1.467,1.467,0,0,0-.458-.526,3.603,3.603,0,0,0-.838-.448q-.516-.2055-1.249-.459-.8715-.2745-1.709-.607a5.3959,5.3959,0,0,1-1.491-.882,4.1323,4.1323,0,0,1-1.055-1.389,4.8862,4.8862,0,0,1-.401-2.122,6.1194,6.1194,0,0,1,.424-2.327,5.1983,5.1983,0,0,1,1.192-1.789,5.3249,5.3249,0,0,1,1.881-1.158,7.111,7.111,0,0,1,2.488-.413,10.9,10.9,0,0,1,2.685.355,11.9008,11.9008,0,0,1,2.683,1.043Z" transform="translate(-26.2407 -19.8287)"/>
    </g>
    <g class="cls-2">
      <path class="cls-3" d="M227.187,95.269h-6.422l-1.033,3.005h-4.793l6.583-17.293h4.907l6.583,17.293h-4.793Zm-1.194-3.417-2.02-5.756-2.017,5.756Z" transform="translate(-26.2407 -19.8287)"/>
    </g>
    <g class="cls-2">
      <path class="cls-3" d="M244.479,85.407a5.5409,5.5409,0,0,0-1.469-.883,3.8832,3.8832,0,0,0-1.421-.286,2.2985,2.2985,0,0,0-1.422.413,1.281,1.281,0,0,0-.551,1.076,1.0815,1.0815,0,0,0,.275.759,2.4162,2.4162,0,0,0,.722.515,6.2526,6.2526,0,0,0,1.009.379c.375.107.746.22,1.112.344a6.9485,6.9485,0,0,1,3.224,1.959,4.8463,4.8463,0,0,1,1.021,3.201,6.24,6.24,0,0,1-.448,2.409,5.0057,5.0057,0,0,1-1.307,1.845,6.0064,6.0064,0,0,1-2.11,1.193,8.7816,8.7816,0,0,1-2.833.424,10.4148,10.4148,0,0,1-6.078-1.949l1.928-3.624a7.7964,7.7964,0,0,0,1.995,1.329,4.7758,4.7758,0,0,0,1.949.438,2.33,2.33,0,0,0,1.64-.506,1.5628,1.5628,0,0,0,.401-1.824,1.4589,1.4589,0,0,0-.458-.526,3.6418,3.6418,0,0,0-.838-.448q-.516-.2055-1.249-.46c-.581-.181-1.15-.384-1.709-.605a5.4479,5.4479,0,0,1-1.491-.883,4.1321,4.1321,0,0,1-1.055-1.389,4.8864,4.8864,0,0,1-.401-2.122,6.12,6.12,0,0,1,.424-2.327,5.1983,5.1983,0,0,1,1.192-1.789,5.3249,5.3249,0,0,1,1.881-1.158,7.0881,7.0881,0,0,1,2.488-.413,10.9,10.9,0,0,1,2.685.355,11.9011,11.9011,0,0,1,2.683,1.043Z" transform="translate(-26.2407 -19.8287)"/>
    </g>
    <g class="cls-2">
      <path class="cls-3" d="M259.295,85.407a5.5254,5.5254,0,0,0-1.469-.883,3.8753,3.8753,0,0,0-1.421-.286,2.3036,2.3036,0,0,0-1.423.413,1.2816,1.2816,0,0,0-.549,1.076,1.0763,1.0763,0,0,0,.274.759,2.4162,2.4162,0,0,0,.722.515,6.3019,6.3019,0,0,0,1.01.379c.374.107.745.22,1.111.344a6.9342,6.9342,0,0,1,3.223,1.959,4.8359,4.8359,0,0,1,1.022,3.201,6.24,6.24,0,0,1-.448,2.409,5.0175,5.0175,0,0,1-1.307,1.845,6.0245,6.0245,0,0,1-2.11,1.193,8.788,8.788,0,0,1-2.834.424,10.414,10.414,0,0,1-6.077-1.949l1.928-3.624a7.7924,7.7924,0,0,0,1.994,1.329,4.7793,4.7793,0,0,0,1.949.438,2.3286,2.3286,0,0,0,1.64-.506,1.5332,1.5332,0,0,0,.539-1.147,1.5523,1.5523,0,0,0-.138-.677,1.4553,1.4553,0,0,0-.457-.526,3.6628,3.6628,0,0,0-.838-.448q-.5175-.2055-1.25-.46c-.581-.181-1.15-.384-1.709-.605a5.4573,5.4573,0,0,1-1.49-.883,4.1193,4.1193,0,0,1-1.055-1.389,4.8864,4.8864,0,0,1-.401-2.122,6.12,6.12,0,0,1,.424-2.327,5.1959,5.1959,0,0,1,1.191-1.789,5.3291,5.3291,0,0,1,1.882-1.158,7.0824,7.0824,0,0,1,2.487-.413,10.88,10.88,0,0,1,2.684.355,11.916,11.916,0,0,1,2.685,1.043Z" transform="translate(-26.2407 -19.8287)"/>
    </g>
    <g class="cls-2">
      <polygon class="cls-3" points="248.214 64.96 242.87 64.96 242.87 67.848 247.916 67.848 247.916 71.656 242.87 71.656 242.87 74.637 248.214 74.637 248.214 78.444 238.375 78.444 238.375 61.151 248.214 61.151 248.214 64.96"/>
    </g>
    <g class="cls-2">
      <path class="cls-3" d="M287.184,85.407a5.552,5.552,0,0,0-1.468-.883,3.8763,3.8763,0,0,0-1.422-.286,2.3077,2.3077,0,0,0-1.423.413,1.2851,1.2851,0,0,0-.55,1.076,1.086,1.086,0,0,0,.275.759,2.4217,2.4217,0,0,0,.723.515,6.139,6.139,0,0,0,1.011.379c.373.107.743.22,1.111.344a6.932,6.932,0,0,1,3.221,1.959,4.8409,4.8409,0,0,1,1.021,3.201,6.2034,6.2034,0,0,1-.448,2.409,4.9827,4.9827,0,0,1-1.307,1.845,5.9975,5.9975,0,0,1-2.11,1.193,8.7778,8.7778,0,0,1-2.831.424,10.41,10.41,0,0,1-6.078-1.949l1.926-3.624a7.8313,7.8313,0,0,0,1.995,1.329,4.7768,4.7768,0,0,0,1.95.438,2.33,2.33,0,0,0,1.64-.506,1.54,1.54,0,0,0,.539-1.147,1.5818,1.5818,0,0,0-.137-.677,1.4657,1.4657,0,0,0-.46-.526,3.6235,3.6235,0,0,0-.836-.448q-.5175-.2055-1.251-.46c-.581-.181-1.15-.384-1.709-.605a5.4076,5.4076,0,0,1-1.489-.883,4.099,4.099,0,0,1-1.057-1.389,4.9157,4.9157,0,0,1-.401-2.122,6.12,6.12,0,0,1,.426-2.327,5.1564,5.1564,0,0,1,1.192-1.789,5.3069,5.3069,0,0,1,1.881-1.158,7.0881,7.0881,0,0,1,2.488-.413,10.8968,10.8968,0,0,1,2.683.355,11.9529,11.9529,0,0,1,2.685,1.043Z" transform="translate(-26.2407 -19.8287)"/>
    </g>
    <g class="cls-2">
      <path class="cls-3" d="M301.999,85.407a5.5475,5.5475,0,0,0-1.467-.883,3.8773,3.8773,0,0,0-1.423-.286,2.3118,2.3118,0,0,0-1.423.413,1.2867,1.2867,0,0,0-.549,1.076,1.09,1.09,0,0,0,.274.759,2.4271,2.4271,0,0,0,.724.515,6.1826,6.1826,0,0,0,1.009.379c.375.107.744.22,1.112.344a6.932,6.932,0,0,1,3.221,1.959,4.8359,4.8359,0,0,1,1.022,3.201,6.2213,6.2213,0,0,1-.448,2.409,4.9943,4.9943,0,0,1-1.307,1.845,6.0065,6.0065,0,0,1-2.11,1.193,8.7841,8.7841,0,0,1-2.832.424,10.4148,10.4148,0,0,1-6.078-1.949l1.927-3.624a7.8272,7.8272,0,0,0,1.994,1.329,4.7812,4.7812,0,0,0,1.951.438,2.332,2.332,0,0,0,1.64-.506,1.54,1.54,0,0,0,.539-1.147,1.5817,1.5817,0,0,0-.138-.677,1.4718,1.4718,0,0,0-.459-.526,3.6538,3.6538,0,0,0-.837-.448c-.344-.137-.762-.29-1.251-.46-.581-.181-1.15-.384-1.709-.605a5.4369,5.4369,0,0,1-1.489-.883,4.1089,4.1089,0,0,1-1.056-1.389,4.9009,4.9009,0,0,1-.401-2.122,6.12,6.12,0,0,1,.426-2.327,5.1677,5.1677,0,0,1,1.191-1.789,5.3025,5.3025,0,0,1,1.882-1.158,7.0784,7.0784,0,0,1,2.487-.413,10.8769,10.8769,0,0,1,2.682.355,11.9422,11.9422,0,0,1,2.686,1.043Z" transform="translate(-26.2407 -19.8287)"/>
    </g>
    <g class="cls-2">
      <polygon class="cls-3" points="280.3 78.444 283.236 61.152 287.685 61.152 291.149 70.371 294.588 61.152 299.037 61.152 301.973 78.444 297.501 78.444 296.01 68.49 291.928 78.444 290.139 78.444 286.263 68.49 284.772 78.444 280.3 78.444"/>
    </g>
    <g class="cls-2">
      <polygon class="cls-3" points="314.656 64.96 309.313 64.96 309.313 67.848 314.359 67.848 314.359 71.656 309.313 71.656 309.313 74.637 314.656 74.637 314.656 78.444 304.818 78.444 304.818 61.151 314.656 61.151 314.656 64.96"/>
    </g>
    <g class="cls-2">
      <polygon class="cls-3" points="317.89 78.444 317.89 61.152 322.385 61.152 330.688 71.724 330.688 61.152 335.159 61.152 335.159 78.444 330.688 78.444 322.385 67.871 322.385 78.444 317.89 78.444"/>
    </g>
    <g class="cls-2">
      <polygon class="cls-3" points="345.342 64.96 345.342 78.444 340.849 78.444 340.849 64.96 337.154 64.96 337.154 61.151 349.034 61.151 349.034 64.96 345.342 64.96"/>
    </g>
    <g class="cls-2">
      <path class="cls-3" d="M221.085,121.207h-4.496V103.915h7.156a6.1121,6.1121,0,0,1,4.461,1.515,6.6508,6.6508,0,0,1,0,8.531,6.1121,6.1121,0,0,1-4.461,1.515h-2.66Zm0-9.356h1.491q2.475,0,2.477-2.154,0-2.157-2.477-2.158h-1.491Z" transform="translate(-26.2407 -19.8287)"/>
    </g>
    <g class="cls-2">
      <path class="cls-3" d="M246.519,121.207h-5.596l-4.288-6.649v6.649H232.14V103.915h6.994a6.8834,6.8834,0,0,1,2.523.424,4.76,4.76,0,0,1,2.833,2.856,5.93,5.93,0,0,1,.355,2.063,5.0708,5.0708,0,0,1-.952,3.199,4.7871,4.7871,0,0,1-2.81,1.663Zm-9.884-9.562h.849a3.2911,3.2911,0,0,0,2.041-.55,2.1186,2.1186,0,0,0,0-3.165,3.2718,3.2718,0,0,0-2.041-.551h-.849Z" transform="translate(-26.2407 -19.8287)"/>
    </g>
    <g class="cls-2">
      <path class="cls-3" d="M247.3,112.562a8.9062,8.9062,0,0,1,5.699-8.429,11.0018,11.0018,0,0,1,7.718,0,9.1042,9.1042,0,0,1,3.039,1.937,8.8716,8.8716,0,0,1,1.984,2.902,9.4287,9.4287,0,0,1,0,7.179,8.8911,8.8911,0,0,1-1.984,2.902,9.1223,9.1223,0,0,1-3.039,1.938,11.0165,11.0165,0,0,1-7.718,0,8.9414,8.9414,0,0,1-5.699-8.429m4.701,0a4.5883,4.5883,0,0,0,.39,1.901,4.8257,4.8257,0,0,0,1.056,1.517,4.7625,4.7625,0,0,0,1.549.996,5.01,5.01,0,0,0,5.297-.996,4.7266,4.7266,0,0,0,1.066-1.517,4.8217,4.8217,0,0,0,0-3.804,4.74,4.74,0,0,0-1.066-1.514,4.8732,4.8732,0,0,0-1.561-.998,5.0789,5.0789,0,0,0-3.736,0,4.7455,4.7455,0,0,0-1.549.998,4.84,4.84,0,0,0-1.056,1.514,4.6005,4.6005,0,0,0-.39,1.903" transform="translate(-26.2407 -19.8287)"/>
    </g>
    <g class="cls-2">
      <path class="cls-3" d="M277.711,111.529h8.922a24.6306,24.6306,0,0,1-.115,2.501,8.9582,8.9582,0,0,1-.459,2.088,8.3057,8.3057,0,0,1-1.308,2.396,7.6323,7.6323,0,0,1-1.937,1.743,9.1332,9.1332,0,0,1-2.443,1.066,10.46,10.46,0,0,1-2.798.366,9.8849,9.8849,0,0,1-3.682-.663,8.309,8.309,0,0,1-2.855-1.871,8.4754,8.4754,0,0,1-1.857-2.889,10.799,10.799,0,0,1-.011-7.432,8.1178,8.1178,0,0,1,1.857-2.878,8.4493,8.4493,0,0,1,2.901-1.858,10.3175,10.3175,0,0,1,3.784-.664,9.3891,9.3891,0,0,1,4.748,1.169,8.0959,8.0959,0,0,1,3.232,3.624l-4.265,1.766a4.3468,4.3468,0,0,0-1.549-2.041,3.8829,3.8829,0,0,0-2.167-.619,4.3369,4.3369,0,0,0-1.835.379,3.96,3.96,0,0,0-1.41,1.077,5.1945,5.1945,0,0,0-.918,1.687,6.8245,6.8245,0,0,0-.333,2.2,6.9962,6.9962,0,0,0,.287,2.041,4.617,4.617,0,0,0,.86,1.629,3.86,3.86,0,0,0,1.422,1.067,4.8062,4.8062,0,0,0,1.973.378,5.5518,5.5518,0,0,0,1.285-.148,3.4182,3.4182,0,0,0,1.111-.481,2.7283,2.7283,0,0,0,.814-.861,3.4374,3.4374,0,0,0,.436-1.283h-3.692v-3.489Z" transform="translate(-26.2407 -19.8287)"/>
    </g>
    <g class="cls-2">
      <path class="cls-3" d="M303.856,121.207H298.26l-4.289-6.649v6.649h-4.496V103.915h6.996a6.8909,6.8909,0,0,1,2.523.424,4.75,4.75,0,0,1,2.831,2.856,5.907,5.907,0,0,1,.355,2.063,5.0588,5.0588,0,0,1-.952,3.199,4.7841,4.7841,0,0,1-2.81,1.663Zm-9.884-9.562h.849a3.286,3.286,0,0,0,2.04-.55,2.1146,2.1146,0,0,0,0-3.165,3.2667,3.2667,0,0,0-2.04-.551h-.849Z" transform="translate(-26.2407 -19.8287)"/>
    </g>
    <g class="cls-2">
      <path class="cls-3" d="M316.334,118.204H309.91l-1.032,3.004h-4.793l6.584-17.292h4.906l6.583,17.292h-4.793Zm-1.194-3.417-2.02-5.757-2.017,5.757Z" transform="translate(-26.2407 -19.8287)"/>
    </g>
    <g class="cls-2">
      <polygon class="cls-3" points="297.11 101.379 300.045 84.087 304.495 84.087 307.958 93.307 311.399 84.087 315.848 84.087 318.783 101.379 314.311 101.379 312.821 91.425 308.738 101.379 306.949 101.379 303.073 91.425 301.582 101.379 297.11 101.379"/>
    </g>
    <g class="cls-2">
      <path class="cls-3" d="M175.832,121.202H159.409V58.026h26.142q10.64,0,16.297,5.53t5.656,15.584q0,10.056-5.656,15.584-5.6535,5.532-16.297,5.531h-9.719Zm0-34.185h5.447q9.048,0,9.048-7.877,0-7.8735-9.048-7.875h-5.447Z" transform="translate(-26.2407 -19.8287)"/>
    </g>
    <g class="cls-2">
      <path class="cls-5" d="M143.676,110.226h-23.46l-3.771,10.977H98.933l24.048-63.176h17.93l24.049,63.176H147.447Zm-4.357-12.484-7.373-21.031-7.373,21.031Z" transform="translate(-26.2407 -19.8287)"/>
    </g>
    <g class="cls-2">
      <polygon class="cls-4" points="47.666 64.255 67.691 38.197 87.969 38.197 62.915 68.109 90.314 101.373 69.033 101.373 47.666 73.976 47.666 101.373 31.243 101.373 31.243 38.197 47.666 38.197 47.666 64.255"/>
    </g>
  </g>
</svg>
