<?xml version="1.0" encoding="utf-8"?>
<!-- Generator: Adobe Illustrator 15.0.0, SVG Export Plug-In  -->
<!DOCTYPE svg PUBLIC "-//W3C//DTD SVG 1.1//EN" "http://www.w3.org/Graphics/SVG/1.1/DTD/svg11.dtd" [
	<!ENTITY ns_flows "http://ns.adobe.com/Flows/1.0/">
]>
<svg version="1.1"
	 xmlns="http://www.w3.org/2000/svg" xmlns:xlink="http://www.w3.org/1999/xlink" xmlns:a="http://ns.adobe.com/AdobeSVGViewerExtensions/3.0/"
	 x="0px" y="0px" width="200px" height="200px" viewBox="-50.408 -22.175 200 200"
	 overflow="visible" enable-background="new -50.408 -22.175 200 200" xml:space="preserve">
<defs>
</defs>
<path fill="#A67C52" stroke="#534741" stroke-width="8" stroke-miterlimit="10" d="M51.576,4c7.509,0,15.12,1.609,22.832,4.828
	c7.979,3.354,14.248,8.046,18.809,14.082c4.426,5.768,6.639,12.004,6.639,18.708c0,7.779-3.186,14.317-9.556,19.614
	c-1.677,1.408-6.605,4.124-14.785,8.147c-2.951,1.476-5.147,2.901-6.588,4.275c-1.443,1.375-2.7,3.203-3.772,5.482
	c-2.28,4.963-4.292,8.097-6.035,9.404c-1.744,1.308-4.727,1.961-8.952,1.961c-4.023,0-7.209-1.172-9.555-3.52
	c-2.348-2.347-3.521-5.565-3.521-9.656c0-3.687,0.905-7.61,2.716-11.769c0.468-1.006,3.05-5.029,7.745-12.07
	c4.358-6.571,6.539-12.739,6.539-18.507c0-2.882-0.654-5.246-1.962-7.091c-1.308-1.844-2.967-2.766-4.979-2.766
	c-2.079,0-3.555,0.654-4.425,1.961c-0.873,1.308-1.509,3.771-1.911,7.393c-0.671,6.84-2.917,12.037-6.739,15.59
	c-3.822,3.621-8.818,5.432-14.987,5.432c-4.292,0-7.779-1.207-10.46-3.621C5.542,49.129,4,45.608,4,41.316
	c0-6.503,2.229-12.824,6.689-18.96c4.458-6.136,10.174-10.678,17.149-13.629C35.214,5.576,43.127,4,51.576,4z M49.363,100.358
	c5.833,0,10.829,2.18,14.987,6.538c4.157,4.292,6.236,9.321,6.236,15.087c0,5.97-2.146,11.115-6.438,15.439
	c-4.292,4.326-9.422,6.488-15.389,6.488c-5.833,0-10.83-1.979-14.987-5.935c-4.493-4.29-6.739-9.589-6.739-15.892
	c0-5.834,1.977-10.763,5.934-14.786C37.394,102.672,42.858,100.358,49.363,100.358z"/>
</svg>
