<?xml version="1.0" encoding="utf-8"?>
<!-- Generator: Adobe Illustrator 15.0.0, SVG Export Plug-In  -->
<!DOCTYPE svg PUBLIC "-//W3C//DTD SVG 1.1//EN" "http://www.w3.org/Graphics/SVG/1.1/DTD/svg11.dtd" [
	<!ENTITY ns_flows "http://ns.adobe.com/Flows/1.0/">
]>
<svg version="1.1"
	 xmlns="http://www.w3.org/2000/svg" xmlns:xlink="http://www.w3.org/1999/xlink" xmlns:a="http://ns.adobe.com/AdobeSVGViewerExtensions/3.0/"
	 x="0px" y="0px" width="200px" height="200px" viewBox="-42.815 -15 200 200"
	 overflow="visible" enable-background="new -42.815 -15 200 200" xml:space="preserve">
<defs>
</defs>
<path fill="#BDDEFF" stroke="#3574FF" stroke-width="8" stroke-miterlimit="10" d="M45.185,161l-8-20l-12-9l-14-18l-6-20
	c0,0-6-23,9-11s18,18,18,18l9-7l-5-20l-17-51c0,0,5-15,12,0s-5-12,5-12s15,7,15,7s-1.849-13.985,8-14c12-0.018,16,13,16,13
	s6,17,13,12s8.601-4.411,14.215,4.723c4.318,7.025,13.785,22.697,14.785,48.487s-1,39.79,0,45.79s-6,28-6,28L45.185,161z"/>
</svg>
