<?xml version="1.0" encoding="utf-8"?>
<!-- Generator: Adobe Illustrator 15.0.0, SVG Export Plug-In  -->
<!DOCTYPE svg PUBLIC "-//W3C//DTD SVG 1.0//EN" "http://www.w3.org/TR/2001/REC-SVG-20010904/DTD/svg10.dtd" [
	<!ENTITY ns_flows "http://ns.adobe.com/Flows/1.0/">
]>
<svg version="1.0"
	 xmlns="http://www.w3.org/2000/svg" xmlns:xlink="http://www.w3.org/1999/xlink" xmlns:a="http://ns.adobe.com/AdobeSVGViewerExtensions/3.0/"
	 x="0px" y="0px" width="200px" height="200px" viewBox="-14 -13 200 200"
	 overflow="visible" enable-background="new -14 -13 200 200" xml:space="preserve">
<defs>
</defs>
<polygon opacity="0.49" fill="#666666" points="102,66.6 112.1,56 107.6,54.2 98.8,63.4 "/>
<path opacity="0.49" fill="#666666" d="M139.9,165.4l-71.5-70l-19,20l-38.8-100L0,11.2l44.8,115.4l19-20l71.5,70
	c8.7-2.4,29.7-23,31-31.5l-1.1-1.1C158.1,153.1,146,163.7,139.9,165.4z"/>
<path d="M68.4,95.4l71.5,70c6.1-1.7,18.2-12.3,25.4-21.4c3.1-3.9,5.2-7.6,5.6-10.1L102,66.6l-3.2-3.1l8.8-9.2l9-9.4L4.5,0l6,15.4
	l38.8,100L68.4,95.4z M15.8,12.3L102,46.8L88.4,61.1l74.5,73.3c-1,6.5-17.1,22.4-23.8,24.2L65,85.8l-14.7,15.4L15.8,12.3z"/>
<path fill="#FFFFFF" d="M65,85.8l74.1,72.9c6.7-1.8,22.9-17.7,23.8-24.2L88.4,61.1L102,46.8L15.8,12.3l34.5,88.8L65,85.8z"/>
</svg>
