<?xml version="1.0" encoding="utf-8"?>
<!-- Generator: Adobe Illustrator 15.0.0, SVG Export Plug-In  -->
<!DOCTYPE svg PUBLIC "-//W3C//DTD SVG 1.0//EN" "http://www.w3.org/TR/2001/REC-SVG-20010904/DTD/svg10.dtd" [
	<!ENTITY ns_flows "http://ns.adobe.com/Flows/1.0/">
]>
<svg version="1.0"
	 xmlns="http://www.w3.org/2000/svg" xmlns:xlink="http://www.w3.org/1999/xlink" xmlns:a="http://ns.adobe.com/AdobeSVGViewerExtensions/3.0/"
	 x="0px" y="0px" width="200px" height="200px" viewBox="-26 -17 200 200"
	 overflow="visible" enable-background="new -26 -17 200 200" xml:space="preserve">
<defs>
</defs>
<path opacity="0.36" fill="#666666" d="M67.1,116.6c-29.6,0-53.6-24-53.6-53.6c0-12,4-23.1,10.7-32.1c-16.2,10.6-26,29.6-24,50.2
	c3,29.4,29.2,50.9,58.7,47.9c15.5-1.6,28.8-9.6,37.5-21.2C88,113.4,77.9,116.6,67.1,116.6z"/>
<path opacity="0.36" fill="#7783C0" d="M106.8,70.4c1.4,13.9-2.7,27.1-10.4,37.5c14.6-9.6,24.3-26.1,24.3-44.8
	c0-29.6-24-53.6-53.6-53.6C49.6,9.5,34,17.9,24.2,31c7-4.6,15.1-7.6,23.9-8.5C77.6,19.5,103.9,41,106.8,70.4z"/>
<path opacity="0.36" fill="#666666" d="M67.1,116.6c10.8,0,20.9-3.2,29.3-8.7c7.8-10.4,11.8-23.6,10.4-37.5
	c-3-29.4-29.2-50.9-58.7-47.9c-8.9,0.9-17,3.9-23.9,8.5C17.5,39.9,13.6,51,13.6,63.1C13.6,92.6,37.6,116.6,67.1,116.6z M42.5,24.3
	c9.9,0,17.9,7.7,17.9,17.2c0,9.5-8,17.2-17.9,17.2c-9.9,0-17.9-7.7-17.9-17.2C24.7,32,32.6,24.3,42.5,24.3z"/>
<path opacity="0.36" fill="#7783C0" d="M67.1,116.6c10.8,0,20.9-3.2,29.3-8.7c7.8-10.4,11.8-23.6,10.4-37.5
	c-3-29.4-29.2-50.9-58.7-47.9c-8.9,0.9-17,3.9-23.9,8.5C17.5,39.9,13.6,51,13.6,63.1C13.6,92.6,37.6,116.6,67.1,116.6z M42.5,24.3
	c9.9,0,17.9,7.7,17.9,17.2c0,9.5-8,17.2-17.9,17.2c-9.9,0-17.9-7.7-17.9-17.2C24.7,32,32.6,24.3,42.5,24.3z"/>
<ellipse opacity="0.36" fill="#666666" cx="42.5" cy="41.5" rx="17.9" ry="17.2"/>
<ellipse opacity="0.36" fill="#7783C0" cx="42.5" cy="41.5" rx="17.9" ry="17.2"/>
<ellipse opacity="0.67" fill="#FFFFFF" cx="42.5" cy="41.5" rx="17.9" ry="17.2"/>
<path opacity="0.5" fill="#666666" d="M101.3,114.8c-3.9-2-7-3.3-9.2-3.7c-1.4-0.2-2.3-0.1-2.8,0.5c-0.4,0.5-0.4,1.4,0.1,2.6
	c2.5,6.4,17.3,21.4,36.8,36.9c17.8,14.1,9.8,6.6,17.8,9.2c-7.9-3.8,1.7,2.4-13.9-12.8C117.3,135,106.9,123,101.3,114.8z"/>
<path d="M145.2,132c-17.7-17.2-28.3-27.9-35.1-29.8c-1.3-0.4-6.3,7.7-6.8,8.2c-0.5,0.5-5.5-1.6-5.2-0.4c0.5,1.9-5,1.5-2.8,4.8
	c5.6,8.2,20,26.2,32.8,38.6c15.6,15.2,8.4,6.9,16.4,10.7c2.8,1.3,4.8,1.7,5.6,0.9C153.1,161.8,166.4,152.6,145.2,132z"/>
<path fill-rule="evenodd" clip-rule="evenodd" fill="none" stroke="#42210B" stroke-width="14" stroke-miterlimit="10" d="
	M101.3,104c0.6-0.7,1.9-0.7,3.5-0.2C114.9,93.5,121,79.5,121,64c0-31.5-25.5-57-57-57S7,32.5,7,64s25.5,57,57,57
	c14.2,0,27.1-5.2,37.1-13.7C100.7,105.7,100.7,104.6,101.3,104z"/>
<text transform="matrix(1.2164 0 0 1 33.5063 101.2207)" font-family="'CooperBlack'" font-size="110.6099">?</text>
</svg>
