<?xml version="1.0" encoding="utf-8"?>
<!-- Generator: Adobe Illustrator 15.0.0, SVG Export Plug-In  -->
<!DOCTYPE svg PUBLIC "-//W3C//DTD SVG 1.0//EN" "http://www.w3.org/TR/2001/REC-SVG-20010904/DTD/svg10.dtd" [
	<!ENTITY ns_flows "http://ns.adobe.com/Flows/1.0/">
]>
<svg version="1.0"
	 xmlns="http://www.w3.org/2000/svg" xmlns:xlink="http://www.w3.org/1999/xlink" xmlns:a="http://ns.adobe.com/AdobeSVGViewerExtensions/3.0/"
	 x="0px" y="0px" width="200px" height="200px" viewBox="-4.1 -7.8 200 200"
	 overflow="visible" enable-background="new -4.1 -7.8 200 200" xml:space="preserve">
<defs>
</defs>
<path fill="none" d="M46.6,18c-2.6-2.2-5.9-3.5-9.6-3.5c-5.2,0-9.7,2.6-12.4,6.6L46.6,18z"/>
<path fill="none" d="M37,27.4c-5.9,0-11,3.4-13.4,8.4c2.4,5,7.5,8.4,13.4,8.4c5.9,0,11-3.4,13.4-8.4C48,30.9,42.9,27.4,37,27.4z"/>
<path fill="#B3B3B3" d="M22.2,29.3c0,2.3,0.6,4.5,1.5,6.5c2.4-5,7.5-8.4,13.4-8.4c5.9,0,11,3.4,13.4,8.4c1-2,1.5-4.2,1.5-6.5
	c0-4.5-2-8.6-5.3-11.3l-22,3.1C23.1,23.4,22.2,26.3,22.2,29.3z"/>
<path fill="#B3B3B3" d="M90.7,176.2l-53.1-64.5l-0.5,0.1L26.2,97.8l-9.9-12l0.3-0.3L3.5,68.6L0,77.2l16.7,21.4l-0.3,0.3l9.9,12
	l10.8,13.9l0.5-0.1l53.1,64.5c0,0,89.6-48.7,91.9-77.3l-3.5-3.2C162.2,137.3,90.7,176.2,90.7,176.2z"/>
<path fill="#29ABE2" d="M16.7,85.6l-0.3,0.3l9.9,12l10.8,13.9l0.5-0.1l53.1,64.5c0,0,71.5-38.8,88.4-67.5c2-3.4,3.3-6.7,3.5-9.8
	l-82.1-75.6L82.3,0L22.6,8.3L0,64.2l3.5,4.4L16.7,85.6z M37,14.4c3.7,0,7,1.3,9.6,3.5c3.2,2.7,5.3,6.8,5.3,11.3
	c0,2.3-0.6,4.5-1.5,6.5c-2.4,5-7.5,8.4-13.4,8.4c-5.9,0-11-3.4-13.4-8.4c-1-2-1.5-4.2-1.5-6.5c0-3.1,0.9-5.9,2.5-8.3
	C27.3,17.1,31.9,14.4,37,14.4z M59.7,58.4l25.8-41.6l15.5,19.8l69.8,64.2c-1.9,24.3-78.1,65.7-78.1,65.7l-45.1-54.8l-0.5,0.1
	L37.8,100l-8.4-10.2l0.3-0.2L15.5,71.4L59.7,58.4z"/>
<path fill="#FFFFFF" d="M29.7,89.5l-0.3,0.2l8.4,10.2l9.2,11.8l0.5-0.1l45.1,54.8c0,0,76.2-41.4,78.1-65.7l-69.8-64.2L85.5,16.8
	L59.7,58.4L15.5,71.4L29.7,89.5z"/>
</svg>
