<?xml version="1.0" encoding="utf-8"?>
<!-- Generator: Adobe Illustrator 15.0.0, SVG Export Plug-In  -->
<!DOCTYPE svg PUBLIC "-//W3C//DTD SVG 1.1//EN" "http://www.w3.org/Graphics/SVG/1.1/DTD/svg11.dtd" [
	<!ENTITY ns_flows "http://ns.adobe.com/Flows/1.0/">
]>
<svg version="1.1"
	 xmlns="http://www.w3.org/2000/svg" xmlns:xlink="http://www.w3.org/1999/xlink" xmlns:a="http://ns.adobe.com/AdobeSVGViewerExtensions/3.0/"
	 x="0px" y="0px" width="3800px" height="200px" viewBox="0.5 0.5 3800 200"
	 overflow="visible" enable-background="new 0.5 0.5 3800 200" xml:space="preserve">
<defs>
</defs>
<rect x="0.5" y="0.5" display="none" fill="#EDEDED" width="3600" height="200"/>
<rect x="0.5" y="0.5" display="none" fill="none" stroke="#CCCCCC" stroke-miterlimit="10" width="200" height="200"/>
<rect x="200.5" y="0.5" display="none" fill="none" stroke="#CCCCCC" stroke-miterlimit="10" width="200" height="200"/>
<rect x="400.5" y="0.5" display="none" fill="none" stroke="#CCCCCC" stroke-miterlimit="10" width="200" height="200"/>
<rect x="600.5" y="0.5" display="none" fill="none" stroke="#CCCCCC" stroke-miterlimit="10" width="200" height="200"/>
<rect x="800.5" y="0.5" display="none" fill="none" stroke="#CCCCCC" stroke-miterlimit="10" width="200" height="200"/>
<rect x="1000.5" y="0.5" display="none" fill="none" stroke="#CCCCCC" stroke-miterlimit="10" width="200" height="200"/>
<rect x="1200.5" y="0.5" display="none" fill="none" stroke="#CCCCCC" stroke-miterlimit="10" width="200" height="200"/>
<rect x="1400.5" y="0.5" display="none" fill="none" stroke="#CCCCCC" stroke-miterlimit="10" width="200" height="200"/>
<rect x="1600.5" y="0.5" display="none" fill="none" stroke="#CCCCCC" stroke-miterlimit="10" width="200" height="200"/>
<rect x="1800.5" y="0.5" display="none" fill="none" stroke="#CCCCCC" stroke-miterlimit="10" width="200" height="200"/>
<rect x="2000.5" y="0.5" display="none" fill="none" stroke="#CCCCCC" stroke-miterlimit="10" width="200" height="200"/>
<rect x="2200.5" y="0.5" display="none" fill="none" stroke="#CCCCCC" stroke-miterlimit="10" width="200" height="200"/>
<rect x="2400.5" y="0.5" display="none" fill="none" stroke="#CCCCCC" stroke-miterlimit="10" width="200" height="200"/>
<rect x="2600.5" y="0.5" display="none" fill="none" stroke="#CCCCCC" stroke-miterlimit="10" width="200" height="200"/>
<rect x="2800.5" y="0.5" display="none" fill="none" stroke="#CCCCCC" stroke-miterlimit="10" width="200" height="200"/>
<rect x="3000.5" y="0.5" display="none" fill="none" stroke="#CCCCCC" stroke-miterlimit="10" width="200" height="200"/>
<rect x="3200.5" y="0.5" display="none" fill="none" stroke="#CCCCCC" stroke-miterlimit="10" width="200" height="200"/>
<rect x="3400.5" y="0.5" display="none" fill="none" stroke="#CCCCCC" stroke-miterlimit="10" width="200" height="200"/>
<line fill="none" stroke="#496949" stroke-width="8" stroke-miterlimit="10" x1="3677.884" y1="20.396" x2="3747.539" y2="20.396"/>
<line fill="none" stroke="#496949" stroke-width="8" stroke-miterlimit="10" x1="3775.07" y1="47.785" x2="3775.07" y2="117.5"/>
<path fill="none" stroke="#496949" stroke-width="8" stroke-miterlimit="10" d="M3746.819,20.396
	c15.614,0,28.251,12.635,28.251,28.25"/>
<line fill="none" stroke="#496949" stroke-width="8" stroke-miterlimit="10" x1="3749.053" y1="145.5" x2="3712.5" y2="145.5"/>
<path fill="none" stroke="#496949" stroke-width="8" stroke-miterlimit="10" d="M3775.07,117.249
	c0,15.614-12.637,28.251-28.251,28.251"/>
<line fill="none" stroke="#496949" stroke-width="8" stroke-miterlimit="10" x1="3650.25" y1="86.704" x2="3650.25" y2="47.684"/>
<path fill="none" stroke="#496949" stroke-width="8" stroke-miterlimit="10" d="M3650.25,48.647c0-15.615,12.636-28.25,28.25-28.25"
	/>
<line fill="none" stroke="#496949" stroke-width="8" stroke-miterlimit="10" x1="3678.441" y1="172.5" x2="3638.348" y2="172.5"/>
<line fill="none" stroke="#496949" stroke-width="8" stroke-miterlimit="10" x1="3622.5" y1="157.243" x2="3622.5" y2="117.113"/>
<path fill="none" stroke="#496949" stroke-width="8" stroke-miterlimit="10" d="M3638.762,172.5
	c-8.988,0-16.262-7.274-16.262-16.263"/>
<path fill="none" stroke="#496949" stroke-width="8" stroke-miterlimit="10" d="M3622.5,118.016c0-8.983,7.273-16.26,16.262-16.26"
	/>
<path fill="none" stroke="#496949" stroke-width="8" stroke-miterlimit="10" d="M3693.914,156.237
	c0,8.988-7.272,16.263-16.26,16.263"/>
<polyline fill-rule="evenodd" clip-rule="evenodd" fill="#496949" points="3689.265,68.194 3728.275,68.194 3728.275,107.204 "/>
<line fill="none" stroke="#496949" stroke-width="8" stroke-miterlimit="10" x1="3638.211" y1="101.756" x2="3678.309" y2="101.756"/>
<line fill="none" stroke="#496949" stroke-width="8" stroke-miterlimit="10" x1="3693.914" y1="116.659" x2="3693.914" y2="156.79"/>
<path fill="none" stroke="#496949" stroke-width="8" stroke-miterlimit="10" d="M3677.654,101.756c8.988,0,16.26,7.276,16.26,16.264
	"/>
<rect x="3683.658" y="79.898" transform="matrix(-0.7071 0.7071 -0.7071 -0.7071 6387.708 -2461.4734)" fill-rule="evenodd" clip-rule="evenodd" fill="#496949" width="39.992" height="24.671"/>
<polyline fill="#D6993C" stroke="#892E00" stroke-width="8" stroke-miterlimit="10" points="3552.709,176.291 3585.859,143.14 
	3457.009,14.288 3423.855,47.442 "/>
<polyline fill="#E8C444" stroke="#892E00" stroke-width="8" stroke-miterlimit="10" points="3423.853,47.444 3412.663,58.633 
	3541.516,187.484 3552.705,176.293 "/>
<line fill="none" stroke="#892E00" stroke-width="5" stroke-miterlimit="10" x1="3472.236" y1="29.516" x2="3444.172" y2="57.58"/>
<line fill="none" stroke="#892E00" stroke-width="5" stroke-miterlimit="10" x1="3570.633" y1="127.912" x2="3542.57" y2="155.977"/>
<line fill="none" stroke="#892E00" stroke-width="5" stroke-miterlimit="10" x1="3505.035" y1="62.314" x2="3476.972" y2="90.378"/>
<line fill="none" stroke="#892E00" stroke-width="5" stroke-miterlimit="10" x1="3537.834" y1="95.114" x2="3509.771" y2="123.177"/>
<line fill="none" stroke="#892E00" stroke-width="3" stroke-miterlimit="10" x1="3488.635" y1="45.914" x2="3474.604" y2="59.946"/>
<line fill="none" stroke="#892E00" stroke-width="3" stroke-miterlimit="10" x1="3521.435" y1="78.714" x2="3507.403" y2="92.747"/>
<line fill="none" stroke="#892E00" stroke-width="3" stroke-miterlimit="10" x1="3554.234" y1="111.513" x2="3540.201" y2="125.545"/>
<path fill="#7093AC" stroke="#173E56" stroke-width="8" d="M3377.941,161.457L3377.941,161.457v-0.002l-80.293-80.292
	l-13.494,13.495l80.285,80.283c0.003,0.004,0.007,0.008,0.01,0.011c2.1,2.103,6.827,0.785,10.553-2.94
	C3378.729,168.284,3380.045,163.559,3377.941,161.457z"/>
<path fill="none" stroke="#2A1913" stroke-width="2" d="M3319.08,132.865c0.004,0.004,0.007,0.008,0.011,0.012
	c2.569,2.571,8.349,0.961,12.903-3.595c4.557-4.558,6.166-10.335,3.595-12.905l0,0v-0.002"/>
<path fill="none" stroke="#2A1913" stroke-width="2" d="M3326.094,140.879c0.004,0.004,0.008,0.008,0.012,0.012
	c2.568,2.571,8.349,0.961,12.902-3.595c4.557-4.558,6.166-10.335,3.596-12.905l0,0v-0.002"/>
<circle fill="#7093AC" stroke="#173E56" stroke-width="8" stroke-miterlimit="10" cx="3281.447" cy="78.448" r="52.5"/>
<circle fill="#FFFFFF" stroke="#7093AC" stroke-width="8" stroke-miterlimit="10" cx="3281.447" cy="78.448" r="42.5"/>
<path fill="#C7E8E7" d="M3249.616,83.944c1.457-2.042,3.053-3.945,4.698-5.798c1.638-1.862,3.356-3.642,5.092-5.406
	c1.762-1.737,3.542-3.457,5.402-5.093c1.854-1.646,3.756-3.242,5.801-4.697c-1.455,2.044-3.051,3.947-4.697,5.8
	c-1.637,1.862-3.355,3.642-5.094,5.403c-1.764,1.735-3.543,3.455-5.405,5.091C3253.561,80.891,3251.658,82.487,3249.616,83.944z"/>
<path fill="#C7E8E7" d="M3297.75,89.75c1.427-2.033,2.995-3.927,4.611-5.772c1.609-1.854,3.3-3.626,5.007-5.382
	c1.733-1.73,3.485-3.442,5.319-5.072c1.826-1.639,3.703-3.228,5.721-4.677c-1.426,2.035-2.992,3.93-4.609,5.774
	c-1.607,1.854-3.3,3.625-5.009,5.38c-1.735,1.728-3.488,3.44-5.323,5.07C3301.641,86.709,3299.766,88.299,3297.75,89.75z"/>
<path fill="#C7E8E7" d="M3252.333,103.484c3.87-4.726,7.948-9.242,12.101-13.686c2.055-2.241,4.188-4.406,6.284-6.607l6.403-6.488
	l6.518-6.374c2.213-2.084,4.385-4.208,6.637-6.252c4.463-4.131,9-8.186,13.748-12.029c-3.866,4.729-7.943,9.247-12.097,13.688
	c-2.055,2.242-4.19,4.404-6.284,6.606l-6.406,6.485l-6.52,6.371c-2.211,2.085-4.387,4.207-6.638,6.252
	C3261.615,95.583,3257.079,99.639,3252.333,103.484z"/>
<path fill="#FFFFFF" stroke="#757575" stroke-width="8" stroke-miterlimit="10" d="M3173.834,26.126c0-7.9-142.743-6.541-142.743,0
	c0,24.563,0,155.827,0,155.827h142.743C3173.834,181.953,3173.834,59.164,3173.834,26.126z"/>
<rect x="3028.345" y="100.299" fill="#FADC2C" width="149.149" height="29.613"/>
<path fill="#A56416" d="M3189.391,129.912c-2.75,3.005-15.557,0-15.557,0v-29.613c0,0,12.807-3.006,15.557,0
	C3194.181,105.533,3194.181,124.677,3189.391,129.912z"/>
<path fill="#A56416" d="M3031.091,129.912c0,0-13.821,3.243-16.788,0c-4.791-5.235-5.27-24.961,0-29.613
	c3.265-2.883,16.788,0,16.788,0V129.912z"/>
<path fill="none" stroke="#4D4D4D" stroke-width="8" stroke-miterlimit="10" d="M3041.018,54.548
	c9.657-6.775,20.106-10.646,34.55-7.283c14.441,3.36,11.994,8.326,25.884,4.64c13.888-3.686,25.119-10.213,33.696-6.926
	c8.574,3.286,23.588,12.038,29.788,5.533"/>
<path fill="none" stroke="#4D4D4D" stroke-width="8" stroke-miterlimit="10" d="M3164.688,87.579
	c-9.657-6.775-20.106-10.646-34.551-7.283c-14.44,3.36-11.993,8.326-25.883,4.64c-13.889-3.686-25.12-10.213-33.695-6.926
	c-8.575,3.286-23.589,12.037-29.791,5.533"/>
<path fill="none" stroke="#4D4D4D" stroke-width="8" stroke-miterlimit="10" d="M3039.473,119.763
	c9.656-6.775,20.105-10.646,34.55-7.283c14.441,3.36,11.994,8.326,25.883,4.64c13.889-3.686,25.12-10.213,33.697-6.926
	c8.574,3.286,23.588,12.037,29.788,5.533"/>
<path fill="none" stroke="#4D4D4D" stroke-width="8" stroke-miterlimit="10" d="M3165.143,154.794
	c-9.657-6.775-20.106-10.646-34.551-7.283c-14.44,3.36-13.993,8.326-27.883,4.64c-13.889-3.686-23.12-10.213-31.695-6.926
	c-8.574,3.286-23.589,12.037-29.791,5.533"/>
<path fill="#825F6B" d="M2979.891,83.177c0,0,9.793-27.547,10.609-30.01c-3.457,2.109-110.167,71.333-110.167,71.333l-12.959,32.322
	c-0.653,1.82-0.026,3.408,2.826,5.371c1.114-0.364,2.038-0.969,2.973-1.588L2979.891,83.177z"/>
<path fill="#FFB0BD" d="M2987.982,49.346c0,0-1.969-1.077-3.562-1.303c-9.052-1.283-39.719-5.215-42.982-5.754
	c-3.033-0.5-5.365,0.646-5.674,0.906l-103.061,62.827l48.768,12.375C2881.471,118.396,2986.316,50.41,2987.982,49.346z"/>
<path fill="#CC99AC" d="M2867.102,156.979l13.231-32.479l-51.167-13.5c0,0-15.632,30.996-16.132,33.543
	c-0.63,3.218,2.032,4.271,2.963,4.566c0,0,47.21,12.688,49.342,13.271c1.992,0.546,3.474,0.479,4.712,0.111
	C2867.111,160.497,2866.439,158.82,2867.102,156.979z"/>
<path fill="none" stroke="#823C43" stroke-width="5" stroke-linecap="round" stroke-miterlimit="10" d="M2880.333,124.5
	l-12.923,32.559c-0.672,1.873-0.309,3.271,2.753,5.313"/>
<path fill="none" stroke="#823C43" stroke-width="8" stroke-miterlimit="10" d="M2830.779,107.211l105.707-64.246
	c0.312-0.26,2.644-1.406,5.677-0.906c3.842,0.634,43.345,5.968,43.345,5.968c4.444,1.369,5.168,4.163,4.516,6.138
	c-0.816,2.464-10.088,29.248-10.088,29.248l-106.723,77.43c-2.006,1.324-3.947,2.604-7.861,1.531
	c-2.131-0.584-49.342-13.271-49.342-13.271c-0.93-0.293-3.592-1.353-2.963-4.565
	C2813.544,141.989,2830.779,107.211,2830.779,107.211z"/>
<path d="M2664.155,160.174l-10.875-24.661c-4.375-9.434-7-15.559-9.625-22.013h-0.25c-2.375,6.454-4.875,12.413-9.125,22.179
	l-10.125,24.495h-12.5l25.75-56.439l-24.75-55.116h12.625l11.125,26.151c3.125,7.283,5.5,12.91,7.75,18.868h0.375
	c2.375-6.62,4.5-11.751,7.625-18.868l11.375-26.151h12.625l-25.625,54.288l26.25,57.268H2664.155z"/>
<path d="M2696.279,160.174v-47.336l-26.75-64.219h12.5l11.875,30.785c3.125,8.441,5.75,15.228,8.375,23.006h0.25
	c2.25-7.282,5.25-14.565,8.5-23.006l12.125-30.785h12.25l-28.125,64.053v47.502H2696.279z"/>
<path d="M2726.902,151.732l46.625-90.535v-0.497h-42.625V48.619h56.875v8.772l-46.5,90.205v0.495h47.125v12.083h-61.5V151.732z"/>
<line fill="none" stroke="#CC0000" stroke-width="16" stroke-miterlimit="10" x1="2611.655" y1="105.375" x2="2788.402" y2="105.375"/>
<polygon fill="#FAFFB3" stroke="#726E03" stroke-width="8" stroke-miterlimit="10" points="2523.381,149.045 2432.384,179.86 
	2416.491,28.459 2567.889,12.568 2579.303,147.234 "/>
<path fill="none" stroke="#4D4D4D" stroke-width="8" stroke-miterlimit="10" d="M2455.074,151.982
	c7.381-7.75,15.613-12.692,27.612-10.85c11.999,1.84,9.97,7.151,21.726,5.629c11.261-2.936,14.4-8.58,18.969-16.067"/>
<path fill="#CCCC66" stroke="#726E03" stroke-width="8" stroke-linejoin="round" stroke-miterlimit="10" d="M2434.258,180.546
	l142.35-28.167c22.92,2.765-17.892-21.505-49.205-37.755C2508.344,155.192,2463.734,162.32,2434.258,180.546z"/>
<path fill="none" stroke="#4D4D4D" stroke-width="8" stroke-miterlimit="10" d="M2458.275,108.188
	c7.382-7.75,15.613-12.692,27.613-10.85c11.998,1.84,10.359,7.038,21.404,1.922c11.047-5.116,19.727-12.784,26.943-10.405
	c7.217,2.378,20.065,9.525,24.649,2.405"/>
<path fill="none" stroke="#4D4D4D" stroke-width="8" stroke-miterlimit="10" d="M2436.968,72.943
	c7.38-7.75,15.612-12.692,27.611-10.85c11.999,1.84,10.36,7.039,21.406,1.922s19.726-12.784,26.943-10.405
	c7.216,2.378,20.064,9.525,24.649,2.404"/>
<polygon fill="#6D5F8E" stroke="#B6B2C1" stroke-width="8" points="2394.329,199.5 2394.271,116.693 2245.618,36.696 
	2206.5,106.977 2206.5,199.5 "/>
<path fill="#FCEE21" d="M2217.756,155.806c0,0-9.699,17.116,4.044,28.241c7.74,6.265,23.085,10.81,35.7,6.21
	c24-8.75,37-12.605,59.262-12.605c18.707,0,30.344,21.849,30.344,21.849l42.146-12.239c0,0-35.281-25.724-57.25-26.25
	c-41.5-1-67.223,20.299-77.477,21.756c-26.311,3.74-34.601-10.062-21.613-26.957
	C2226.672,155.806,2217.756,155.806,2217.756,155.806z"/>
<polygon fill="#FCEE21" stroke="#FCEE21" stroke-width="4" points="2235.288,148.799 2242.461,141.77 2235.902,135.21 
	2222.312,148.799 "/>
<rect x="2233.854" y="127.442" transform="matrix(-0.7071 0.7071 -0.7071 -0.7071 3924.7275 -1357.2711)" fill="#FCEE21" stroke="#8C8202" stroke-width="8" width="19.219" height="13.521"/>
<rect x="2242.055" y="114.97" transform="matrix(-0.7071 0.7071 -0.7071 -0.7071 3934.0898 -1380.0449)" fill="#FCEE21" stroke="#8C8202" stroke-width="8" width="21.639" height="19.643"/>
<rect x="2339.74" y="14.458" transform="matrix(-0.7071 0.7071 -0.7071 -0.7071 4031.8823 -1615.7555)" fill="#FCEE21" stroke="#8C8202" stroke-width="8" width="21.639" height="25.313"/>
<rect x="2233.929" y="58.083" transform="matrix(0.7071 -0.7071 0.7071 0.7071 622.8547 1650.8101)" fill="#FCEE21" stroke="#8C8202" stroke-width="8" width="140.348" height="30.961"/>
<rect x="2012.334" y="19.201" fill="#F4F48C" stroke="#635707" stroke-width="8" width="35.266" height="35.267"/>
<rect x="2012.334" y="54.467" fill="#F4F48C" stroke="#635707" stroke-width="8" width="35.266" height="35.266"/>
<rect x="2153.4" y="19.201" fill="#68C1E0" stroke="#1D718F" stroke-width="8" width="35.267" height="35.267"/>
<rect x="2153.4" y="54.467" fill="#68C1E0" stroke="#1D718F" stroke-width="8" width="35.267" height="35.266"/>
<rect x="2153.4" y="89.733" fill="#68C1E0" stroke="#1D718F" stroke-width="8" width="35.267" height="35.267"/>
<rect x="2012.334" y="89.733" fill="#F4F48C" stroke="#635707" stroke-width="8" width="35.266" height="35.267"/>
<rect x="2047.6" y="89.733" fill="#EA8C8C" stroke="#9E1D1D" stroke-width="8" width="35.268" height="35.267"/>
<rect x="2082.867" y="54.467" fill="#79D381" stroke="#24712A" stroke-width="8" width="35.267" height="35.266"/>
<rect x="2082.867" y="89.733" fill="#EA8C8C" stroke="#9E1D1D" stroke-width="8" width="35.267" height="35.267"/>
<rect x="2047.6" y="148.066" fill="#F4F48C" stroke="#635707" stroke-width="8" width="35.268" height="35.268"/>
<rect x="2082.867" y="148.066" fill="#F4F48C" stroke="#635707" stroke-width="8" width="35.267" height="35.268"/>
<rect x="2118.134" y="148.066" fill="#F4F48C" stroke="#635707" stroke-width="8" width="35.267" height="35.268"/>
<rect x="2118.134" y="89.733" fill="#79D381" stroke="#24712A" stroke-width="8" width="35.267" height="35.267"/>
<rect x="2118.134" y="54.467" fill="#68C1E0" stroke="#1D718F" stroke-width="8" width="35.267" height="35.266"/>
<path fill="#FFFFFF" stroke="#4568BF" stroke-width="8" d="M1979.1,91.57c0,34.94-34.355,63.265-76.736,63.265
	c-12.174,0-76.736,18.395-76.736,18.395s28.49-31.99,22.613-36.811c-13.968-11.458-22.613-27.321-22.613-44.849
	c0-34.94,34.356-63.265,76.736-63.265C1944.744,28.305,1979.1,56.629,1979.1,91.57z"/>
<path d="M1874.766,106.025c-2.098,3.441-4.623,6.034-7.572,7.78c-2.949,1.744-5.658,2.617-8.127,2.617
	c-3.455,0-6.559-1.493-9.311-4.479c-2.753-2.985-4.129-7.514-4.129-13.584c0-4.788,0.914-9.062,2.742-12.826
	c1.828-3.762,4.273-6.736,7.338-8.92c3.062-2.184,6.854-3.275,11.375-3.275c1.311,0,3.282,0.135,5.917,0.407
	c0.394,0.05,0.985,0.111,1.772,0.185h6.907v29.195c0,4.988,0.53,9.038,1.592,12.149h-7.182
	C1875.535,113.016,1875.094,109.932,1874.766,106.025z M1874.794,97.79V80.039c-2.448-0.642-4.722-0.963-6.822-0.963
	c-4.252,0-7.793,1.643-10.623,4.929c-2.83,3.287-4.245,7.758-4.245,13.416c0,4.101,0.772,7.195,2.317,9.283s3.306,3.131,5.283,3.131
	c2.15,0,4.523-1.086,7.118-3.261C1870.418,104.399,1872.742,101.471,1874.794,97.79z"/>
<path d="M1891.865,83.226c2.122-3.456,4.65-6.061,7.588-7.813c2.936-1.752,5.639-2.629,8.105-2.629c3.455,0,6.564,1.493,9.328,4.479
	c2.764,2.986,4.146,7.514,4.146,13.584c0,4.788-0.92,9.063-2.758,12.825c-1.839,3.764-4.288,6.736-7.347,8.921
	c-3.061,2.184-6.849,3.275-11.363,3.275c-1.283,0-3.258-0.136-5.922-0.407c-0.396-0.049-0.988-0.11-1.777-0.185h-6.885V55.535h6.885
	V83.226z M1891.865,91.416v17.751c2.492,0.643,4.787,0.963,6.884,0.963c4.171,0,7.681-1.637,10.531-4.91
	c2.85-3.273,4.274-7.75,4.274-13.434c0-4.126-0.777-7.226-2.332-9.301c-1.554-2.075-3.318-3.113-5.292-3.113
	c-2.147,0-4.511,1.087-7.089,3.261C1896.264,84.808,1893.938,87.735,1891.865,91.416z"/>
<path d="M1958.201,114.091c-4.614,1.555-9.007,2.332-13.177,2.332c-4.146,0-7.829-0.957-11.049-2.869s-5.731-4.503-7.532-7.772
	c-1.802-3.27-2.702-6.989-2.702-11.16c0-6.267,2.041-11.474,6.126-15.62c4.083-4.146,9.012-6.218,14.787-6.218
	c4.269,0,8.784,0.802,13.547,2.406v6.625c-4.812-2.196-9.118-3.294-12.918-3.294c-2.518,0-4.886,0.623-7.106,1.869
	c-2.222,1.246-3.937,3.189-5.146,5.83c-1.209,2.64-1.813,5.354-1.813,8.143c0,3.726,1.166,7.279,3.498,10.66s5.99,5.07,10.974,5.07
	c1.506,0,2.986-0.104,4.442-0.314c1.456-0.209,4.146-0.98,8.069-2.313V114.091z"/>
<path fill="#9F1C20" stroke="#771C10" stroke-width="8" stroke-linejoin="round" d="M1773.818,61.125
	c-4.986-4.474-30.789-16.269-56.898,0l-13.668,49.953l-19.172-49.953c-26.109-16.269-51.912-4.474-56.898,0
	c0,0-12.763,67.179-19.631,89.956c28.542-8.694,59.016-4.243,76.529,1.249c0,4.513,7.352,4.17,16.42,4.17s16.42,0.343,16.42-4.17
	c18.6-5.492,44.214-6.326,76.53-0.249C1786.581,129.305,1773.818,61.125,1773.818,61.125z"/>
<path fill="#D3D1C5" stroke="#A39D82" stroke-width="8" stroke-linejoin="round" d="M1635.158,54.31
	c0,0-11.617,60.312-18.485,83.088c19.42-9.868,60.044-9.338,75.384,8.116l18.773-27.007l-18.773-64.197
	C1665.947,38.041,1640.145,49.835,1635.158,54.31z"/>
<path fill="#D3D1C5" stroke="#A39D82" stroke-width="8" stroke-linejoin="round" d="M1765.842,54.31
	c0,0,11.616,60.312,18.485,83.088c-23.193-10.623-60.045-9.338-75.384,8.116l-13.84-26.102l13.84-65.103
	C1735.053,38.041,1760.855,49.835,1765.842,54.31z"/>
<path fill="#F9F7ED" stroke="#A39D82" stroke-width="8" stroke-linejoin="round" d="M1757.398,46.193c0,0,13.353,59.4,20.222,82.177
	c-24.248-21.156-61.781-8.427-77.12,9.027V46.193C1726.609,29.924,1752.412,41.719,1757.398,46.193z"/>
<path fill="#F9F7ED" stroke="#A39D82" stroke-width="8" stroke-linejoin="round" d="M1644.413,46.193c0,0-13.353,59.4-20.222,82.177
	c24.248-21.156,61.781-8.427,77.12,9.027V46.193C1675.201,29.924,1649.399,41.719,1644.413,46.193z"/>
<path fill="#9F1C20" stroke="#771C10" stroke-width="2" stroke-linejoin="round" d="M1680.831,150.598
	c3.654-16.745,37.515-18.094,39.346,0.184"/>
<path fill="#893A67" d="M1439.425,17.327l-22.212,22.213l-0.742,54.205l96.898,96.899l77.16-77.162l-96.898-96.899L1439.425,17.327z
	 M1448.165,48.279c-3.972,3.971-10.408,3.972-14.378,0c-3.971-3.97-3.971-10.408,0-14.378c3.971-3.971,10.408-3.971,14.379,0
	C1452.137,37.872,1452.137,44.309,1448.165,48.279z"/>
<rect x="1459.844" y="42.49" transform="matrix(-0.7071 0.7071 -0.7071 -0.7071 2637.6272 -887.1925)" fill="#FFFFFF" width="85.424" height="120.361"/>
<rect x="1200.5" y="0.5" fill="#FFFFFF" width="200" height="200"/>
<circle cx="1300.5" cy="96.5" r="61.5"/>
<path fill="#CCCCCC" stroke="#747474" stroke-width="8" d="M1170,169.014c0,2.842-2.304,5.146-5.146,5.146h-102.903
	c-2.841,0-5.146-2.304-5.146-5.146V57.661c0-2.842,2.305-5.146,5.146-5.146h102.903c2.842,0,5.146,2.304,5.146,5.146V169.014z"/>
<polygon opacity="0.71" fill="#FCFCFC" stroke="#222323" stroke-width="8" points="1052.839,19.605 1120.138,27.322 
	1147.105,89.464 1106.773,143.888 1039.473,136.172 1012.507,74.03 "/>
<path fill="#889FBF" stroke="#3D4C63" stroke-width="8" d="M965.645,9.75l-87.478,37.794v106.597
	c-6.281-4.387-16.519-5.79-27.427-3.023c-16.562,4.2-28.394,16.417-26.428,27.29c1.967,10.872,16.986,16.28,33.547,12.08
	c15.659-3.972,27.082-15.109,26.62-25.501l0.021-0.01V90.231l74.667-32.031v60.46c-6.292-4.309-16.458-5.67-27.284-2.925
	c-16.561,4.2-28.393,16.418-26.426,27.291c1.965,10.872,16.984,16.28,33.547,12.08c15.391-3.903,26.689-14.73,26.632-24.967
	l0.009,0.002V9.75z M884.5,82.269V67.212l74.667-32.071v15.096L884.5,82.269z"/>
<path fill="none" stroke="#663300" stroke-width="8" d="M621.896,115.012c0,0,7.505-29.391,21.774-41.995
	c29.319-25.897,48.45-33.596,57.782-36.162c29.395-8.084,25.586,7.543,26.208,18.12c0.666,11.304,18.192,2.121,25.975-1.399
	c13.064-5.91,19.441-0.156,22.552,16.331c3.461,18.341,4.978,36.084-2.178,46.972"/>
<path fill="#6AA06E" stroke="#446B48" stroke-width="8" d="M699.828,87.419c2.72,0,9.342-0.71,16.674-2.721
	c7.332-2.01,11.816-2.45,21.05-2.247c11.68,0.258,18.685,3.429,24.598,6.149c5.913,2.721,14.28,10.074,17.148,17.975
	c2.889,7.967,3.192,12.537,1.655,20.696s-5.704,12.284-9.46,15.492c-6.534,5.578-20.459,11.352-37.962,5.676
	s-33.703-20.458-33.703-20.458s-16.201,14.782-33.704,20.458s-31.429-0.098-37.961-5.676c-3.757-3.208-7.924-7.333-9.461-15.492
	c-1.536-8.159-1.233-12.729,1.656-20.696c2.867-7.9,11.235-15.254,17.147-17.975c5.913-2.72,12.918-5.891,24.598-6.149
	c9.234-0.204,13.719,0.237,21.05,2.247C690.485,86.709,697.107,87.419,699.828,87.419z"/>
<path fill="#FFFFFF" stroke="#446B48" stroke-width="3" d="M759.237,114.965c0,0-7.725-7.696-19.527-7.561
	c-12.151,0.141-18.598,4.102-20.46,6.859c2.574,4.752,13.453,8.653,20.045,8.87C742.931,123.252,755.74,122.018,759.237,114.965z"/>
<path fill="#FFFFFF" stroke="#446B48" stroke-width="3" d="M640.419,114.965c0,0,7.725-7.696,19.526-7.561
	c12.151,0.141,18.597,4.102,20.46,6.859c-2.573,4.752-13.453,8.653-20.045,8.87C656.725,123.252,643.916,122.018,640.419,114.965z"
	/>
<line fill="none" stroke="#6D6E71" stroke-width="5" stroke-miterlimit="10" x1="600.5" y1="100.5" x2="400.5" y2="100.5"/>
<line fill="none" stroke="#6D6E71" stroke-width="2" stroke-miterlimit="10" x1="400.5" y1="50.5" x2="600.5" y2="50.5"/>
<line fill="none" stroke="#6D6E71" stroke-width="2" stroke-miterlimit="10" x1="400.5" y1="150.5" x2="600.5" y2="150.5"/>
<line fill="none" stroke="#6D6E71" stroke-width="5" stroke-miterlimit="10" x1="500.5" y1="0.5" x2="500.5" y2="200.5"/>
<line fill="none" stroke="#6D6E71" stroke-width="2" stroke-miterlimit="10" x1="450.5" y1="0.5" x2="450.5" y2="200.5"/>
<line fill="none" stroke="#6D6E71" stroke-width="2" stroke-miterlimit="10" x1="550.5" y1="0.5" x2="550.5" y2="200.5"/>
<path fill="none" stroke="#000000" stroke-width="10" stroke-miterlimit="10" d="M408.334,109.667
	C450.022-16.878,466.878-0.87,500.5,100.5c33.167,100,48.333,101.334,92.167-35.833"/>
<path fill="#FFFFFF" stroke="#225C66" stroke-width="10" stroke-miterlimit="10" d="M360.826,177.404
	c0,8.406-6.812,15.219-15.217,15.219h-90.217c-8.406,0-15.218-6.812-15.218-15.219V23.594c0-8.404,6.813-15.217,15.218-15.217
	h90.217c8.404,0,15.218,6.813,15.218,15.217L360.826,177.404L360.826,177.404z"/>
<rect x="258.479" y="35.369" fill="#737373" stroke="#737373" stroke-width="4" stroke-miterlimit="10" width="84.043" height="35.556"/>
<circle fill="#FFFFFF" stroke="#737373" stroke-width="5" stroke-miterlimit="10" cx="270.762" cy="99.047" r="9.374"/>
<circle fill="#FFFFFF" stroke="#737373" stroke-width="5" stroke-miterlimit="10" cx="300.5" cy="99.047" r="9.374"/>
<circle fill="#FFFFFF" stroke="#737373" stroke-width="5" stroke-miterlimit="10" cx="330.238" cy="99.047" r="9.374"/>
<circle fill="#FFFFFF" stroke="#737373" stroke-width="5" stroke-miterlimit="10" cx="270.762" cy="129.916" r="9.374"/>
<circle fill="#FFFFFF" stroke="#737373" stroke-width="5" stroke-miterlimit="10" cx="300.5" cy="129.916" r="9.374"/>
<circle fill="#FFFFFF" stroke="#737373" stroke-width="5" stroke-miterlimit="10" cx="330.238" cy="129.916" r="9.374"/>
<circle fill="#FFFFFF" stroke="#737373" stroke-width="5" stroke-miterlimit="10" cx="270.762" cy="160.785" r="9.374"/>
<circle fill="#FFFFFF" stroke="#737373" stroke-width="5" stroke-miterlimit="10" cx="300.5" cy="160.785" r="9.374"/>
<circle fill="#FFFFFF" stroke="#737373" stroke-width="5" stroke-miterlimit="10" cx="330.238" cy="160.785" r="9.374"/>
<polygon fill="#FFFFFF" stroke="#231F20" stroke-width="8" points="177.514,160.453 104.525,87.463 136.318,55.671 21.852,25 
	52.528,139.46 84.314,107.673 157.305,180.662 "/>
</svg>
