<?xml version="1.0" encoding="utf-8"?>
<!-- Generator: Adobe Illustrator 15.0.0, SVG Export Plug-In  -->
<!DOCTYPE svg PUBLIC "-//W3C//DTD SVG 1.1 Tiny//EN" "http://www.w3.org/Graphics/SVG/1.1/DTD/svg11-tiny.dtd" [
	<!ENTITY ns_flows "http://ns.adobe.com/Flows/1.0/">
]>
<svg version="1.1" baseProfile="tiny"
	 xmlns="http://www.w3.org/2000/svg" xmlns:xlink="http://www.w3.org/1999/xlink" xmlns:a="http://ns.adobe.com/AdobeSVGViewerExtensions/3.0/"
	 x="0px" y="0px" width="200px" height="200px" viewBox="-15 -16 200 200" overflow="visible" xml:space="preserve">
<defs>
</defs>
<rect x="21" y="10" fill="#EFEFEF" stroke="#534741" stroke-width="2" stroke-miterlimit="10" width="123" height="21"/>
<path fill="#FFFAE3" stroke="#534741" stroke-width="2" stroke-miterlimit="10" d="M1,164h163V40H1V164z M155,61
	c0,3.313-1.97,6-4.4,6h-13.2c-2.43,0-4.4-2.687-4.4-6v-5c0-3.313,1.97-6,4.4-6h13.2c2.43,0,4.4,2.687,4.4,6V61z M155,82
	c0,3.313-1.97,6-4.4,6h-13.2c-2.43,0-4.4-2.687-4.4-6v-5c0-3.313,1.97-6,4.4-6h13.2c2.43,0,4.4,2.687,4.4,6V82z M155,104
	c0,3.313-1.97,6-4.4,6h-13.2c-2.43,0-4.4-2.687-4.4-6v-5c0-3.313,1.97-6,4.4-6h13.2c2.43,0,4.4,2.687,4.4,6V104z M155,126
	c0,3.313-1.97,6-4.4,6h-13.2c-2.43,0-4.4-2.687-4.4-6v-5c0-3.313,1.97-6,4.4-6h13.2c2.43,0,4.4,2.687,4.4,6V126z M125,61
	c0,3.313-1.97,6-4.4,6h-13.2c-2.43,0-4.4-2.687-4.4-6v-5c0-3.313,1.97-6,4.4-6h13.2c2.43,0,4.4,2.687,4.4,6V61z M125,82
	c0,3.313-1.97,6-4.4,6h-13.2c-2.43,0-4.4-2.687-4.4-6v-5c0-3.313,1.97-6,4.4-6h13.2c2.43,0,4.4,2.687,4.4,6V82z M125,104
	c0,3.313-1.97,6-4.4,6h-13.2c-2.43,0-4.4-2.687-4.4-6v-5c0-3.313,1.97-6,4.4-6h13.2c2.43,0,4.4,2.687,4.4,6V104z M125,126
	c0,3.313-1.97,6-4.4,6h-13.2c-2.43,0-4.4-2.687-4.4-6v-5c0-3.313,1.97-6,4.4-6h13.2c2.43,0,4.4,2.687,4.4,6V126z M155,148
	c0,3.313-4.656,6-10.4,6h-31.2c-5.744,0-10.4-2.687-10.4-6v-5c0-3.313,4.656-6,10.4-6h31.2c5.744,0,10.4,2.687,10.4,6V148z M95,61
	c0,3.313-1.97,6-4.4,6H77.4c-2.43,0-4.4-2.687-4.4-6v-5c0-3.313,1.97-6,4.4-6h13.2c2.43,0,4.4,2.687,4.4,6V61z M95,82
	c0,3.313-1.97,6-4.4,6H77.4c-2.43,0-4.4-2.687-4.4-6v-5c0-3.313,1.97-6,4.4-6h13.2c2.43,0,4.4,2.687,4.4,6V82z M95,104
	c0,3.313-1.97,6-4.4,6H77.4c-2.43,0-4.4-2.687-4.4-6v-5c0-3.313,1.97-6,4.4-6h13.2c2.43,0,4.4,2.687,4.4,6V104z M95,126
	c0,3.313-1.97,6-4.4,6H77.4c-2.43,0-4.4-2.687-4.4-6v-5c0-3.313,1.97-6,4.4-6h13.2c2.43,0,4.4,2.687,4.4,6V126z M95,148
	c0,3.313-1.97,6-4.4,6H77.4c-2.43,0-4.4-2.687-4.4-6v-5c0-3.313,1.97-6,4.4-6h13.2c2.43,0,4.4,2.687,4.4,6V148z M65,61
	c0,3.313-1.97,6-4.4,6H47.4c-2.43,0-4.4-2.687-4.4-6v-5c0-3.313,1.97-6,4.4-6h13.2c2.43,0,4.4,2.687,4.4,6V61z M65,82
	c0,3.313-1.97,6-4.4,6H47.4c-2.43,0-4.4-2.687-4.4-6v-5c0-3.313,1.97-6,4.4-6h13.2c2.43,0,4.4,2.687,4.4,6V82z M65,104
	c0,3.313-1.97,6-4.4,6H47.4c-2.43,0-4.4-2.687-4.4-6v-5c0-3.313,1.97-6,4.4-6h13.2c2.43,0,4.4,2.687,4.4,6V104z M65,126
	c0,3.313-1.97,6-4.4,6H47.4c-2.43,0-4.4-2.687-4.4-6v-5c0-3.313,1.97-6,4.4-6h13.2c2.43,0,4.4,2.687,4.4,6V126z M65,148
	c0,3.313-1.97,6-4.4,6H47.4c-2.43,0-4.4-2.687-4.4-6v-5c0-3.313,1.97-6,4.4-6h13.2c2.43,0,4.4,2.687,4.4,6V148z M35,61
	c0,3.313-1.97,6-4.4,6H17.4c-2.43,0-4.4-2.687-4.4-6v-5c0-3.313,1.97-6,4.4-6h13.2c2.43,0,4.4,2.687,4.4,6V61z M35,82
	c0,3.313-1.97,6-4.4,6H17.4c-2.43,0-4.4-2.687-4.4-6v-5c0-3.313,1.97-6,4.4-6h13.2c2.43,0,4.4,2.687,4.4,6V82z M35,104
	c0,3.313-1.97,6-4.4,6H17.4c-2.43,0-4.4-2.687-4.4-6v-5c0-3.313,1.97-6,4.4-6h13.2c2.43,0,4.4,2.687,4.4,6V104z M35,126
	c0,3.313-1.97,6-4.4,6H17.4c-2.43,0-4.4-2.687-4.4-6v-5c0-3.313,1.97-6,4.4-6h13.2c2.43,0,4.4,2.687,4.4,6V126z M35,148
	c0,3.313-1.97,6-4.4,6H17.4c-2.43,0-4.4-2.687-4.4-6v-5c0-3.313,1.97-6,4.4-6h13.2c2.43,0,4.4,2.687,4.4,6V148z"/>
<path fill="#DDD3CA" stroke="#534741" stroke-width="2" stroke-miterlimit="10" d="M1,1v39h163V1H1z M144,31H21V10h123V31z"/>
<path fill="#EFEFEF" stroke="#534741" stroke-width="2" stroke-miterlimit="10" d="M131.017,22.836c1.067,0,1.583-1.259,1.583-3.25
	c0-1.919-0.48-3.178-1.583-3.178c-0.912,0-1.583,1.127-1.583,3.25C129.434,21.685,130.058,22.836,131.017,22.836z"/>
<path fill="#EFEFEF" stroke="#534741" stroke-width="2" stroke-miterlimit="10" d="M137.173,22.884c0.947,0,1.559-0.587,1.559-1.391
	c0-0.936-0.66-1.403-1.715-1.703c-0.911,0.264-1.403,0.875-1.403,1.619C135.578,22.189,136.177,22.884,137.173,22.884z"/>
<path fill="#EFEFEF" stroke="#534741" stroke-width="2" stroke-miterlimit="10" d="M124.861,22.836c1.067,0,1.583-1.259,1.583-3.25
	c0-1.919-0.48-3.178-1.583-3.178c-0.912,0-1.583,1.127-1.583,3.25C123.278,21.685,123.902,22.836,124.861,22.836z"/>
<path fill="#EFEFEF" stroke="#534741" stroke-width="2" stroke-miterlimit="10" d="M137.316,19.035
	c0.672-0.228,1.188-0.708,1.188-1.416c0-0.624-0.372-1.271-1.319-1.271c-0.875,0-1.355,0.576-1.355,1.247
	C135.817,18.375,136.417,18.794,137.316,19.035z"/>
<path fill="#EFEFEF" stroke="#534741" stroke-width="2" stroke-miterlimit="10" d="M118.849,19.035
	c0.672-0.228,1.188-0.708,1.188-1.416c0-0.624-0.372-1.271-1.319-1.271c-0.875,0-1.355,0.576-1.355,1.247
	C117.35,18.375,117.95,18.794,118.849,19.035z"/>
<path fill="#EFEFEF" stroke="#534741" stroke-width="2" stroke-miterlimit="10" d="M118.706,22.884c0.947,0,1.559-0.587,1.559-1.391
	c0-0.936-0.66-1.403-1.715-1.703c-0.912,0.264-1.403,0.875-1.403,1.619C117.11,22.189,117.71,22.884,118.706,22.884z"/>
<path d="M136.069,19.418c-0.875-0.408-1.248-1.08-1.248-1.751c0-1.235,1.043-2.075,2.423-2.075c1.511,0,1.665,0.936,1.665,1.919
	c0,0.66-0.909,1.379-1.909,1.823v0.036c1,0.384,2.186,1.08,2.186,2.015c0,1.367-0.857,2.267-2.344,2.267
	c-1.631,0-2.46-0.959-2.46-2.099c0-0.983,0.664-1.691,1.624-2.099L136.069,19.418z M131.089,15.592c1.631,0,2.579,1.463,2.579,3.946
	c0,2.651-0.996,4.114-2.71,4.114c-1.523,0-2.567-1.427-2.591-4.006C128.366,17.02,129.506,15.592,131.089,15.592z M124.933,15.592
	c1.631,0,2.579,1.463,2.579,3.946c0,2.651-0.996,4.114-2.71,4.114c-1.523,0-2.567-1.427-2.591-4.006
	C122.21,17.02,123.35,15.592,124.933,15.592z M117.602,19.418c-0.875-0.408-1.248-1.08-1.248-1.751c0-1.235,1.043-2.075,2.423-2.075
	c1.511,0,1.898,0.936,1.898,1.919c0,0.66-0.676,1.379-1.676,1.823v0.036c1,0.384,1.952,1.08,1.952,2.015
	c0,1.367-0.973,2.267-2.46,2.267c-1.631,0-2.52-0.959-2.52-2.099c0-0.983,0.635-1.691,1.595-2.099L117.602,19.418z M109,17h5v-0.58
	L111.674,25h-1.091L113,16.624V18h-4V17z M104.103,22.321c0.3,0.18,0.983,0.479,1.727,0.479c1.343,0,1.775-0.216,1.763-0.876
	c-0.012-1.091-0.996-0.924-2.015-0.924H104v-1h1.578c0.768,0,1.739-0.926,1.739-1.85c0-0.624-0.396-1.441-1.367-1.441
	c-0.624,0-1.224,0.144-1.559,0.383l-0.288-0.834c0.42-0.3,1.211-0.633,2.051-0.633c1.535,0,1.758,0.895,1.758,1.842
	c0,0.816-0.912,1.483-1.912,1.831v0.024c1,0.18,2.2,0.899,2.212,1.991c0,1.247-0.747,2.338-2.606,2.338
	c-0.875,0-1.525-0.276-1.909-0.528L104.103,22.321z M97.923,22.369c0.324,0.192,0.959,0.432,1.679,0.432
	c0.983,0,1.847-0.647,1.835-1.691c0-1.007-0.684-1.715-2.231-1.715c-0.456,0-0.803,0.674-1.091,0.71L98.619,17H101v1h-1.625
	l-0.3,1.309c0.18-0.023,0.348-0.383,0.636-0.383c0.612,0,1.199-0.054,1.679,0.246c0.611,0.336,1.115,0.933,1.115,1.904
	c0,1.523-1.211,2.619-2.902,2.619c-0.852,0-1.559-0.262-1.943-0.501L97.923,22.369z M91.768,22.369
	c0.324,0.192,0.959,0.432,1.679,0.432c0.983,0,1.847-0.647,1.835-1.691c0-1.007-0.684-1.715-2.231-1.715
	c-0.456,0-0.804,0.674-1.091,0.71L92.463,17H95v1h-1.781l-0.3,1.309c0.18-0.023,0.348-0.383,0.636-0.383
	c0.611,0,1.199-0.054,1.679,0.246c0.611,0.336,1.115,0.933,1.115,1.904c0,1.523-1.211,2.619-2.902,2.619
	c-0.852,0-1.559-0.262-1.943-0.501L91.768,22.369z"/>
<path stroke="#534741" stroke-width="2" stroke-miterlimit="10" d="M96.349,20.989c0-0.971-0.504-1.655-1.115-1.991
	c-0.48-0.3-1.068-0.42-1.679-0.42c-0.288,0-0.456,0.707-0.636,0.73l0.3-1.309H95v-1h-2.537l-0.504,3.104
	c0.288-0.036,0.636-0.391,1.091-0.391c1.547,0,2.231,0.548,2.231,1.556c0.012,1.043-0.852,1.611-1.835,1.611
	c-0.72,0-1.355-0.279-1.679-0.471l-0.264,0.784c0.384,0.24,1.091,0.469,1.943,0.469C95.138,23.662,96.349,22.513,96.349,20.989z"/>
<path stroke="#534741" stroke-width="2" stroke-miterlimit="10" d="M102.505,20.989c0-0.971-0.504-1.655-1.115-1.991
	c-0.48-0.3-1.067-0.42-1.679-0.42c-0.288,0-0.456,0.707-0.636,0.73l0.3-1.309H101v-1h-2.381l-0.504,3.104
	c0.288-0.036,0.636-0.391,1.091-0.391c1.547,0,2.231,0.548,2.231,1.556c0.012,1.043-0.852,1.611-1.835,1.611
	c-0.72,0-1.355-0.279-1.679-0.471l-0.264,0.784c0.384,0.24,1.091,0.469,1.943,0.469C101.293,23.662,102.505,22.513,102.505,20.989z"
	/>
<path stroke="#534741" stroke-width="2" stroke-miterlimit="10" d="M108.212,21.313C108.2,20.222,107,19.502,106,19.322v-0.024
	c1-0.348,1.912-1.031,1.912-1.847c0-0.947-0.459-1.859-1.995-1.859c-0.839,0-1.513,0.3-1.933,0.6l0.347,0.768
	c0.335-0.24,0.965-0.516,1.589-0.516c0.971,0,1.382,1.083,1.382,1.706c0,0.924-0.957,1.85-1.725,1.85H104v1h1.578
	c1.02,0,2.003-0.167,2.015,0.924c0.012,0.66-0.42,1.194-1.763,1.194c-0.744,0-1.427-0.458-1.727-0.638l-0.288,0.724
	c0.384,0.252,0.915,0.488,1.791,0.488C107.465,23.691,108.212,22.561,108.212,21.313z"/>
<polygon stroke="#534741" stroke-width="2" stroke-miterlimit="10" points="113,16.624 110.583,25 111.674,25 114,16.42 114,17 
	109,17 109,18 113,18 "/>
<path stroke="#534741" stroke-width="2" stroke-miterlimit="10" d="M116.067,21.553c0,1.139,0.983,2.099,2.614,2.099
	c1.487,0,2.271-0.899,2.271-2.267c0-0.936-0.952-1.631-1.952-2.015v-0.036c1-0.444,1.676-1.164,1.676-1.823
	c0-0.983-0.577-1.919-2.089-1.919c-1.379,0-2.328,0.84-2.328,2.075c0,0.672,0.42,1.344,1.295,1.751l0.035,0.036
	C116.63,19.862,116.067,20.57,116.067,21.553z M117.362,17.595c0-0.671,0.479-1.247,1.355-1.247c0.948,0,1.319,0.647,1.319,1.271
	c0,0.708-0.516,1.188-1.188,1.416C117.95,18.794,117.35,18.375,117.362,17.595z M118.549,19.79c1.056,0.3,1.715,0.768,1.715,1.703
	c0,0.804-0.612,1.391-1.559,1.391c-0.996,0-1.595-0.695-1.56-1.475C117.146,20.666,117.638,20.054,118.549,19.79z"/>
<path stroke="#534741" stroke-width="2" stroke-miterlimit="10" d="M124.801,23.652c1.715,0,2.71-1.463,2.71-4.114
	c0-2.482-0.948-3.946-2.579-3.946c-1.583,0-2.723,1.427-2.723,4.054C122.234,22.225,123.278,23.652,124.801,23.652z M124.861,16.408
	c1.103,0,1.583,1.259,1.583,3.178c0,1.991-0.516,3.25-1.583,3.25c-0.959,0-1.583-1.151-1.583-3.178
	C123.278,17.535,123.95,16.408,124.861,16.408z"/>
<path stroke="#534741" stroke-width="2" stroke-miterlimit="10" d="M130.957,23.652c1.715,0,2.71-1.463,2.71-4.114
	c0-2.482-0.948-3.946-2.579-3.946c-1.583,0-2.723,1.427-2.723,4.054C128.39,22.225,129.434,23.652,130.957,23.652z M131.017,16.408
	c1.103,0,1.583,1.259,1.583,3.178c0,1.991-0.516,3.25-1.583,3.25c-0.959,0-1.583-1.151-1.583-3.178
	C129.434,17.535,130.105,16.408,131.017,16.408z"/>
<path stroke="#534741" stroke-width="2" stroke-miterlimit="10" d="M134.534,21.553c0,1.139,0.983,2.099,2.614,2.099
	c1.487,0,2.037-0.899,2.037-2.267c0-0.936-1.186-1.631-2.186-2.015v-0.036c1-0.444,1.909-1.164,1.909-1.823
	c0-0.983-0.46-1.919-1.972-1.919c-1.379,0-2.269,0.84-2.269,2.075c0,0.672,0.449,1.344,1.324,1.751l0.05,0.036
	C135.083,19.862,134.534,20.57,134.534,21.553z M135.83,17.595c0-0.671,0.479-1.247,1.355-1.247c0.948,0,1.319,0.647,1.319,1.271
	c0,0.708-0.516,1.188-1.188,1.416C136.417,18.794,135.817,18.375,135.83,17.595z M137.017,19.79c1.056,0.3,1.715,0.768,1.715,1.703
	c0,0.804-0.612,1.391-1.559,1.391c-0.996,0-1.595-0.695-1.56-1.475C135.613,20.666,136.105,20.054,137.017,19.79z"/>
<path fill="#3A3131" d="M35,56c0-3.313-1.97-6-4.4-6H17.4c-2.43,0-4.4,2.687-4.4,6v5c0,3.313,1.97,6,4.4,6h13.2
	c2.43,0,4.4-2.687,4.4-6V56z"/>
<path fill="#3A3131" d="M65,56c0-3.313-1.97-6-4.4-6H47.4c-2.43,0-4.4,2.687-4.4,6v5c0,3.313,1.97,6,4.4,6h13.2
	c2.43,0,4.4-2.687,4.4-6V56z"/>
<path fill="#3A3131" d="M95,56c0-3.313-1.97-6-4.4-6H77.4c-2.43,0-4.4,2.687-4.4,6v5c0,3.313,1.97,6,4.4,6h13.2
	c2.43,0,4.4-2.687,4.4-6V56z"/>
<path fill="#3A3131" d="M125,56c0-3.313-1.97-6-4.4-6h-13.2c-2.43,0-4.4,2.687-4.4,6v5c0,3.313,1.97,6,4.4,6h13.2
	c2.43,0,4.4-2.687,4.4-6V56z"/>
<path fill="#947C99" d="M35,77c0-3.313-1.97-6-4.4-6H17.4c-2.43,0-4.4,2.687-4.4,6v5c0,3.313,1.97,6,4.4,6h13.2
	c2.43,0,4.4-2.687,4.4-6V77z"/>
<path fill="#947C99" d="M65,77c0-3.313-1.97-6-4.4-6H47.4c-2.43,0-4.4,2.687-4.4,6v5c0,3.313,1.97,6,4.4,6h13.2
	c2.43,0,4.4-2.687,4.4-6V77z"/>
<path fill="#947C99" d="M95,77c0-3.313-1.97-6-4.4-6H77.4c-2.43,0-4.4,2.687-4.4,6v5c0,3.313,1.97,6,4.4,6h13.2
	c2.43,0,4.4-2.687,4.4-6V77z"/>
<path fill="#3A3131" d="M125,77c0-3.313-1.97-6-4.4-6h-13.2c-2.43,0-4.4,2.687-4.4,6v5c0,3.313,1.97,6,4.4,6h13.2
	c2.43,0,4.4-2.687,4.4-6V77z"/>
<path fill="#947C99" d="M35,99c0-3.313-1.97-6-4.4-6H17.4c-2.43,0-4.4,2.687-4.4,6v5c0,3.313,1.97,6,4.4,6h13.2
	c2.43,0,4.4-2.687,4.4-6V99z"/>
<path fill="#947C99" d="M65,99c0-3.313-1.97-6-4.4-6H47.4c-2.43,0-4.4,2.687-4.4,6v5c0,3.313,1.97,6,4.4,6h13.2
	c2.43,0,4.4-2.687,4.4-6V99z"/>
<path fill="#947C99" d="M95,99c0-3.313-1.97-6-4.4-6H77.4c-2.43,0-4.4,2.687-4.4,6v5c0,3.313,1.97,6,4.4,6h13.2
	c2.43,0,4.4-2.687,4.4-6V99z"/>
<path fill="#464FF2" d="M125,99c0-3.313-1.97-6-4.4-6h-13.2c-2.43,0-4.4,2.687-4.4,6v5c0,3.313,1.97,6,4.4,6h13.2
	c2.43,0,4.4-2.687,4.4-6V99z"/>
<path fill="#DD3119" d="M155,56c0-3.313-1.97-6-4.4-6h-13.2c-2.43,0-4.4,2.687-4.4,6v5c0,3.313,1.97,6,4.4,6h13.2
	c2.43,0,4.4-2.687,4.4-6V56z"/>
<path fill="#1E3FE2" d="M155,121c0-3.313-1.97-6-4.4-6h-13.2c-2.43,0-4.4,2.687-4.4,6v5c0,3.313,1.97,6,4.4,6h13.2
	c2.43,0,4.4-2.687,4.4-6V121z"/>
<path fill="#3A3131" d="M155,77c0-3.313-1.97-6-4.4-6h-13.2c-2.43,0-4.4,2.687-4.4,6v5c0,3.313,1.97,6,4.4,6h13.2
	c2.43,0,4.4-2.687,4.4-6V77z"/>
<path fill="#464FF2" d="M155,99c0-3.313-1.97-6-4.4-6h-13.2c-2.43,0-4.4,2.687-4.4,6v5c0,3.313,1.97,6,4.4,6h13.2
	c2.43,0,4.4-2.687,4.4-6V99z"/>
<path fill="#947C99" d="M35,121c0-3.313-1.97-6-4.4-6H17.4c-2.43,0-4.4,2.687-4.4,6v5c0,3.313,1.97,6,4.4,6h13.2
	c2.43,0,4.4-2.687,4.4-6V121z"/>
<path fill="#947C99" d="M65,121c0-3.313-1.97-6-4.4-6H47.4c-2.43,0-4.4,2.687-4.4,6v5c0,3.313,1.97,6,4.4,6h13.2
	c2.43,0,4.4-2.687,4.4-6V121z"/>
<path fill="#947C99" d="M95,121c0-3.313-1.97-6-4.4-6H77.4c-2.43,0-4.4,2.687-4.4,6v5c0,3.313,1.97,6,4.4,6h13.2
	c2.43,0,4.4-2.687,4.4-6V121z"/>
<path fill="#464FF2" d="M125,121c0-3.313-1.97-6-4.4-6h-13.2c-2.43,0-4.4,2.687-4.4,6v5c0,3.313,1.97,6,4.4,6h13.2
	c2.43,0,4.4-2.687,4.4-6V121z"/>
<path fill="#947C99" d="M35,143c0-3.313-1.97-6-4.4-6H17.4c-2.43,0-4.4,2.687-4.4,6v5c0,3.313,1.97,6,4.4,6h13.2
	c2.43,0,4.4-2.687,4.4-6V143z"/>
<path fill="#947C99" d="M65,143c0-3.313-1.97-6-4.4-6H47.4c-2.43,0-4.4,2.687-4.4,6v5c0,3.313,1.97,6,4.4,6h13.2
	c2.43,0,4.4-2.687,4.4-6V143z"/>
<path fill="#947C99" d="M95,143c0-3.313-1.97-6-4.4-6H77.4c-2.43,0-4.4,2.687-4.4,6v5c0,3.313,1.97,6,4.4,6h13.2
	c2.43,0,4.4-2.687,4.4-6V143z"/>
<path fill="#6CCE5B" d="M155,143c0-3.313-4.656-6-10.4-6h-31.2c-5.744,0-10.4,2.687-10.4,6v5c0,3.313,4.656,6,10.4,6h31.2
	c5.744,0,10.4-2.687,10.4-6V143z"/>
</svg>
