<?xml version="1.0" encoding="utf-8"?>
<!-- Generator: Adobe Illustrator 15.1.0, SVG Export Plug-In  -->
<!DOCTYPE svg PUBLIC "-//W3C//DTD SVG 1.0//EN" "http://www.w3.org/TR/2001/REC-SVG-20010904/DTD/svg10.dtd" [
	<!ENTITY ns_flows "http://ns.adobe.com/Flows/1.0/">
]>
<svg version="1.0"
	 xmlns="http://www.w3.org/2000/svg" xmlns:xlink="http://www.w3.org/1999/xlink" xmlns:a="http://ns.adobe.com/AdobeSVGViewerExtensions/3.0/"
	 x="0px" y="0px" width="3em" height="3em" viewBox="-3.635 -7.909 128 128" enable-background="new -3.635 -7.909 128 128"
	 xml:space="preserve">
<defs>
</defs>
<path fill="#83606C" d="M66.305,99.858c0.538,0.578,1.069,1.147,1.772,1.582c2.28-0.868,2.976-1.853,2.831-3.208l-3.487-24.302
	c0,0-61.555-65.209-63.571-67.231c0.149,1.824,2.265,22.327,2.265,22.327L66.305,99.858z"/>
<path fill="#F7AFBC" d="M67.659,69.561l35.469-0.346L43.007,8.996c-0.169-0.229-1.576-1.403-3.735-1.567
	c-2.326-0.174-23.99-2.594-30.403-3.225c-1.128-0.11-2.658,0.3-2.658,0.3C7.174,5.51,67.659,69.561,67.659,69.561z"/>
<path fill="#CC99AC" d="M68.13,101.671c0.786,0.459,1.79,0.752,3.246,0.707c1.558-0.043,36.012-0.861,36.012-0.861
	c0.687-0.047,2.686-0.324,2.791-2.635c0.082-1.827-5.458-25.666-5.458-25.666l-37.3,0.715l3.647,24.455
	C71.215,99.759,70.475,100.795,68.13,101.671z"/>
<path fill="none" stroke="#833D44" stroke-width="5" stroke-linecap="round" stroke-miterlimit="10" d="M68.072,101.57
	c2.438-0.888,2.92-1.785,2.771-3.181l-3.423-24.459"/>
<path fill="none" stroke="#833D44" stroke-width="8" stroke-miterlimit="10" d="M110.17,98.876c-0.104,2.307-2.104,2.587-2.79,2.634
	c0,0-34.456,0.819-36.013,0.863c-2.86,0.083-3.976-1.117-5.13-2.358L6.042,29.18c0,0-1.884-19.892-2.033-21.716
	c-0.117-1.46,0.845-3.254,4.116-3.451c0,0,27.95,2.932,30.687,3.138c2.162,0.164,3.568,1.338,3.738,1.567l61.696,61.633
	C104.247,70.351,110.255,97.047,110.17,98.876z"/>
</svg>
