<?xml version="1.0" encoding="utf-8"?>
<!-- Generator: Adobe Illustrator 15.0.0, SVG Export Plug-In  -->
<!DOCTYPE svg PUBLIC "-//W3C//DTD SVG 1.0//EN" "http://www.w3.org/TR/2001/REC-SVG-20010904/DTD/svg10.dtd" [
	<!ENTITY ns_flows "http://ns.adobe.com/Flows/1.0/">
]>
<svg version="1.0"
	 xmlns="http://www.w3.org/2000/svg" xmlns:xlink="http://www.w3.org/1999/xlink" xmlns:a="http://ns.adobe.com/AdobeSVGViewerExtensions/3.0/"
	 x="0px" y="0px" width="200px" height="200px" viewBox="-8.651 -4.483 200 200"
	 overflow="visible" enable-background="new -8.651 -4.483 200 200" xml:space="preserve">
<defs>
</defs>
<path opacity="0.48" fill="#666666" d="M176.919,138.266c-0.499,4.179-2.053,7.785-4.767,10.499l-10.396,10.396
	c-10.56,10.56-34.567,3.673-53.62-15.38L39.407,88.949c-3.502,0.224-8.631-6.664-9.926-9.926
	c-3.596-9.061-2.774-18.859-3.655-29.232c-1.469-0.517-2.979-1.081-4.553-1.721l-0.135-0.282L7.625,46.163L0,56.812l5.889,12.27
	l0.673,0.08c18.043,17.958,12.923,38.234,22.175,53.606c1.81,3.006,7.995,8.965,11.413,8.172l76.758,42.878
	c21.908,15.687,46.718,18.562,55.412,6.421l8.559-11.953C186.197,160.859,184.244,149.533,176.919,138.266z"/>
<path fill="#FFFF75" d="M39.407,88.949l68.729,54.833c19.053,19.053,43.061,25.939,53.62,15.38l10.396-10.396
	c2.714-2.713,4.268-6.32,4.767-10.499c1.442-12.078-5.99-28.965-20.146-43.122L99.955,28.401
	C100.627,49.797,60.77,87.581,39.407,88.949z"/>
<path fill="#FBB03B" d="M33.452,3.586c0.291,0.183,0.572,0.346,0.859,0.522l-0.088-0.301L21.157,0l-9.261,9.261l3.808,13.066
	l0.65,0.189c-0.255-0.354-0.5-0.709-0.769-1.064L33.452,3.586z"/>
<path d="M39.407,88.949c21.363-1.368,61.22-39.151,60.548-60.548c-0.111-3.508-6.62-8.749-9.926-9.926
	c-17.269-6.146-29.312,1.83-55.718-14.367c-0.288-0.176-0.568-0.339-0.859-0.522L15.585,21.453c0.269,0.355,0.514,0.709,0.769,1.064
	c6.79,9.435,8.731,18.557,9.472,27.274c0.881,10.373,0.059,20.171,3.655,29.232C30.776,82.285,35.905,89.172,39.407,88.949z"/>
</svg>
