<?xml version="1.0" encoding="utf-8"?>
<!-- Generator: Adobe Illustrator 15.0.0, SVG Export Plug-In  -->
<!DOCTYPE svg PUBLIC "-//W3C//DTD SVG 1.0//EN" "http://www.w3.org/TR/2001/REC-SVG-20010904/DTD/svg10.dtd" [
	<!ENTITY ns_flows "http://ns.adobe.com/Flows/1.0/">
]>
<svg version="1.0"
	 xmlns="http://www.w3.org/2000/svg" xmlns:xlink="http://www.w3.org/1999/xlink" xmlns:a="http://ns.adobe.com/AdobeSVGViewerExtensions/3.0/"
	 x="0px" y="0px" width="200px" height="200px" viewBox="-10.4 -12.4 200 200"
	 overflow="visible" enable-background="new -10.4 -12.4 200 200" xml:space="preserve">
<defs>
</defs>
<path fill-rule="evenodd" clip-rule="evenodd" fill="#D4145A" d="M83,131.2c0-4.3,0-8.7,0-13c24.8-1.2,54.5,2.5,76-2
	c2.3-0.7,2.7-3.3,5-4c3.2-26.3,3.3-65.7,0-92c-0.7-2.3-3.3-2.7-4-5c-26.3-3.2-65.7-3.3-92,0c-2.3,0.7-2.7,3.3-5,4
	c-4.4,20.6-0.9,49.1-2,73c-4.3,0-8.7,0-13,0c0.6-25.4-1.3-53.3,1-77c4.1-6.9,9.4-12.6,18-15c32,0.6,66.6-1.3,97,1
	c5.9,3.4,10.6,8.1,14,14c1.7,31.4,1.7,69.6,0,101C167.2,142.1,115.8,127.3,83,131.2z"/>
<path fill-rule="evenodd" clip-rule="evenodd" fill="#D4145A" d="M68,71.2c11-2.3,26.3-0.3,39-1c0,12,0,24,0,36
	c-2.3,3.6-7.1-6.7-11-8c-8.2,6.8-14.5,15.5-22,23c0,14.7,0,29.3,0,44c-2.4,4.3-5.7,7.6-10,10c-18,0-36,0-54,0
	c-4.3-2.4-7.6-5.7-10-10c0-18,0-36,0-54c2.4-4.3,5.7-7.6,10-10c15.7,0,31.3,0,47,0c8.5-5.1,14.1-13.2,21-20
	C75.1,77.4,71.8,74.1,68,71.2z M13,114.2c-3.9,11.9-2,34.5-1,48c12.3,3.8,35,2.1,49,1c3.3-12.5,3.3-37.5,0-50
	C47.5,112.1,24.9,110.3,13,114.2z"/>
</svg>
