<?xml version="1.0" encoding="utf-8"?>
<!-- Generator: Adobe Illustrator 15.0.0, SVG Export Plug-In  -->
<!DOCTYPE svg PUBLIC "-//W3C//DTD SVG 1.0//EN" "http://www.w3.org/TR/2001/REC-SVG-20010904/DTD/svg10.dtd" [
	<!ENTITY ns_flows "http://ns.adobe.com/Flows/1.0/">
]>
<svg version="1.0"
	 xmlns="http://www.w3.org/2000/svg" xmlns:xlink="http://www.w3.org/1999/xlink" xmlns:a="http://ns.adobe.com/AdobeSVGViewerExtensions/3.0/"
	 x="0px" y="0px" width="200px" height="200px" viewBox="-12.3 -10.1 200 200"
	 overflow="visible" enable-background="new -12.3 -10.1 200 200" xml:space="preserve">
<defs>
</defs>
<path opacity="0.2" fill="#1B1464" d="M67,111.4c-1.5,0.6-3.1,1-4.8,1c-5.5,0-10.1-3.7-11.4-8.8C31,129,20.4,150,26,155.3
	c4.9,4.6,20.7-3.7,40.5-20C66.4,128,66.6,119.9,67,111.4z"/>
<path opacity="0.2" fill="#1B1464" d="M108.2,68.9c0.7,1.1,1.3,2.3,1.6,3.6c0.6-0.1,1.3-0.2,2-0.2c4.5,0,8.3,2.5,10.3,6.1
	c21.4-26.7,33-49.1,27.2-54.6c-4.9-4.6-20.7,3.7-40.5,20C108.9,51.5,108.7,60,108.2,68.9z"/>
<path opacity="0.2" fill="#1B1464" d="M102.5,118c-1.5,8.6-3.3,16.7-5.1,23.9c13.9,19.5,26.1,30.7,31.8,27.7
	c6.7-3.5,2.6-25.7-9.1-54.6c-4-0.6-8.1-1.2-12.3-2C106.5,115.1,104.7,116.9,102.5,118z"/>
<path opacity="0.2" fill="#1B1464" d="M73.5,57.4c1.4-7.2,2.9-14,4.5-20.1C64.1,17.8,51.9,6.6,46.2,9.6c-6.7,3.5-2.6,25.7,9.1,54.6
	c2.5,0.4,5,0.8,7.6,1.2C64.5,60.9,68.6,57.7,73.5,57.4z"/>
<path opacity="0.2" fill="#1B1464" d="M122.9,80.1c0.5,1.3,0.7,2.6,0.7,4c0,4.1-2.1,7.7-5.2,9.8c1.3,1.9,2.1,4.2,2.1,6.7
	c0,3.1-1.2,5.8-3.1,7.9c0.9,2.2,1.8,4.3,2.7,6.4c30.9,4.5,53.4,3.2,55.2-4.1C177.1,103.1,155.3,90.7,122.9,80.1z"/>
<path opacity="0.2" fill="#1B1464" d="M55.9,90.7c-1-1.7-1.5-3.7-1.5-5.8c0-4.2,2.2-7.8,5.5-9.9c-1.6-3.7-3.2-7.3-4.6-10.8
	c-30.9-4.5-53.4-3.2-55.2,4.1C-1.7,75.9,19.3,88,50.7,98.5C51.3,95.2,53.3,92.4,55.9,90.7z"/>
<path opacity="0.2" fill="#1B1464" d="M63.1,73.6c-0.5-1.3-0.8-2.8-0.8-4.4c0-1.3,0.2-2.6,0.7-3.8c-2.6-0.4-5.1-0.8-7.6-1.2
	c1.4,3.5,2.9,7.1,4.6,10.8C60.9,74.4,62,73.9,63.1,73.6z"/>
<path opacity="0.2" fill="#1B1464" d="M63.1,73.6c-0.5-1.3-0.8-2.8-0.8-4.4c0-1.3,0.2-2.6,0.7-3.8c-2.6-0.4-5.1-0.8-7.6-1.2
	c1.4,3.5,2.9,7.1,4.6,10.8C60.9,74.4,62,73.9,63.1,73.6z"/>
<path opacity="0.2" fill="#1B1464" d="M108.7,112.4c-0.2,0-0.4,0-0.6,0c-0.1,0.2-0.2,0.4-0.3,0.6c4.2,0.8,8.4,1.4,12.3,2
	c-0.9-2.1-1.7-4.2-2.7-6.4C115.2,110.9,112.1,112.4,108.7,112.4z"/>
<path opacity="0.2" fill="#1B1464" d="M108.7,112.4c-0.2,0-0.4,0-0.6,0c-0.1,0.2-0.2,0.4-0.3,0.6c4.2,0.8,8.4,1.4,12.3,2
	c-0.9-2.1-1.7-4.2-2.7-6.4C115.2,110.9,112.1,112.4,108.7,112.4z"/>
<path opacity="0.2" fill="#1B1464" d="M81.1,123.4c-0.3,0-0.6,0-0.9,0c-4.7,4.3-9.3,8.3-13.7,11.9c0.5,25.6,4.4,43.1,11.1,43.8
	c6.4,0.7,13.7-14.1,19.7-37.3c-4.1-5.7-8.3-12.1-12.5-19C83.7,123.2,82.4,123.4,81.1,123.4z"/>
<path opacity="0.2" fill="#1B1464" d="M108.8,43.8C108.3,18.2,104.4,0.8,97.7,0C91.3-0.7,84,14.1,78,37.3
	c4.5,6.3,9.2,13.6,13.9,21.5C97.8,53.2,103.4,48.2,108.8,43.8z"/>
<path opacity="0.2" fill="#1B1464" d="M69.4,111.6c0-0.6,0.1-1.1,0.1-1.7c-0.7,0.6-1.6,1.1-2.4,1.5c-0.5,8.5-0.6,16.5-0.5,23.9
	c4.4-3.6,9-7.6,13.7-11.9C74.1,122.9,69.4,117.8,69.4,111.6z"/>
<path opacity="0.2" fill="#1B1464" d="M69.4,111.6c0-0.6,0.1-1.1,0.1-1.7c-0.7,0.6-1.6,1.1-2.4,1.5c-0.5,8.5-0.6,16.5-0.5,23.9
	c4.4-3.6,9-7.6,13.7-11.9C74.1,122.9,69.4,117.8,69.4,111.6z"/>
<path opacity="0.2" fill="#1B1464" d="M94.2,62.5c0.4,0.5,0.8,1,1.1,1.6c1-0.3,2-0.4,3.1-0.4c4.1,0,7.7,2.1,9.8,5.2
	c0.5-9,0.7-17.4,0.6-25.1c-5.4,4.4-11,9.4-16.9,14.9C92.7,60,93.4,61.2,94.2,62.5z"/>
<path opacity="0.2" fill="#1B1464" d="M94.2,62.5c0.4,0.5,0.8,1,1.1,1.6c1-0.3,2-0.4,3.1-0.4c4.1,0,7.7,2.1,9.8,5.2
	c0.5-9,0.7-17.4,0.6-25.1c-5.4,4.4-11,9.4-16.9,14.9C92.7,60,93.4,61.2,94.2,62.5z"/>
<path opacity="0.2" fill="#1B1464" d="M74.1,57.4c2.3,0,4.4,0.7,6.2,1.8c1.5-0.6,3.1-1,4.8-1c2.1,0,4.1,0.6,5.8,1.5
	c0.4-0.3,0.7-0.7,1.1-1c-4.7-7.9-9.4-15.1-13.9-21.5c-1.6,6.2-3.1,12.9-4.5,20.1C73.7,57.4,73.9,57.4,74.1,57.4z"/>
<path opacity="0.2" fill="#1B1464" d="M74.1,57.4c2.3,0,4.4,0.7,6.2,1.8c1.5-0.6,3.1-1,4.8-1c2.1,0,4.1,0.6,5.8,1.5
	c0.4-0.3,0.7-0.7,1.1-1c-4.7-7.9-9.4-15.1-13.9-21.5c-1.6,6.2-3.1,12.9-4.5,20.1C73.7,57.4,73.9,57.4,74.1,57.4z"/>
<path opacity="0.2" fill="#1B1464" d="M97.3,119.2c-2.2,0-4.2-0.6-6-1.7c-1.4,2.5-3.7,4.4-6.5,5.3c4.2,7,8.4,13.4,12.5,19
	c1.9-7.2,3.6-15.2,5.1-23.9C100.9,118.7,99.2,119.2,97.3,119.2z"/>
<path opacity="0.2" fill="#1B1464" d="M97.3,119.2c-2.2,0-4.2-0.6-6-1.7c-1.4,2.5-3.7,4.4-6.5,5.3c4.2,7,8.4,13.4,12.5,19
	c1.9-7.2,3.6-15.2,5.1-23.9C100.9,118.7,99.2,119.2,97.3,119.2z"/>
<path opacity="0.2" fill="#1B1464" d="M94.2,62.5c-0.7-1.3-1.5-2.5-2.2-3.8c-0.3,0.3-0.7,0.7-1.1,1C92.1,60.5,93.2,61.4,94.2,62.5z"
	/>
<path opacity="0.2" fill="#1B1464" d="M94.2,62.5c-0.7-1.3-1.5-2.5-2.2-3.8c-0.3,0.3-0.7,0.7-1.1,1C92.1,60.5,93.2,61.4,94.2,62.5z"
	/>
<path opacity="0.2" fill="#1B1464" d="M94.2,62.5c-0.7-1.3-1.5-2.5-2.2-3.8c-0.3,0.3-0.7,0.7-1.1,1C92.1,60.5,93.2,61.4,94.2,62.5z"
	/>
<path fill="#A91C24" d="M76.2,78.7c0.1-0.2,0.3-0.3,0.4-0.5c-2.1-2.1-3.4-5-3.4-8.3c0-4.8,2.9-8.9,7-10.8c-1.8-1.1-3.9-1.8-6.2-1.8
	c-0.2,0-0.4,0-0.5,0c-4.9,0.2-9.1,3.5-10.6,7.9c-0.4,1.2-0.7,2.5-0.7,3.8c0,1.5,0.3,3,0.8,4.4c1-0.3,2-0.4,3.1-0.4
	C70.4,73.1,74.1,75.4,76.2,78.7z"/>
<path fill="#0071BC" d="M79.7,109.4c3.6-2,6.1-5.9,6.1-10.3c0-3.9-1.9-7.4-4.9-9.5c-1.9-1.4-4.3-2.2-6.9-2.2c-0.3,0-0.5,0-0.7,0
	c0-0.3,0-0.5,0-0.8c0-3,1.1-5.7,2.9-7.8c-2.1-3.4-5.8-5.6-10-5.6c-1.1,0-2.1,0.2-3.1,0.4c-1.2,0.3-2.2,0.8-3.2,1.4
	c-3.3,2.1-5.5,5.7-5.5,9.9c0,2.1,0.6,4.1,1.5,5.8c1.8-1.2,4-1.9,6.3-1.9c1.6,0,3.2,0.3,4.6,0.9c-2.8,2.2-4.6,5.5-4.6,9.3
	c0,4.9,3,9.1,7.2,10.9c1.4,0.6,2.9,0.9,4.6,0.9C76.1,110.9,78.1,110.3,79.7,109.4z"/>
<path fill="#A41C24" d="M86.3,111.6c-2.5-0.1-4.7-0.9-6.6-2.2c-1.7,0.9-3.6,1.5-5.7,1.5c-1.6,0-3.2-0.3-4.6-0.9c0,0,0,0,0,0
	c-0.1,0.6-0.1,1.1-0.1,1.7c0,6.2,4.8,11.3,10.9,11.7c0.3,0,0.6,0,0.9,0c1.3,0,2.5-0.2,3.7-0.6c2.7-0.9,5.1-2.8,6.5-5.3
	C89.1,116.2,87.3,114.1,86.3,111.6z"/>
<path fill="#CA1C24" d="M96.9,70c0,3.2-1.3,6.1-3.4,8.3c1,1,1.8,2.2,2.4,3.5c-3.1,1.2-5.5,3.5-6.8,6.6c-0.6,1.4-0.9,2.9-0.9,4.5
	c0,2.1,0.5,4,1.5,5.7c2.1-1.8,4.7-2.8,7.7-2.8c0.2,0,0.4,0,0.6,0c1.9-4,5.9-6.8,10.7-6.8c0.9,0,1.7,0.1,2.6,0.3
	c-1.5-4.6-5.7-7.9-10.8-8.1c1.2-4.4,4.9-7.7,9.4-8.5c-0.3-1.3-0.9-2.5-1.6-3.6c-2.1-3.2-5.7-5.2-9.8-5.2c-1.1,0-2.1,0.2-3.1,0.4
	C96.3,65.9,96.9,67.9,96.9,70z"/>
<path fill="#0071BC" d="M73.3,70c0,3.2,1.3,6.1,3.4,8.3c2.1-2.2,5.1-3.5,8.4-3.5c3.3,0,6.3,1.4,8.4,3.5c2.1-2.1,3.4-5,3.4-8.3
	c0-2.1-0.6-4.1-1.6-5.9c-0.3-0.6-0.7-1.1-1.1-1.6c-0.9-1.1-2-2.1-3.3-2.8c-1.7-1-3.7-1.5-5.8-1.5c-1.7,0-3.3,0.4-4.8,1
	C76.2,61,73.3,65.2,73.3,70z"/>
<path fill="#004CBC" d="M89.1,88.3c1.2-3,3.7-5.4,6.8-6.6c-0.6-1.3-1.4-2.5-2.4-3.5c-2.1-2.2-5.1-3.5-8.4-3.5
	c-3.3,0-6.3,1.4-8.4,3.5c-0.2,0.2-0.3,0.3-0.4,0.5c-1.8,2.1-2.9,4.8-2.9,7.8c0,0.3,0,0.6,0,0.8c0.2,0,0.5,0,0.7,0
	c2.6,0,5,0.8,6.9,2.2c1.7-0.9,3.6-1.5,5.7-1.5C87.5,88.1,88.3,88.2,89.1,88.3z"/>
<path fill="#ED1C24" d="M62.3,112.4c1.7,0,3.3-0.4,4.8-1c0.9-0.4,1.7-0.9,2.4-1.5c0,0,0,0,0,0c-4.2-1.8-7.2-6-7.2-10.9
	c0-3.8,1.8-7.1,4.6-9.3c-1.4-0.6-2.9-0.9-4.6-0.9c-2.3,0-4.5,0.7-6.3,1.9c-2.7,1.7-4.6,4.5-5.2,7.8c-0.1,0.7-0.2,1.4-0.2,2.2
	c0,1,0.1,2,0.4,3C52.2,108.7,56.8,112.4,62.3,112.4z"/>
<path fill="#ED1C24" d="M89.1,88.3c-0.8-0.2-1.6-0.3-2.5-0.3c-2.1,0-4,0.5-5.7,1.5c3,2.1,4.9,5.6,4.9,9.5c0,4.5-2.5,8.3-6.1,10.3
	c1.9,1.3,4.1,2.2,6.6,2.2c-0.5-1.3-0.8-2.7-0.8-4.2c0-3.6,1.6-6.8,4.1-8.9c-0.9-1.7-1.5-3.6-1.5-5.7C88.2,91.2,88.5,89.7,89.1,88.3z
	"/>
<path fill="#0071BC" d="M111.8,72.3c-0.7,0-1.3,0.1-2,0.2c-4.5,0.8-8.2,4.1-9.4,8.5c5,0.2,9.3,3.5,10.8,8.1c2.9,0.7,5.5,2.4,7.1,4.8
	c3.2-2.1,5.2-5.7,5.2-9.8c0-1.4-0.3-2.8-0.7-4c-0.2-0.6-0.4-1.1-0.7-1.7C120.1,74.8,116.3,72.3,111.8,72.3z"/>
<path fill="#09009F" d="M111.2,89.1c-0.8-0.2-1.7-0.3-2.6-0.3c-4.7,0-8.8,2.8-10.7,6.8c6.2,0.3,11.1,5.5,11.1,11.8
	c0,1.8-0.4,3.5-1.1,5c0.2,0,0.4,0,0.6,0c3.5,0,6.6-1.5,8.7-3.9c1.9-2.1,3.1-4.9,3.1-7.9c0-2.5-0.8-4.8-2.1-6.7
	C116.7,91.5,114.2,89.8,111.2,89.1z"/>
<path fill="#0071BC" d="M98,95.6c-0.2,0-0.4,0-0.6,0c-2.9,0-5.6,1.1-7.7,2.8c-2.5,2.2-4.1,5.4-4.1,8.9c0,1.5,0.3,2.9,0.8,4.2
	c1,2.5,2.7,4.6,5,5.9c1.8,1,3.8,1.7,6,1.7c1.9,0,3.6-0.4,5.2-1.2c2.2-1.1,4-2.8,5.2-5c0.1-0.2,0.2-0.4,0.3-0.6
	c0.7-1.5,1.1-3.2,1.1-5C109.1,101.1,104.2,96,98,95.6z"/>
</svg>
