<?xml version="1.0" encoding="utf-8"?>
<!-- Generator: Adobe Illustrator 15.0.0, SVG Export Plug-In  -->
<!DOCTYPE svg PUBLIC "-//W3C//DTD SVG 1.0//EN" "http://www.w3.org/TR/2001/REC-SVG-20010904/DTD/svg10.dtd" [
	<!ENTITY ns_flows "http://ns.adobe.com/Flows/1.0/">
]>
<svg version="1.0"
	 xmlns="http://www.w3.org/2000/svg" xmlns:xlink="http://www.w3.org/1999/xlink" xmlns:a="http://ns.adobe.com/AdobeSVGViewerExtensions/3.0/"
	 x="0px" y="0px" width="200px" height="200px" viewBox="-17 -23 200 200"
	 overflow="visible" enable-background="new -17 -23 200 200" xml:space="preserve">
<defs>
</defs>
<polygon opacity="0.5" fill="#999999" points="0,2 0.17,6.225 0.066,2 "/>
<polygon opacity="0.85" fill="#999999" points="6.065,152.566 6.114,154.845 169.217,152.801 168.835,135.907 "/>
<path opacity="0.5" fill="#999999" d="M163.193,12.599c0.303,8.188,0.763,19.605,1.391,32.433L163.193,12.599z"/>
<path fill="#FFFF75" d="M173.528,143.958c-4.338-19.524-7.251-64.352-8.943-98.927c-0.628-12.828-1.088-24.01-1.391-32.199
	C162.895,4.713,162.75,0,162.75,0H0l0.066,2.459L0.17,6.568l3.603,146.61l2.292-0.153l162.77-8.799L173.528,143.958z"/>
</svg>
