<?xml version="1.0" encoding="utf-8"?>
<!-- Generator: Adobe Illustrator 15.0.0, SVG Export Plug-In  -->
<!DOCTYPE svg PUBLIC "-//W3C//DTD SVG 1.0//EN" "http://www.w3.org/TR/2001/REC-SVG-20010904/DTD/svg10.dtd" [
	<!ENTITY ns_flows "http://ns.adobe.com/Flows/1.0/">
]>
<svg version="1.0"
	 xmlns="http://www.w3.org/2000/svg" xmlns:xlink="http://www.w3.org/1999/xlink" xmlns:a="http://ns.adobe.com/AdobeSVGViewerExtensions/3.0/"
	 x="0px" y="0px" width="200px" height="200px" viewBox="-6.4 -10.8 200 200"
	 overflow="visible" enable-background="new -6.4 -10.8 200 200" xml:space="preserve">
<defs>
</defs>
<polygon opacity="0.5" fill="#4D4D4D" points="182.8,109 140.1,165.9 4.9,64.6 1.9,68.5 142,173.6 187.7,112.6 "/>
<path fill="#FFF59F" d="M182.8,109l3-4l-50.6-37.9l-21.4,26.5l-5.2-4.2l21.3-26.4l-30-22.5L78.5,67l-5.2-4.2l21.1-26.2L45.7,0
	L0,60.9l4.9,3.7l135.2,101.4L182.8,109z M88.8,34.9l-9.3,11.5l-2.2-1.8l9.3-11.5L88.8,34.9z M33.4,34.2L54.9,7.6l5.2,4.2L38.6,38.4
	L33.4,34.2z M55.4,27.5L64.7,16l2.2,1.8l-9.3,11.5L55.4,27.5z M62.1,32.2l9.3-11.5l2.2,1.8l-9.3,11.5L62.1,32.2z M69.7,38L79,26.4
	l2.2,1.8l-9.3,11.5L69.7,38z M125.9,62.5L116.6,74l-2.2-1.8l9.3-11.5L125.9,62.5z M92.5,55.1l9.3-11.5l2.2,1.8l-9.3,11.5L92.5,55.1z
	 M99.2,59.8l9.3-11.5l2.2,1.8l-9.3,11.5L99.2,59.8z M116.1,54l2.2,1.8L109,67.4l-2.2-1.8L116.1,54z M174.3,98.4L152.8,125l-5.2-4.2
	l21.5-26.7L174.3,98.4z M162.1,92l-9.3,11.5l-2.2-1.8l9.3-11.5L162.1,92z M154.5,85.3l-9.3,11.5l-2.2-1.8l9.3-11.5L154.5,85.3z
	 M128.7,84.6l9.3-11.5l2.2,1.8l-9.3,11.5L128.7,84.6z M135.3,89.3l9.3-11.5l2.2,1.8l-9.3,11.5L135.3,89.3z"/>
<rect x="43.4" y="5.9" transform="matrix(0.7781 0.6282 -0.6282 0.7781 24.8293 -24.2497)" fill="#4D4D4D" width="6.7" height="34.3"/>
<rect x="59.7" y="15.2" transform="matrix(0.778 0.6282 -0.6282 0.778 27.7965 -33.3973)" fill="#4D4D4D" width="2.9" height="14.8"/>
<rect x="66.4" y="20" transform="matrix(0.778 0.6282 -0.6282 0.778 32.2645 -36.5261)" fill="#4D4D4D" width="2.9" height="14.8"/>
<rect x="74" y="25.7" transform="matrix(0.778 0.6282 -0.6282 0.778 37.5415 -40.0415)" fill="#4D4D4D" width="2.9" height="14.8"/>
<rect x="81.6" y="32.4" transform="matrix(-0.778 -0.6282 0.6282 -0.778 122.6787 122.8789)" fill="#4D4D4D" width="2.9" height="14.8"/>
<rect x="96.8" y="42.8" transform="matrix(0.778 0.6282 -0.6282 0.778 53.3727 -50.5877)" fill="#4D4D4D" width="2.9" height="14.8"/>
<rect x="103.5" y="47.6" transform="matrix(0.778 0.6282 -0.6282 0.778 57.8407 -53.7165)" fill="#4D4D4D" width="2.9" height="14.8"/>
<rect x="111.1" y="53.3" transform="matrix(0.778 0.6282 -0.6282 0.778 63.1177 -57.2319)" fill="#4D4D4D" width="2.9" height="14.8"/>
<rect x="118.7" y="60" transform="matrix(-0.778 -0.6282 0.6282 -0.778 171.3317 195.2652)" fill="#4D4D4D" width="2.9" height="14.8"/>
<rect x="133" y="72.3" transform="matrix(0.7781 0.6281 -0.6281 0.7781 79.9138 -66.7508)" fill="#4D4D4D" width="2.9" height="14.8"/>
<rect x="139.7" y="77.1" transform="matrix(0.778 0.6282 -0.6282 0.778 84.4011 -69.8868)" fill="#4D4D4D" width="2.9" height="14.8"/>
<rect x="147.3" y="82.8" transform="matrix(-0.778 -0.6282 0.6282 -0.778 207.7453 253.8103)" fill="#4D4D4D" width="2.9" height="14.8"/>
<rect x="154.9" y="89.5" transform="matrix(-0.778 -0.6282 0.6282 -0.778 217.0969 270.4377)" fill="#4D4D4D" width="2.9" height="14.8"/>
<polygon fill="#4D4D4D" points="73.4,62.8 78.5,67 99.8,40.6 100.1,40.3 94.9,36.1 94.5,36.6 "/>
<polygon fill="#4D4D4D" points="108.6,89.4 113.7,93.6 135.2,67.1 135.3,67 130.1,62.8 129.8,63.1 "/>
<rect x="157.6" y="92.5" transform="matrix(-0.7781 -0.6281 0.6281 -0.7781 217.3007 295.9955)" fill="#4D4D4D" width="6.7" height="34.3"/>
</svg>
