<?xml version="1.0" encoding="utf-8"?>
<!-- Generator: Adobe Illustrator 15.0.0, SVG Export Plug-In  -->
<!DOCTYPE svg PUBLIC "-//W3C//DTD SVG 1.0//EN" "http://www.w3.org/TR/2001/REC-SVG-20010904/DTD/svg10.dtd" [
	<!ENTITY ns_flows "http://ns.adobe.com/Flows/1.0/">
]>
<svg version="1.0"
	 xmlns="http://www.w3.org/2000/svg" xmlns:xlink="http://www.w3.org/1999/xlink" xmlns:a="http://ns.adobe.com/AdobeSVGViewerExtensions/3.0/"
	 x="0px" y="0px" width="200px" height="200px" viewBox="-6 -32 200 200"
	 overflow="visible" enable-background="new -6 -32 200 200" xml:space="preserve">
<defs>
</defs>
<path fill="none" d="M56.7,51h6.3c-0.6-5-1-9.2-1.3-14C60.2,40.6,58.5,45,56.7,51z"/>
<path fill="none" d="M66.1,69c-0.3-1.6-0.6-3.1-0.9-4.1H52.4c-1.2,4-1.8,6.8-2,8.2C52.2,72.4,57.5,71,66.1,69z"/>
<path fill="none" d="M146,21.5c-2.2,0-5.7,1.2-10.4,3.5c-4.7,2.3-7.6,4.5-9.6,6.6v15c6-4.9,11.5-9.9,16-15c4.5-5.1,6.3-8.3,5.6-9.5
	C147.4,21.7,146.9,21.5,146,21.5z"/>
<path fill="none" d="M101,106.4V65H90.3c3.6,19,7.1,32.9,10.8,42.5C101.2,107.1,101,106.7,101,106.4z"/>
<path fill="none" d="M144.5,87.1c6.1-8.9,8.8-16.3,8.2-22.2c-2.5,0.1-6.8,1.3-12.7,3.6c-6.5,2.6-10,5.2-14,7.7V103
	C133,101.2,138.5,95.9,144.5,87.1z"/>
<path d="M61.7,37c0.3,4.8,0.7,9,1.3,14h24.9c-3-18-4.7-31.4-5.2-40.8C81,8.4,76,6.3,67.6,3.9c-8.4-2.3-14.8-3.5-19.4-3.5
	c-1.8,0-3,0.2-3.5,0.7c-0.8,0.7-1.1,2.3-0.9,4.9c0.2,3.1,0.1,5.3-0.1,6.4L32.5,51h24.1C58.5,45,60.2,40.6,61.7,37z"/>
<path d="M156,47.9c10.1-9,15.2-17.3,15.2-24.9c0-1.3-0.2-2.6-0.6-3.8c-0.5-1.6-1.6-3.2-3.3-4.6c-3-2.4-4.6-3.7-4.8-3.9
	c-0.7-0.7-1.9-2.4-3.6-5.2c-1.3-2-2.8-3.4-4.4-4.3c-1.6-0.8-3.8-1.2-6.7-1.2c-4.9,0-10.8,1.1-17.7,3.4c-6.9,2.3-12.6,4.8-17.1,7.7
	c-1.4-0.4-3.4-0.6-5.3-0.6c-4.2,0-6.6,0.8-6.6,2.3V51h58.7C158.5,50,157.3,48.9,156,47.9z M142,31.6c-4.5,5.1-10,10.1-16,15v-15
	c2-2.1,4.8-4.3,9.6-6.6c4.7-2.3,8.2-3.5,10.4-3.5c0.9,0,1.4,0.2,1.6,0.6C148.3,23.3,146.5,26.5,142,31.6z"/>
<path d="M101,106.4c0,0.2,0.2,0.7,0.1,1C97.4,97.9,94,84,90.3,65h-25c0.3,1,0.5,2.5,0.9,4.1c-8.7,1.9-13.9,3.4-15.7,4.1
	c0.1-1.4,0.8-4.2,2-8.2H28.5l-3.4,11.3c-5.7,3-8.6,5-8.8,6.1c-0.1,0.6-0.1,1.1-0.1,1.5c0,2,1,4,3,6c-0.5,1.7-2.3,6.4-5.3,14.1
	c-2.2,5.3-3.1,8.6-2.7,10c0.2,0.8,3,2.4,8.4,4.8c5.4,2.4,9.3,3.6,11.6,3.6c0.6,0,1-0.1,1.3-0.3c1.3-0.8,2.2-1.8,2.5-3
	c0.3-1.2,0.6-2.5,0.9-3.8c2.4-6.1,4.3-11.2,5.8-15.3c2.1-1.4,6.7-3.2,13.7-5.4c7-2.2,12.4-3.5,16-4c1.3,4.2,2.5,9.6,3.6,16
	c0.8,4.9,1.5,7.8,2.3,8.7c1.8,2.1,5.3,3.9,10.4,5.5c4.7,1.6,8.7,2.5,11.8,2.5c1.2,0,2-0.1,2.5-0.4c0.7-0.9,1.1-2.2,1.2-3.9
	c0.2-1.8,0.3-3.2,0.4-4.2c2,1.4,5,3.2,9,5.3c7.3,3.9,12.4,6,15.3,6.4c2.6,0.4,7.6-2.1,14.9-7.4c8-5.9,14.7-12.5,20.2-19.9
	c6.8-9.2,10.3-17.9,10.3-25.9c0-1.4-0.1-2.7-0.3-4.2c-0.2-1.4-0.7-3.2-1.4-4.2H101V106.4z M126,76.1c4-2.5,7.6-5.1,14-7.7
	c6-2.3,10.2-3.5,12.7-3.6c0.6,6-2.2,13.4-8.3,22.2c-6.1,8.9-11.5,14.2-18.5,15.9V76.1z"/>
<polygon fill="#FF0000" points="187,51 159.7,51 101.5,51 87.8,51 62.9,51 56.7,51 32.5,51 0,51 0,65 28.5,65 52.4,65 65.3,65 
	90.3,65 101.5,65 171.6,65 187,65 "/>
</svg>
